G04 #@! TF.GenerationSoftware,KiCad,Pcbnew,8.0.8*
G04 #@! TF.CreationDate,2025-03-12T12:01:23+11:00*
G04 #@! TF.ProjectId,PCB_BackDesign,5043425f-4261-4636-9b44-657369676e2e,rev?*
G04 #@! TF.SameCoordinates,Original*
G04 #@! TF.FileFunction,Legend,Bot*
G04 #@! TF.FilePolarity,Positive*
%FSLAX46Y46*%
G04 Gerber Fmt 4.6, Leading zero omitted, Abs format (unit mm)*
G04 Created by KiCad (PCBNEW 8.0.8) date 2025-03-12 12:01:23*
%MOMM*%
%LPD*%
G01*
G04 APERTURE LIST*
G04 Aperture macros list*
%AMRoundRect*
0 Rectangle with rounded corners*
0 $1 Rounding radius*
0 $2 $3 $4 $5 $6 $7 $8 $9 X,Y pos of 4 corners*
0 Add a 4 corners polygon primitive as box body*
4,1,4,$2,$3,$4,$5,$6,$7,$8,$9,$2,$3,0*
0 Add four circle primitives for the rounded corners*
1,1,$1+$1,$2,$3*
1,1,$1+$1,$4,$5*
1,1,$1+$1,$6,$7*
1,1,$1+$1,$8,$9*
0 Add four rect primitives between the rounded corners*
20,1,$1+$1,$2,$3,$4,$5,0*
20,1,$1+$1,$4,$5,$6,$7,0*
20,1,$1+$1,$6,$7,$8,$9,0*
20,1,$1+$1,$8,$9,$2,$3,0*%
G04 Aperture macros list end*
%ADD10C,0.300000*%
%ADD11C,0.150000*%
%ADD12C,0.508000*%
%ADD13C,0.120000*%
%ADD14C,1.727200*%
%ADD15RoundRect,0.200000X-0.200000X-0.450000X0.200000X-0.450000X0.200000X0.450000X-0.200000X0.450000X0*%
%ADD16O,0.800000X1.300000*%
%ADD17RoundRect,0.250000X0.625000X-0.350000X0.625000X0.350000X-0.625000X0.350000X-0.625000X-0.350000X0*%
%ADD18O,1.750000X1.200000*%
G04 APERTURE END LIST*
D10*
X156809525Y-78489638D02*
X156809525Y-76489638D01*
X156809525Y-76489638D02*
X155666668Y-78489638D01*
X155666668Y-78489638D02*
X155666668Y-76489638D01*
X154714287Y-76489638D02*
X154714287Y-78108685D01*
X154714287Y-78108685D02*
X154619049Y-78299161D01*
X154619049Y-78299161D02*
X154523811Y-78394400D01*
X154523811Y-78394400D02*
X154333335Y-78489638D01*
X154333335Y-78489638D02*
X153952382Y-78489638D01*
X153952382Y-78489638D02*
X153761906Y-78394400D01*
X153761906Y-78394400D02*
X153666668Y-78299161D01*
X153666668Y-78299161D02*
X153571430Y-78108685D01*
X153571430Y-78108685D02*
X153571430Y-76489638D01*
X151761906Y-77156304D02*
X151761906Y-78775352D01*
X151761906Y-78775352D02*
X151857144Y-78965828D01*
X151857144Y-78965828D02*
X151952382Y-79061066D01*
X151952382Y-79061066D02*
X152142859Y-79156304D01*
X152142859Y-79156304D02*
X152428573Y-79156304D01*
X152428573Y-79156304D02*
X152619049Y-79061066D01*
X151761906Y-78394400D02*
X151952382Y-78489638D01*
X151952382Y-78489638D02*
X152333335Y-78489638D01*
X152333335Y-78489638D02*
X152523811Y-78394400D01*
X152523811Y-78394400D02*
X152619049Y-78299161D01*
X152619049Y-78299161D02*
X152714287Y-78108685D01*
X152714287Y-78108685D02*
X152714287Y-77537257D01*
X152714287Y-77537257D02*
X152619049Y-77346780D01*
X152619049Y-77346780D02*
X152523811Y-77251542D01*
X152523811Y-77251542D02*
X152333335Y-77156304D01*
X152333335Y-77156304D02*
X151952382Y-77156304D01*
X151952382Y-77156304D02*
X151761906Y-77251542D01*
X149952382Y-77156304D02*
X149952382Y-78489638D01*
X150809525Y-77156304D02*
X150809525Y-78203923D01*
X150809525Y-78203923D02*
X150714287Y-78394400D01*
X150714287Y-78394400D02*
X150523811Y-78489638D01*
X150523811Y-78489638D02*
X150238096Y-78489638D01*
X150238096Y-78489638D02*
X150047620Y-78394400D01*
X150047620Y-78394400D02*
X149952382Y-78299161D01*
X149095239Y-78394400D02*
X148904763Y-78489638D01*
X148904763Y-78489638D02*
X148523811Y-78489638D01*
X148523811Y-78489638D02*
X148333334Y-78394400D01*
X148333334Y-78394400D02*
X148238096Y-78203923D01*
X148238096Y-78203923D02*
X148238096Y-78108685D01*
X148238096Y-78108685D02*
X148333334Y-77918209D01*
X148333334Y-77918209D02*
X148523811Y-77822971D01*
X148523811Y-77822971D02*
X148809525Y-77822971D01*
X148809525Y-77822971D02*
X149000001Y-77727733D01*
X149000001Y-77727733D02*
X149095239Y-77537257D01*
X149095239Y-77537257D02*
X149095239Y-77442019D01*
X149095239Y-77442019D02*
X149000001Y-77251542D01*
X149000001Y-77251542D02*
X148809525Y-77156304D01*
X148809525Y-77156304D02*
X148523811Y-77156304D01*
X148523811Y-77156304D02*
X148333334Y-77251542D01*
X145190476Y-77442019D02*
X144904762Y-77537257D01*
X144904762Y-77537257D02*
X144809524Y-77632495D01*
X144809524Y-77632495D02*
X144714286Y-77822971D01*
X144714286Y-77822971D02*
X144714286Y-78108685D01*
X144714286Y-78108685D02*
X144809524Y-78299161D01*
X144809524Y-78299161D02*
X144904762Y-78394400D01*
X144904762Y-78394400D02*
X145095238Y-78489638D01*
X145095238Y-78489638D02*
X145857143Y-78489638D01*
X145857143Y-78489638D02*
X145857143Y-76489638D01*
X145857143Y-76489638D02*
X145190476Y-76489638D01*
X145190476Y-76489638D02*
X145000000Y-76584876D01*
X145000000Y-76584876D02*
X144904762Y-76680114D01*
X144904762Y-76680114D02*
X144809524Y-76870590D01*
X144809524Y-76870590D02*
X144809524Y-77061066D01*
X144809524Y-77061066D02*
X144904762Y-77251542D01*
X144904762Y-77251542D02*
X145000000Y-77346780D01*
X145000000Y-77346780D02*
X145190476Y-77442019D01*
X145190476Y-77442019D02*
X145857143Y-77442019D01*
X143000000Y-78489638D02*
X143000000Y-77442019D01*
X143000000Y-77442019D02*
X143095238Y-77251542D01*
X143095238Y-77251542D02*
X143285714Y-77156304D01*
X143285714Y-77156304D02*
X143666667Y-77156304D01*
X143666667Y-77156304D02*
X143857143Y-77251542D01*
X143000000Y-78394400D02*
X143190476Y-78489638D01*
X143190476Y-78489638D02*
X143666667Y-78489638D01*
X143666667Y-78489638D02*
X143857143Y-78394400D01*
X143857143Y-78394400D02*
X143952381Y-78203923D01*
X143952381Y-78203923D02*
X143952381Y-78013447D01*
X143952381Y-78013447D02*
X143857143Y-77822971D01*
X143857143Y-77822971D02*
X143666667Y-77727733D01*
X143666667Y-77727733D02*
X143190476Y-77727733D01*
X143190476Y-77727733D02*
X143000000Y-77632495D01*
X141190476Y-78394400D02*
X141380952Y-78489638D01*
X141380952Y-78489638D02*
X141761905Y-78489638D01*
X141761905Y-78489638D02*
X141952381Y-78394400D01*
X141952381Y-78394400D02*
X142047619Y-78299161D01*
X142047619Y-78299161D02*
X142142857Y-78108685D01*
X142142857Y-78108685D02*
X142142857Y-77537257D01*
X142142857Y-77537257D02*
X142047619Y-77346780D01*
X142047619Y-77346780D02*
X141952381Y-77251542D01*
X141952381Y-77251542D02*
X141761905Y-77156304D01*
X141761905Y-77156304D02*
X141380952Y-77156304D01*
X141380952Y-77156304D02*
X141190476Y-77251542D01*
X140333333Y-78489638D02*
X140333333Y-76489638D01*
X140142857Y-77727733D02*
X139571428Y-78489638D01*
X139571428Y-77156304D02*
X140333333Y-77918209D01*
X137190475Y-78489638D02*
X137190475Y-76489638D01*
X137190475Y-76489638D02*
X136428570Y-76489638D01*
X136428570Y-76489638D02*
X136238094Y-76584876D01*
X136238094Y-76584876D02*
X136142856Y-76680114D01*
X136142856Y-76680114D02*
X136047618Y-76870590D01*
X136047618Y-76870590D02*
X136047618Y-77156304D01*
X136047618Y-77156304D02*
X136142856Y-77346780D01*
X136142856Y-77346780D02*
X136238094Y-77442019D01*
X136238094Y-77442019D02*
X136428570Y-77537257D01*
X136428570Y-77537257D02*
X137190475Y-77537257D01*
X134333332Y-78489638D02*
X134333332Y-77442019D01*
X134333332Y-77442019D02*
X134428570Y-77251542D01*
X134428570Y-77251542D02*
X134619046Y-77156304D01*
X134619046Y-77156304D02*
X134999999Y-77156304D01*
X134999999Y-77156304D02*
X135190475Y-77251542D01*
X134333332Y-78394400D02*
X134523808Y-78489638D01*
X134523808Y-78489638D02*
X134999999Y-78489638D01*
X134999999Y-78489638D02*
X135190475Y-78394400D01*
X135190475Y-78394400D02*
X135285713Y-78203923D01*
X135285713Y-78203923D02*
X135285713Y-78013447D01*
X135285713Y-78013447D02*
X135190475Y-77822971D01*
X135190475Y-77822971D02*
X134999999Y-77727733D01*
X134999999Y-77727733D02*
X134523808Y-77727733D01*
X134523808Y-77727733D02*
X134333332Y-77632495D01*
X133380951Y-77156304D02*
X133380951Y-78489638D01*
X133380951Y-77346780D02*
X133285713Y-77251542D01*
X133285713Y-77251542D02*
X133095237Y-77156304D01*
X133095237Y-77156304D02*
X132809522Y-77156304D01*
X132809522Y-77156304D02*
X132619046Y-77251542D01*
X132619046Y-77251542D02*
X132523808Y-77442019D01*
X132523808Y-77442019D02*
X132523808Y-78489638D01*
X130809522Y-78394400D02*
X130999998Y-78489638D01*
X130999998Y-78489638D02*
X131380951Y-78489638D01*
X131380951Y-78489638D02*
X131571427Y-78394400D01*
X131571427Y-78394400D02*
X131666665Y-78203923D01*
X131666665Y-78203923D02*
X131666665Y-77442019D01*
X131666665Y-77442019D02*
X131571427Y-77251542D01*
X131571427Y-77251542D02*
X131380951Y-77156304D01*
X131380951Y-77156304D02*
X130999998Y-77156304D01*
X130999998Y-77156304D02*
X130809522Y-77251542D01*
X130809522Y-77251542D02*
X130714284Y-77442019D01*
X130714284Y-77442019D02*
X130714284Y-77632495D01*
X130714284Y-77632495D02*
X131666665Y-77822971D01*
X129571427Y-78489638D02*
X129761903Y-78394400D01*
X129761903Y-78394400D02*
X129857141Y-78203923D01*
X129857141Y-78203923D02*
X129857141Y-76489638D01*
X127285712Y-78489638D02*
X127285712Y-76489638D01*
X125952379Y-76489638D02*
X125571426Y-76489638D01*
X125571426Y-76489638D02*
X125380950Y-76584876D01*
X125380950Y-76584876D02*
X125190474Y-76775352D01*
X125190474Y-76775352D02*
X125095236Y-77156304D01*
X125095236Y-77156304D02*
X125095236Y-77822971D01*
X125095236Y-77822971D02*
X125190474Y-78203923D01*
X125190474Y-78203923D02*
X125380950Y-78394400D01*
X125380950Y-78394400D02*
X125571426Y-78489638D01*
X125571426Y-78489638D02*
X125952379Y-78489638D01*
X125952379Y-78489638D02*
X126142855Y-78394400D01*
X126142855Y-78394400D02*
X126333331Y-78203923D01*
X126333331Y-78203923D02*
X126428569Y-77822971D01*
X126428569Y-77822971D02*
X126428569Y-77156304D01*
X126428569Y-77156304D02*
X126333331Y-76775352D01*
X126333331Y-76775352D02*
X126142855Y-76584876D01*
X126142855Y-76584876D02*
X125952379Y-76489638D01*
D11*
X158285714Y-80009875D02*
X158047619Y-81009875D01*
X158047619Y-81009875D02*
X157857143Y-80295589D01*
X157857143Y-80295589D02*
X157666667Y-81009875D01*
X157666667Y-81009875D02*
X157428572Y-80009875D01*
X157047619Y-81009875D02*
X157047619Y-80343208D01*
X157047619Y-80009875D02*
X157095238Y-80057494D01*
X157095238Y-80057494D02*
X157047619Y-80105113D01*
X157047619Y-80105113D02*
X157000000Y-80057494D01*
X157000000Y-80057494D02*
X157047619Y-80009875D01*
X157047619Y-80009875D02*
X157047619Y-80105113D01*
X156428572Y-81009875D02*
X156523810Y-80962256D01*
X156523810Y-80962256D02*
X156571429Y-80867017D01*
X156571429Y-80867017D02*
X156571429Y-80009875D01*
X155904762Y-81009875D02*
X156000000Y-80962256D01*
X156000000Y-80962256D02*
X156047619Y-80867017D01*
X156047619Y-80867017D02*
X156047619Y-80009875D01*
X155523809Y-81009875D02*
X155523809Y-80343208D01*
X155523809Y-80009875D02*
X155571428Y-80057494D01*
X155571428Y-80057494D02*
X155523809Y-80105113D01*
X155523809Y-80105113D02*
X155476190Y-80057494D01*
X155476190Y-80057494D02*
X155523809Y-80009875D01*
X155523809Y-80009875D02*
X155523809Y-80105113D01*
X154619048Y-81009875D02*
X154619048Y-80486065D01*
X154619048Y-80486065D02*
X154666667Y-80390827D01*
X154666667Y-80390827D02*
X154761905Y-80343208D01*
X154761905Y-80343208D02*
X154952381Y-80343208D01*
X154952381Y-80343208D02*
X155047619Y-80390827D01*
X154619048Y-80962256D02*
X154714286Y-81009875D01*
X154714286Y-81009875D02*
X154952381Y-81009875D01*
X154952381Y-81009875D02*
X155047619Y-80962256D01*
X155047619Y-80962256D02*
X155095238Y-80867017D01*
X155095238Y-80867017D02*
X155095238Y-80771779D01*
X155095238Y-80771779D02*
X155047619Y-80676541D01*
X155047619Y-80676541D02*
X154952381Y-80628922D01*
X154952381Y-80628922D02*
X154714286Y-80628922D01*
X154714286Y-80628922D02*
X154619048Y-80581303D01*
X154142857Y-81009875D02*
X154142857Y-80343208D01*
X154142857Y-80438446D02*
X154095238Y-80390827D01*
X154095238Y-80390827D02*
X154000000Y-80343208D01*
X154000000Y-80343208D02*
X153857143Y-80343208D01*
X153857143Y-80343208D02*
X153761905Y-80390827D01*
X153761905Y-80390827D02*
X153714286Y-80486065D01*
X153714286Y-80486065D02*
X153714286Y-81009875D01*
X153714286Y-80486065D02*
X153666667Y-80390827D01*
X153666667Y-80390827D02*
X153571429Y-80343208D01*
X153571429Y-80343208D02*
X153428572Y-80343208D01*
X153428572Y-80343208D02*
X153333333Y-80390827D01*
X153333333Y-80390827D02*
X153285714Y-80486065D01*
X153285714Y-80486065D02*
X153285714Y-81009875D01*
X151714286Y-80486065D02*
X151571429Y-80533684D01*
X151571429Y-80533684D02*
X151523810Y-80581303D01*
X151523810Y-80581303D02*
X151476191Y-80676541D01*
X151476191Y-80676541D02*
X151476191Y-80819398D01*
X151476191Y-80819398D02*
X151523810Y-80914636D01*
X151523810Y-80914636D02*
X151571429Y-80962256D01*
X151571429Y-80962256D02*
X151666667Y-81009875D01*
X151666667Y-81009875D02*
X152047619Y-81009875D01*
X152047619Y-81009875D02*
X152047619Y-80009875D01*
X152047619Y-80009875D02*
X151714286Y-80009875D01*
X151714286Y-80009875D02*
X151619048Y-80057494D01*
X151619048Y-80057494D02*
X151571429Y-80105113D01*
X151571429Y-80105113D02*
X151523810Y-80200351D01*
X151523810Y-80200351D02*
X151523810Y-80295589D01*
X151523810Y-80295589D02*
X151571429Y-80390827D01*
X151571429Y-80390827D02*
X151619048Y-80438446D01*
X151619048Y-80438446D02*
X151714286Y-80486065D01*
X151714286Y-80486065D02*
X152047619Y-80486065D01*
X150619048Y-80343208D02*
X150619048Y-81009875D01*
X151047619Y-80343208D02*
X151047619Y-80867017D01*
X151047619Y-80867017D02*
X151000000Y-80962256D01*
X151000000Y-80962256D02*
X150904762Y-81009875D01*
X150904762Y-81009875D02*
X150761905Y-81009875D01*
X150761905Y-81009875D02*
X150666667Y-80962256D01*
X150666667Y-80962256D02*
X150619048Y-80914636D01*
X150142857Y-81009875D02*
X150142857Y-80343208D01*
X150142857Y-80533684D02*
X150095238Y-80438446D01*
X150095238Y-80438446D02*
X150047619Y-80390827D01*
X150047619Y-80390827D02*
X149952381Y-80343208D01*
X149952381Y-80343208D02*
X149857143Y-80343208D01*
X149095238Y-80343208D02*
X149095238Y-81152732D01*
X149095238Y-81152732D02*
X149142857Y-81247970D01*
X149142857Y-81247970D02*
X149190476Y-81295589D01*
X149190476Y-81295589D02*
X149285714Y-81343208D01*
X149285714Y-81343208D02*
X149428571Y-81343208D01*
X149428571Y-81343208D02*
X149523809Y-81295589D01*
X149095238Y-80962256D02*
X149190476Y-81009875D01*
X149190476Y-81009875D02*
X149380952Y-81009875D01*
X149380952Y-81009875D02*
X149476190Y-80962256D01*
X149476190Y-80962256D02*
X149523809Y-80914636D01*
X149523809Y-80914636D02*
X149571428Y-80819398D01*
X149571428Y-80819398D02*
X149571428Y-80533684D01*
X149571428Y-80533684D02*
X149523809Y-80438446D01*
X149523809Y-80438446D02*
X149476190Y-80390827D01*
X149476190Y-80390827D02*
X149380952Y-80343208D01*
X149380952Y-80343208D02*
X149190476Y-80343208D01*
X149190476Y-80343208D02*
X149095238Y-80390827D01*
X148619047Y-81009875D02*
X148619047Y-80343208D01*
X148619047Y-80009875D02*
X148666666Y-80057494D01*
X148666666Y-80057494D02*
X148619047Y-80105113D01*
X148619047Y-80105113D02*
X148571428Y-80057494D01*
X148571428Y-80057494D02*
X148619047Y-80009875D01*
X148619047Y-80009875D02*
X148619047Y-80105113D01*
X148142857Y-80343208D02*
X148142857Y-81009875D01*
X148142857Y-80438446D02*
X148095238Y-80390827D01*
X148095238Y-80390827D02*
X148000000Y-80343208D01*
X148000000Y-80343208D02*
X147857143Y-80343208D01*
X147857143Y-80343208D02*
X147761905Y-80390827D01*
X147761905Y-80390827D02*
X147714286Y-80486065D01*
X147714286Y-80486065D02*
X147714286Y-81009875D01*
X146476190Y-80628922D02*
X145714286Y-80628922D01*
X144047619Y-80343208D02*
X144047619Y-81152732D01*
X144047619Y-81152732D02*
X144095238Y-81247970D01*
X144095238Y-81247970D02*
X144142857Y-81295589D01*
X144142857Y-81295589D02*
X144238095Y-81343208D01*
X144238095Y-81343208D02*
X144380952Y-81343208D01*
X144380952Y-81343208D02*
X144476190Y-81295589D01*
X144047619Y-80962256D02*
X144142857Y-81009875D01*
X144142857Y-81009875D02*
X144333333Y-81009875D01*
X144333333Y-81009875D02*
X144428571Y-80962256D01*
X144428571Y-80962256D02*
X144476190Y-80914636D01*
X144476190Y-80914636D02*
X144523809Y-80819398D01*
X144523809Y-80819398D02*
X144523809Y-80533684D01*
X144523809Y-80533684D02*
X144476190Y-80438446D01*
X144476190Y-80438446D02*
X144428571Y-80390827D01*
X144428571Y-80390827D02*
X144333333Y-80343208D01*
X144333333Y-80343208D02*
X144142857Y-80343208D01*
X144142857Y-80343208D02*
X144047619Y-80390827D01*
X143571428Y-81009875D02*
X143571428Y-80343208D01*
X143571428Y-80009875D02*
X143619047Y-80057494D01*
X143619047Y-80057494D02*
X143571428Y-80105113D01*
X143571428Y-80105113D02*
X143523809Y-80057494D01*
X143523809Y-80057494D02*
X143571428Y-80009875D01*
X143571428Y-80009875D02*
X143571428Y-80105113D01*
X143238095Y-80343208D02*
X142857143Y-80343208D01*
X143095238Y-80009875D02*
X143095238Y-80867017D01*
X143095238Y-80867017D02*
X143047619Y-80962256D01*
X143047619Y-80962256D02*
X142952381Y-81009875D01*
X142952381Y-81009875D02*
X142857143Y-81009875D01*
X142523809Y-81009875D02*
X142523809Y-80009875D01*
X142095238Y-81009875D02*
X142095238Y-80486065D01*
X142095238Y-80486065D02*
X142142857Y-80390827D01*
X142142857Y-80390827D02*
X142238095Y-80343208D01*
X142238095Y-80343208D02*
X142380952Y-80343208D01*
X142380952Y-80343208D02*
X142476190Y-80390827D01*
X142476190Y-80390827D02*
X142523809Y-80438446D01*
X141190476Y-80343208D02*
X141190476Y-81009875D01*
X141619047Y-80343208D02*
X141619047Y-80867017D01*
X141619047Y-80867017D02*
X141571428Y-80962256D01*
X141571428Y-80962256D02*
X141476190Y-81009875D01*
X141476190Y-81009875D02*
X141333333Y-81009875D01*
X141333333Y-81009875D02*
X141238095Y-80962256D01*
X141238095Y-80962256D02*
X141190476Y-80914636D01*
X140714285Y-81009875D02*
X140714285Y-80009875D01*
X140714285Y-80390827D02*
X140619047Y-80343208D01*
X140619047Y-80343208D02*
X140428571Y-80343208D01*
X140428571Y-80343208D02*
X140333333Y-80390827D01*
X140333333Y-80390827D02*
X140285714Y-80438446D01*
X140285714Y-80438446D02*
X140238095Y-80533684D01*
X140238095Y-80533684D02*
X140238095Y-80819398D01*
X140238095Y-80819398D02*
X140285714Y-80914636D01*
X140285714Y-80914636D02*
X140333333Y-80962256D01*
X140333333Y-80962256D02*
X140428571Y-81009875D01*
X140428571Y-81009875D02*
X140619047Y-81009875D01*
X140619047Y-81009875D02*
X140714285Y-80962256D01*
X139809523Y-80914636D02*
X139761904Y-80962256D01*
X139761904Y-80962256D02*
X139809523Y-81009875D01*
X139809523Y-81009875D02*
X139857142Y-80962256D01*
X139857142Y-80962256D02*
X139809523Y-80914636D01*
X139809523Y-80914636D02*
X139809523Y-81009875D01*
X138904762Y-80962256D02*
X139000000Y-81009875D01*
X139000000Y-81009875D02*
X139190476Y-81009875D01*
X139190476Y-81009875D02*
X139285714Y-80962256D01*
X139285714Y-80962256D02*
X139333333Y-80914636D01*
X139333333Y-80914636D02*
X139380952Y-80819398D01*
X139380952Y-80819398D02*
X139380952Y-80533684D01*
X139380952Y-80533684D02*
X139333333Y-80438446D01*
X139333333Y-80438446D02*
X139285714Y-80390827D01*
X139285714Y-80390827D02*
X139190476Y-80343208D01*
X139190476Y-80343208D02*
X139000000Y-80343208D01*
X139000000Y-80343208D02*
X138904762Y-80390827D01*
X138333333Y-81009875D02*
X138428571Y-80962256D01*
X138428571Y-80962256D02*
X138476190Y-80914636D01*
X138476190Y-80914636D02*
X138523809Y-80819398D01*
X138523809Y-80819398D02*
X138523809Y-80533684D01*
X138523809Y-80533684D02*
X138476190Y-80438446D01*
X138476190Y-80438446D02*
X138428571Y-80390827D01*
X138428571Y-80390827D02*
X138333333Y-80343208D01*
X138333333Y-80343208D02*
X138190476Y-80343208D01*
X138190476Y-80343208D02*
X138095238Y-80390827D01*
X138095238Y-80390827D02*
X138047619Y-80438446D01*
X138047619Y-80438446D02*
X138000000Y-80533684D01*
X138000000Y-80533684D02*
X138000000Y-80819398D01*
X138000000Y-80819398D02*
X138047619Y-80914636D01*
X138047619Y-80914636D02*
X138095238Y-80962256D01*
X138095238Y-80962256D02*
X138190476Y-81009875D01*
X138190476Y-81009875D02*
X138333333Y-81009875D01*
X137571428Y-81009875D02*
X137571428Y-80343208D01*
X137571428Y-80438446D02*
X137523809Y-80390827D01*
X137523809Y-80390827D02*
X137428571Y-80343208D01*
X137428571Y-80343208D02*
X137285714Y-80343208D01*
X137285714Y-80343208D02*
X137190476Y-80390827D01*
X137190476Y-80390827D02*
X137142857Y-80486065D01*
X137142857Y-80486065D02*
X137142857Y-81009875D01*
X137142857Y-80486065D02*
X137095238Y-80390827D01*
X137095238Y-80390827D02*
X137000000Y-80343208D01*
X137000000Y-80343208D02*
X136857143Y-80343208D01*
X136857143Y-80343208D02*
X136761904Y-80390827D01*
X136761904Y-80390827D02*
X136714285Y-80486065D01*
X136714285Y-80486065D02*
X136714285Y-81009875D01*
X135523810Y-79962256D02*
X136380952Y-81247970D01*
X135190476Y-81009875D02*
X135190476Y-80009875D01*
X135190476Y-80009875D02*
X134619048Y-81009875D01*
X134619048Y-81009875D02*
X134619048Y-80009875D01*
X134142857Y-80009875D02*
X134142857Y-80819398D01*
X134142857Y-80819398D02*
X134095238Y-80914636D01*
X134095238Y-80914636D02*
X134047619Y-80962256D01*
X134047619Y-80962256D02*
X133952381Y-81009875D01*
X133952381Y-81009875D02*
X133761905Y-81009875D01*
X133761905Y-81009875D02*
X133666667Y-80962256D01*
X133666667Y-80962256D02*
X133619048Y-80914636D01*
X133619048Y-80914636D02*
X133571429Y-80819398D01*
X133571429Y-80819398D02*
X133571429Y-80009875D01*
X133095238Y-81009875D02*
X133095238Y-80009875D01*
X133095238Y-80390827D02*
X133000000Y-80343208D01*
X133000000Y-80343208D02*
X132809524Y-80343208D01*
X132809524Y-80343208D02*
X132714286Y-80390827D01*
X132714286Y-80390827D02*
X132666667Y-80438446D01*
X132666667Y-80438446D02*
X132619048Y-80533684D01*
X132619048Y-80533684D02*
X132619048Y-80819398D01*
X132619048Y-80819398D02*
X132666667Y-80914636D01*
X132666667Y-80914636D02*
X132714286Y-80962256D01*
X132714286Y-80962256D02*
X132809524Y-81009875D01*
X132809524Y-81009875D02*
X133000000Y-81009875D01*
X133000000Y-81009875D02*
X133095238Y-80962256D01*
X132047619Y-81009875D02*
X132142857Y-80962256D01*
X132142857Y-80962256D02*
X132190476Y-80914636D01*
X132190476Y-80914636D02*
X132238095Y-80819398D01*
X132238095Y-80819398D02*
X132238095Y-80533684D01*
X132238095Y-80533684D02*
X132190476Y-80438446D01*
X132190476Y-80438446D02*
X132142857Y-80390827D01*
X132142857Y-80390827D02*
X132047619Y-80343208D01*
X132047619Y-80343208D02*
X131904762Y-80343208D01*
X131904762Y-80343208D02*
X131809524Y-80390827D01*
X131809524Y-80390827D02*
X131761905Y-80438446D01*
X131761905Y-80438446D02*
X131714286Y-80533684D01*
X131714286Y-80533684D02*
X131714286Y-80819398D01*
X131714286Y-80819398D02*
X131761905Y-80914636D01*
X131761905Y-80914636D02*
X131809524Y-80962256D01*
X131809524Y-80962256D02*
X131904762Y-81009875D01*
X131904762Y-81009875D02*
X132047619Y-81009875D01*
X131428571Y-80343208D02*
X131047619Y-80343208D01*
X131285714Y-80009875D02*
X131285714Y-80867017D01*
X131285714Y-80867017D02*
X131238095Y-80962256D01*
X131238095Y-80962256D02*
X131142857Y-81009875D01*
X131142857Y-81009875D02*
X131047619Y-81009875D01*
X130761904Y-80962256D02*
X130666666Y-81009875D01*
X130666666Y-81009875D02*
X130476190Y-81009875D01*
X130476190Y-81009875D02*
X130380952Y-80962256D01*
X130380952Y-80962256D02*
X130333333Y-80867017D01*
X130333333Y-80867017D02*
X130333333Y-80819398D01*
X130333333Y-80819398D02*
X130380952Y-80724160D01*
X130380952Y-80724160D02*
X130476190Y-80676541D01*
X130476190Y-80676541D02*
X130619047Y-80676541D01*
X130619047Y-80676541D02*
X130714285Y-80628922D01*
X130714285Y-80628922D02*
X130761904Y-80533684D01*
X130761904Y-80533684D02*
X130761904Y-80486065D01*
X130761904Y-80486065D02*
X130714285Y-80390827D01*
X130714285Y-80390827D02*
X130619047Y-80343208D01*
X130619047Y-80343208D02*
X130476190Y-80343208D01*
X130476190Y-80343208D02*
X130380952Y-80390827D01*
X129190476Y-79962256D02*
X130047618Y-81247970D01*
X128857142Y-81009875D02*
X128857142Y-80009875D01*
X128857142Y-80009875D02*
X128285714Y-81009875D01*
X128285714Y-81009875D02*
X128285714Y-80009875D01*
X127809523Y-80009875D02*
X127809523Y-80819398D01*
X127809523Y-80819398D02*
X127761904Y-80914636D01*
X127761904Y-80914636D02*
X127714285Y-80962256D01*
X127714285Y-80962256D02*
X127619047Y-81009875D01*
X127619047Y-81009875D02*
X127428571Y-81009875D01*
X127428571Y-81009875D02*
X127333333Y-80962256D01*
X127333333Y-80962256D02*
X127285714Y-80914636D01*
X127285714Y-80914636D02*
X127238095Y-80819398D01*
X127238095Y-80819398D02*
X127238095Y-80009875D01*
X126857142Y-80343208D02*
X126666666Y-81009875D01*
X126666666Y-81009875D02*
X126476190Y-80533684D01*
X126476190Y-80533684D02*
X126285714Y-81009875D01*
X126285714Y-81009875D02*
X126095238Y-80343208D01*
X125285714Y-81009875D02*
X125285714Y-80486065D01*
X125285714Y-80486065D02*
X125333333Y-80390827D01*
X125333333Y-80390827D02*
X125428571Y-80343208D01*
X125428571Y-80343208D02*
X125619047Y-80343208D01*
X125619047Y-80343208D02*
X125714285Y-80390827D01*
X125285714Y-80962256D02*
X125380952Y-81009875D01*
X125380952Y-81009875D02*
X125619047Y-81009875D01*
X125619047Y-81009875D02*
X125714285Y-80962256D01*
X125714285Y-80962256D02*
X125761904Y-80867017D01*
X125761904Y-80867017D02*
X125761904Y-80771779D01*
X125761904Y-80771779D02*
X125714285Y-80676541D01*
X125714285Y-80676541D02*
X125619047Y-80628922D01*
X125619047Y-80628922D02*
X125380952Y-80628922D01*
X125380952Y-80628922D02*
X125285714Y-80581303D01*
X124809523Y-81009875D02*
X124809523Y-80343208D01*
X124809523Y-80533684D02*
X124761904Y-80438446D01*
X124761904Y-80438446D02*
X124714285Y-80390827D01*
X124714285Y-80390827D02*
X124619047Y-80343208D01*
X124619047Y-80343208D02*
X124523809Y-80343208D01*
X123809523Y-80962256D02*
X123904761Y-81009875D01*
X123904761Y-81009875D02*
X124095237Y-81009875D01*
X124095237Y-81009875D02*
X124190475Y-80962256D01*
X124190475Y-80962256D02*
X124238094Y-80867017D01*
X124238094Y-80867017D02*
X124238094Y-80486065D01*
X124238094Y-80486065D02*
X124190475Y-80390827D01*
X124190475Y-80390827D02*
X124095237Y-80343208D01*
X124095237Y-80343208D02*
X123904761Y-80343208D01*
X123904761Y-80343208D02*
X123809523Y-80390827D01*
X123809523Y-80390827D02*
X123761904Y-80486065D01*
X123761904Y-80486065D02*
X123761904Y-80581303D01*
X123761904Y-80581303D02*
X124238094Y-80676541D01*
X148190475Y-81953152D02*
X147952380Y-82619819D01*
X147952380Y-82619819D02*
X147714285Y-81953152D01*
X146809523Y-82619819D02*
X147380951Y-82619819D01*
X147095237Y-82619819D02*
X147095237Y-81619819D01*
X147095237Y-81619819D02*
X147190475Y-81762676D01*
X147190475Y-81762676D02*
X147285713Y-81857914D01*
X147285713Y-81857914D02*
X147380951Y-81905533D01*
X146380951Y-82524580D02*
X146333332Y-82572200D01*
X146333332Y-82572200D02*
X146380951Y-82619819D01*
X146380951Y-82619819D02*
X146428570Y-82572200D01*
X146428570Y-82572200D02*
X146380951Y-82524580D01*
X146380951Y-82524580D02*
X146380951Y-82619819D01*
X145714285Y-81619819D02*
X145619047Y-81619819D01*
X145619047Y-81619819D02*
X145523809Y-81667438D01*
X145523809Y-81667438D02*
X145476190Y-81715057D01*
X145476190Y-81715057D02*
X145428571Y-81810295D01*
X145428571Y-81810295D02*
X145380952Y-82000771D01*
X145380952Y-82000771D02*
X145380952Y-82238866D01*
X145380952Y-82238866D02*
X145428571Y-82429342D01*
X145428571Y-82429342D02*
X145476190Y-82524580D01*
X145476190Y-82524580D02*
X145523809Y-82572200D01*
X145523809Y-82572200D02*
X145619047Y-82619819D01*
X145619047Y-82619819D02*
X145714285Y-82619819D01*
X145714285Y-82619819D02*
X145809523Y-82572200D01*
X145809523Y-82572200D02*
X145857142Y-82524580D01*
X145857142Y-82524580D02*
X145904761Y-82429342D01*
X145904761Y-82429342D02*
X145952380Y-82238866D01*
X145952380Y-82238866D02*
X145952380Y-82000771D01*
X145952380Y-82000771D02*
X145904761Y-81810295D01*
X145904761Y-81810295D02*
X145857142Y-81715057D01*
X145857142Y-81715057D02*
X145809523Y-81667438D01*
X145809523Y-81667438D02*
X145714285Y-81619819D01*
X144190475Y-82238866D02*
X143428571Y-82238866D01*
X142238094Y-81715057D02*
X142190475Y-81667438D01*
X142190475Y-81667438D02*
X142095237Y-81619819D01*
X142095237Y-81619819D02*
X141857142Y-81619819D01*
X141857142Y-81619819D02*
X141761904Y-81667438D01*
X141761904Y-81667438D02*
X141714285Y-81715057D01*
X141714285Y-81715057D02*
X141666666Y-81810295D01*
X141666666Y-81810295D02*
X141666666Y-81905533D01*
X141666666Y-81905533D02*
X141714285Y-82048390D01*
X141714285Y-82048390D02*
X142285713Y-82619819D01*
X142285713Y-82619819D02*
X141666666Y-82619819D01*
X140714285Y-82619819D02*
X141285713Y-82619819D01*
X140999999Y-82619819D02*
X140999999Y-81619819D01*
X140999999Y-81619819D02*
X141095237Y-81762676D01*
X141095237Y-81762676D02*
X141190475Y-81857914D01*
X141190475Y-81857914D02*
X141285713Y-81905533D01*
X139571428Y-81572200D02*
X140428570Y-82857914D01*
X139285713Y-81715057D02*
X139238094Y-81667438D01*
X139238094Y-81667438D02*
X139142856Y-81619819D01*
X139142856Y-81619819D02*
X138904761Y-81619819D01*
X138904761Y-81619819D02*
X138809523Y-81667438D01*
X138809523Y-81667438D02*
X138761904Y-81715057D01*
X138761904Y-81715057D02*
X138714285Y-81810295D01*
X138714285Y-81810295D02*
X138714285Y-81905533D01*
X138714285Y-81905533D02*
X138761904Y-82048390D01*
X138761904Y-82048390D02*
X139333332Y-82619819D01*
X139333332Y-82619819D02*
X138714285Y-82619819D01*
X137571428Y-81572200D02*
X138428570Y-82857914D01*
X137285713Y-81715057D02*
X137238094Y-81667438D01*
X137238094Y-81667438D02*
X137142856Y-81619819D01*
X137142856Y-81619819D02*
X136904761Y-81619819D01*
X136904761Y-81619819D02*
X136809523Y-81667438D01*
X136809523Y-81667438D02*
X136761904Y-81715057D01*
X136761904Y-81715057D02*
X136714285Y-81810295D01*
X136714285Y-81810295D02*
X136714285Y-81905533D01*
X136714285Y-81905533D02*
X136761904Y-82048390D01*
X136761904Y-82048390D02*
X137333332Y-82619819D01*
X137333332Y-82619819D02*
X136714285Y-82619819D01*
X136095237Y-81619819D02*
X135999999Y-81619819D01*
X135999999Y-81619819D02*
X135904761Y-81667438D01*
X135904761Y-81667438D02*
X135857142Y-81715057D01*
X135857142Y-81715057D02*
X135809523Y-81810295D01*
X135809523Y-81810295D02*
X135761904Y-82000771D01*
X135761904Y-82000771D02*
X135761904Y-82238866D01*
X135761904Y-82238866D02*
X135809523Y-82429342D01*
X135809523Y-82429342D02*
X135857142Y-82524580D01*
X135857142Y-82524580D02*
X135904761Y-82572200D01*
X135904761Y-82572200D02*
X135999999Y-82619819D01*
X135999999Y-82619819D02*
X136095237Y-82619819D01*
X136095237Y-82619819D02*
X136190475Y-82572200D01*
X136190475Y-82572200D02*
X136238094Y-82524580D01*
X136238094Y-82524580D02*
X136285713Y-82429342D01*
X136285713Y-82429342D02*
X136333332Y-82238866D01*
X136333332Y-82238866D02*
X136333332Y-82000771D01*
X136333332Y-82000771D02*
X136285713Y-81810295D01*
X136285713Y-81810295D02*
X136238094Y-81715057D01*
X136238094Y-81715057D02*
X136190475Y-81667438D01*
X136190475Y-81667438D02*
X136095237Y-81619819D01*
X135380951Y-81715057D02*
X135333332Y-81667438D01*
X135333332Y-81667438D02*
X135238094Y-81619819D01*
X135238094Y-81619819D02*
X134999999Y-81619819D01*
X134999999Y-81619819D02*
X134904761Y-81667438D01*
X134904761Y-81667438D02*
X134857142Y-81715057D01*
X134857142Y-81715057D02*
X134809523Y-81810295D01*
X134809523Y-81810295D02*
X134809523Y-81905533D01*
X134809523Y-81905533D02*
X134857142Y-82048390D01*
X134857142Y-82048390D02*
X135428570Y-82619819D01*
X135428570Y-82619819D02*
X134809523Y-82619819D01*
X133904761Y-81619819D02*
X134380951Y-81619819D01*
X134380951Y-81619819D02*
X134428570Y-82096009D01*
X134428570Y-82096009D02*
X134380951Y-82048390D01*
X134380951Y-82048390D02*
X134285713Y-82000771D01*
X134285713Y-82000771D02*
X134047618Y-82000771D01*
X134047618Y-82000771D02*
X133952380Y-82048390D01*
X133952380Y-82048390D02*
X133904761Y-82096009D01*
X133904761Y-82096009D02*
X133857142Y-82191247D01*
X133857142Y-82191247D02*
X133857142Y-82429342D01*
X133857142Y-82429342D02*
X133904761Y-82524580D01*
X133904761Y-82524580D02*
X133952380Y-82572200D01*
X133952380Y-82572200D02*
X134047618Y-82619819D01*
X134047618Y-82619819D02*
X134285713Y-82619819D01*
X134285713Y-82619819D02*
X134380951Y-82572200D01*
X134380951Y-82572200D02*
X134428570Y-82524580D01*
X123463333Y-73704819D02*
X123463333Y-74419104D01*
X123463333Y-74419104D02*
X123510952Y-74561961D01*
X123510952Y-74561961D02*
X123606190Y-74657200D01*
X123606190Y-74657200D02*
X123749047Y-74704819D01*
X123749047Y-74704819D02*
X123844285Y-74704819D01*
X122463333Y-74704819D02*
X123034761Y-74704819D01*
X122749047Y-74704819D02*
X122749047Y-73704819D01*
X122749047Y-73704819D02*
X122844285Y-73847676D01*
X122844285Y-73847676D02*
X122939523Y-73942914D01*
X122939523Y-73942914D02*
X123034761Y-73990533D01*
X157833333Y-73704819D02*
X157833333Y-74419104D01*
X157833333Y-74419104D02*
X157880952Y-74561961D01*
X157880952Y-74561961D02*
X157976190Y-74657200D01*
X157976190Y-74657200D02*
X158119047Y-74704819D01*
X158119047Y-74704819D02*
X158214285Y-74704819D01*
X157404761Y-73800057D02*
X157357142Y-73752438D01*
X157357142Y-73752438D02*
X157261904Y-73704819D01*
X157261904Y-73704819D02*
X157023809Y-73704819D01*
X157023809Y-73704819D02*
X156928571Y-73752438D01*
X156928571Y-73752438D02*
X156880952Y-73800057D01*
X156880952Y-73800057D02*
X156833333Y-73895295D01*
X156833333Y-73895295D02*
X156833333Y-73990533D01*
X156833333Y-73990533D02*
X156880952Y-74133390D01*
X156880952Y-74133390D02*
X157452380Y-74704819D01*
X157452380Y-74704819D02*
X156833333Y-74704819D01*
X120333333Y-82204819D02*
X120333333Y-82919104D01*
X120333333Y-82919104D02*
X120380952Y-83061961D01*
X120380952Y-83061961D02*
X120476190Y-83157200D01*
X120476190Y-83157200D02*
X120619047Y-83204819D01*
X120619047Y-83204819D02*
X120714285Y-83204819D01*
X119428571Y-82538152D02*
X119428571Y-83204819D01*
X119666666Y-82157200D02*
X119904761Y-82871485D01*
X119904761Y-82871485D02*
X119285714Y-82871485D01*
X162833333Y-82204819D02*
X162833333Y-82919104D01*
X162833333Y-82919104D02*
X162880952Y-83061961D01*
X162880952Y-83061961D02*
X162976190Y-83157200D01*
X162976190Y-83157200D02*
X163119047Y-83204819D01*
X163119047Y-83204819D02*
X163214285Y-83204819D01*
X162452380Y-82204819D02*
X161833333Y-82204819D01*
X161833333Y-82204819D02*
X162166666Y-82585771D01*
X162166666Y-82585771D02*
X162023809Y-82585771D01*
X162023809Y-82585771D02*
X161928571Y-82633390D01*
X161928571Y-82633390D02*
X161880952Y-82681009D01*
X161880952Y-82681009D02*
X161833333Y-82776247D01*
X161833333Y-82776247D02*
X161833333Y-83014342D01*
X161833333Y-83014342D02*
X161880952Y-83109580D01*
X161880952Y-83109580D02*
X161928571Y-83157200D01*
X161928571Y-83157200D02*
X162023809Y-83204819D01*
X162023809Y-83204819D02*
X162309523Y-83204819D01*
X162309523Y-83204819D02*
X162404761Y-83157200D01*
X162404761Y-83157200D02*
X162452380Y-83109580D01*
D12*
X130610600Y-93543800D02*
G75*
G02*
X129848600Y-93543800I-381000J0D01*
G01*
X129848600Y-93543800D02*
G75*
G02*
X130610600Y-93543800I381000J0D01*
G01*
X147954400Y-93580000D02*
G75*
G02*
X147192400Y-93580000I-381000J0D01*
G01*
X147192400Y-93580000D02*
G75*
G02*
X147954400Y-93580000I381000J0D01*
G01*
X165454400Y-93543800D02*
G75*
G02*
X164692400Y-93543800I-381000J0D01*
G01*
X164692400Y-93543800D02*
G75*
G02*
X165454400Y-93543800I381000J0D01*
G01*
D13*
X116850000Y-70450000D02*
X116850000Y-69450000D01*
X117140000Y-69740000D02*
X117140000Y-73160000D01*
X117140000Y-73160000D02*
X129110000Y-73160000D01*
X117450000Y-71000000D02*
X117650000Y-71000000D01*
X117450000Y-71800000D02*
X117450000Y-71000000D01*
X117650000Y-70250000D02*
X123125000Y-70250000D01*
X117650000Y-71000000D02*
X117650000Y-70250000D01*
X117650000Y-71800000D02*
X117450000Y-71800000D01*
X117650000Y-72650000D02*
X117650000Y-71800000D01*
X117850000Y-69450000D02*
X116850000Y-69450000D01*
X123125000Y-72650000D02*
X117650000Y-72650000D01*
X123125000Y-72650000D02*
X128600000Y-72650000D01*
X128600000Y-70250000D02*
X123125000Y-70250000D01*
X128600000Y-71000000D02*
X128600000Y-70250000D01*
X128600000Y-71800000D02*
X128800000Y-71800000D01*
X128600000Y-72650000D02*
X128600000Y-71800000D01*
X128800000Y-71000000D02*
X128600000Y-71000000D01*
X128800000Y-71800000D02*
X128800000Y-71000000D01*
X129110000Y-69740000D02*
X117140000Y-69740000D01*
X129110000Y-73160000D02*
X129110000Y-69740000D01*
X150600000Y-70450000D02*
X150600000Y-69450000D01*
X150890000Y-69740000D02*
X150890000Y-73160000D01*
X150890000Y-73160000D02*
X164110000Y-73160000D01*
X151200000Y-71000000D02*
X151400000Y-71000000D01*
X151200000Y-71800000D02*
X151200000Y-71000000D01*
X151400000Y-70250000D02*
X157500000Y-70250000D01*
X151400000Y-71000000D02*
X151400000Y-70250000D01*
X151400000Y-71800000D02*
X151200000Y-71800000D01*
X151400000Y-72650000D02*
X151400000Y-71800000D01*
X151600000Y-69450000D02*
X150600000Y-69450000D01*
X157500000Y-72650000D02*
X151400000Y-72650000D01*
X157500000Y-72650000D02*
X163600000Y-72650000D01*
X163600000Y-70250000D02*
X157500000Y-70250000D01*
X163600000Y-71000000D02*
X163600000Y-70250000D01*
X163600000Y-71800000D02*
X163800000Y-71800000D01*
X163600000Y-72650000D02*
X163600000Y-71800000D01*
X163800000Y-71000000D02*
X163600000Y-71000000D01*
X163800000Y-71800000D02*
X163800000Y-71000000D01*
X164110000Y-69740000D02*
X150890000Y-69740000D01*
X164110000Y-73160000D02*
X164110000Y-69740000D01*
X117090000Y-75440000D02*
X117090000Y-81560000D01*
X117090000Y-81560000D02*
X121810000Y-81560000D01*
X117700000Y-76050000D02*
X117700000Y-80950000D01*
X117700000Y-78400000D02*
X118200000Y-78400000D01*
X117700000Y-80950000D02*
X121200000Y-80950000D01*
X118200000Y-78400000D02*
X118200000Y-78600000D01*
X118200000Y-78500000D02*
X117700000Y-78500000D01*
X118200000Y-78600000D02*
X117700000Y-78600000D01*
X119200000Y-76050000D02*
X119200000Y-75440000D01*
X119200000Y-80950000D02*
X119200000Y-81560000D01*
X120500000Y-76050000D02*
X120500000Y-75440000D01*
X120500000Y-80950000D02*
X120500000Y-81560000D01*
X120860000Y-81860000D02*
X122110000Y-81860000D01*
X121200000Y-76050000D02*
X117700000Y-76050000D01*
X121200000Y-78000000D02*
X121200000Y-76050000D01*
X121200000Y-79000000D02*
X121810000Y-79000000D01*
X121200000Y-80950000D02*
X121200000Y-79000000D01*
X121810000Y-75440000D02*
X117090000Y-75440000D01*
X121810000Y-78000000D02*
X121200000Y-78000000D01*
X121810000Y-80100000D02*
X122010000Y-80100000D01*
X121810000Y-81560000D02*
X121810000Y-75440000D01*
X121910000Y-80100000D02*
X121910000Y-79800000D01*
X122010000Y-79800000D02*
X121810000Y-79800000D01*
X122010000Y-80100000D02*
X122010000Y-79800000D01*
X122110000Y-81860000D02*
X122110000Y-80610000D01*
X159590000Y-75440000D02*
X159590000Y-81560000D01*
X159590000Y-81560000D02*
X164310000Y-81560000D01*
X160200000Y-76050000D02*
X160200000Y-80950000D01*
X160200000Y-78400000D02*
X160700000Y-78400000D01*
X160200000Y-80950000D02*
X163700000Y-80950000D01*
X160700000Y-78400000D02*
X160700000Y-78600000D01*
X160700000Y-78500000D02*
X160200000Y-78500000D01*
X160700000Y-78600000D02*
X160200000Y-78600000D01*
X161700000Y-76050000D02*
X161700000Y-75440000D01*
X161700000Y-80950000D02*
X161700000Y-81560000D01*
X163000000Y-76050000D02*
X163000000Y-75440000D01*
X163000000Y-80950000D02*
X163000000Y-81560000D01*
X163360000Y-81860000D02*
X164610000Y-81860000D01*
X163700000Y-76050000D02*
X160200000Y-76050000D01*
X163700000Y-78000000D02*
X163700000Y-76050000D01*
X163700000Y-79000000D02*
X164310000Y-79000000D01*
X163700000Y-80950000D02*
X163700000Y-79000000D01*
X164310000Y-75440000D02*
X159590000Y-75440000D01*
X164310000Y-78000000D02*
X163700000Y-78000000D01*
X164310000Y-80100000D02*
X164510000Y-80100000D01*
X164310000Y-81560000D02*
X164310000Y-75440000D01*
X164410000Y-80100000D02*
X164410000Y-79800000D01*
X164510000Y-79800000D02*
X164310000Y-79800000D01*
X164510000Y-80100000D02*
X164510000Y-79800000D01*
X164610000Y-81860000D02*
X164610000Y-80610000D01*
%LPC*%
D14*
X127156200Y-93543800D03*
X122000000Y-88463800D03*
X119536200Y-91080000D03*
X127156200Y-86000000D03*
X144500000Y-93580000D03*
X139343800Y-88500000D03*
X136880000Y-91116200D03*
X144500000Y-86036200D03*
X162000000Y-93543800D03*
X156843800Y-88463800D03*
X154380000Y-91080000D03*
X162000000Y-86000000D03*
D15*
X118750000Y-71000000D03*
D16*
X120000000Y-71000000D03*
X121250000Y-71000000D03*
X122500000Y-71000000D03*
X123750000Y-71000000D03*
X125000000Y-71000000D03*
X126250000Y-71000000D03*
X127500000Y-71000000D03*
D15*
X152500000Y-71000000D03*
D16*
X153750000Y-71000000D03*
X155000000Y-71000000D03*
X156250000Y-71000000D03*
X157500000Y-71000000D03*
X158750000Y-71000000D03*
X160000000Y-71000000D03*
X161250000Y-71000000D03*
X162500000Y-71000000D03*
D17*
X120000000Y-79500000D03*
D18*
X120000000Y-77500000D03*
D17*
X162500000Y-79500000D03*
D18*
X162500000Y-77500000D03*
%LPD*%
M02*
