G04 #@! TF.GenerationSoftware,KiCad,Pcbnew,9.0.0*
G04 #@! TF.CreationDate,2025-03-21T14:48:03+11:00*
G04 #@! TF.ProjectId,PCB_BackDesign,5043425f-4261-4636-9b44-657369676e2e,rev?*
G04 #@! TF.SameCoordinates,Original*
G04 #@! TF.FileFunction,Legend,Top*
G04 #@! TF.FilePolarity,Positive*
%FSLAX46Y46*%
G04 Gerber Fmt 4.6, Leading zero omitted, Abs format (unit mm)*
G04 Created by KiCad (PCBNEW 9.0.0) date 2025-03-21 14:48:03*
%MOMM*%
%LPD*%
G01*
G04 APERTURE LIST*
G04 Aperture macros list*
%AMRoundRect*
0 Rectangle with rounded corners*
0 $1 Rounding radius*
0 $2 $3 $4 $5 $6 $7 $8 $9 X,Y pos of 4 corners*
0 Add a 4 corners polygon primitive as box body*
4,1,4,$2,$3,$4,$5,$6,$7,$8,$9,$2,$3,0*
0 Add four circle primitives for the rounded corners*
1,1,$1+$1,$2,$3*
1,1,$1+$1,$4,$5*
1,1,$1+$1,$6,$7*
1,1,$1+$1,$8,$9*
0 Add four rect primitives between the rounded corners*
20,1,$1+$1,$2,$3,$4,$5,0*
20,1,$1+$1,$4,$5,$6,$7,0*
20,1,$1+$1,$6,$7,$8,$9,0*
20,1,$1+$1,$8,$9,$2,$3,0*%
G04 Aperture macros list end*
%ADD10C,0.150000*%
%ADD11C,0.120000*%
%ADD12C,0.152400*%
%ADD13C,0.508000*%
%ADD14RoundRect,0.200000X-0.200000X-0.275000X0.200000X-0.275000X0.200000X0.275000X-0.200000X0.275000X0*%
%ADD15R,0.850000X0.650000*%
%ADD16RoundRect,0.218750X0.218750X0.256250X-0.218750X0.256250X-0.218750X-0.256250X0.218750X-0.256250X0*%
%ADD17RoundRect,0.225000X-0.225000X-0.250000X0.225000X-0.250000X0.225000X0.250000X-0.225000X0.250000X0*%
%ADD18C,1.727200*%
%ADD19RoundRect,0.225000X0.250000X-0.225000X0.250000X0.225000X-0.250000X0.225000X-0.250000X-0.225000X0*%
%ADD20C,2.200000*%
%ADD21RoundRect,0.200000X-0.275000X0.200000X-0.275000X-0.200000X0.275000X-0.200000X0.275000X0.200000X0*%
%ADD22RoundRect,0.225000X-0.250000X0.225000X-0.250000X-0.225000X0.250000X-0.225000X0.250000X0.225000X0*%
%ADD23RoundRect,0.200000X-0.200000X-0.450000X0.200000X-0.450000X0.200000X0.450000X-0.200000X0.450000X0*%
%ADD24O,0.800000X1.300000*%
%ADD25RoundRect,0.250000X0.625000X-0.350000X0.625000X0.350000X-0.625000X0.350000X-0.625000X-0.350000X0*%
%ADD26O,1.750000X1.200000*%
G04 APERTURE END LIST*
D10*
X149903333Y-82204819D02*
X149570000Y-81728628D01*
X149331905Y-82204819D02*
X149331905Y-81204819D01*
X149331905Y-81204819D02*
X149712857Y-81204819D01*
X149712857Y-81204819D02*
X149808095Y-81252438D01*
X149808095Y-81252438D02*
X149855714Y-81300057D01*
X149855714Y-81300057D02*
X149903333Y-81395295D01*
X149903333Y-81395295D02*
X149903333Y-81538152D01*
X149903333Y-81538152D02*
X149855714Y-81633390D01*
X149855714Y-81633390D02*
X149808095Y-81681009D01*
X149808095Y-81681009D02*
X149712857Y-81728628D01*
X149712857Y-81728628D02*
X149331905Y-81728628D01*
X150474762Y-81633390D02*
X150379524Y-81585771D01*
X150379524Y-81585771D02*
X150331905Y-81538152D01*
X150331905Y-81538152D02*
X150284286Y-81442914D01*
X150284286Y-81442914D02*
X150284286Y-81395295D01*
X150284286Y-81395295D02*
X150331905Y-81300057D01*
X150331905Y-81300057D02*
X150379524Y-81252438D01*
X150379524Y-81252438D02*
X150474762Y-81204819D01*
X150474762Y-81204819D02*
X150665238Y-81204819D01*
X150665238Y-81204819D02*
X150760476Y-81252438D01*
X150760476Y-81252438D02*
X150808095Y-81300057D01*
X150808095Y-81300057D02*
X150855714Y-81395295D01*
X150855714Y-81395295D02*
X150855714Y-81442914D01*
X150855714Y-81442914D02*
X150808095Y-81538152D01*
X150808095Y-81538152D02*
X150760476Y-81585771D01*
X150760476Y-81585771D02*
X150665238Y-81633390D01*
X150665238Y-81633390D02*
X150474762Y-81633390D01*
X150474762Y-81633390D02*
X150379524Y-81681009D01*
X150379524Y-81681009D02*
X150331905Y-81728628D01*
X150331905Y-81728628D02*
X150284286Y-81823866D01*
X150284286Y-81823866D02*
X150284286Y-82014342D01*
X150284286Y-82014342D02*
X150331905Y-82109580D01*
X150331905Y-82109580D02*
X150379524Y-82157200D01*
X150379524Y-82157200D02*
X150474762Y-82204819D01*
X150474762Y-82204819D02*
X150665238Y-82204819D01*
X150665238Y-82204819D02*
X150760476Y-82157200D01*
X150760476Y-82157200D02*
X150808095Y-82109580D01*
X150808095Y-82109580D02*
X150855714Y-82014342D01*
X150855714Y-82014342D02*
X150855714Y-81823866D01*
X150855714Y-81823866D02*
X150808095Y-81728628D01*
X150808095Y-81728628D02*
X150760476Y-81681009D01*
X150760476Y-81681009D02*
X150665238Y-81633390D01*
X149903333Y-75095611D02*
X149570000Y-74619420D01*
X149331905Y-75095611D02*
X149331905Y-74095611D01*
X149331905Y-74095611D02*
X149712857Y-74095611D01*
X149712857Y-74095611D02*
X149808095Y-74143230D01*
X149808095Y-74143230D02*
X149855714Y-74190849D01*
X149855714Y-74190849D02*
X149903333Y-74286087D01*
X149903333Y-74286087D02*
X149903333Y-74428944D01*
X149903333Y-74428944D02*
X149855714Y-74524182D01*
X149855714Y-74524182D02*
X149808095Y-74571801D01*
X149808095Y-74571801D02*
X149712857Y-74619420D01*
X149712857Y-74619420D02*
X149331905Y-74619420D01*
X150379524Y-75095611D02*
X150570000Y-75095611D01*
X150570000Y-75095611D02*
X150665238Y-75047992D01*
X150665238Y-75047992D02*
X150712857Y-75000372D01*
X150712857Y-75000372D02*
X150808095Y-74857515D01*
X150808095Y-74857515D02*
X150855714Y-74667039D01*
X150855714Y-74667039D02*
X150855714Y-74286087D01*
X150855714Y-74286087D02*
X150808095Y-74190849D01*
X150808095Y-74190849D02*
X150760476Y-74143230D01*
X150760476Y-74143230D02*
X150665238Y-74095611D01*
X150665238Y-74095611D02*
X150474762Y-74095611D01*
X150474762Y-74095611D02*
X150379524Y-74143230D01*
X150379524Y-74143230D02*
X150331905Y-74190849D01*
X150331905Y-74190849D02*
X150284286Y-74286087D01*
X150284286Y-74286087D02*
X150284286Y-74524182D01*
X150284286Y-74524182D02*
X150331905Y-74619420D01*
X150331905Y-74619420D02*
X150379524Y-74667039D01*
X150379524Y-74667039D02*
X150474762Y-74714658D01*
X150474762Y-74714658D02*
X150665238Y-74714658D01*
X150665238Y-74714658D02*
X150760476Y-74667039D01*
X150760476Y-74667039D02*
X150808095Y-74619420D01*
X150808095Y-74619420D02*
X150855714Y-74524182D01*
X148204819Y-76488094D02*
X147204819Y-76488094D01*
X147204819Y-76488094D02*
X147204819Y-76249999D01*
X147204819Y-76249999D02*
X147252438Y-76107142D01*
X147252438Y-76107142D02*
X147347676Y-76011904D01*
X147347676Y-76011904D02*
X147442914Y-75964285D01*
X147442914Y-75964285D02*
X147633390Y-75916666D01*
X147633390Y-75916666D02*
X147776247Y-75916666D01*
X147776247Y-75916666D02*
X147966723Y-75964285D01*
X147966723Y-75964285D02*
X148061961Y-76011904D01*
X148061961Y-76011904D02*
X148157200Y-76107142D01*
X148157200Y-76107142D02*
X148204819Y-76249999D01*
X148204819Y-76249999D02*
X148204819Y-76488094D01*
X147204819Y-75059523D02*
X147204819Y-75249999D01*
X147204819Y-75249999D02*
X147252438Y-75345237D01*
X147252438Y-75345237D02*
X147300057Y-75392856D01*
X147300057Y-75392856D02*
X147442914Y-75488094D01*
X147442914Y-75488094D02*
X147633390Y-75535713D01*
X147633390Y-75535713D02*
X148014342Y-75535713D01*
X148014342Y-75535713D02*
X148109580Y-75488094D01*
X148109580Y-75488094D02*
X148157200Y-75440475D01*
X148157200Y-75440475D02*
X148204819Y-75345237D01*
X148204819Y-75345237D02*
X148204819Y-75154761D01*
X148204819Y-75154761D02*
X148157200Y-75059523D01*
X148157200Y-75059523D02*
X148109580Y-75011904D01*
X148109580Y-75011904D02*
X148014342Y-74964285D01*
X148014342Y-74964285D02*
X147776247Y-74964285D01*
X147776247Y-74964285D02*
X147681009Y-75011904D01*
X147681009Y-75011904D02*
X147633390Y-75059523D01*
X147633390Y-75059523D02*
X147585771Y-75154761D01*
X147585771Y-75154761D02*
X147585771Y-75345237D01*
X147585771Y-75345237D02*
X147633390Y-75440475D01*
X147633390Y-75440475D02*
X147681009Y-75488094D01*
X147681009Y-75488094D02*
X147776247Y-75535713D01*
X157954819Y-78738094D02*
X156954819Y-78738094D01*
X156954819Y-78738094D02*
X156954819Y-78499999D01*
X156954819Y-78499999D02*
X157002438Y-78357142D01*
X157002438Y-78357142D02*
X157097676Y-78261904D01*
X157097676Y-78261904D02*
X157192914Y-78214285D01*
X157192914Y-78214285D02*
X157383390Y-78166666D01*
X157383390Y-78166666D02*
X157526247Y-78166666D01*
X157526247Y-78166666D02*
X157716723Y-78214285D01*
X157716723Y-78214285D02*
X157811961Y-78261904D01*
X157811961Y-78261904D02*
X157907200Y-78357142D01*
X157907200Y-78357142D02*
X157954819Y-78499999D01*
X157954819Y-78499999D02*
X157954819Y-78738094D01*
X156954819Y-77833332D02*
X156954819Y-77166666D01*
X156954819Y-77166666D02*
X157954819Y-77595237D01*
X140185990Y-76744819D02*
X139852657Y-76268628D01*
X139614562Y-76744819D02*
X139614562Y-75744819D01*
X139614562Y-75744819D02*
X139995514Y-75744819D01*
X139995514Y-75744819D02*
X140090752Y-75792438D01*
X140090752Y-75792438D02*
X140138371Y-75840057D01*
X140138371Y-75840057D02*
X140185990Y-75935295D01*
X140185990Y-75935295D02*
X140185990Y-76078152D01*
X140185990Y-76078152D02*
X140138371Y-76173390D01*
X140138371Y-76173390D02*
X140090752Y-76221009D01*
X140090752Y-76221009D02*
X139995514Y-76268628D01*
X139995514Y-76268628D02*
X139614562Y-76268628D01*
X141043133Y-76078152D02*
X141043133Y-76744819D01*
X140805038Y-75697200D02*
X140566943Y-76411485D01*
X140566943Y-76411485D02*
X141185990Y-76411485D01*
X134417122Y-81067319D02*
X134417122Y-80067319D01*
X134417122Y-80067319D02*
X134655217Y-80067319D01*
X134655217Y-80067319D02*
X134798074Y-80114938D01*
X134798074Y-80114938D02*
X134893312Y-80210176D01*
X134893312Y-80210176D02*
X134940931Y-80305414D01*
X134940931Y-80305414D02*
X134988550Y-80495890D01*
X134988550Y-80495890D02*
X134988550Y-80638747D01*
X134988550Y-80638747D02*
X134940931Y-80829223D01*
X134940931Y-80829223D02*
X134893312Y-80924461D01*
X134893312Y-80924461D02*
X134798074Y-81019700D01*
X134798074Y-81019700D02*
X134655217Y-81067319D01*
X134655217Y-81067319D02*
X134417122Y-81067319D01*
X135321884Y-80067319D02*
X135940931Y-80067319D01*
X135940931Y-80067319D02*
X135607598Y-80448271D01*
X135607598Y-80448271D02*
X135750455Y-80448271D01*
X135750455Y-80448271D02*
X135845693Y-80495890D01*
X135845693Y-80495890D02*
X135893312Y-80543509D01*
X135893312Y-80543509D02*
X135940931Y-80638747D01*
X135940931Y-80638747D02*
X135940931Y-80876842D01*
X135940931Y-80876842D02*
X135893312Y-80972080D01*
X135893312Y-80972080D02*
X135845693Y-81019700D01*
X135845693Y-81019700D02*
X135750455Y-81067319D01*
X135750455Y-81067319D02*
X135464741Y-81067319D01*
X135464741Y-81067319D02*
X135369503Y-81019700D01*
X135369503Y-81019700D02*
X135321884Y-80972080D01*
X125826905Y-80994819D02*
X125826905Y-79994819D01*
X125826905Y-79994819D02*
X126065000Y-79994819D01*
X126065000Y-79994819D02*
X126207857Y-80042438D01*
X126207857Y-80042438D02*
X126303095Y-80137676D01*
X126303095Y-80137676D02*
X126350714Y-80232914D01*
X126350714Y-80232914D02*
X126398333Y-80423390D01*
X126398333Y-80423390D02*
X126398333Y-80566247D01*
X126398333Y-80566247D02*
X126350714Y-80756723D01*
X126350714Y-80756723D02*
X126303095Y-80851961D01*
X126303095Y-80851961D02*
X126207857Y-80947200D01*
X126207857Y-80947200D02*
X126065000Y-80994819D01*
X126065000Y-80994819D02*
X125826905Y-80994819D01*
X127350714Y-80994819D02*
X126779286Y-80994819D01*
X127065000Y-80994819D02*
X127065000Y-79994819D01*
X127065000Y-79994819D02*
X126969762Y-80137676D01*
X126969762Y-80137676D02*
X126874524Y-80232914D01*
X126874524Y-80232914D02*
X126779286Y-80280533D01*
X126833333Y-82609580D02*
X126785714Y-82657200D01*
X126785714Y-82657200D02*
X126642857Y-82704819D01*
X126642857Y-82704819D02*
X126547619Y-82704819D01*
X126547619Y-82704819D02*
X126404762Y-82657200D01*
X126404762Y-82657200D02*
X126309524Y-82561961D01*
X126309524Y-82561961D02*
X126261905Y-82466723D01*
X126261905Y-82466723D02*
X126214286Y-82276247D01*
X126214286Y-82276247D02*
X126214286Y-82133390D01*
X126214286Y-82133390D02*
X126261905Y-81942914D01*
X126261905Y-81942914D02*
X126309524Y-81847676D01*
X126309524Y-81847676D02*
X126404762Y-81752438D01*
X126404762Y-81752438D02*
X126547619Y-81704819D01*
X126547619Y-81704819D02*
X126642857Y-81704819D01*
X126642857Y-81704819D02*
X126785714Y-81752438D01*
X126785714Y-81752438D02*
X126833333Y-81800057D01*
X127214286Y-81800057D02*
X127261905Y-81752438D01*
X127261905Y-81752438D02*
X127357143Y-81704819D01*
X127357143Y-81704819D02*
X127595238Y-81704819D01*
X127595238Y-81704819D02*
X127690476Y-81752438D01*
X127690476Y-81752438D02*
X127738095Y-81800057D01*
X127738095Y-81800057D02*
X127785714Y-81895295D01*
X127785714Y-81895295D02*
X127785714Y-81990533D01*
X127785714Y-81990533D02*
X127738095Y-82133390D01*
X127738095Y-82133390D02*
X127166667Y-82704819D01*
X127166667Y-82704819D02*
X127785714Y-82704819D01*
X155083333Y-81954819D02*
X154750000Y-81478628D01*
X154511905Y-81954819D02*
X154511905Y-80954819D01*
X154511905Y-80954819D02*
X154892857Y-80954819D01*
X154892857Y-80954819D02*
X154988095Y-81002438D01*
X154988095Y-81002438D02*
X155035714Y-81050057D01*
X155035714Y-81050057D02*
X155083333Y-81145295D01*
X155083333Y-81145295D02*
X155083333Y-81288152D01*
X155083333Y-81288152D02*
X155035714Y-81383390D01*
X155035714Y-81383390D02*
X154988095Y-81431009D01*
X154988095Y-81431009D02*
X154892857Y-81478628D01*
X154892857Y-81478628D02*
X154511905Y-81478628D01*
X155416667Y-80954819D02*
X156083333Y-80954819D01*
X156083333Y-80954819D02*
X155654762Y-81954819D01*
X121974767Y-97407200D02*
X122117624Y-97454819D01*
X122117624Y-97454819D02*
X122355719Y-97454819D01*
X122355719Y-97454819D02*
X122450957Y-97407200D01*
X122450957Y-97407200D02*
X122498576Y-97359580D01*
X122498576Y-97359580D02*
X122546195Y-97264342D01*
X122546195Y-97264342D02*
X122546195Y-97169104D01*
X122546195Y-97169104D02*
X122498576Y-97073866D01*
X122498576Y-97073866D02*
X122450957Y-97026247D01*
X122450957Y-97026247D02*
X122355719Y-96978628D01*
X122355719Y-96978628D02*
X122165243Y-96931009D01*
X122165243Y-96931009D02*
X122070005Y-96883390D01*
X122070005Y-96883390D02*
X122022386Y-96835771D01*
X122022386Y-96835771D02*
X121974767Y-96740533D01*
X121974767Y-96740533D02*
X121974767Y-96645295D01*
X121974767Y-96645295D02*
X122022386Y-96550057D01*
X122022386Y-96550057D02*
X122070005Y-96502438D01*
X122070005Y-96502438D02*
X122165243Y-96454819D01*
X122165243Y-96454819D02*
X122403338Y-96454819D01*
X122403338Y-96454819D02*
X122546195Y-96502438D01*
X122879529Y-96454819D02*
X123117624Y-97454819D01*
X123117624Y-97454819D02*
X123308100Y-96740533D01*
X123308100Y-96740533D02*
X123498576Y-97454819D01*
X123498576Y-97454819D02*
X123736672Y-96454819D01*
X124070005Y-96550057D02*
X124117624Y-96502438D01*
X124117624Y-96502438D02*
X124212862Y-96454819D01*
X124212862Y-96454819D02*
X124450957Y-96454819D01*
X124450957Y-96454819D02*
X124546195Y-96502438D01*
X124546195Y-96502438D02*
X124593814Y-96550057D01*
X124593814Y-96550057D02*
X124641433Y-96645295D01*
X124641433Y-96645295D02*
X124641433Y-96740533D01*
X124641433Y-96740533D02*
X124593814Y-96883390D01*
X124593814Y-96883390D02*
X124022386Y-97454819D01*
X124022386Y-97454819D02*
X124641433Y-97454819D01*
X130261905Y-80957319D02*
X130261905Y-79957319D01*
X130261905Y-79957319D02*
X130500000Y-79957319D01*
X130500000Y-79957319D02*
X130642857Y-80004938D01*
X130642857Y-80004938D02*
X130738095Y-80100176D01*
X130738095Y-80100176D02*
X130785714Y-80195414D01*
X130785714Y-80195414D02*
X130833333Y-80385890D01*
X130833333Y-80385890D02*
X130833333Y-80528747D01*
X130833333Y-80528747D02*
X130785714Y-80719223D01*
X130785714Y-80719223D02*
X130738095Y-80814461D01*
X130738095Y-80814461D02*
X130642857Y-80909700D01*
X130642857Y-80909700D02*
X130500000Y-80957319D01*
X130500000Y-80957319D02*
X130261905Y-80957319D01*
X131214286Y-80052557D02*
X131261905Y-80004938D01*
X131261905Y-80004938D02*
X131357143Y-79957319D01*
X131357143Y-79957319D02*
X131595238Y-79957319D01*
X131595238Y-79957319D02*
X131690476Y-80004938D01*
X131690476Y-80004938D02*
X131738095Y-80052557D01*
X131738095Y-80052557D02*
X131785714Y-80147795D01*
X131785714Y-80147795D02*
X131785714Y-80243033D01*
X131785714Y-80243033D02*
X131738095Y-80385890D01*
X131738095Y-80385890D02*
X131166667Y-80957319D01*
X131166667Y-80957319D02*
X131785714Y-80957319D01*
X150359580Y-91666666D02*
X150407200Y-91714285D01*
X150407200Y-91714285D02*
X150454819Y-91857142D01*
X150454819Y-91857142D02*
X150454819Y-91952380D01*
X150454819Y-91952380D02*
X150407200Y-92095237D01*
X150407200Y-92095237D02*
X150311961Y-92190475D01*
X150311961Y-92190475D02*
X150216723Y-92238094D01*
X150216723Y-92238094D02*
X150026247Y-92285713D01*
X150026247Y-92285713D02*
X149883390Y-92285713D01*
X149883390Y-92285713D02*
X149692914Y-92238094D01*
X149692914Y-92238094D02*
X149597676Y-92190475D01*
X149597676Y-92190475D02*
X149502438Y-92095237D01*
X149502438Y-92095237D02*
X149454819Y-91952380D01*
X149454819Y-91952380D02*
X149454819Y-91857142D01*
X149454819Y-91857142D02*
X149502438Y-91714285D01*
X149502438Y-91714285D02*
X149550057Y-91666666D01*
X150454819Y-90714285D02*
X150454819Y-91285713D01*
X150454819Y-90999999D02*
X149454819Y-90999999D01*
X149454819Y-90999999D02*
X149597676Y-91095237D01*
X149597676Y-91095237D02*
X149692914Y-91190475D01*
X149692914Y-91190475D02*
X149740533Y-91285713D01*
X139318567Y-97407200D02*
X139461424Y-97454819D01*
X139461424Y-97454819D02*
X139699519Y-97454819D01*
X139699519Y-97454819D02*
X139794757Y-97407200D01*
X139794757Y-97407200D02*
X139842376Y-97359580D01*
X139842376Y-97359580D02*
X139889995Y-97264342D01*
X139889995Y-97264342D02*
X139889995Y-97169104D01*
X139889995Y-97169104D02*
X139842376Y-97073866D01*
X139842376Y-97073866D02*
X139794757Y-97026247D01*
X139794757Y-97026247D02*
X139699519Y-96978628D01*
X139699519Y-96978628D02*
X139509043Y-96931009D01*
X139509043Y-96931009D02*
X139413805Y-96883390D01*
X139413805Y-96883390D02*
X139366186Y-96835771D01*
X139366186Y-96835771D02*
X139318567Y-96740533D01*
X139318567Y-96740533D02*
X139318567Y-96645295D01*
X139318567Y-96645295D02*
X139366186Y-96550057D01*
X139366186Y-96550057D02*
X139413805Y-96502438D01*
X139413805Y-96502438D02*
X139509043Y-96454819D01*
X139509043Y-96454819D02*
X139747138Y-96454819D01*
X139747138Y-96454819D02*
X139889995Y-96502438D01*
X140223329Y-96454819D02*
X140461424Y-97454819D01*
X140461424Y-97454819D02*
X140651900Y-96740533D01*
X140651900Y-96740533D02*
X140842376Y-97454819D01*
X140842376Y-97454819D02*
X141080472Y-96454819D01*
X141366186Y-96454819D02*
X141985233Y-96454819D01*
X141985233Y-96454819D02*
X141651900Y-96835771D01*
X141651900Y-96835771D02*
X141794757Y-96835771D01*
X141794757Y-96835771D02*
X141889995Y-96883390D01*
X141889995Y-96883390D02*
X141937614Y-96931009D01*
X141937614Y-96931009D02*
X141985233Y-97026247D01*
X141985233Y-97026247D02*
X141985233Y-97264342D01*
X141985233Y-97264342D02*
X141937614Y-97359580D01*
X141937614Y-97359580D02*
X141889995Y-97407200D01*
X141889995Y-97407200D02*
X141794757Y-97454819D01*
X141794757Y-97454819D02*
X141509043Y-97454819D01*
X141509043Y-97454819D02*
X141413805Y-97407200D01*
X141413805Y-97407200D02*
X141366186Y-97359580D01*
X154482772Y-75024819D02*
X154149439Y-74548628D01*
X153911344Y-75024819D02*
X153911344Y-74024819D01*
X153911344Y-74024819D02*
X154292296Y-74024819D01*
X154292296Y-74024819D02*
X154387534Y-74072438D01*
X154387534Y-74072438D02*
X154435153Y-74120057D01*
X154435153Y-74120057D02*
X154482772Y-74215295D01*
X154482772Y-74215295D02*
X154482772Y-74358152D01*
X154482772Y-74358152D02*
X154435153Y-74453390D01*
X154435153Y-74453390D02*
X154387534Y-74501009D01*
X154387534Y-74501009D02*
X154292296Y-74548628D01*
X154292296Y-74548628D02*
X153911344Y-74548628D01*
X155435153Y-75024819D02*
X154863725Y-75024819D01*
X155149439Y-75024819D02*
X155149439Y-74024819D01*
X155149439Y-74024819D02*
X155054201Y-74167676D01*
X155054201Y-74167676D02*
X154958963Y-74262914D01*
X154958963Y-74262914D02*
X154863725Y-74310533D01*
X156387534Y-75024819D02*
X155816106Y-75024819D01*
X156101820Y-75024819D02*
X156101820Y-74024819D01*
X156101820Y-74024819D02*
X156006582Y-74167676D01*
X156006582Y-74167676D02*
X155911344Y-74262914D01*
X155911344Y-74262914D02*
X155816106Y-74310533D01*
X144305209Y-76454819D02*
X143971876Y-75978628D01*
X143733781Y-76454819D02*
X143733781Y-75454819D01*
X143733781Y-75454819D02*
X144114733Y-75454819D01*
X144114733Y-75454819D02*
X144209971Y-75502438D01*
X144209971Y-75502438D02*
X144257590Y-75550057D01*
X144257590Y-75550057D02*
X144305209Y-75645295D01*
X144305209Y-75645295D02*
X144305209Y-75788152D01*
X144305209Y-75788152D02*
X144257590Y-75883390D01*
X144257590Y-75883390D02*
X144209971Y-75931009D01*
X144209971Y-75931009D02*
X144114733Y-75978628D01*
X144114733Y-75978628D02*
X143733781Y-75978628D01*
X145209971Y-75454819D02*
X144733781Y-75454819D01*
X144733781Y-75454819D02*
X144686162Y-75931009D01*
X144686162Y-75931009D02*
X144733781Y-75883390D01*
X144733781Y-75883390D02*
X144829019Y-75835771D01*
X144829019Y-75835771D02*
X145067114Y-75835771D01*
X145067114Y-75835771D02*
X145162352Y-75883390D01*
X145162352Y-75883390D02*
X145209971Y-75931009D01*
X145209971Y-75931009D02*
X145257590Y-76026247D01*
X145257590Y-76026247D02*
X145257590Y-76264342D01*
X145257590Y-76264342D02*
X145209971Y-76359580D01*
X145209971Y-76359580D02*
X145162352Y-76407200D01*
X145162352Y-76407200D02*
X145067114Y-76454819D01*
X145067114Y-76454819D02*
X144829019Y-76454819D01*
X144829019Y-76454819D02*
X144733781Y-76407200D01*
X144733781Y-76407200D02*
X144686162Y-76359580D01*
X130803333Y-76527319D02*
X130470000Y-76051128D01*
X130231905Y-76527319D02*
X130231905Y-75527319D01*
X130231905Y-75527319D02*
X130612857Y-75527319D01*
X130612857Y-75527319D02*
X130708095Y-75574938D01*
X130708095Y-75574938D02*
X130755714Y-75622557D01*
X130755714Y-75622557D02*
X130803333Y-75717795D01*
X130803333Y-75717795D02*
X130803333Y-75860652D01*
X130803333Y-75860652D02*
X130755714Y-75955890D01*
X130755714Y-75955890D02*
X130708095Y-76003509D01*
X130708095Y-76003509D02*
X130612857Y-76051128D01*
X130612857Y-76051128D02*
X130231905Y-76051128D01*
X131184286Y-75622557D02*
X131231905Y-75574938D01*
X131231905Y-75574938D02*
X131327143Y-75527319D01*
X131327143Y-75527319D02*
X131565238Y-75527319D01*
X131565238Y-75527319D02*
X131660476Y-75574938D01*
X131660476Y-75574938D02*
X131708095Y-75622557D01*
X131708095Y-75622557D02*
X131755714Y-75717795D01*
X131755714Y-75717795D02*
X131755714Y-75813033D01*
X131755714Y-75813033D02*
X131708095Y-75955890D01*
X131708095Y-75955890D02*
X131136667Y-76527319D01*
X131136667Y-76527319D02*
X131755714Y-76527319D01*
X156818567Y-97407200D02*
X156961424Y-97454819D01*
X156961424Y-97454819D02*
X157199519Y-97454819D01*
X157199519Y-97454819D02*
X157294757Y-97407200D01*
X157294757Y-97407200D02*
X157342376Y-97359580D01*
X157342376Y-97359580D02*
X157389995Y-97264342D01*
X157389995Y-97264342D02*
X157389995Y-97169104D01*
X157389995Y-97169104D02*
X157342376Y-97073866D01*
X157342376Y-97073866D02*
X157294757Y-97026247D01*
X157294757Y-97026247D02*
X157199519Y-96978628D01*
X157199519Y-96978628D02*
X157009043Y-96931009D01*
X157009043Y-96931009D02*
X156913805Y-96883390D01*
X156913805Y-96883390D02*
X156866186Y-96835771D01*
X156866186Y-96835771D02*
X156818567Y-96740533D01*
X156818567Y-96740533D02*
X156818567Y-96645295D01*
X156818567Y-96645295D02*
X156866186Y-96550057D01*
X156866186Y-96550057D02*
X156913805Y-96502438D01*
X156913805Y-96502438D02*
X157009043Y-96454819D01*
X157009043Y-96454819D02*
X157247138Y-96454819D01*
X157247138Y-96454819D02*
X157389995Y-96502438D01*
X157723329Y-96454819D02*
X157961424Y-97454819D01*
X157961424Y-97454819D02*
X158151900Y-96740533D01*
X158151900Y-96740533D02*
X158342376Y-97454819D01*
X158342376Y-97454819D02*
X158580472Y-96454819D01*
X159485233Y-97454819D02*
X158913805Y-97454819D01*
X159199519Y-97454819D02*
X159199519Y-96454819D01*
X159199519Y-96454819D02*
X159104281Y-96597676D01*
X159104281Y-96597676D02*
X159009043Y-96692914D01*
X159009043Y-96692914D02*
X158913805Y-96740533D01*
X143838781Y-80884819D02*
X143838781Y-79884819D01*
X143838781Y-79884819D02*
X144076876Y-79884819D01*
X144076876Y-79884819D02*
X144219733Y-79932438D01*
X144219733Y-79932438D02*
X144314971Y-80027676D01*
X144314971Y-80027676D02*
X144362590Y-80122914D01*
X144362590Y-80122914D02*
X144410209Y-80313390D01*
X144410209Y-80313390D02*
X144410209Y-80456247D01*
X144410209Y-80456247D02*
X144362590Y-80646723D01*
X144362590Y-80646723D02*
X144314971Y-80741961D01*
X144314971Y-80741961D02*
X144219733Y-80837200D01*
X144219733Y-80837200D02*
X144076876Y-80884819D01*
X144076876Y-80884819D02*
X143838781Y-80884819D01*
X145314971Y-79884819D02*
X144838781Y-79884819D01*
X144838781Y-79884819D02*
X144791162Y-80361009D01*
X144791162Y-80361009D02*
X144838781Y-80313390D01*
X144838781Y-80313390D02*
X144934019Y-80265771D01*
X144934019Y-80265771D02*
X145172114Y-80265771D01*
X145172114Y-80265771D02*
X145267352Y-80313390D01*
X145267352Y-80313390D02*
X145314971Y-80361009D01*
X145314971Y-80361009D02*
X145362590Y-80456247D01*
X145362590Y-80456247D02*
X145362590Y-80694342D01*
X145362590Y-80694342D02*
X145314971Y-80789580D01*
X145314971Y-80789580D02*
X145267352Y-80837200D01*
X145267352Y-80837200D02*
X145172114Y-80884819D01*
X145172114Y-80884819D02*
X144934019Y-80884819D01*
X144934019Y-80884819D02*
X144838781Y-80837200D01*
X144838781Y-80837200D02*
X144791162Y-80789580D01*
X135265833Y-76707319D02*
X134932500Y-76231128D01*
X134694405Y-76707319D02*
X134694405Y-75707319D01*
X134694405Y-75707319D02*
X135075357Y-75707319D01*
X135075357Y-75707319D02*
X135170595Y-75754938D01*
X135170595Y-75754938D02*
X135218214Y-75802557D01*
X135218214Y-75802557D02*
X135265833Y-75897795D01*
X135265833Y-75897795D02*
X135265833Y-76040652D01*
X135265833Y-76040652D02*
X135218214Y-76135890D01*
X135218214Y-76135890D02*
X135170595Y-76183509D01*
X135170595Y-76183509D02*
X135075357Y-76231128D01*
X135075357Y-76231128D02*
X134694405Y-76231128D01*
X135599167Y-75707319D02*
X136218214Y-75707319D01*
X136218214Y-75707319D02*
X135884881Y-76088271D01*
X135884881Y-76088271D02*
X136027738Y-76088271D01*
X136027738Y-76088271D02*
X136122976Y-76135890D01*
X136122976Y-76135890D02*
X136170595Y-76183509D01*
X136170595Y-76183509D02*
X136218214Y-76278747D01*
X136218214Y-76278747D02*
X136218214Y-76516842D01*
X136218214Y-76516842D02*
X136170595Y-76612080D01*
X136170595Y-76612080D02*
X136122976Y-76659700D01*
X136122976Y-76659700D02*
X136027738Y-76707319D01*
X136027738Y-76707319D02*
X135742024Y-76707319D01*
X135742024Y-76707319D02*
X135646786Y-76659700D01*
X135646786Y-76659700D02*
X135599167Y-76612080D01*
X148204819Y-81166666D02*
X147728628Y-81499999D01*
X148204819Y-81738094D02*
X147204819Y-81738094D01*
X147204819Y-81738094D02*
X147204819Y-81357142D01*
X147204819Y-81357142D02*
X147252438Y-81261904D01*
X147252438Y-81261904D02*
X147300057Y-81214285D01*
X147300057Y-81214285D02*
X147395295Y-81166666D01*
X147395295Y-81166666D02*
X147538152Y-81166666D01*
X147538152Y-81166666D02*
X147633390Y-81214285D01*
X147633390Y-81214285D02*
X147681009Y-81261904D01*
X147681009Y-81261904D02*
X147728628Y-81357142D01*
X147728628Y-81357142D02*
X147728628Y-81738094D01*
X147204819Y-80309523D02*
X147204819Y-80499999D01*
X147204819Y-80499999D02*
X147252438Y-80595237D01*
X147252438Y-80595237D02*
X147300057Y-80642856D01*
X147300057Y-80642856D02*
X147442914Y-80738094D01*
X147442914Y-80738094D02*
X147633390Y-80785713D01*
X147633390Y-80785713D02*
X148014342Y-80785713D01*
X148014342Y-80785713D02*
X148109580Y-80738094D01*
X148109580Y-80738094D02*
X148157200Y-80690475D01*
X148157200Y-80690475D02*
X148204819Y-80595237D01*
X148204819Y-80595237D02*
X148204819Y-80404761D01*
X148204819Y-80404761D02*
X148157200Y-80309523D01*
X148157200Y-80309523D02*
X148109580Y-80261904D01*
X148109580Y-80261904D02*
X148014342Y-80214285D01*
X148014342Y-80214285D02*
X147776247Y-80214285D01*
X147776247Y-80214285D02*
X147681009Y-80261904D01*
X147681009Y-80261904D02*
X147633390Y-80309523D01*
X147633390Y-80309523D02*
X147585771Y-80404761D01*
X147585771Y-80404761D02*
X147585771Y-80595237D01*
X147585771Y-80595237D02*
X147633390Y-80690475D01*
X147633390Y-80690475D02*
X147681009Y-80738094D01*
X147681009Y-80738094D02*
X147776247Y-80785713D01*
X132109580Y-86416666D02*
X132157200Y-86464285D01*
X132157200Y-86464285D02*
X132204819Y-86607142D01*
X132204819Y-86607142D02*
X132204819Y-86702380D01*
X132204819Y-86702380D02*
X132157200Y-86845237D01*
X132157200Y-86845237D02*
X132061961Y-86940475D01*
X132061961Y-86940475D02*
X131966723Y-86988094D01*
X131966723Y-86988094D02*
X131776247Y-87035713D01*
X131776247Y-87035713D02*
X131633390Y-87035713D01*
X131633390Y-87035713D02*
X131442914Y-86988094D01*
X131442914Y-86988094D02*
X131347676Y-86940475D01*
X131347676Y-86940475D02*
X131252438Y-86845237D01*
X131252438Y-86845237D02*
X131204819Y-86702380D01*
X131204819Y-86702380D02*
X131204819Y-86607142D01*
X131204819Y-86607142D02*
X131252438Y-86464285D01*
X131252438Y-86464285D02*
X131300057Y-86416666D01*
X131204819Y-86083332D02*
X131204819Y-85464285D01*
X131204819Y-85464285D02*
X131585771Y-85797618D01*
X131585771Y-85797618D02*
X131585771Y-85654761D01*
X131585771Y-85654761D02*
X131633390Y-85559523D01*
X131633390Y-85559523D02*
X131681009Y-85511904D01*
X131681009Y-85511904D02*
X131776247Y-85464285D01*
X131776247Y-85464285D02*
X132014342Y-85464285D01*
X132014342Y-85464285D02*
X132109580Y-85511904D01*
X132109580Y-85511904D02*
X132157200Y-85559523D01*
X132157200Y-85559523D02*
X132204819Y-85654761D01*
X132204819Y-85654761D02*
X132204819Y-85940475D01*
X132204819Y-85940475D02*
X132157200Y-86035713D01*
X132157200Y-86035713D02*
X132109580Y-86083332D01*
X126303333Y-76634819D02*
X125970000Y-76158628D01*
X125731905Y-76634819D02*
X125731905Y-75634819D01*
X125731905Y-75634819D02*
X126112857Y-75634819D01*
X126112857Y-75634819D02*
X126208095Y-75682438D01*
X126208095Y-75682438D02*
X126255714Y-75730057D01*
X126255714Y-75730057D02*
X126303333Y-75825295D01*
X126303333Y-75825295D02*
X126303333Y-75968152D01*
X126303333Y-75968152D02*
X126255714Y-76063390D01*
X126255714Y-76063390D02*
X126208095Y-76111009D01*
X126208095Y-76111009D02*
X126112857Y-76158628D01*
X126112857Y-76158628D02*
X125731905Y-76158628D01*
X127255714Y-76634819D02*
X126684286Y-76634819D01*
X126970000Y-76634819D02*
X126970000Y-75634819D01*
X126970000Y-75634819D02*
X126874762Y-75777676D01*
X126874762Y-75777676D02*
X126779524Y-75872914D01*
X126779524Y-75872914D02*
X126684286Y-75920533D01*
X139439562Y-81174819D02*
X139439562Y-80174819D01*
X139439562Y-80174819D02*
X139677657Y-80174819D01*
X139677657Y-80174819D02*
X139820514Y-80222438D01*
X139820514Y-80222438D02*
X139915752Y-80317676D01*
X139915752Y-80317676D02*
X139963371Y-80412914D01*
X139963371Y-80412914D02*
X140010990Y-80603390D01*
X140010990Y-80603390D02*
X140010990Y-80746247D01*
X140010990Y-80746247D02*
X139963371Y-80936723D01*
X139963371Y-80936723D02*
X139915752Y-81031961D01*
X139915752Y-81031961D02*
X139820514Y-81127200D01*
X139820514Y-81127200D02*
X139677657Y-81174819D01*
X139677657Y-81174819D02*
X139439562Y-81174819D01*
X140868133Y-80508152D02*
X140868133Y-81174819D01*
X140630038Y-80127200D02*
X140391943Y-80841485D01*
X140391943Y-80841485D02*
X141010990Y-80841485D01*
X153454819Y-82142857D02*
X152978628Y-82476190D01*
X153454819Y-82714285D02*
X152454819Y-82714285D01*
X152454819Y-82714285D02*
X152454819Y-82333333D01*
X152454819Y-82333333D02*
X152502438Y-82238095D01*
X152502438Y-82238095D02*
X152550057Y-82190476D01*
X152550057Y-82190476D02*
X152645295Y-82142857D01*
X152645295Y-82142857D02*
X152788152Y-82142857D01*
X152788152Y-82142857D02*
X152883390Y-82190476D01*
X152883390Y-82190476D02*
X152931009Y-82238095D01*
X152931009Y-82238095D02*
X152978628Y-82333333D01*
X152978628Y-82333333D02*
X152978628Y-82714285D01*
X153454819Y-81190476D02*
X153454819Y-81761904D01*
X153454819Y-81476190D02*
X152454819Y-81476190D01*
X152454819Y-81476190D02*
X152597676Y-81571428D01*
X152597676Y-81571428D02*
X152692914Y-81666666D01*
X152692914Y-81666666D02*
X152740533Y-81761904D01*
X152454819Y-80571428D02*
X152454819Y-80476190D01*
X152454819Y-80476190D02*
X152502438Y-80380952D01*
X152502438Y-80380952D02*
X152550057Y-80333333D01*
X152550057Y-80333333D02*
X152645295Y-80285714D01*
X152645295Y-80285714D02*
X152835771Y-80238095D01*
X152835771Y-80238095D02*
X153073866Y-80238095D01*
X153073866Y-80238095D02*
X153264342Y-80285714D01*
X153264342Y-80285714D02*
X153359580Y-80333333D01*
X153359580Y-80333333D02*
X153407200Y-80380952D01*
X153407200Y-80380952D02*
X153454819Y-80476190D01*
X153454819Y-80476190D02*
X153454819Y-80571428D01*
X153454819Y-80571428D02*
X153407200Y-80666666D01*
X153407200Y-80666666D02*
X153359580Y-80714285D01*
X153359580Y-80714285D02*
X153264342Y-80761904D01*
X153264342Y-80761904D02*
X153073866Y-80809523D01*
X153073866Y-80809523D02*
X152835771Y-80809523D01*
X152835771Y-80809523D02*
X152645295Y-80761904D01*
X152645295Y-80761904D02*
X152550057Y-80714285D01*
X152550057Y-80714285D02*
X152502438Y-80666666D01*
X152502438Y-80666666D02*
X152454819Y-80571428D01*
D11*
X149832742Y-79548292D02*
X150307258Y-79548292D01*
X149832742Y-80593292D02*
X150307258Y-80593292D01*
X149832742Y-75548292D02*
X150307258Y-75548292D01*
X149832742Y-76593292D02*
X150307258Y-76593292D01*
X149170000Y-77045792D02*
X150770000Y-77045792D01*
X149620000Y-78945792D02*
X150770000Y-78945792D01*
X154275630Y-76975000D02*
X155875630Y-76975000D01*
X154725630Y-78875000D02*
X155875630Y-78875000D01*
X140115399Y-77197500D02*
X140589915Y-77197500D01*
X140115399Y-78242500D02*
X140589915Y-78242500D01*
X134670000Y-79917500D02*
X136955000Y-79917500D01*
X136955000Y-78447500D02*
X134670000Y-78447500D01*
X136955000Y-79917500D02*
X136955000Y-78447500D01*
X125765000Y-79845000D02*
X128050000Y-79845000D01*
X128050000Y-78375000D02*
X125765000Y-78375000D01*
X128050000Y-79845000D02*
X128050000Y-78375000D01*
X124359420Y-81740000D02*
X124640580Y-81740000D01*
X124359420Y-82760000D02*
X124640580Y-82760000D01*
X154937742Y-79477500D02*
X155412258Y-79477500D01*
X154937742Y-80522500D02*
X155412258Y-80522500D01*
D12*
X117021600Y-83485400D02*
X117021600Y-96058400D01*
X117021600Y-96058400D02*
X129594600Y-96058400D01*
X129594600Y-83485400D02*
X117021600Y-83485400D01*
X129594600Y-96058400D02*
X129594600Y-83485400D01*
D13*
X130610600Y-93543800D02*
G75*
G02*
X129848600Y-93543800I-381000J0D01*
G01*
X129848600Y-93543800D02*
G75*
G02*
X130610600Y-93543800I381000J0D01*
G01*
D11*
X130200000Y-79807500D02*
X132485000Y-79807500D01*
X132485000Y-78337500D02*
X130200000Y-78337500D01*
X132485000Y-79807500D02*
X132485000Y-78337500D01*
X149490000Y-94140580D02*
X149490000Y-93859420D01*
X150510000Y-94140580D02*
X150510000Y-93859420D01*
D12*
X134365400Y-83521600D02*
X134365400Y-96094600D01*
X134365400Y-96094600D02*
X146938400Y-96094600D01*
X146938400Y-83521600D02*
X134365400Y-83521600D01*
X146938400Y-96094600D02*
X146938400Y-83521600D01*
D13*
X147954400Y-93580000D02*
G75*
G02*
X147192400Y-93580000I-381000J0D01*
G01*
X147192400Y-93580000D02*
G75*
G02*
X147954400Y-93580000I381000J0D01*
G01*
D11*
X154888372Y-75477500D02*
X155362888Y-75477500D01*
X154888372Y-76522500D02*
X155362888Y-76522500D01*
X144409618Y-76977500D02*
X144884134Y-76977500D01*
X144409618Y-78022500D02*
X144884134Y-78022500D01*
X130907742Y-77050000D02*
X131382258Y-77050000D01*
X130907742Y-78095000D02*
X131382258Y-78095000D01*
D12*
X151865400Y-83485400D02*
X151865400Y-96058400D01*
X151865400Y-96058400D02*
X164438400Y-96058400D01*
X164438400Y-83485400D02*
X151865400Y-83485400D01*
X164438400Y-96058400D02*
X164438400Y-83485400D01*
D13*
X165454400Y-93543800D02*
G75*
G02*
X164692400Y-93543800I-381000J0D01*
G01*
X164692400Y-93543800D02*
G75*
G02*
X165454400Y-93543800I381000J0D01*
G01*
D11*
X143776876Y-79735000D02*
X146061876Y-79735000D01*
X146061876Y-78265000D02*
X143776876Y-78265000D01*
X146061876Y-79735000D02*
X146061876Y-78265000D01*
X135195242Y-77160000D02*
X135669758Y-77160000D01*
X135195242Y-78205000D02*
X135669758Y-78205000D01*
X147222500Y-78158534D02*
X147222500Y-78633050D01*
X148267500Y-78158534D02*
X148267500Y-78633050D01*
X131240000Y-83609420D02*
X131240000Y-83890580D01*
X132260000Y-83609420D02*
X132260000Y-83890580D01*
X126232742Y-77087500D02*
X126707258Y-77087500D01*
X126232742Y-78132500D02*
X126707258Y-78132500D01*
X139507657Y-79955000D02*
X141792657Y-79955000D01*
X141792657Y-78485000D02*
X139507657Y-78485000D01*
X141792657Y-79955000D02*
X141792657Y-78485000D01*
X152278130Y-78087742D02*
X152278130Y-78562258D01*
X153323130Y-78087742D02*
X153323130Y-78562258D01*
%LPC*%
D14*
X149245000Y-80070792D03*
X150895000Y-80070792D03*
X149245000Y-76070792D03*
X150895000Y-76070792D03*
D15*
X149245000Y-78420792D03*
X149245000Y-77570792D03*
X150695000Y-77570792D03*
X150695000Y-78420792D03*
X154350630Y-78350000D03*
X154350630Y-77500000D03*
X155800630Y-77500000D03*
X155800630Y-78350000D03*
D14*
X139527657Y-77720000D03*
X141177657Y-77720000D03*
D16*
X136257500Y-79182500D03*
X134682500Y-79182500D03*
X127352500Y-79110000D03*
X125777500Y-79110000D03*
D17*
X123725000Y-82250000D03*
X125275000Y-82250000D03*
D14*
X154350000Y-80000000D03*
X156000000Y-80000000D03*
D18*
X127156200Y-93543800D03*
X122000000Y-88463800D03*
X119536200Y-91080000D03*
X127156200Y-86000000D03*
D16*
X131787500Y-79072500D03*
X130212500Y-79072500D03*
D19*
X150000000Y-94775000D03*
X150000000Y-93225000D03*
D18*
X144500000Y-93580000D03*
X139343800Y-88500000D03*
X136880000Y-91116200D03*
X144500000Y-86036200D03*
D20*
X168500000Y-95500000D03*
D14*
X154300630Y-76000000D03*
X155950630Y-76000000D03*
X143821876Y-77500000D03*
X145471876Y-77500000D03*
X130320000Y-77572500D03*
X131970000Y-77572500D03*
D20*
X168500000Y-70500000D03*
D18*
X162000000Y-93543800D03*
X156843800Y-88463800D03*
X154380000Y-91080000D03*
X162000000Y-86000000D03*
D20*
X113000000Y-70500000D03*
D16*
X145364376Y-79000000D03*
X143789376Y-79000000D03*
D14*
X134607500Y-77682500D03*
X136257500Y-77682500D03*
D21*
X147745000Y-77570792D03*
X147745000Y-79220792D03*
D22*
X131750000Y-82975000D03*
X131750000Y-84525000D03*
D20*
X113000000Y-95500000D03*
D14*
X125645000Y-77610000D03*
X127295000Y-77610000D03*
D16*
X141095157Y-79220000D03*
X139520157Y-79220000D03*
D21*
X152800630Y-77500000D03*
X152800630Y-79150000D03*
D23*
X118750000Y-71000000D03*
D24*
X120000000Y-71000000D03*
X121250000Y-71000000D03*
X122500000Y-71000000D03*
X123750000Y-71000000D03*
X125000000Y-71000000D03*
X126250000Y-71000000D03*
X127500000Y-71000000D03*
D23*
X152500000Y-71000000D03*
D24*
X153750000Y-71000000D03*
X155000000Y-71000000D03*
X156250000Y-71000000D03*
X157500000Y-71000000D03*
X158750000Y-71000000D03*
X160000000Y-71000000D03*
X161250000Y-71000000D03*
X162500000Y-71000000D03*
D25*
X120000000Y-79500000D03*
D26*
X120000000Y-77500000D03*
D25*
X162500000Y-79500000D03*
D26*
X162500000Y-77500000D03*
%LPD*%
M02*
