G04 #@! TF.GenerationSoftware,KiCad,Pcbnew,9.0.0*
G04 #@! TF.CreationDate,2025-03-21T14:48:03+11:00*
G04 #@! TF.ProjectId,PCB_BackDesign,5043425f-4261-4636-9b44-657369676e2e,rev?*
G04 #@! TF.SameCoordinates,Original*
G04 #@! TF.FileFunction,Copper,L1,Top*
G04 #@! TF.FilePolarity,Positive*
%FSLAX46Y46*%
G04 Gerber Fmt 4.6, Leading zero omitted, Abs format (unit mm)*
G04 Created by KiCad (PCBNEW 9.0.0) date 2025-03-21 14:48:03*
%MOMM*%
%LPD*%
G01*
G04 APERTURE LIST*
G04 Aperture macros list*
%AMRoundRect*
0 Rectangle with rounded corners*
0 $1 Rounding radius*
0 $2 $3 $4 $5 $6 $7 $8 $9 X,Y pos of 4 corners*
0 Add a 4 corners polygon primitive as box body*
4,1,4,$2,$3,$4,$5,$6,$7,$8,$9,$2,$3,0*
0 Add four circle primitives for the rounded corners*
1,1,$1+$1,$2,$3*
1,1,$1+$1,$4,$5*
1,1,$1+$1,$6,$7*
1,1,$1+$1,$8,$9*
0 Add four rect primitives between the rounded corners*
20,1,$1+$1,$2,$3,$4,$5,0*
20,1,$1+$1,$4,$5,$6,$7,0*
20,1,$1+$1,$6,$7,$8,$9,0*
20,1,$1+$1,$8,$9,$2,$3,0*%
G04 Aperture macros list end*
G04 #@! TA.AperFunction,SMDPad,CuDef*
%ADD10RoundRect,0.200000X-0.200000X-0.275000X0.200000X-0.275000X0.200000X0.275000X-0.200000X0.275000X0*%
G04 #@! TD*
G04 #@! TA.AperFunction,SMDPad,CuDef*
%ADD11R,0.850000X0.650000*%
G04 #@! TD*
G04 #@! TA.AperFunction,SMDPad,CuDef*
%ADD12RoundRect,0.218750X0.218750X0.256250X-0.218750X0.256250X-0.218750X-0.256250X0.218750X-0.256250X0*%
G04 #@! TD*
G04 #@! TA.AperFunction,SMDPad,CuDef*
%ADD13RoundRect,0.225000X-0.225000X-0.250000X0.225000X-0.250000X0.225000X0.250000X-0.225000X0.250000X0*%
G04 #@! TD*
G04 #@! TA.AperFunction,ComponentPad*
%ADD14C,1.727200*%
G04 #@! TD*
G04 #@! TA.AperFunction,SMDPad,CuDef*
%ADD15RoundRect,0.225000X0.250000X-0.225000X0.250000X0.225000X-0.250000X0.225000X-0.250000X-0.225000X0*%
G04 #@! TD*
G04 #@! TA.AperFunction,SMDPad,CuDef*
%ADD16RoundRect,0.200000X-0.275000X0.200000X-0.275000X-0.200000X0.275000X-0.200000X0.275000X0.200000X0*%
G04 #@! TD*
G04 #@! TA.AperFunction,SMDPad,CuDef*
%ADD17RoundRect,0.225000X-0.250000X0.225000X-0.250000X-0.225000X0.250000X-0.225000X0.250000X0.225000X0*%
G04 #@! TD*
G04 #@! TA.AperFunction,ComponentPad*
%ADD18RoundRect,0.200000X-0.200000X-0.450000X0.200000X-0.450000X0.200000X0.450000X-0.200000X0.450000X0*%
G04 #@! TD*
G04 #@! TA.AperFunction,ComponentPad*
%ADD19O,0.800000X1.300000*%
G04 #@! TD*
G04 #@! TA.AperFunction,ComponentPad*
%ADD20RoundRect,0.250000X0.625000X-0.350000X0.625000X0.350000X-0.625000X0.350000X-0.625000X-0.350000X0*%
G04 #@! TD*
G04 #@! TA.AperFunction,ComponentPad*
%ADD21O,1.750000X1.200000*%
G04 #@! TD*
G04 #@! TA.AperFunction,ViaPad*
%ADD22C,0.600000*%
G04 #@! TD*
G04 #@! TA.AperFunction,Conductor*
%ADD23C,0.200000*%
G04 #@! TD*
G04 #@! TA.AperFunction,Conductor*
%ADD24C,0.500000*%
G04 #@! TD*
G04 APERTURE END LIST*
D10*
X149245000Y-80070792D03*
X150895000Y-80070792D03*
X149245000Y-76070792D03*
X150895000Y-76070792D03*
D11*
X149245000Y-78420792D03*
X149245000Y-77570792D03*
X150695000Y-77570792D03*
X150695000Y-78420792D03*
X154350630Y-78350000D03*
X154350630Y-77500000D03*
X155800630Y-77500000D03*
X155800630Y-78350000D03*
D10*
X139527657Y-77720000D03*
X141177657Y-77720000D03*
D12*
X136257500Y-79182500D03*
X134682500Y-79182500D03*
X127352500Y-79110000D03*
X125777500Y-79110000D03*
D13*
X123725000Y-82250000D03*
X125275000Y-82250000D03*
D10*
X154350000Y-80000000D03*
X156000000Y-80000000D03*
D14*
X127156200Y-93543800D03*
X122000000Y-88463800D03*
X119536200Y-91080000D03*
X127156200Y-86000000D03*
D12*
X131787500Y-79072500D03*
X130212500Y-79072500D03*
D15*
X150000000Y-94775000D03*
X150000000Y-93225000D03*
D14*
X144500000Y-93580000D03*
X139343800Y-88500000D03*
X136880000Y-91116200D03*
X144500000Y-86036200D03*
D10*
X154300630Y-76000000D03*
X155950630Y-76000000D03*
X143821876Y-77500000D03*
X145471876Y-77500000D03*
X130320000Y-77572500D03*
X131970000Y-77572500D03*
D14*
X162000000Y-93543800D03*
X156843800Y-88463800D03*
X154380000Y-91080000D03*
X162000000Y-86000000D03*
D12*
X145364376Y-79000000D03*
X143789376Y-79000000D03*
D10*
X134607500Y-77682500D03*
X136257500Y-77682500D03*
D16*
X147745000Y-77570792D03*
X147745000Y-79220792D03*
D17*
X131750000Y-82975000D03*
X131750000Y-84525000D03*
D10*
X125645000Y-77610000D03*
X127295000Y-77610000D03*
D12*
X141095157Y-79220000D03*
X139520157Y-79220000D03*
D16*
X152800630Y-77500000D03*
X152800630Y-79150000D03*
D18*
X118750000Y-71000000D03*
D19*
X120000000Y-71000000D03*
X121250000Y-71000000D03*
X122500000Y-71000000D03*
X123750000Y-71000000D03*
X125000000Y-71000000D03*
X126250000Y-71000000D03*
X127500000Y-71000000D03*
D18*
X152500000Y-71000000D03*
D19*
X153750000Y-71000000D03*
X155000000Y-71000000D03*
X156250000Y-71000000D03*
X157500000Y-71000000D03*
X158750000Y-71000000D03*
X160000000Y-71000000D03*
X161250000Y-71000000D03*
X162500000Y-71000000D03*
D20*
X120000000Y-79500000D03*
D21*
X120000000Y-77500000D03*
D20*
X162500000Y-79500000D03*
D21*
X162500000Y-77500000D03*
D22*
X146496879Y-80002434D03*
X151425630Y-78501785D03*
X128875829Y-80506535D03*
X130212500Y-79072500D03*
X150695000Y-78420792D03*
X155800630Y-78350000D03*
X133250000Y-82000000D03*
X121500000Y-77500000D03*
X154250000Y-82750000D03*
X154350000Y-80000000D03*
X130000000Y-73000000D03*
X154300630Y-76000000D03*
X146000000Y-74000000D03*
X146000000Y-71000000D03*
X139000000Y-71000000D03*
X139000000Y-74000000D03*
X131000000Y-74000000D03*
X130320000Y-77572500D03*
X134500000Y-74400000D03*
X134607500Y-77682500D03*
X127500000Y-75000000D03*
X125645000Y-77610000D03*
X151500000Y-73000000D03*
X143821876Y-77500000D03*
D23*
X139520157Y-79220000D02*
X140295157Y-79995000D01*
X150695000Y-78420792D02*
X151344637Y-78420792D01*
X138782657Y-79957500D02*
X139520157Y-79220000D01*
X127174035Y-80506535D02*
X128875829Y-80506535D01*
X130572500Y-79072500D02*
X131347500Y-79847500D01*
X144791810Y-80002434D02*
X146496879Y-80002434D01*
X134017500Y-79847500D02*
X134682500Y-79182500D01*
X151344637Y-78420792D02*
X151425630Y-78501785D01*
X121250000Y-71000000D02*
X121250000Y-74582500D01*
X130212500Y-79072500D02*
X130572500Y-79072500D01*
X125777500Y-79110000D02*
X127174035Y-80506535D01*
X135457500Y-79957500D02*
X138782657Y-79957500D01*
X134682500Y-79182500D02*
X135457500Y-79957500D01*
X131347500Y-79847500D02*
X134017500Y-79847500D01*
X143789376Y-79000000D02*
X144791810Y-80002434D01*
X142794376Y-79995000D02*
X143789376Y-79000000D01*
X140295157Y-79995000D02*
X142794376Y-79995000D01*
X121250000Y-74582500D02*
X125777500Y-79110000D01*
X127295000Y-79052500D02*
X127352500Y-79110000D01*
X127295000Y-77610000D02*
X127295000Y-79052500D01*
X131787500Y-79072500D02*
X131787500Y-77755000D01*
X131787500Y-77755000D02*
X131970000Y-77572500D01*
X136257500Y-79182500D02*
X136257500Y-77682500D01*
X141095157Y-77802500D02*
X141177657Y-77720000D01*
X141095157Y-79220000D02*
X141095157Y-77802500D01*
X145364376Y-77607500D02*
X145471876Y-77500000D01*
X145364376Y-79000000D02*
X145364376Y-77607500D01*
X148520000Y-77670792D02*
X148620000Y-77570792D01*
X148520000Y-78445792D02*
X148520000Y-77670792D01*
X148620000Y-77570792D02*
X149245000Y-77570792D01*
X147745000Y-79220792D02*
X148520000Y-78445792D01*
X150895000Y-80070792D02*
X149245000Y-78420792D01*
X150895000Y-77370792D02*
X150695000Y-77570792D01*
X150895000Y-76070792D02*
X150895000Y-77370792D01*
X155950630Y-76000000D02*
X155950630Y-77350000D01*
X155950630Y-77350000D02*
X155800630Y-77500000D01*
X153550630Y-79150000D02*
X154350630Y-78350000D01*
X152800630Y-79150000D02*
X153550630Y-79150000D01*
X154350630Y-77500000D02*
X154975630Y-77500000D01*
X154975630Y-77500000D02*
X155075630Y-77600000D01*
X155075630Y-77600000D02*
X155075630Y-79075630D01*
X155075630Y-79075630D02*
X156000000Y-80000000D01*
D24*
X120000000Y-71000000D02*
X120000000Y-77500000D01*
X121500000Y-77500000D02*
X120000000Y-77500000D01*
X162500000Y-77500000D02*
X158000000Y-82000000D01*
X158000000Y-82000000D02*
X133250000Y-82000000D01*
D23*
X129300000Y-69200000D02*
X127500000Y-71000000D01*
X161250000Y-82750000D02*
X164000000Y-80000000D01*
X154250000Y-82750000D02*
X161250000Y-82750000D01*
X163700000Y-69200000D02*
X129300000Y-69200000D01*
X164000000Y-80000000D02*
X164000000Y-69500000D01*
X164000000Y-69500000D02*
X163700000Y-69200000D01*
X127250000Y-72000000D02*
X129000000Y-72000000D01*
X129000000Y-72000000D02*
X130000000Y-73000000D01*
X126250000Y-71000000D02*
X127250000Y-72000000D01*
X129475000Y-80475000D02*
X137125000Y-88125000D01*
X122500000Y-71000000D02*
X129475000Y-77975000D01*
X137125000Y-88125000D02*
X142580000Y-93580000D01*
X129475000Y-77975000D02*
X129475000Y-80475000D01*
X142580000Y-93580000D02*
X144500000Y-93580000D01*
X122800000Y-70050000D02*
X118337352Y-70050000D01*
X119250000Y-81500000D02*
X123000000Y-81500000D01*
X118337352Y-70050000D02*
X118000000Y-70387352D01*
X123000000Y-81500000D02*
X123725000Y-82225000D01*
X123750000Y-71000000D02*
X122800000Y-70050000D01*
X123725000Y-85475000D02*
X127156200Y-88906200D01*
X123725000Y-82225000D02*
X123725000Y-85475000D01*
X127156200Y-88906200D02*
X127156200Y-93543800D01*
X118000000Y-80250000D02*
X119250000Y-81500000D01*
X118000000Y-70387352D02*
X118000000Y-80250000D01*
X123650000Y-69650000D02*
X118171666Y-69650000D01*
X126634221Y-94743600D02*
X160800200Y-94743600D01*
X117500000Y-70321666D02*
X117500000Y-85609379D01*
X125000000Y-71000000D02*
X123650000Y-69650000D01*
X160800200Y-94743600D02*
X162000000Y-93543800D01*
X117500000Y-85609379D02*
X126634221Y-94743600D01*
X118171666Y-69650000D02*
X117500000Y-70321666D01*
X118750000Y-71000000D02*
X118750000Y-78250000D01*
X118750000Y-78250000D02*
X120000000Y-79500000D01*
X146970000Y-79633440D02*
X146970000Y-76592458D01*
X162955635Y-69650000D02*
X163600000Y-70294365D01*
X156250000Y-71000000D02*
X157600000Y-69650000D01*
X140655199Y-76592458D02*
X139527657Y-77720000D01*
X157600000Y-69650000D02*
X162955635Y-69650000D01*
X148582352Y-81245792D02*
X146970000Y-79633440D01*
X146970000Y-76592458D02*
X140655199Y-76592458D01*
X163600000Y-70294365D02*
X163600000Y-74031372D01*
X163600000Y-74031372D02*
X156385580Y-81245792D01*
X156385580Y-81245792D02*
X148582352Y-81245792D01*
X157300000Y-73700000D02*
X150428144Y-73700000D01*
X150428144Y-73700000D02*
X147745000Y-76383144D01*
X160000000Y-71000000D02*
X157300000Y-73700000D01*
X147745000Y-76383144D02*
X147745000Y-77570792D01*
X153750000Y-71000000D02*
X153750000Y-70750000D01*
X153000000Y-70000000D02*
X135000000Y-70000000D01*
X135000000Y-70000000D02*
X131000000Y-74000000D01*
X153750000Y-70750000D02*
X153000000Y-70000000D01*
X154713278Y-76775000D02*
X155000630Y-76487648D01*
X155000630Y-74900000D02*
X162165686Y-74900000D01*
X163200000Y-73865686D02*
X163200000Y-70460051D01*
X155000630Y-76487648D02*
X155000630Y-74900000D01*
X153887982Y-76775000D02*
X154713278Y-76775000D01*
X153600630Y-77887648D02*
X153600630Y-77062352D01*
X159700000Y-70050000D02*
X158750000Y-71000000D01*
X151307648Y-80845792D02*
X152025630Y-80127810D01*
X152025630Y-78487352D02*
X152312982Y-78200000D01*
X162165686Y-74900000D02*
X163200000Y-73865686D01*
X152312982Y-78200000D02*
X153288278Y-78200000D01*
X149245000Y-80070792D02*
X150020000Y-80845792D01*
X152025630Y-80127810D02*
X152025630Y-78487352D01*
X163200000Y-70460051D02*
X162789949Y-70050000D01*
X150020000Y-80845792D02*
X151307648Y-80845792D01*
X153600630Y-77062352D02*
X153887982Y-76775000D01*
X153288278Y-78200000D02*
X153600630Y-77887648D01*
X162789949Y-70050000D02*
X159700000Y-70050000D01*
X158150000Y-74100000D02*
X161250000Y-71000000D01*
X151215792Y-74100000D02*
X158150000Y-74100000D01*
X149245000Y-76070792D02*
X151215792Y-74100000D01*
X155000000Y-71000000D02*
X153600000Y-69600000D01*
X130751471Y-74600000D02*
X134300000Y-74600000D01*
X130400000Y-74248529D02*
X130751471Y-74600000D01*
X134300000Y-74600000D02*
X134500000Y-74400000D01*
X134551471Y-69600000D02*
X130400000Y-73751471D01*
X130400000Y-73751471D02*
X130400000Y-74248529D01*
X153600000Y-69600000D02*
X134551471Y-69600000D01*
X152800630Y-77500000D02*
X152800630Y-76312352D01*
X154612982Y-74500000D02*
X162000000Y-74500000D01*
X152800630Y-76312352D02*
X154612982Y-74500000D01*
X162500000Y-74000000D02*
X162500000Y-71000000D01*
X162000000Y-74500000D02*
X162500000Y-74000000D01*
X148500000Y-75000000D02*
X127500000Y-75000000D01*
X152500000Y-71000000D02*
X148500000Y-75000000D01*
X157500000Y-71000000D02*
X155500000Y-73000000D01*
X155500000Y-73000000D02*
X151500000Y-73000000D01*
G04 #@! TA.AperFunction,Conductor*
G36*
X120955703Y-75137884D02*
G01*
X120962181Y-75143916D01*
X124803181Y-78984916D01*
X124836666Y-79046239D01*
X124839500Y-79072597D01*
X124839500Y-79414181D01*
X124849563Y-79512683D01*
X124902450Y-79672284D01*
X124902455Y-79672295D01*
X124990716Y-79815387D01*
X124990719Y-79815391D01*
X125109608Y-79934280D01*
X125109612Y-79934283D01*
X125252704Y-80022544D01*
X125252707Y-80022545D01*
X125252713Y-80022549D01*
X125412315Y-80075436D01*
X125510826Y-80085500D01*
X125852403Y-80085500D01*
X125919442Y-80105185D01*
X125940083Y-80121818D01*
X126805319Y-80987055D01*
X126805321Y-80987056D01*
X126805325Y-80987059D01*
X126904466Y-81044297D01*
X126942251Y-81066112D01*
X127094978Y-81107036D01*
X127094980Y-81107036D01*
X127260689Y-81107036D01*
X127260705Y-81107035D01*
X128296063Y-81107035D01*
X128363102Y-81126720D01*
X128364954Y-81127933D01*
X128496643Y-81215925D01*
X128496656Y-81215932D01*
X128642327Y-81276270D01*
X128642332Y-81276272D01*
X128796982Y-81307034D01*
X128796985Y-81307035D01*
X128796987Y-81307035D01*
X128954673Y-81307035D01*
X128954674Y-81307034D01*
X129109326Y-81276272D01*
X129255008Y-81215929D01*
X129255012Y-81215926D01*
X129257434Y-81214923D01*
X129326903Y-81207454D01*
X129389383Y-81238729D01*
X129392568Y-81241803D01*
X130740056Y-82589291D01*
X130773541Y-82650614D01*
X130775734Y-82689566D01*
X130774500Y-82701645D01*
X130774500Y-83248337D01*
X130774501Y-83248355D01*
X130784650Y-83347707D01*
X130784651Y-83347710D01*
X130837996Y-83508694D01*
X130838001Y-83508705D01*
X130927029Y-83653040D01*
X130927032Y-83653044D01*
X130936660Y-83662672D01*
X130970145Y-83723995D01*
X130965161Y-83793687D01*
X130936663Y-83838031D01*
X130927428Y-83847265D01*
X130927424Y-83847271D01*
X130838457Y-83991507D01*
X130838452Y-83991518D01*
X130785144Y-84152393D01*
X130775000Y-84251677D01*
X130775000Y-84275000D01*
X131626000Y-84275000D01*
X131693039Y-84294685D01*
X131738794Y-84347489D01*
X131750000Y-84399000D01*
X131750000Y-84525000D01*
X131876000Y-84525000D01*
X131943039Y-84544685D01*
X131988794Y-84597489D01*
X132000000Y-84649000D01*
X132000000Y-85474999D01*
X132048308Y-85474999D01*
X132048322Y-85474998D01*
X132147607Y-85464855D01*
X132308481Y-85411547D01*
X132308492Y-85411542D01*
X132452728Y-85322575D01*
X132452732Y-85322572D01*
X132572572Y-85202732D01*
X132572575Y-85202728D01*
X132661542Y-85058492D01*
X132661547Y-85058481D01*
X132714856Y-84897606D01*
X132719249Y-84854604D01*
X132745644Y-84789912D01*
X132802825Y-84749760D01*
X132872636Y-84746896D01*
X132930288Y-84779524D01*
X136763349Y-88612585D01*
X136763355Y-88612590D01*
X142082184Y-93931419D01*
X142115669Y-93992742D01*
X142110685Y-94062434D01*
X142068813Y-94118367D01*
X142003349Y-94142784D01*
X141994503Y-94143100D01*
X128566447Y-94143100D01*
X128499408Y-94123415D01*
X128453653Y-94070611D01*
X128443709Y-94001453D01*
X128448516Y-93980782D01*
X128468758Y-93918480D01*
X128486711Y-93863227D01*
X128520300Y-93651157D01*
X128520300Y-93436443D01*
X128486711Y-93224373D01*
X128432123Y-93056366D01*
X128420362Y-93020169D01*
X128420361Y-93020166D01*
X128341327Y-92865055D01*
X128322883Y-92828856D01*
X128196677Y-92655149D01*
X128044851Y-92503323D01*
X127940390Y-92427427D01*
X127871142Y-92377115D01*
X127824404Y-92353301D01*
X127773609Y-92305327D01*
X127756700Y-92242817D01*
X127756700Y-91008843D01*
X135515900Y-91008843D01*
X135515900Y-91223556D01*
X135549489Y-91435628D01*
X135615837Y-91639830D01*
X135615838Y-91639833D01*
X135694872Y-91794944D01*
X135713317Y-91831144D01*
X135839523Y-92004851D01*
X135991349Y-92156677D01*
X136165056Y-92282883D01*
X136229732Y-92315837D01*
X136356366Y-92380361D01*
X136356369Y-92380362D01*
X136449157Y-92410510D01*
X136560573Y-92446711D01*
X136772643Y-92480300D01*
X136772644Y-92480300D01*
X136987356Y-92480300D01*
X136987357Y-92480300D01*
X137199427Y-92446711D01*
X137403633Y-92380361D01*
X137594944Y-92282883D01*
X137768651Y-92156677D01*
X137920477Y-92004851D01*
X138046683Y-91831144D01*
X138144161Y-91639833D01*
X138210511Y-91435627D01*
X138244100Y-91223557D01*
X138244100Y-91008843D01*
X138210511Y-90796773D01*
X138144161Y-90592567D01*
X138144161Y-90592566D01*
X138046682Y-90401255D01*
X138020381Y-90365055D01*
X137920477Y-90227549D01*
X137768651Y-90075723D01*
X137594944Y-89949517D01*
X137523898Y-89913317D01*
X137403633Y-89852038D01*
X137403630Y-89852037D01*
X137199428Y-89785689D01*
X137075313Y-89766031D01*
X136987357Y-89752100D01*
X136772643Y-89752100D01*
X136701953Y-89763296D01*
X136560571Y-89785689D01*
X136356369Y-89852037D01*
X136356366Y-89852038D01*
X136165055Y-89949517D01*
X136065949Y-90021522D01*
X135991349Y-90075723D01*
X135991347Y-90075725D01*
X135991346Y-90075725D01*
X135839525Y-90227546D01*
X135839525Y-90227547D01*
X135839523Y-90227549D01*
X135785322Y-90302149D01*
X135713317Y-90401255D01*
X135615838Y-90592566D01*
X135615837Y-90592569D01*
X135549489Y-90796771D01*
X135515900Y-91008843D01*
X127756700Y-91008843D01*
X127756700Y-88995260D01*
X127756701Y-88995247D01*
X127756701Y-88827144D01*
X127754602Y-88819311D01*
X127715777Y-88674416D01*
X127676001Y-88605521D01*
X127636724Y-88537490D01*
X127636718Y-88537482D01*
X126599062Y-87499826D01*
X126565577Y-87438503D01*
X126570561Y-87368811D01*
X126612433Y-87312878D01*
X126677897Y-87288461D01*
X126725061Y-87294214D01*
X126836773Y-87330511D01*
X127048843Y-87364100D01*
X127048844Y-87364100D01*
X127263556Y-87364100D01*
X127263557Y-87364100D01*
X127475627Y-87330511D01*
X127679833Y-87264161D01*
X127871144Y-87166683D01*
X128044851Y-87040477D01*
X128196677Y-86888651D01*
X128322883Y-86714944D01*
X128420361Y-86523633D01*
X128486711Y-86319427D01*
X128520300Y-86107357D01*
X128520300Y-85892643D01*
X128486711Y-85680573D01*
X128420361Y-85476367D01*
X128420361Y-85476366D01*
X128341327Y-85321255D01*
X128322883Y-85285056D01*
X128196677Y-85111349D01*
X128044851Y-84959523D01*
X127871144Y-84833317D01*
X127871145Y-84833317D01*
X127871143Y-84833316D01*
X127802464Y-84798322D01*
X130775001Y-84798322D01*
X130785144Y-84897607D01*
X130838452Y-85058481D01*
X130838457Y-85058492D01*
X130927424Y-85202728D01*
X130927427Y-85202732D01*
X131047267Y-85322572D01*
X131047271Y-85322575D01*
X131191507Y-85411542D01*
X131191518Y-85411547D01*
X131352393Y-85464855D01*
X131451683Y-85474999D01*
X131499999Y-85474998D01*
X131500000Y-85474998D01*
X131500000Y-84775000D01*
X130775001Y-84775000D01*
X130775001Y-84798322D01*
X127802464Y-84798322D01*
X127679833Y-84735838D01*
X127679830Y-84735837D01*
X127475628Y-84669489D01*
X127346266Y-84649000D01*
X127263557Y-84635900D01*
X127048843Y-84635900D01*
X126978153Y-84647096D01*
X126836771Y-84669489D01*
X126632569Y-84735837D01*
X126632566Y-84735838D01*
X126441255Y-84833317D01*
X126391431Y-84869517D01*
X126267549Y-84959523D01*
X126267547Y-84959525D01*
X126267546Y-84959525D01*
X126115725Y-85111346D01*
X126115725Y-85111347D01*
X126115723Y-85111349D01*
X126089424Y-85147547D01*
X125989517Y-85285055D01*
X125892038Y-85476366D01*
X125892037Y-85476369D01*
X125825689Y-85680571D01*
X125792100Y-85892643D01*
X125792100Y-86107356D01*
X125825689Y-86319430D01*
X125861985Y-86431139D01*
X125863980Y-86500980D01*
X125827899Y-86560812D01*
X125765198Y-86591640D01*
X125695784Y-86583675D01*
X125656373Y-86557137D01*
X124361819Y-85262583D01*
X124328334Y-85201260D01*
X124325500Y-85174902D01*
X124325500Y-83190004D01*
X124326582Y-83186317D01*
X124325723Y-83182574D01*
X124336348Y-83153057D01*
X124345185Y-83122965D01*
X124348464Y-83119401D01*
X124349389Y-83116834D01*
X124359037Y-83107914D01*
X124374059Y-83091594D01*
X124379050Y-83087767D01*
X124403044Y-83072968D01*
X124418442Y-83057569D01*
X124424912Y-83052610D01*
X124450200Y-83042846D01*
X124473987Y-83029856D01*
X124482307Y-83030450D01*
X124490092Y-83027445D01*
X124516642Y-83032903D01*
X124543679Y-83034835D01*
X124551977Y-83040167D01*
X124558531Y-83041515D01*
X124567087Y-83049878D01*
X124588034Y-83063339D01*
X124597267Y-83072572D01*
X124597271Y-83072575D01*
X124741507Y-83161542D01*
X124741518Y-83161547D01*
X124902393Y-83214855D01*
X125001683Y-83224999D01*
X125525000Y-83224999D01*
X125548308Y-83224999D01*
X125548322Y-83224998D01*
X125647607Y-83214855D01*
X125808481Y-83161547D01*
X125808492Y-83161542D01*
X125952728Y-83072575D01*
X125952732Y-83072572D01*
X126072572Y-82952732D01*
X126072575Y-82952728D01*
X126161542Y-82808492D01*
X126161547Y-82808481D01*
X126214855Y-82647606D01*
X126224999Y-82548322D01*
X126225000Y-82548309D01*
X126225000Y-82500000D01*
X125525000Y-82500000D01*
X125525000Y-83224999D01*
X125001683Y-83224999D01*
X125025000Y-83224998D01*
X125025000Y-82000000D01*
X125525000Y-82000000D01*
X126224999Y-82000000D01*
X126224999Y-81951692D01*
X126224998Y-81951677D01*
X126214855Y-81852392D01*
X126161547Y-81691518D01*
X126161542Y-81691507D01*
X126072575Y-81547271D01*
X126072572Y-81547267D01*
X125952732Y-81427427D01*
X125952728Y-81427424D01*
X125808492Y-81338457D01*
X125808481Y-81338452D01*
X125647606Y-81285144D01*
X125548322Y-81275000D01*
X125525000Y-81275000D01*
X125525000Y-82000000D01*
X125025000Y-82000000D01*
X125025000Y-81274999D01*
X125001693Y-81275000D01*
X125001674Y-81275001D01*
X124902392Y-81285144D01*
X124741518Y-81338452D01*
X124741507Y-81338457D01*
X124597271Y-81427424D01*
X124597265Y-81427428D01*
X124588031Y-81436663D01*
X124526707Y-81470146D01*
X124457015Y-81465159D01*
X124412672Y-81436660D01*
X124403044Y-81427032D01*
X124403040Y-81427029D01*
X124258705Y-81338001D01*
X124258699Y-81337998D01*
X124258697Y-81337997D01*
X124258694Y-81337996D01*
X124097709Y-81284651D01*
X123998352Y-81274500D01*
X123998345Y-81274500D01*
X123675097Y-81274500D01*
X123645656Y-81265855D01*
X123615670Y-81259332D01*
X123610654Y-81255577D01*
X123608058Y-81254815D01*
X123587416Y-81238181D01*
X123487590Y-81138355D01*
X123487588Y-81138352D01*
X123368717Y-81019481D01*
X123368716Y-81019480D01*
X123257934Y-80955520D01*
X123257934Y-80955519D01*
X123257929Y-80955518D01*
X123248806Y-80950250D01*
X123231786Y-80940423D01*
X123193603Y-80930192D01*
X123079057Y-80899499D01*
X122920943Y-80899499D01*
X122913347Y-80899499D01*
X122913331Y-80899500D01*
X119550097Y-80899500D01*
X119520656Y-80890855D01*
X119490670Y-80884332D01*
X119485654Y-80880577D01*
X119483058Y-80879815D01*
X119462416Y-80863181D01*
X119410915Y-80811680D01*
X119377430Y-80750357D01*
X119382414Y-80680665D01*
X119424286Y-80624732D01*
X119489750Y-80600315D01*
X119498596Y-80599999D01*
X119749999Y-80599999D01*
X119750000Y-80599998D01*
X119750000Y-79780330D01*
X119769745Y-79800075D01*
X119855255Y-79849444D01*
X119950630Y-79875000D01*
X120049370Y-79875000D01*
X120144745Y-79849444D01*
X120230255Y-79800075D01*
X120250000Y-79780330D01*
X120250000Y-80599999D01*
X120674972Y-80599999D01*
X120674986Y-80599998D01*
X120777697Y-80589505D01*
X120944119Y-80534358D01*
X120944124Y-80534356D01*
X121093345Y-80442315D01*
X121217315Y-80318345D01*
X121309356Y-80169124D01*
X121309358Y-80169119D01*
X121364505Y-80002697D01*
X121364506Y-80002690D01*
X121374999Y-79899986D01*
X121375000Y-79899973D01*
X121375000Y-79750000D01*
X120280330Y-79750000D01*
X120300075Y-79730255D01*
X120349444Y-79644745D01*
X120375000Y-79549370D01*
X120375000Y-79450630D01*
X120349444Y-79355255D01*
X120300075Y-79269745D01*
X120280330Y-79250000D01*
X121374999Y-79250000D01*
X121374999Y-79100028D01*
X121374998Y-79100013D01*
X121364505Y-78997302D01*
X121309358Y-78830880D01*
X121309356Y-78830875D01*
X121217315Y-78681654D01*
X121093343Y-78557682D01*
X121029093Y-78518053D01*
X121013539Y-78500761D01*
X120994921Y-78486823D01*
X120990612Y-78475271D01*
X120982368Y-78466105D01*
X120978631Y-78443148D01*
X120970505Y-78421358D01*
X120973125Y-78409312D01*
X120971145Y-78397143D01*
X120980414Y-78375808D01*
X120985358Y-78353086D01*
X120997105Y-78337393D01*
X120998988Y-78333061D01*
X121006498Y-78324843D01*
X121044524Y-78286818D01*
X121105847Y-78253333D01*
X121132204Y-78250500D01*
X121195396Y-78250500D01*
X121242844Y-78259937D01*
X121266503Y-78269737D01*
X121266508Y-78269738D01*
X121266511Y-78269739D01*
X121421153Y-78300499D01*
X121421156Y-78300500D01*
X121421158Y-78300500D01*
X121578844Y-78300500D01*
X121578845Y-78300499D01*
X121733497Y-78269737D01*
X121865804Y-78214934D01*
X121879172Y-78209397D01*
X121879172Y-78209396D01*
X121879179Y-78209394D01*
X122010289Y-78121789D01*
X122121789Y-78010289D01*
X122209394Y-77879179D01*
X122269737Y-77733497D01*
X122300500Y-77578842D01*
X122300500Y-77421158D01*
X122300500Y-77421155D01*
X122300499Y-77421153D01*
X122286522Y-77350886D01*
X122269737Y-77266503D01*
X122260161Y-77243384D01*
X122209397Y-77120827D01*
X122209390Y-77120814D01*
X122121789Y-76989711D01*
X122121786Y-76989707D01*
X122010292Y-76878213D01*
X122010288Y-76878210D01*
X121879185Y-76790609D01*
X121879172Y-76790602D01*
X121733501Y-76730264D01*
X121733489Y-76730261D01*
X121578845Y-76699500D01*
X121578842Y-76699500D01*
X121421158Y-76699500D01*
X121421155Y-76699500D01*
X121266511Y-76730260D01*
X121266506Y-76730262D01*
X121266504Y-76730262D01*
X121266503Y-76730263D01*
X121242844Y-76740062D01*
X121234670Y-76741688D01*
X121230331Y-76744477D01*
X121195396Y-76749500D01*
X121132204Y-76749500D01*
X121065165Y-76729815D01*
X121044523Y-76713181D01*
X120991930Y-76660588D01*
X120991928Y-76660586D01*
X120851788Y-76558768D01*
X120849765Y-76557737D01*
X120818203Y-76541655D01*
X120767408Y-76493680D01*
X120750500Y-76431171D01*
X120750500Y-75231597D01*
X120770185Y-75164558D01*
X120822989Y-75118803D01*
X120892147Y-75108859D01*
X120955703Y-75137884D01*
G37*
G04 #@! TD.AperFunction*
G04 #@! TA.AperFunction,Conductor*
G36*
X118305703Y-81405384D02*
G01*
X118312181Y-81411416D01*
X118765139Y-81864374D01*
X118765149Y-81864385D01*
X118769479Y-81868715D01*
X118769480Y-81868716D01*
X118881284Y-81980520D01*
X118957462Y-82024501D01*
X119018215Y-82059577D01*
X119170943Y-82100501D01*
X119170946Y-82100501D01*
X119336653Y-82100501D01*
X119336669Y-82100500D01*
X122650500Y-82100500D01*
X122717539Y-82120185D01*
X122763294Y-82172989D01*
X122774500Y-82224500D01*
X122774500Y-82548336D01*
X122774501Y-82548355D01*
X122784650Y-82647707D01*
X122784651Y-82647710D01*
X122837996Y-82808694D01*
X122838001Y-82808705D01*
X122927029Y-82953040D01*
X122927032Y-82953044D01*
X123046956Y-83072968D01*
X123065596Y-83084465D01*
X123112321Y-83136412D01*
X123124500Y-83190004D01*
X123124500Y-85388330D01*
X123124499Y-85388348D01*
X123124499Y-85554054D01*
X123124498Y-85554054D01*
X123165423Y-85706785D01*
X123194358Y-85756900D01*
X123194359Y-85756904D01*
X123194360Y-85756904D01*
X123244479Y-85843714D01*
X123244481Y-85843717D01*
X123363349Y-85962585D01*
X123363355Y-85962590D01*
X126519381Y-89118616D01*
X126552866Y-89179939D01*
X126555700Y-89206297D01*
X126555700Y-92242817D01*
X126536015Y-92309856D01*
X126487996Y-92353301D01*
X126441257Y-92377115D01*
X126345468Y-92446711D01*
X126267549Y-92503323D01*
X126267547Y-92503325D01*
X126267546Y-92503325D01*
X126115725Y-92655146D01*
X126115725Y-92655147D01*
X126115723Y-92655149D01*
X126061522Y-92729749D01*
X125989517Y-92828855D01*
X125924961Y-92955553D01*
X125876986Y-93006349D01*
X125809165Y-93023144D01*
X125743030Y-93000606D01*
X125726795Y-92986939D01*
X122606968Y-89867112D01*
X122573483Y-89805789D01*
X122578467Y-89736097D01*
X122620339Y-89680164D01*
X122638355Y-89668946D01*
X122714679Y-89630057D01*
X122714680Y-89630057D01*
X122771453Y-89588807D01*
X122771453Y-89588806D01*
X122216567Y-89033921D01*
X122288754Y-89004021D01*
X122388598Y-88937308D01*
X122473508Y-88852398D01*
X122540221Y-88752554D01*
X122570121Y-88680368D01*
X123125006Y-89235253D01*
X123125007Y-89235253D01*
X123166255Y-89178482D01*
X123263696Y-88987245D01*
X123330024Y-88783111D01*
X123363600Y-88571123D01*
X123363600Y-88356476D01*
X123330024Y-88144488D01*
X123263696Y-87940354D01*
X123166255Y-87749117D01*
X123125006Y-87692345D01*
X122570120Y-88247230D01*
X122540221Y-88175046D01*
X122473508Y-88075202D01*
X122388598Y-87990292D01*
X122288754Y-87923579D01*
X122216567Y-87893678D01*
X122771454Y-87338792D01*
X122714681Y-87297543D01*
X122523445Y-87200103D01*
X122319311Y-87133775D01*
X122107323Y-87100200D01*
X121892677Y-87100200D01*
X121680688Y-87133775D01*
X121476554Y-87200103D01*
X121285317Y-87297544D01*
X121228545Y-87338792D01*
X121228544Y-87338792D01*
X121783431Y-87893678D01*
X121711246Y-87923579D01*
X121611402Y-87990292D01*
X121526492Y-88075202D01*
X121459779Y-88175046D01*
X121429878Y-88247231D01*
X120874992Y-87692344D01*
X120874992Y-87692345D01*
X120833740Y-87749122D01*
X120794852Y-87825445D01*
X120746878Y-87876241D01*
X120679057Y-87893036D01*
X120612922Y-87870498D01*
X120596687Y-87856831D01*
X118136819Y-85396963D01*
X118103334Y-85335640D01*
X118100500Y-85309282D01*
X118100500Y-81499097D01*
X118120185Y-81432058D01*
X118172989Y-81386303D01*
X118242147Y-81376359D01*
X118305703Y-81405384D01*
G37*
G04 #@! TD.AperFunction*
G04 #@! TA.AperFunction,Conductor*
G36*
X118805703Y-78112460D02*
G01*
X118824818Y-78133288D01*
X118885583Y-78216924D01*
X118885588Y-78216930D01*
X118993491Y-78324833D01*
X119026976Y-78386156D01*
X119021992Y-78455848D01*
X118985462Y-78507548D01*
X118804152Y-78659511D01*
X118776931Y-78671405D01*
X118750858Y-78685643D01*
X118745265Y-78685243D01*
X118740128Y-78687488D01*
X118710798Y-78682778D01*
X118681166Y-78680659D01*
X118676677Y-78677298D01*
X118671142Y-78676410D01*
X118649010Y-78656586D01*
X118625233Y-78638787D01*
X118623274Y-78633535D01*
X118619097Y-78629794D01*
X118611196Y-78601153D01*
X118600816Y-78573323D01*
X118600500Y-78564477D01*
X118600500Y-78206173D01*
X118620185Y-78139134D01*
X118672989Y-78093379D01*
X118742147Y-78083435D01*
X118805703Y-78112460D01*
G37*
G04 #@! TD.AperFunction*
G04 #@! TA.AperFunction,Conductor*
G36*
X119000000Y-71124000D02*
G01*
X119000000Y-72149999D01*
X119006581Y-72149999D01*
X119077101Y-72143591D01*
X119088604Y-72140007D01*
X119158464Y-72138853D01*
X119217858Y-72175651D01*
X119247929Y-72238718D01*
X119249500Y-72258391D01*
X119249500Y-76431171D01*
X119229815Y-76498210D01*
X119181797Y-76541655D01*
X119148211Y-76558768D01*
X119086762Y-76603414D01*
X119008072Y-76660586D01*
X119008070Y-76660588D01*
X119008069Y-76660588D01*
X118885588Y-76783069D01*
X118885588Y-76783070D01*
X118885586Y-76783072D01*
X118827252Y-76863362D01*
X118824818Y-76866712D01*
X118769488Y-76909377D01*
X118699874Y-76915356D01*
X118638079Y-76882750D01*
X118603722Y-76821911D01*
X118600500Y-76793826D01*
X118600500Y-71204054D01*
X118608386Y-71211940D01*
X118700272Y-71250000D01*
X118799728Y-71250000D01*
X118891614Y-71211940D01*
X118961940Y-71141614D01*
X118989406Y-71075303D01*
X119000000Y-71124000D01*
G37*
G04 #@! TD.AperFunction*
G04 #@! TA.AperFunction,Conductor*
G36*
X151542539Y-70620185D02*
G01*
X151588294Y-70672989D01*
X151599500Y-70724500D01*
X151599500Y-70999903D01*
X151579815Y-71066942D01*
X151563181Y-71087584D01*
X148287584Y-74363181D01*
X148226261Y-74396666D01*
X148199903Y-74399500D01*
X135417848Y-74399500D01*
X135350809Y-74379815D01*
X135305054Y-74327011D01*
X135296231Y-74299692D01*
X135269738Y-74166508D01*
X135269737Y-74166507D01*
X135269737Y-74166503D01*
X135267814Y-74161860D01*
X135209397Y-74020827D01*
X135209390Y-74020814D01*
X135121789Y-73889711D01*
X135121786Y-73889707D01*
X135010292Y-73778213D01*
X135010288Y-73778210D01*
X134879185Y-73690609D01*
X134879172Y-73690602D01*
X134733501Y-73630264D01*
X134733489Y-73630261D01*
X134578845Y-73599500D01*
X134578842Y-73599500D01*
X134421158Y-73599500D01*
X134421155Y-73599500D01*
X134266510Y-73630261D01*
X134266498Y-73630264D01*
X134120827Y-73690602D01*
X134120814Y-73690609D01*
X133989711Y-73778210D01*
X133989707Y-73778213D01*
X133878213Y-73889707D01*
X133878207Y-73889715D01*
X133841675Y-73944390D01*
X133788063Y-73989196D01*
X133738573Y-73999500D01*
X132149097Y-73999500D01*
X132082058Y-73979815D01*
X132036303Y-73927011D01*
X132026359Y-73857853D01*
X132055384Y-73794297D01*
X132061416Y-73787819D01*
X135212416Y-70636819D01*
X135273739Y-70603334D01*
X135300097Y-70600500D01*
X151475500Y-70600500D01*
X151542539Y-70620185D01*
G37*
G04 #@! TD.AperFunction*
G04 #@! TA.AperFunction,Conductor*
G36*
X170943039Y-68019685D02*
G01*
X170988794Y-68072489D01*
X171000000Y-68124000D01*
X171000000Y-97876000D01*
X170980315Y-97943039D01*
X170927511Y-97988794D01*
X170876000Y-98000000D01*
X110624000Y-98000000D01*
X110556961Y-97980315D01*
X110511206Y-97927511D01*
X110500000Y-97876000D01*
X110500000Y-95397648D01*
X111699500Y-95397648D01*
X111699500Y-95602351D01*
X111731522Y-95804534D01*
X111794781Y-95999223D01*
X111887715Y-96181613D01*
X112008028Y-96347213D01*
X112152786Y-96491971D01*
X112307749Y-96604556D01*
X112318390Y-96612287D01*
X112434607Y-96671503D01*
X112500776Y-96705218D01*
X112500778Y-96705218D01*
X112500781Y-96705220D01*
X112605137Y-96739127D01*
X112695465Y-96768477D01*
X112796557Y-96784488D01*
X112897648Y-96800500D01*
X112897649Y-96800500D01*
X113102351Y-96800500D01*
X113102352Y-96800500D01*
X113304534Y-96768477D01*
X113499219Y-96705220D01*
X113681610Y-96612287D01*
X113774590Y-96544732D01*
X113847213Y-96491971D01*
X113847215Y-96491968D01*
X113847219Y-96491966D01*
X113991966Y-96347219D01*
X113991968Y-96347215D01*
X113991971Y-96347213D01*
X114044732Y-96274590D01*
X114112287Y-96181610D01*
X114205220Y-95999219D01*
X114268477Y-95804534D01*
X114300500Y-95602352D01*
X114300500Y-95397648D01*
X114280954Y-95274239D01*
X114268477Y-95195465D01*
X114205218Y-95000776D01*
X114171503Y-94934607D01*
X114112287Y-94818390D01*
X114033889Y-94710483D01*
X113991971Y-94652786D01*
X113847213Y-94508028D01*
X113681613Y-94387715D01*
X113681612Y-94387714D01*
X113681610Y-94387713D01*
X113624653Y-94358691D01*
X113499223Y-94294781D01*
X113304534Y-94231522D01*
X113129995Y-94203878D01*
X113102352Y-94199500D01*
X112897648Y-94199500D01*
X112873329Y-94203351D01*
X112695465Y-94231522D01*
X112500776Y-94294781D01*
X112318386Y-94387715D01*
X112152786Y-94508028D01*
X112008028Y-94652786D01*
X111887715Y-94818386D01*
X111794781Y-95000776D01*
X111731522Y-95195465D01*
X111699500Y-95397648D01*
X110500000Y-95397648D01*
X110500000Y-90972643D01*
X118172100Y-90972643D01*
X118172100Y-91187357D01*
X118177834Y-91223557D01*
X118205689Y-91399428D01*
X118272037Y-91603630D01*
X118272038Y-91603633D01*
X118369517Y-91794944D01*
X118495723Y-91968651D01*
X118647549Y-92120477D01*
X118821256Y-92246683D01*
X118896740Y-92285144D01*
X119012566Y-92344161D01*
X119012569Y-92344162D01*
X119113990Y-92377115D01*
X119216773Y-92410511D01*
X119428843Y-92444100D01*
X119428844Y-92444100D01*
X119643556Y-92444100D01*
X119643557Y-92444100D01*
X119855627Y-92410511D01*
X120059833Y-92344161D01*
X120251144Y-92246683D01*
X120424851Y-92120477D01*
X120576677Y-91968651D01*
X120702883Y-91794944D01*
X120800361Y-91603633D01*
X120866711Y-91399427D01*
X120900300Y-91187357D01*
X120900300Y-90972643D01*
X120866711Y-90760573D01*
X120800361Y-90556367D01*
X120800361Y-90556366D01*
X120702882Y-90365055D01*
X120576677Y-90191349D01*
X120424851Y-90039523D01*
X120251144Y-89913317D01*
X120059833Y-89815838D01*
X120059830Y-89815837D01*
X119855628Y-89749489D01*
X119716770Y-89727496D01*
X119643557Y-89715900D01*
X119428843Y-89715900D01*
X119358153Y-89727096D01*
X119216771Y-89749489D01*
X119012569Y-89815837D01*
X119012566Y-89815838D01*
X118821255Y-89913317D01*
X118771431Y-89949517D01*
X118647549Y-90039523D01*
X118647547Y-90039525D01*
X118647546Y-90039525D01*
X118495725Y-90191346D01*
X118495725Y-90191347D01*
X118495723Y-90191349D01*
X118469424Y-90227547D01*
X118369517Y-90365055D01*
X118272038Y-90556366D01*
X118272037Y-90556369D01*
X118205689Y-90760571D01*
X118199955Y-90796773D01*
X118172100Y-90972643D01*
X110500000Y-90972643D01*
X110500000Y-85688433D01*
X116899498Y-85688433D01*
X116940423Y-85841164D01*
X116969358Y-85891279D01*
X116969359Y-85891283D01*
X116969360Y-85891283D01*
X117010525Y-85962585D01*
X117019479Y-85978093D01*
X117019481Y-85978096D01*
X117138349Y-86096964D01*
X117138355Y-86096969D01*
X126149360Y-95107974D01*
X126149370Y-95107985D01*
X126153700Y-95112315D01*
X126153701Y-95112316D01*
X126265505Y-95224120D01*
X126352316Y-95274239D01*
X126352318Y-95274241D01*
X126402434Y-95303176D01*
X126402436Y-95303177D01*
X126555163Y-95344100D01*
X126555164Y-95344100D01*
X149040628Y-95344100D01*
X149107667Y-95363785D01*
X149146164Y-95403000D01*
X149177032Y-95453044D01*
X149177033Y-95453045D01*
X149296955Y-95572967D01*
X149296959Y-95572970D01*
X149441294Y-95661998D01*
X149441297Y-95661999D01*
X149441303Y-95662003D01*
X149602292Y-95715349D01*
X149701655Y-95725500D01*
X150298344Y-95725499D01*
X150298352Y-95725498D01*
X150298355Y-95725498D01*
X150352760Y-95719940D01*
X150397708Y-95715349D01*
X150558697Y-95662003D01*
X150703044Y-95572968D01*
X150822968Y-95453044D01*
X150853835Y-95403001D01*
X150859787Y-95397648D01*
X167199500Y-95397648D01*
X167199500Y-95602351D01*
X167231522Y-95804534D01*
X167294781Y-95999223D01*
X167387715Y-96181613D01*
X167508028Y-96347213D01*
X167652786Y-96491971D01*
X167807749Y-96604556D01*
X167818390Y-96612287D01*
X167934607Y-96671503D01*
X168000776Y-96705218D01*
X168000778Y-96705218D01*
X168000781Y-96705220D01*
X168105137Y-96739127D01*
X168195465Y-96768477D01*
X168296557Y-96784488D01*
X168397648Y-96800500D01*
X168397649Y-96800500D01*
X168602351Y-96800500D01*
X168602352Y-96800500D01*
X168804534Y-96768477D01*
X168999219Y-96705220D01*
X169181610Y-96612287D01*
X169274590Y-96544732D01*
X169347213Y-96491971D01*
X169347215Y-96491968D01*
X169347219Y-96491966D01*
X169491966Y-96347219D01*
X169491968Y-96347215D01*
X169491971Y-96347213D01*
X169544732Y-96274590D01*
X169612287Y-96181610D01*
X169705220Y-95999219D01*
X169768477Y-95804534D01*
X169800500Y-95602352D01*
X169800500Y-95397648D01*
X169780954Y-95274239D01*
X169768477Y-95195465D01*
X169705218Y-95000776D01*
X169671503Y-94934607D01*
X169612287Y-94818390D01*
X169533889Y-94710483D01*
X169491971Y-94652786D01*
X169347213Y-94508028D01*
X169181613Y-94387715D01*
X169181612Y-94387714D01*
X169181610Y-94387713D01*
X169124653Y-94358691D01*
X168999223Y-94294781D01*
X168804534Y-94231522D01*
X168629995Y-94203878D01*
X168602352Y-94199500D01*
X168397648Y-94199500D01*
X168373329Y-94203351D01*
X168195465Y-94231522D01*
X168000776Y-94294781D01*
X167818386Y-94387715D01*
X167652786Y-94508028D01*
X167508028Y-94652786D01*
X167387715Y-94818386D01*
X167294781Y-95000776D01*
X167231522Y-95195465D01*
X167199500Y-95397648D01*
X150859787Y-95397648D01*
X150905781Y-95356279D01*
X150959372Y-95344100D01*
X160713531Y-95344100D01*
X160713547Y-95344101D01*
X160721143Y-95344101D01*
X160879254Y-95344101D01*
X160879257Y-95344101D01*
X161031985Y-95303177D01*
X161082104Y-95274239D01*
X161168916Y-95224120D01*
X161280720Y-95112316D01*
X161280720Y-95112314D01*
X161290928Y-95102107D01*
X161290930Y-95102104D01*
X161504685Y-94888348D01*
X161566006Y-94854865D01*
X161630681Y-94858099D01*
X161680573Y-94874311D01*
X161892643Y-94907900D01*
X161892644Y-94907900D01*
X162107356Y-94907900D01*
X162107357Y-94907900D01*
X162319427Y-94874311D01*
X162523633Y-94807961D01*
X162714944Y-94710483D01*
X162888651Y-94584277D01*
X163040477Y-94432451D01*
X163166683Y-94258744D01*
X163264161Y-94067433D01*
X163330511Y-93863227D01*
X163364100Y-93651157D01*
X163364100Y-93436443D01*
X163330511Y-93224373D01*
X163275923Y-93056366D01*
X163264162Y-93020169D01*
X163264161Y-93020166D01*
X163185127Y-92865055D01*
X163166683Y-92828856D01*
X163040477Y-92655149D01*
X162888651Y-92503323D01*
X162714944Y-92377117D01*
X162668203Y-92353301D01*
X162523633Y-92279638D01*
X162523630Y-92279637D01*
X162319428Y-92213289D01*
X162213392Y-92196494D01*
X162107357Y-92179700D01*
X161892643Y-92179700D01*
X161821953Y-92190896D01*
X161680571Y-92213289D01*
X161476369Y-92279637D01*
X161476366Y-92279638D01*
X161285055Y-92377117D01*
X161215810Y-92427427D01*
X161111349Y-92503323D01*
X161111347Y-92503325D01*
X161111346Y-92503325D01*
X160959525Y-92655146D01*
X160959525Y-92655147D01*
X160959523Y-92655149D01*
X160905322Y-92729749D01*
X160833317Y-92828855D01*
X160735838Y-93020166D01*
X160735837Y-93020169D01*
X160669489Y-93224371D01*
X160663755Y-93260573D01*
X160635900Y-93436443D01*
X160635900Y-93651157D01*
X160641634Y-93687357D01*
X160669489Y-93863228D01*
X160685698Y-93913115D01*
X160686132Y-93928326D01*
X160691451Y-93942585D01*
X160687109Y-93962542D01*
X160687693Y-93982957D01*
X160679604Y-93997043D01*
X160676600Y-94010858D01*
X160655450Y-94039113D01*
X160587785Y-94106780D01*
X160526462Y-94140266D01*
X160500102Y-94143100D01*
X150919487Y-94143100D01*
X150852448Y-94123415D01*
X150828465Y-94101672D01*
X150828075Y-94102063D01*
X150813339Y-94087327D01*
X150779854Y-94026004D01*
X150784838Y-93956312D01*
X150813345Y-93911959D01*
X150822573Y-93902731D01*
X150911542Y-93758492D01*
X150911547Y-93758481D01*
X150964855Y-93597606D01*
X150974999Y-93498322D01*
X150975000Y-93498309D01*
X150975000Y-93475000D01*
X149025001Y-93475000D01*
X149025001Y-93498322D01*
X149035144Y-93597607D01*
X149088452Y-93758481D01*
X149088457Y-93758492D01*
X149177424Y-93902728D01*
X149177427Y-93902732D01*
X149186660Y-93911965D01*
X149190217Y-93918480D01*
X149196277Y-93922775D01*
X149206737Y-93948733D01*
X149220145Y-93973288D01*
X149219615Y-93980692D01*
X149222391Y-93987581D01*
X149217157Y-94015069D01*
X149215161Y-94042980D01*
X149210386Y-94050625D01*
X149209322Y-94056218D01*
X149192325Y-94079550D01*
X149188914Y-94085014D01*
X149187792Y-94086195D01*
X149177032Y-94096956D01*
X149176017Y-94098600D01*
X149170448Y-94104468D01*
X149144879Y-94119306D01*
X149120752Y-94136390D01*
X149113303Y-94137631D01*
X149110018Y-94139539D01*
X149103611Y-94139248D01*
X149080513Y-94143100D01*
X145922009Y-94143100D01*
X145854970Y-94123415D01*
X145809215Y-94070611D01*
X145799271Y-94001453D01*
X145804078Y-93980783D01*
X145830510Y-93899430D01*
X145830509Y-93899430D01*
X145830511Y-93899427D01*
X145864100Y-93687357D01*
X145864100Y-93472643D01*
X145830511Y-93260573D01*
X145764161Y-93056367D01*
X145764161Y-93056366D01*
X145737898Y-93004823D01*
X145714965Y-92959815D01*
X145710818Y-92951677D01*
X149025000Y-92951677D01*
X149025000Y-92975000D01*
X149750000Y-92975000D01*
X150250000Y-92975000D01*
X150974999Y-92975000D01*
X150974999Y-92951692D01*
X150974998Y-92951677D01*
X150964855Y-92852392D01*
X150911547Y-92691518D01*
X150911542Y-92691507D01*
X150822575Y-92547271D01*
X150822572Y-92547267D01*
X150702732Y-92427427D01*
X150702728Y-92427424D01*
X150558492Y-92338457D01*
X150558481Y-92338452D01*
X150397606Y-92285144D01*
X150298322Y-92275000D01*
X150250000Y-92275000D01*
X150250000Y-92975000D01*
X149750000Y-92975000D01*
X149750000Y-92275000D01*
X149749999Y-92274999D01*
X149701693Y-92275000D01*
X149701675Y-92275001D01*
X149602392Y-92285144D01*
X149441518Y-92338452D01*
X149441507Y-92338457D01*
X149297271Y-92427424D01*
X149297267Y-92427427D01*
X149177427Y-92547267D01*
X149177424Y-92547271D01*
X149088457Y-92691507D01*
X149088452Y-92691518D01*
X149035144Y-92852393D01*
X149025000Y-92951677D01*
X145710818Y-92951677D01*
X145666683Y-92865056D01*
X145540477Y-92691349D01*
X145388651Y-92539523D01*
X145214944Y-92413317D01*
X145209435Y-92410510D01*
X145023633Y-92315838D01*
X145023630Y-92315837D01*
X144819428Y-92249489D01*
X144713392Y-92232694D01*
X144607357Y-92215900D01*
X144392643Y-92215900D01*
X144321953Y-92227096D01*
X144180571Y-92249489D01*
X143976369Y-92315837D01*
X143976366Y-92315838D01*
X143785055Y-92413317D01*
X143739093Y-92446711D01*
X143611349Y-92539523D01*
X143611347Y-92539525D01*
X143611346Y-92539525D01*
X143459525Y-92691346D01*
X143459525Y-92691347D01*
X143459523Y-92691349D01*
X143421606Y-92743536D01*
X143333315Y-92865057D01*
X143309501Y-92911796D01*
X143261527Y-92962591D01*
X143199017Y-92979500D01*
X142880097Y-92979500D01*
X142813058Y-92959815D01*
X142792416Y-92943181D01*
X140821878Y-90972643D01*
X153015900Y-90972643D01*
X153015900Y-91187357D01*
X153021634Y-91223557D01*
X153049489Y-91399428D01*
X153115837Y-91603630D01*
X153115838Y-91603633D01*
X153213317Y-91794944D01*
X153339523Y-91968651D01*
X153491349Y-92120477D01*
X153665056Y-92246683D01*
X153740540Y-92285144D01*
X153856366Y-92344161D01*
X153856369Y-92344162D01*
X153957790Y-92377115D01*
X154060573Y-92410511D01*
X154272643Y-92444100D01*
X154272644Y-92444100D01*
X154487356Y-92444100D01*
X154487357Y-92444100D01*
X154699427Y-92410511D01*
X154903633Y-92344161D01*
X155094944Y-92246683D01*
X155268651Y-92120477D01*
X155420477Y-91968651D01*
X155546683Y-91794944D01*
X155644161Y-91603633D01*
X155710511Y-91399427D01*
X155744100Y-91187357D01*
X155744100Y-90972643D01*
X155710511Y-90760573D01*
X155644161Y-90556367D01*
X155644161Y-90556366D01*
X155546682Y-90365055D01*
X155420477Y-90191349D01*
X155268651Y-90039523D01*
X155094944Y-89913317D01*
X154903633Y-89815838D01*
X154903630Y-89815837D01*
X154699428Y-89749489D01*
X154560570Y-89727496D01*
X154487357Y-89715900D01*
X154272643Y-89715900D01*
X154201953Y-89727096D01*
X154060571Y-89749489D01*
X153856369Y-89815837D01*
X153856366Y-89815838D01*
X153665055Y-89913317D01*
X153615231Y-89949517D01*
X153491349Y-90039523D01*
X153491347Y-90039525D01*
X153491346Y-90039525D01*
X153339525Y-90191346D01*
X153339525Y-90191347D01*
X153339523Y-90191349D01*
X153313224Y-90227547D01*
X153213317Y-90365055D01*
X153115838Y-90556366D01*
X153115837Y-90556369D01*
X153049489Y-90760571D01*
X153043755Y-90796773D01*
X153015900Y-90972643D01*
X140821878Y-90972643D01*
X139818381Y-89969146D01*
X139784896Y-89907823D01*
X139789880Y-89838131D01*
X139831752Y-89782198D01*
X139862935Y-89766031D01*
X139862741Y-89765562D01*
X139867241Y-89763698D01*
X140058482Y-89666255D01*
X140115253Y-89625007D01*
X140115253Y-89625006D01*
X139560367Y-89070121D01*
X139632554Y-89040221D01*
X139732398Y-88973508D01*
X139817308Y-88888598D01*
X139884021Y-88788754D01*
X139913921Y-88716568D01*
X140468806Y-89271453D01*
X140468807Y-89271453D01*
X140510055Y-89214682D01*
X140607496Y-89023445D01*
X140673824Y-88819311D01*
X140707400Y-88607323D01*
X140707400Y-88392676D01*
X140703968Y-88371008D01*
X140701666Y-88356476D01*
X155480200Y-88356476D01*
X155480200Y-88571123D01*
X155513775Y-88783111D01*
X155580103Y-88987245D01*
X155677543Y-89178481D01*
X155718792Y-89235253D01*
X155718792Y-89235254D01*
X156273678Y-88680368D01*
X156303579Y-88752554D01*
X156370292Y-88852398D01*
X156455202Y-88937308D01*
X156555046Y-89004021D01*
X156627231Y-89033921D01*
X156072345Y-89588806D01*
X156129117Y-89630055D01*
X156320354Y-89727496D01*
X156524488Y-89793824D01*
X156736477Y-89827400D01*
X156951123Y-89827400D01*
X157163111Y-89793824D01*
X157367245Y-89727496D01*
X157558482Y-89630055D01*
X157615253Y-89588807D01*
X157615253Y-89588806D01*
X157060368Y-89033921D01*
X157132554Y-89004021D01*
X157232398Y-88937308D01*
X157317308Y-88852398D01*
X157384021Y-88752554D01*
X157413921Y-88680368D01*
X157968806Y-89235253D01*
X157968807Y-89235253D01*
X158010055Y-89178482D01*
X158107496Y-88987245D01*
X158173824Y-88783111D01*
X158207400Y-88571123D01*
X158207400Y-88356476D01*
X158173824Y-88144488D01*
X158107496Y-87940354D01*
X158010055Y-87749117D01*
X157968806Y-87692345D01*
X157413920Y-88247230D01*
X157384021Y-88175046D01*
X157317308Y-88075202D01*
X157232398Y-87990292D01*
X157132554Y-87923579D01*
X157060367Y-87893678D01*
X157615254Y-87338792D01*
X157558481Y-87297543D01*
X157367245Y-87200103D01*
X157163111Y-87133775D01*
X156951123Y-87100200D01*
X156736477Y-87100200D01*
X156524488Y-87133775D01*
X156320354Y-87200103D01*
X156129117Y-87297544D01*
X156072345Y-87338792D01*
X156072344Y-87338792D01*
X156627231Y-87893678D01*
X156555046Y-87923579D01*
X156455202Y-87990292D01*
X156370292Y-88075202D01*
X156303579Y-88175046D01*
X156273678Y-88247231D01*
X155718792Y-87692344D01*
X155718792Y-87692345D01*
X155677544Y-87749117D01*
X155580103Y-87940354D01*
X155513775Y-88144488D01*
X155480200Y-88356476D01*
X140701666Y-88356476D01*
X140673824Y-88180688D01*
X140607496Y-87976554D01*
X140510055Y-87785317D01*
X140468806Y-87728545D01*
X139913920Y-88283430D01*
X139884021Y-88211246D01*
X139817308Y-88111402D01*
X139732398Y-88026492D01*
X139632554Y-87959779D01*
X139560367Y-87929878D01*
X140115254Y-87374992D01*
X140058481Y-87333743D01*
X139867245Y-87236303D01*
X139663111Y-87169975D01*
X139451123Y-87136400D01*
X139236477Y-87136400D01*
X139024488Y-87169975D01*
X138820354Y-87236303D01*
X138629117Y-87333744D01*
X138572345Y-87374992D01*
X138572344Y-87374992D01*
X139127231Y-87929878D01*
X139055046Y-87959779D01*
X138955202Y-88026492D01*
X138870292Y-88111402D01*
X138803579Y-88211246D01*
X138773678Y-88283431D01*
X138218792Y-87728544D01*
X138218792Y-87728545D01*
X138177544Y-87785317D01*
X138080100Y-87976560D01*
X138078241Y-87981052D01*
X138077162Y-87980605D01*
X138040805Y-88033749D01*
X137976440Y-88060932D01*
X137907596Y-88049001D01*
X137874653Y-88025418D01*
X137612590Y-87763355D01*
X137612588Y-87763352D01*
X135778079Y-85928843D01*
X143135900Y-85928843D01*
X143135900Y-86143556D01*
X143169489Y-86355628D01*
X143235837Y-86559830D01*
X143235838Y-86559833D01*
X143314872Y-86714944D01*
X143333317Y-86751144D01*
X143459523Y-86924851D01*
X143611349Y-87076677D01*
X143785056Y-87202883D01*
X143878888Y-87250692D01*
X143976366Y-87300361D01*
X143976369Y-87300362D01*
X144069157Y-87330510D01*
X144180573Y-87366711D01*
X144392643Y-87400300D01*
X144392644Y-87400300D01*
X144607356Y-87400300D01*
X144607357Y-87400300D01*
X144819427Y-87366711D01*
X145023633Y-87300361D01*
X145214944Y-87202883D01*
X145388651Y-87076677D01*
X145540477Y-86924851D01*
X145666683Y-86751144D01*
X145764161Y-86559833D01*
X145830511Y-86355627D01*
X145864100Y-86143557D01*
X145864100Y-85928843D01*
X145858366Y-85892643D01*
X160635900Y-85892643D01*
X160635900Y-86107357D01*
X160641634Y-86143557D01*
X160669489Y-86319428D01*
X160735837Y-86523630D01*
X160735838Y-86523633D01*
X160770490Y-86591640D01*
X160833317Y-86714944D01*
X160959523Y-86888651D01*
X161111349Y-87040477D01*
X161285056Y-87166683D01*
X161378888Y-87214492D01*
X161476366Y-87264161D01*
X161476369Y-87264162D01*
X161511471Y-87275567D01*
X161680573Y-87330511D01*
X161892643Y-87364100D01*
X161892644Y-87364100D01*
X162107356Y-87364100D01*
X162107357Y-87364100D01*
X162319427Y-87330511D01*
X162523633Y-87264161D01*
X162714944Y-87166683D01*
X162888651Y-87040477D01*
X163040477Y-86888651D01*
X163166683Y-86714944D01*
X163264161Y-86523633D01*
X163330511Y-86319427D01*
X163364100Y-86107357D01*
X163364100Y-85892643D01*
X163330511Y-85680573D01*
X163264161Y-85476367D01*
X163264161Y-85476366D01*
X163185127Y-85321255D01*
X163166683Y-85285056D01*
X163040477Y-85111349D01*
X162888651Y-84959523D01*
X162714944Y-84833317D01*
X162646263Y-84798322D01*
X162523633Y-84735838D01*
X162523630Y-84735837D01*
X162319428Y-84669489D01*
X162190066Y-84649000D01*
X162107357Y-84635900D01*
X161892643Y-84635900D01*
X161821953Y-84647096D01*
X161680571Y-84669489D01*
X161476369Y-84735837D01*
X161476366Y-84735838D01*
X161285055Y-84833317D01*
X161235231Y-84869517D01*
X161111349Y-84959523D01*
X161111347Y-84959525D01*
X161111346Y-84959525D01*
X160959525Y-85111346D01*
X160959525Y-85111347D01*
X160959523Y-85111349D01*
X160933224Y-85147547D01*
X160833317Y-85285055D01*
X160735838Y-85476366D01*
X160735837Y-85476369D01*
X160669489Y-85680571D01*
X160643650Y-85843714D01*
X160635900Y-85892643D01*
X145858366Y-85892643D01*
X145830511Y-85716773D01*
X145767462Y-85522727D01*
X145764162Y-85512569D01*
X145764161Y-85512566D01*
X145667355Y-85322575D01*
X145666683Y-85321256D01*
X145540477Y-85147549D01*
X145388651Y-84995723D01*
X145214944Y-84869517D01*
X145143896Y-84833316D01*
X145023633Y-84772038D01*
X145023630Y-84772037D01*
X144819428Y-84705689D01*
X144713392Y-84688894D01*
X144607357Y-84672100D01*
X144392643Y-84672100D01*
X144321953Y-84683296D01*
X144180571Y-84705689D01*
X143976369Y-84772037D01*
X143976366Y-84772038D01*
X143785055Y-84869517D01*
X143685949Y-84941522D01*
X143611349Y-84995723D01*
X143611347Y-84995725D01*
X143611346Y-84995725D01*
X143459525Y-85147546D01*
X143459525Y-85147547D01*
X143459523Y-85147549D01*
X143439650Y-85174902D01*
X143333317Y-85321255D01*
X143235838Y-85512566D01*
X143235837Y-85512569D01*
X143169489Y-85716771D01*
X143135900Y-85928843D01*
X135778079Y-85928843D01*
X132778680Y-82929444D01*
X132745195Y-82868121D01*
X132750179Y-82798429D01*
X132792051Y-82742496D01*
X132857515Y-82718079D01*
X132913813Y-82727202D01*
X132970060Y-82750500D01*
X133016503Y-82769737D01*
X133171153Y-82800499D01*
X133171156Y-82800500D01*
X133171158Y-82800500D01*
X133328844Y-82800500D01*
X133328845Y-82800499D01*
X133405152Y-82785320D01*
X133483488Y-82769739D01*
X133483489Y-82769738D01*
X133483497Y-82769737D01*
X133507155Y-82759937D01*
X133554604Y-82750500D01*
X153332152Y-82750500D01*
X153399191Y-82770185D01*
X153444946Y-82822989D01*
X153453769Y-82850308D01*
X153480261Y-82983491D01*
X153480264Y-82983501D01*
X153540602Y-83129172D01*
X153540609Y-83129185D01*
X153628210Y-83260288D01*
X153628213Y-83260292D01*
X153739707Y-83371786D01*
X153739711Y-83371789D01*
X153870814Y-83459390D01*
X153870827Y-83459397D01*
X153989850Y-83508697D01*
X154016503Y-83519737D01*
X154171153Y-83550499D01*
X154171156Y-83550500D01*
X154171158Y-83550500D01*
X154328844Y-83550500D01*
X154328845Y-83550499D01*
X154483497Y-83519737D01*
X154629179Y-83459394D01*
X154629185Y-83459390D01*
X154760875Y-83371398D01*
X154827553Y-83350520D01*
X154829766Y-83350500D01*
X161163331Y-83350500D01*
X161163347Y-83350501D01*
X161170943Y-83350501D01*
X161329054Y-83350501D01*
X161329057Y-83350501D01*
X161481785Y-83309577D01*
X161531904Y-83280639D01*
X161618716Y-83230520D01*
X161730520Y-83118716D01*
X161730520Y-83118714D01*
X161740728Y-83108507D01*
X161740730Y-83108504D01*
X164358506Y-80490728D01*
X164358511Y-80490724D01*
X164368714Y-80480520D01*
X164368716Y-80480520D01*
X164480520Y-80368716D01*
X164535759Y-80273038D01*
X164559577Y-80231785D01*
X164600500Y-80079058D01*
X164600500Y-79920943D01*
X164600500Y-70397648D01*
X167199500Y-70397648D01*
X167199500Y-70602351D01*
X167231522Y-70804534D01*
X167294781Y-70999223D01*
X167387715Y-71181613D01*
X167508028Y-71347213D01*
X167652786Y-71491971D01*
X167807749Y-71604556D01*
X167818390Y-71612287D01*
X167934607Y-71671503D01*
X168000776Y-71705218D01*
X168000778Y-71705218D01*
X168000781Y-71705220D01*
X168105137Y-71739127D01*
X168195465Y-71768477D01*
X168296557Y-71784488D01*
X168397648Y-71800500D01*
X168397649Y-71800500D01*
X168602351Y-71800500D01*
X168602352Y-71800500D01*
X168804534Y-71768477D01*
X168999219Y-71705220D01*
X169181610Y-71612287D01*
X169309349Y-71519480D01*
X169347213Y-71491971D01*
X169347215Y-71491968D01*
X169347219Y-71491966D01*
X169491966Y-71347219D01*
X169491968Y-71347215D01*
X169491971Y-71347213D01*
X169590251Y-71211940D01*
X169612287Y-71181610D01*
X169704822Y-71000000D01*
X169705218Y-70999223D01*
X169705218Y-70999222D01*
X169705220Y-70999219D01*
X169768477Y-70804534D01*
X169800500Y-70602352D01*
X169800500Y-70397648D01*
X169768477Y-70195466D01*
X169705220Y-70000781D01*
X169705218Y-70000778D01*
X169705218Y-70000776D01*
X169671503Y-69934607D01*
X169612287Y-69818390D01*
X169599289Y-69800500D01*
X169491971Y-69652786D01*
X169347213Y-69508028D01*
X169181613Y-69387715D01*
X169181612Y-69387714D01*
X169181610Y-69387713D01*
X169124653Y-69358691D01*
X168999223Y-69294781D01*
X168804534Y-69231522D01*
X168629995Y-69203878D01*
X168602352Y-69199500D01*
X168397648Y-69199500D01*
X168373329Y-69203351D01*
X168195465Y-69231522D01*
X168000776Y-69294781D01*
X167818386Y-69387715D01*
X167652786Y-69508028D01*
X167508028Y-69652786D01*
X167387715Y-69818386D01*
X167294781Y-70000776D01*
X167231522Y-70195465D01*
X167199500Y-70397648D01*
X164600500Y-70397648D01*
X164600500Y-69420943D01*
X164559577Y-69268216D01*
X164559577Y-69268215D01*
X164519904Y-69199500D01*
X164480520Y-69131284D01*
X164368716Y-69019480D01*
X164364385Y-69015149D01*
X164364374Y-69015139D01*
X164187590Y-68838355D01*
X164187588Y-68838352D01*
X164068717Y-68719481D01*
X164068716Y-68719480D01*
X163981904Y-68669360D01*
X163981904Y-68669359D01*
X163981900Y-68669358D01*
X163931785Y-68640423D01*
X163779057Y-68599499D01*
X163620943Y-68599499D01*
X163613347Y-68599499D01*
X163613331Y-68599500D01*
X129220940Y-68599500D01*
X129180019Y-68610464D01*
X129180019Y-68610465D01*
X129142751Y-68620451D01*
X129068214Y-68640423D01*
X129068209Y-68640426D01*
X128931290Y-68719475D01*
X128931282Y-68719481D01*
X128819478Y-68831286D01*
X127812862Y-69837901D01*
X127751539Y-69871386D01*
X127700990Y-69871837D01*
X127588694Y-69849500D01*
X127588691Y-69849500D01*
X127411309Y-69849500D01*
X127411306Y-69849500D01*
X127237341Y-69884103D01*
X127237332Y-69884106D01*
X127073459Y-69951983D01*
X127073446Y-69951990D01*
X126943891Y-70038557D01*
X126877213Y-70059435D01*
X126809833Y-70040950D01*
X126806109Y-70038557D01*
X126676553Y-69951990D01*
X126676540Y-69951983D01*
X126512667Y-69884106D01*
X126512658Y-69884103D01*
X126338694Y-69849500D01*
X126338691Y-69849500D01*
X126161309Y-69849500D01*
X126161306Y-69849500D01*
X125987341Y-69884103D01*
X125987332Y-69884106D01*
X125823459Y-69951983D01*
X125823446Y-69951990D01*
X125693891Y-70038557D01*
X125627213Y-70059435D01*
X125559833Y-70040950D01*
X125556109Y-70038557D01*
X125426553Y-69951990D01*
X125426540Y-69951983D01*
X125262667Y-69884106D01*
X125262658Y-69884103D01*
X125088694Y-69849500D01*
X125088691Y-69849500D01*
X124911309Y-69849500D01*
X124911304Y-69849500D01*
X124799008Y-69871837D01*
X124729416Y-69865610D01*
X124687136Y-69837901D01*
X124137590Y-69288355D01*
X124137588Y-69288352D01*
X124018717Y-69169481D01*
X124018716Y-69169480D01*
X123931904Y-69119360D01*
X123931904Y-69119359D01*
X123931900Y-69119358D01*
X123881785Y-69090423D01*
X123729057Y-69049499D01*
X123570943Y-69049499D01*
X123563347Y-69049499D01*
X123563331Y-69049500D01*
X118250723Y-69049500D01*
X118092609Y-69049500D01*
X117939881Y-69090423D01*
X117939880Y-69090423D01*
X117939878Y-69090424D01*
X117939875Y-69090425D01*
X117889762Y-69119359D01*
X117889761Y-69119360D01*
X117846355Y-69144420D01*
X117802951Y-69169479D01*
X117802948Y-69169481D01*
X117019481Y-69952948D01*
X117019480Y-69952950D01*
X116970056Y-70038557D01*
X116969361Y-70039760D01*
X116969359Y-70039762D01*
X116940425Y-70089875D01*
X116940424Y-70089876D01*
X116940423Y-70089881D01*
X116899499Y-70242609D01*
X116899499Y-70400723D01*
X116899499Y-70400725D01*
X116899500Y-70410719D01*
X116899500Y-85522709D01*
X116899499Y-85522727D01*
X116899499Y-85688433D01*
X116899498Y-85688433D01*
X110500000Y-85688433D01*
X110500000Y-70397648D01*
X111699500Y-70397648D01*
X111699500Y-70602351D01*
X111731522Y-70804534D01*
X111794781Y-70999223D01*
X111887715Y-71181613D01*
X112008028Y-71347213D01*
X112152786Y-71491971D01*
X112307749Y-71604556D01*
X112318390Y-71612287D01*
X112434607Y-71671503D01*
X112500776Y-71705218D01*
X112500778Y-71705218D01*
X112500781Y-71705220D01*
X112605137Y-71739127D01*
X112695465Y-71768477D01*
X112796557Y-71784488D01*
X112897648Y-71800500D01*
X112897649Y-71800500D01*
X113102351Y-71800500D01*
X113102352Y-71800500D01*
X113304534Y-71768477D01*
X113499219Y-71705220D01*
X113681610Y-71612287D01*
X113809349Y-71519480D01*
X113847213Y-71491971D01*
X113847215Y-71491968D01*
X113847219Y-71491966D01*
X113991966Y-71347219D01*
X113991968Y-71347215D01*
X113991971Y-71347213D01*
X114090251Y-71211940D01*
X114112287Y-71181610D01*
X114204822Y-71000000D01*
X114205218Y-70999223D01*
X114205218Y-70999222D01*
X114205220Y-70999219D01*
X114268477Y-70804534D01*
X114300500Y-70602352D01*
X114300500Y-70397648D01*
X114268477Y-70195466D01*
X114205220Y-70000781D01*
X114205218Y-70000778D01*
X114205218Y-70000776D01*
X114171503Y-69934607D01*
X114112287Y-69818390D01*
X114099289Y-69800500D01*
X113991971Y-69652786D01*
X113847213Y-69508028D01*
X113681613Y-69387715D01*
X113681612Y-69387714D01*
X113681610Y-69387713D01*
X113624653Y-69358691D01*
X113499223Y-69294781D01*
X113304534Y-69231522D01*
X113129995Y-69203878D01*
X113102352Y-69199500D01*
X112897648Y-69199500D01*
X112873329Y-69203351D01*
X112695465Y-69231522D01*
X112500776Y-69294781D01*
X112318386Y-69387715D01*
X112152786Y-69508028D01*
X112008028Y-69652786D01*
X111887715Y-69818386D01*
X111794781Y-70000776D01*
X111731522Y-70195465D01*
X111699500Y-70397648D01*
X110500000Y-70397648D01*
X110500000Y-68124000D01*
X110519685Y-68056961D01*
X110572489Y-68011206D01*
X110624000Y-68000000D01*
X170876000Y-68000000D01*
X170943039Y-68019685D01*
G37*
G04 #@! TD.AperFunction*
M02*
