G04 #@! TF.GenerationSoftware,KiCad,Pcbnew,8.0.8*
G04 #@! TF.CreationDate,2025-03-12T12:01:23+11:00*
G04 #@! TF.ProjectId,PCB_BackDesign,5043425f-4261-4636-9b44-657369676e2e,rev?*
G04 #@! TF.SameCoordinates,Original*
G04 #@! TF.FileFunction,Paste,Top*
G04 #@! TF.FilePolarity,Positive*
%FSLAX46Y46*%
G04 Gerber Fmt 4.6, Leading zero omitted, Abs format (unit mm)*
G04 Created by KiCad (PCBNEW 8.0.8) date 2025-03-12 12:01:23*
%MOMM*%
%LPD*%
G01*
G04 APERTURE LIST*
G04 Aperture macros list*
%AMRoundRect*
0 Rectangle with rounded corners*
0 $1 Rounding radius*
0 $2 $3 $4 $5 $6 $7 $8 $9 X,Y pos of 4 corners*
0 Add a 4 corners polygon primitive as box body*
4,1,4,$2,$3,$4,$5,$6,$7,$8,$9,$2,$3,0*
0 Add four circle primitives for the rounded corners*
1,1,$1+$1,$2,$3*
1,1,$1+$1,$4,$5*
1,1,$1+$1,$6,$7*
1,1,$1+$1,$8,$9*
0 Add four rect primitives between the rounded corners*
20,1,$1+$1,$2,$3,$4,$5,0*
20,1,$1+$1,$4,$5,$6,$7,0*
20,1,$1+$1,$6,$7,$8,$9,0*
20,1,$1+$1,$8,$9,$2,$3,0*%
G04 Aperture macros list end*
%ADD10RoundRect,0.200000X-0.200000X-0.275000X0.200000X-0.275000X0.200000X0.275000X-0.200000X0.275000X0*%
%ADD11R,0.850000X0.650000*%
%ADD12RoundRect,0.218750X0.218750X0.256250X-0.218750X0.256250X-0.218750X-0.256250X0.218750X-0.256250X0*%
%ADD13RoundRect,0.225000X-0.225000X-0.250000X0.225000X-0.250000X0.225000X0.250000X-0.225000X0.250000X0*%
%ADD14RoundRect,0.225000X0.250000X-0.225000X0.250000X0.225000X-0.250000X0.225000X-0.250000X-0.225000X0*%
%ADD15RoundRect,0.200000X-0.275000X0.200000X-0.275000X-0.200000X0.275000X-0.200000X0.275000X0.200000X0*%
%ADD16RoundRect,0.225000X-0.250000X0.225000X-0.250000X-0.225000X0.250000X-0.225000X0.250000X0.225000X0*%
G04 APERTURE END LIST*
D10*
X149245000Y-80070792D03*
X150895000Y-80070792D03*
X149245000Y-76070792D03*
X150895000Y-76070792D03*
D11*
X149245000Y-78420792D03*
X149245000Y-77570792D03*
X150695000Y-77570792D03*
X150695000Y-78420792D03*
X154350630Y-78350000D03*
X154350630Y-77500000D03*
X155800630Y-77500000D03*
X155800630Y-78350000D03*
D10*
X139527657Y-77720000D03*
X141177657Y-77720000D03*
D12*
X136257500Y-79182500D03*
X134682500Y-79182500D03*
X127352500Y-79110000D03*
X125777500Y-79110000D03*
D13*
X123725000Y-82250000D03*
X125275000Y-82250000D03*
D10*
X154350000Y-80000000D03*
X156000000Y-80000000D03*
D12*
X131787500Y-79072500D03*
X130212500Y-79072500D03*
D14*
X150000000Y-94775000D03*
X150000000Y-93225000D03*
D10*
X154300630Y-76000000D03*
X155950630Y-76000000D03*
X143821876Y-77500000D03*
X145471876Y-77500000D03*
X130320000Y-77572500D03*
X131970000Y-77572500D03*
D12*
X145364376Y-79000000D03*
X143789376Y-79000000D03*
D10*
X134607500Y-77682500D03*
X136257500Y-77682500D03*
D15*
X147745000Y-77570792D03*
X147745000Y-79220792D03*
D16*
X131750000Y-82975000D03*
X131750000Y-84525000D03*
D10*
X125645000Y-77610000D03*
X127295000Y-77610000D03*
D12*
X141095157Y-79220000D03*
X139520157Y-79220000D03*
D15*
X152800630Y-77500000D03*
X152800630Y-79150000D03*
M02*
