%TF.GenerationSoftware,KiCad,Pcbnew,8.0.8*%
%TF.CreationDate,2025-03-12T12:04:05+11:00*%
%TF.ProjectId,PCB_BackDesign,5043425f-4261-4636-9b44-657369676e2e,rev?*%
%TF.SameCoordinates,Original*%
%TF.FileFunction,Drillmap*%
%TF.FilePolarity,Positive*%
%FSLAX45Y45*%
G04 Gerber Fmt 4.5, Leading zero omitted, Abs format (unit mm)*
G04 Created by KiCad (PCBNEW 8.0.8) date 2025-03-12 12:04:05*
%MOMM*%
%LPD*%
G01*
G04 APERTURE LIST*
%ADD10C,0.050000*%
%ADD11C,0.200000*%
%ADD12C,0.100000*%
%ADD13C,0.121920*%
G04 APERTURE END LIST*
D10*
X17200000Y-6700000D02*
X17200000Y-9900000D01*
X10950000Y-6700000D02*
X17200000Y-6700000D01*
X17200000Y-9900000D02*
X10950000Y-9900000D01*
X10950000Y-9900000D02*
X10950000Y-6700000D01*
D11*
D12*
X12135000Y-7735000D02*
X12165000Y-7765000D01*
X12165000Y-7735000D02*
X12135000Y-7765000D01*
X12549500Y-7746000D02*
X12579500Y-7776000D01*
X12579500Y-7746000D02*
X12549500Y-7776000D01*
X12735000Y-7485000D02*
X12765000Y-7515000D01*
X12765000Y-7485000D02*
X12735000Y-7515000D01*
X12872583Y-8035653D02*
X12902583Y-8065653D01*
X12902583Y-8035653D02*
X12872583Y-8065653D01*
X12985000Y-7285000D02*
X13015000Y-7315000D01*
X13015000Y-7285000D02*
X12985000Y-7315000D01*
X13006250Y-7892250D02*
X13036250Y-7922250D01*
X13036250Y-7892250D02*
X13006250Y-7922250D01*
X13017000Y-7742250D02*
X13047000Y-7772250D01*
X13047000Y-7742250D02*
X13017000Y-7772250D01*
X13085000Y-7385000D02*
X13115000Y-7415000D01*
X13115000Y-7385000D02*
X13085000Y-7415000D01*
X13310000Y-8185000D02*
X13340000Y-8215000D01*
X13340000Y-8185000D02*
X13310000Y-8215000D01*
X13435000Y-7425000D02*
X13465000Y-7455000D01*
X13465000Y-7425000D02*
X13435000Y-7455000D01*
X13445750Y-7753250D02*
X13475750Y-7783250D01*
X13475750Y-7753250D02*
X13445750Y-7783250D01*
X13885000Y-7085000D02*
X13915000Y-7115000D01*
X13915000Y-7085000D02*
X13885000Y-7115000D01*
X13885000Y-7385000D02*
X13915000Y-7415000D01*
X13915000Y-7385000D02*
X13885000Y-7415000D01*
X14367188Y-7735000D02*
X14397188Y-7765000D01*
X14397188Y-7735000D02*
X14367188Y-7765000D01*
X14585000Y-7085000D02*
X14615000Y-7115000D01*
X14615000Y-7085000D02*
X14585000Y-7115000D01*
X14585000Y-7385000D02*
X14615000Y-7415000D01*
X14615000Y-7385000D02*
X14585000Y-7415000D01*
X14634688Y-7985243D02*
X14664688Y-8015243D01*
X14664688Y-7985243D02*
X14634688Y-8015243D01*
X15054500Y-7827079D02*
X15084500Y-7857079D01*
X15084500Y-7827079D02*
X15054500Y-7857079D01*
X15127563Y-7835178D02*
X15157563Y-7865178D01*
X15157563Y-7835178D02*
X15127563Y-7865178D01*
X15135000Y-7285000D02*
X15165000Y-7315000D01*
X15165000Y-7285000D02*
X15135000Y-7315000D01*
X15410000Y-8260000D02*
X15440000Y-8290000D01*
X15440000Y-8260000D02*
X15410000Y-8290000D01*
X15415063Y-7585000D02*
X15445063Y-7615000D01*
X15445063Y-7585000D02*
X15415063Y-7615000D01*
X15420000Y-7985000D02*
X15450000Y-8015000D01*
X15450000Y-7985000D02*
X15420000Y-8015000D01*
X15565063Y-7820000D02*
X15595063Y-7850000D01*
X15595063Y-7820000D02*
X15565063Y-7850000D01*
X11900000Y-7100000D02*
G75*
G02*
X11850000Y-7100000I-25000J0D01*
G01*
X11850000Y-7100000D02*
G75*
G02*
X11900000Y-7100000I25000J0D01*
G01*
X12025000Y-7100000D02*
G75*
G02*
X11975000Y-7100000I-25000J0D01*
G01*
X11975000Y-7100000D02*
G75*
G02*
X12025000Y-7100000I25000J0D01*
G01*
X12150000Y-7100000D02*
G75*
G02*
X12100000Y-7100000I-25000J0D01*
G01*
X12100000Y-7100000D02*
G75*
G02*
X12150000Y-7100000I25000J0D01*
G01*
X12275000Y-7100000D02*
G75*
G02*
X12225000Y-7100000I-25000J0D01*
G01*
X12225000Y-7100000D02*
G75*
G02*
X12275000Y-7100000I25000J0D01*
G01*
X12400000Y-7100000D02*
G75*
G02*
X12350000Y-7100000I-25000J0D01*
G01*
X12350000Y-7100000D02*
G75*
G02*
X12400000Y-7100000I25000J0D01*
G01*
X12525000Y-7100000D02*
G75*
G02*
X12475000Y-7100000I-25000J0D01*
G01*
X12475000Y-7100000D02*
G75*
G02*
X12525000Y-7100000I25000J0D01*
G01*
X12650000Y-7100000D02*
G75*
G02*
X12600000Y-7100000I-25000J0D01*
G01*
X12600000Y-7100000D02*
G75*
G02*
X12650000Y-7100000I25000J0D01*
G01*
X12775000Y-7100000D02*
G75*
G02*
X12725000Y-7100000I-25000J0D01*
G01*
X12725000Y-7100000D02*
G75*
G02*
X12775000Y-7100000I25000J0D01*
G01*
X15275000Y-7100000D02*
G75*
G02*
X15225000Y-7100000I-25000J0D01*
G01*
X15225000Y-7100000D02*
G75*
G02*
X15275000Y-7100000I25000J0D01*
G01*
X15400000Y-7100000D02*
G75*
G02*
X15350000Y-7100000I-25000J0D01*
G01*
X15350000Y-7100000D02*
G75*
G02*
X15400000Y-7100000I25000J0D01*
G01*
X15525000Y-7100000D02*
G75*
G02*
X15475000Y-7100000I-25000J0D01*
G01*
X15475000Y-7100000D02*
G75*
G02*
X15525000Y-7100000I25000J0D01*
G01*
X15650000Y-7100000D02*
G75*
G02*
X15600000Y-7100000I-25000J0D01*
G01*
X15600000Y-7100000D02*
G75*
G02*
X15650000Y-7100000I25000J0D01*
G01*
X15775000Y-7100000D02*
G75*
G02*
X15725000Y-7100000I-25000J0D01*
G01*
X15725000Y-7100000D02*
G75*
G02*
X15775000Y-7100000I25000J0D01*
G01*
X15900000Y-7100000D02*
G75*
G02*
X15850000Y-7100000I-25000J0D01*
G01*
X15850000Y-7100000D02*
G75*
G02*
X15900000Y-7100000I25000J0D01*
G01*
X16025000Y-7100000D02*
G75*
G02*
X15975000Y-7100000I-25000J0D01*
G01*
X15975000Y-7100000D02*
G75*
G02*
X16025000Y-7100000I25000J0D01*
G01*
X16150000Y-7100000D02*
G75*
G02*
X16100000Y-7100000I-25000J0D01*
G01*
X16100000Y-7100000D02*
G75*
G02*
X16150000Y-7100000I25000J0D01*
G01*
X16275000Y-7100000D02*
G75*
G02*
X16225000Y-7100000I-25000J0D01*
G01*
X16225000Y-7100000D02*
G75*
G02*
X16275000Y-7100000I25000J0D01*
G01*
X12000000Y-7712500D02*
X12000000Y-7787500D01*
X11962500Y-7750000D02*
X12037500Y-7750000D01*
X12000000Y-7912500D02*
X12000000Y-7987500D01*
X11962500Y-7950000D02*
X12037500Y-7950000D01*
X16250000Y-7712500D02*
X16250000Y-7787500D01*
X16212500Y-7750000D02*
X16287500Y-7750000D01*
X16250000Y-7912500D02*
X16250000Y-7987500D01*
X16212500Y-7950000D02*
X16287500Y-7950000D01*
D13*
X11996726Y-9151106D02*
X11996726Y-9064894D01*
X11910514Y-9064894D01*
X11910514Y-9151106D01*
X11996726Y-9151106D01*
X12243106Y-8889486D02*
X12243106Y-8803274D01*
X12156894Y-8803274D01*
X12156894Y-8889486D01*
X12243106Y-8889486D01*
X12758726Y-8643106D02*
X12758726Y-8556894D01*
X12672514Y-8556894D01*
X12672514Y-8643106D01*
X12758726Y-8643106D01*
X12758726Y-9397486D02*
X12758726Y-9311274D01*
X12672514Y-9311274D01*
X12672514Y-9397486D01*
X12758726Y-9397486D01*
X13731106Y-9154726D02*
X13731106Y-9068514D01*
X13644894Y-9068514D01*
X13644894Y-9154726D01*
X13731106Y-9154726D01*
X13977486Y-8893106D02*
X13977486Y-8806894D01*
X13891274Y-8806894D01*
X13891274Y-8893106D01*
X13977486Y-8893106D01*
X14493106Y-8646726D02*
X14493106Y-8560514D01*
X14406894Y-8560514D01*
X14406894Y-8646726D01*
X14493106Y-8646726D01*
X14493106Y-9401106D02*
X14493106Y-9314894D01*
X14406894Y-9314894D01*
X14406894Y-9401106D01*
X14493106Y-9401106D01*
X15481106Y-9151106D02*
X15481106Y-9064894D01*
X15394894Y-9064894D01*
X15394894Y-9151106D01*
X15481106Y-9151106D01*
X15727486Y-8889486D02*
X15727486Y-8803274D01*
X15641274Y-8803274D01*
X15641274Y-8889486D01*
X15727486Y-8889486D01*
X16243106Y-8643106D02*
X16243106Y-8556894D01*
X16156894Y-8556894D01*
X16156894Y-8643106D01*
X16243106Y-8643106D01*
X16243106Y-9397486D02*
X16243106Y-9311274D01*
X16156894Y-9311274D01*
X16156894Y-9397486D01*
X16243106Y-9397486D01*
D11*
X11208277Y-10213984D02*
X11208277Y-10013984D01*
X11208277Y-10013984D02*
X11255896Y-10013984D01*
X11255896Y-10013984D02*
X11284467Y-10023508D01*
X11284467Y-10023508D02*
X11303515Y-10042555D01*
X11303515Y-10042555D02*
X11313039Y-10061603D01*
X11313039Y-10061603D02*
X11322562Y-10099698D01*
X11322562Y-10099698D02*
X11322562Y-10128270D01*
X11322562Y-10128270D02*
X11313039Y-10166365D01*
X11313039Y-10166365D02*
X11303515Y-10185412D01*
X11303515Y-10185412D02*
X11284467Y-10204460D01*
X11284467Y-10204460D02*
X11255896Y-10213984D01*
X11255896Y-10213984D02*
X11208277Y-10213984D01*
X11408277Y-10213984D02*
X11408277Y-10080650D01*
X11408277Y-10118746D02*
X11417801Y-10099698D01*
X11417801Y-10099698D02*
X11427324Y-10090174D01*
X11427324Y-10090174D02*
X11446372Y-10080650D01*
X11446372Y-10080650D02*
X11465420Y-10080650D01*
X11532086Y-10213984D02*
X11532086Y-10080650D01*
X11532086Y-10013984D02*
X11522562Y-10023508D01*
X11522562Y-10023508D02*
X11532086Y-10033031D01*
X11532086Y-10033031D02*
X11541610Y-10023508D01*
X11541610Y-10023508D02*
X11532086Y-10013984D01*
X11532086Y-10013984D02*
X11532086Y-10033031D01*
X11655896Y-10213984D02*
X11636848Y-10204460D01*
X11636848Y-10204460D02*
X11627324Y-10185412D01*
X11627324Y-10185412D02*
X11627324Y-10013984D01*
X11760658Y-10213984D02*
X11741610Y-10204460D01*
X11741610Y-10204460D02*
X11732086Y-10185412D01*
X11732086Y-10185412D02*
X11732086Y-10013984D01*
X11989229Y-10213984D02*
X11989229Y-10013984D01*
X11989229Y-10013984D02*
X12055896Y-10156841D01*
X12055896Y-10156841D02*
X12122562Y-10013984D01*
X12122562Y-10013984D02*
X12122562Y-10213984D01*
X12303515Y-10213984D02*
X12303515Y-10109222D01*
X12303515Y-10109222D02*
X12293991Y-10090174D01*
X12293991Y-10090174D02*
X12274943Y-10080650D01*
X12274943Y-10080650D02*
X12236848Y-10080650D01*
X12236848Y-10080650D02*
X12217801Y-10090174D01*
X12303515Y-10204460D02*
X12284467Y-10213984D01*
X12284467Y-10213984D02*
X12236848Y-10213984D01*
X12236848Y-10213984D02*
X12217801Y-10204460D01*
X12217801Y-10204460D02*
X12208277Y-10185412D01*
X12208277Y-10185412D02*
X12208277Y-10166365D01*
X12208277Y-10166365D02*
X12217801Y-10147317D01*
X12217801Y-10147317D02*
X12236848Y-10137793D01*
X12236848Y-10137793D02*
X12284467Y-10137793D01*
X12284467Y-10137793D02*
X12303515Y-10128270D01*
X12398753Y-10080650D02*
X12398753Y-10280650D01*
X12398753Y-10090174D02*
X12417801Y-10080650D01*
X12417801Y-10080650D02*
X12455896Y-10080650D01*
X12455896Y-10080650D02*
X12474943Y-10090174D01*
X12474943Y-10090174D02*
X12484467Y-10099698D01*
X12484467Y-10099698D02*
X12493991Y-10118746D01*
X12493991Y-10118746D02*
X12493991Y-10175889D01*
X12493991Y-10175889D02*
X12484467Y-10194936D01*
X12484467Y-10194936D02*
X12474943Y-10204460D01*
X12474943Y-10204460D02*
X12455896Y-10213984D01*
X12455896Y-10213984D02*
X12417801Y-10213984D01*
X12417801Y-10213984D02*
X12398753Y-10204460D01*
X12579705Y-10194936D02*
X12589229Y-10204460D01*
X12589229Y-10204460D02*
X12579705Y-10213984D01*
X12579705Y-10213984D02*
X12570182Y-10204460D01*
X12570182Y-10204460D02*
X12579705Y-10194936D01*
X12579705Y-10194936D02*
X12579705Y-10213984D01*
X12579705Y-10090174D02*
X12589229Y-10099698D01*
X12589229Y-10099698D02*
X12579705Y-10109222D01*
X12579705Y-10109222D02*
X12570182Y-10099698D01*
X12570182Y-10099698D02*
X12579705Y-10090174D01*
X12579705Y-10090174D02*
X12579705Y-10109222D01*
D12*
X10917500Y-10527500D02*
X10947500Y-10557500D01*
X10947500Y-10527500D02*
X10917500Y-10557500D01*
D11*
X11246372Y-10433984D02*
X11265420Y-10433984D01*
X11265420Y-10433984D02*
X11284467Y-10443508D01*
X11284467Y-10443508D02*
X11293991Y-10453031D01*
X11293991Y-10453031D02*
X11303515Y-10472079D01*
X11303515Y-10472079D02*
X11313039Y-10510174D01*
X11313039Y-10510174D02*
X11313039Y-10557793D01*
X11313039Y-10557793D02*
X11303515Y-10595889D01*
X11303515Y-10595889D02*
X11293991Y-10614936D01*
X11293991Y-10614936D02*
X11284467Y-10624460D01*
X11284467Y-10624460D02*
X11265420Y-10633984D01*
X11265420Y-10633984D02*
X11246372Y-10633984D01*
X11246372Y-10633984D02*
X11227324Y-10624460D01*
X11227324Y-10624460D02*
X11217801Y-10614936D01*
X11217801Y-10614936D02*
X11208277Y-10595889D01*
X11208277Y-10595889D02*
X11198753Y-10557793D01*
X11198753Y-10557793D02*
X11198753Y-10510174D01*
X11198753Y-10510174D02*
X11208277Y-10472079D01*
X11208277Y-10472079D02*
X11217801Y-10453031D01*
X11217801Y-10453031D02*
X11227324Y-10443508D01*
X11227324Y-10443508D02*
X11246372Y-10433984D01*
X11398753Y-10614936D02*
X11408277Y-10624460D01*
X11408277Y-10624460D02*
X11398753Y-10633984D01*
X11398753Y-10633984D02*
X11389229Y-10624460D01*
X11389229Y-10624460D02*
X11398753Y-10614936D01*
X11398753Y-10614936D02*
X11398753Y-10633984D01*
X11474943Y-10433984D02*
X11598753Y-10433984D01*
X11598753Y-10433984D02*
X11532086Y-10510174D01*
X11532086Y-10510174D02*
X11560658Y-10510174D01*
X11560658Y-10510174D02*
X11579705Y-10519698D01*
X11579705Y-10519698D02*
X11589229Y-10529222D01*
X11589229Y-10529222D02*
X11598753Y-10548270D01*
X11598753Y-10548270D02*
X11598753Y-10595889D01*
X11598753Y-10595889D02*
X11589229Y-10614936D01*
X11589229Y-10614936D02*
X11579705Y-10624460D01*
X11579705Y-10624460D02*
X11560658Y-10633984D01*
X11560658Y-10633984D02*
X11503515Y-10633984D01*
X11503515Y-10633984D02*
X11484467Y-10624460D01*
X11484467Y-10624460D02*
X11474943Y-10614936D01*
X11722562Y-10433984D02*
X11741610Y-10433984D01*
X11741610Y-10433984D02*
X11760658Y-10443508D01*
X11760658Y-10443508D02*
X11770182Y-10453031D01*
X11770182Y-10453031D02*
X11779705Y-10472079D01*
X11779705Y-10472079D02*
X11789229Y-10510174D01*
X11789229Y-10510174D02*
X11789229Y-10557793D01*
X11789229Y-10557793D02*
X11779705Y-10595889D01*
X11779705Y-10595889D02*
X11770182Y-10614936D01*
X11770182Y-10614936D02*
X11760658Y-10624460D01*
X11760658Y-10624460D02*
X11741610Y-10633984D01*
X11741610Y-10633984D02*
X11722562Y-10633984D01*
X11722562Y-10633984D02*
X11703515Y-10624460D01*
X11703515Y-10624460D02*
X11693991Y-10614936D01*
X11693991Y-10614936D02*
X11684467Y-10595889D01*
X11684467Y-10595889D02*
X11674943Y-10557793D01*
X11674943Y-10557793D02*
X11674943Y-10510174D01*
X11674943Y-10510174D02*
X11684467Y-10472079D01*
X11684467Y-10472079D02*
X11693991Y-10453031D01*
X11693991Y-10453031D02*
X11703515Y-10443508D01*
X11703515Y-10443508D02*
X11722562Y-10433984D01*
X11913039Y-10433984D02*
X11932086Y-10433984D01*
X11932086Y-10433984D02*
X11951134Y-10443508D01*
X11951134Y-10443508D02*
X11960658Y-10453031D01*
X11960658Y-10453031D02*
X11970182Y-10472079D01*
X11970182Y-10472079D02*
X11979705Y-10510174D01*
X11979705Y-10510174D02*
X11979705Y-10557793D01*
X11979705Y-10557793D02*
X11970182Y-10595889D01*
X11970182Y-10595889D02*
X11960658Y-10614936D01*
X11960658Y-10614936D02*
X11951134Y-10624460D01*
X11951134Y-10624460D02*
X11932086Y-10633984D01*
X11932086Y-10633984D02*
X11913039Y-10633984D01*
X11913039Y-10633984D02*
X11893991Y-10624460D01*
X11893991Y-10624460D02*
X11884467Y-10614936D01*
X11884467Y-10614936D02*
X11874943Y-10595889D01*
X11874943Y-10595889D02*
X11865420Y-10557793D01*
X11865420Y-10557793D02*
X11865420Y-10510174D01*
X11865420Y-10510174D02*
X11874943Y-10472079D01*
X11874943Y-10472079D02*
X11884467Y-10453031D01*
X11884467Y-10453031D02*
X11893991Y-10443508D01*
X11893991Y-10443508D02*
X11913039Y-10433984D01*
X12065420Y-10633984D02*
X12065420Y-10500650D01*
X12065420Y-10519698D02*
X12074943Y-10510174D01*
X12074943Y-10510174D02*
X12093991Y-10500650D01*
X12093991Y-10500650D02*
X12122563Y-10500650D01*
X12122563Y-10500650D02*
X12141610Y-10510174D01*
X12141610Y-10510174D02*
X12151134Y-10529222D01*
X12151134Y-10529222D02*
X12151134Y-10633984D01*
X12151134Y-10529222D02*
X12160658Y-10510174D01*
X12160658Y-10510174D02*
X12179705Y-10500650D01*
X12179705Y-10500650D02*
X12208277Y-10500650D01*
X12208277Y-10500650D02*
X12227324Y-10510174D01*
X12227324Y-10510174D02*
X12236848Y-10529222D01*
X12236848Y-10529222D02*
X12236848Y-10633984D01*
X12332086Y-10633984D02*
X12332086Y-10500650D01*
X12332086Y-10519698D02*
X12341610Y-10510174D01*
X12341610Y-10510174D02*
X12360658Y-10500650D01*
X12360658Y-10500650D02*
X12389229Y-10500650D01*
X12389229Y-10500650D02*
X12408277Y-10510174D01*
X12408277Y-10510174D02*
X12417801Y-10529222D01*
X12417801Y-10529222D02*
X12417801Y-10633984D01*
X12417801Y-10529222D02*
X12427324Y-10510174D01*
X12427324Y-10510174D02*
X12446372Y-10500650D01*
X12446372Y-10500650D02*
X12474943Y-10500650D01*
X12474943Y-10500650D02*
X12493991Y-10510174D01*
X12493991Y-10510174D02*
X12503515Y-10529222D01*
X12503515Y-10529222D02*
X12503515Y-10633984D01*
X12893991Y-10424460D02*
X12722563Y-10681603D01*
X13151134Y-10433984D02*
X13170182Y-10433984D01*
X13170182Y-10433984D02*
X13189229Y-10443508D01*
X13189229Y-10443508D02*
X13198753Y-10453031D01*
X13198753Y-10453031D02*
X13208277Y-10472079D01*
X13208277Y-10472079D02*
X13217801Y-10510174D01*
X13217801Y-10510174D02*
X13217801Y-10557793D01*
X13217801Y-10557793D02*
X13208277Y-10595889D01*
X13208277Y-10595889D02*
X13198753Y-10614936D01*
X13198753Y-10614936D02*
X13189229Y-10624460D01*
X13189229Y-10624460D02*
X13170182Y-10633984D01*
X13170182Y-10633984D02*
X13151134Y-10633984D01*
X13151134Y-10633984D02*
X13132086Y-10624460D01*
X13132086Y-10624460D02*
X13122563Y-10614936D01*
X13122563Y-10614936D02*
X13113039Y-10595889D01*
X13113039Y-10595889D02*
X13103515Y-10557793D01*
X13103515Y-10557793D02*
X13103515Y-10510174D01*
X13103515Y-10510174D02*
X13113039Y-10472079D01*
X13113039Y-10472079D02*
X13122563Y-10453031D01*
X13122563Y-10453031D02*
X13132086Y-10443508D01*
X13132086Y-10443508D02*
X13151134Y-10433984D01*
X13303515Y-10614936D02*
X13313039Y-10624460D01*
X13313039Y-10624460D02*
X13303515Y-10633984D01*
X13303515Y-10633984D02*
X13293991Y-10624460D01*
X13293991Y-10624460D02*
X13303515Y-10614936D01*
X13303515Y-10614936D02*
X13303515Y-10633984D01*
X13436848Y-10433984D02*
X13455896Y-10433984D01*
X13455896Y-10433984D02*
X13474944Y-10443508D01*
X13474944Y-10443508D02*
X13484467Y-10453031D01*
X13484467Y-10453031D02*
X13493991Y-10472079D01*
X13493991Y-10472079D02*
X13503515Y-10510174D01*
X13503515Y-10510174D02*
X13503515Y-10557793D01*
X13503515Y-10557793D02*
X13493991Y-10595889D01*
X13493991Y-10595889D02*
X13484467Y-10614936D01*
X13484467Y-10614936D02*
X13474944Y-10624460D01*
X13474944Y-10624460D02*
X13455896Y-10633984D01*
X13455896Y-10633984D02*
X13436848Y-10633984D01*
X13436848Y-10633984D02*
X13417801Y-10624460D01*
X13417801Y-10624460D02*
X13408277Y-10614936D01*
X13408277Y-10614936D02*
X13398753Y-10595889D01*
X13398753Y-10595889D02*
X13389229Y-10557793D01*
X13389229Y-10557793D02*
X13389229Y-10510174D01*
X13389229Y-10510174D02*
X13398753Y-10472079D01*
X13398753Y-10472079D02*
X13408277Y-10453031D01*
X13408277Y-10453031D02*
X13417801Y-10443508D01*
X13417801Y-10443508D02*
X13436848Y-10433984D01*
X13693991Y-10633984D02*
X13579706Y-10633984D01*
X13636848Y-10633984D02*
X13636848Y-10433984D01*
X13636848Y-10433984D02*
X13617801Y-10462555D01*
X13617801Y-10462555D02*
X13598753Y-10481603D01*
X13598753Y-10481603D02*
X13579706Y-10491127D01*
X13884467Y-10633984D02*
X13770182Y-10633984D01*
X13827325Y-10633984D02*
X13827325Y-10433984D01*
X13827325Y-10433984D02*
X13808277Y-10462555D01*
X13808277Y-10462555D02*
X13789229Y-10481603D01*
X13789229Y-10481603D02*
X13770182Y-10491127D01*
X13998753Y-10519698D02*
X13979706Y-10510174D01*
X13979706Y-10510174D02*
X13970182Y-10500650D01*
X13970182Y-10500650D02*
X13960658Y-10481603D01*
X13960658Y-10481603D02*
X13960658Y-10472079D01*
X13960658Y-10472079D02*
X13970182Y-10453031D01*
X13970182Y-10453031D02*
X13979706Y-10443508D01*
X13979706Y-10443508D02*
X13998753Y-10433984D01*
X13998753Y-10433984D02*
X14036848Y-10433984D01*
X14036848Y-10433984D02*
X14055896Y-10443508D01*
X14055896Y-10443508D02*
X14065420Y-10453031D01*
X14065420Y-10453031D02*
X14074944Y-10472079D01*
X14074944Y-10472079D02*
X14074944Y-10481603D01*
X14074944Y-10481603D02*
X14065420Y-10500650D01*
X14065420Y-10500650D02*
X14055896Y-10510174D01*
X14055896Y-10510174D02*
X14036848Y-10519698D01*
X14036848Y-10519698D02*
X13998753Y-10519698D01*
X13998753Y-10519698D02*
X13979706Y-10529222D01*
X13979706Y-10529222D02*
X13970182Y-10538746D01*
X13970182Y-10538746D02*
X13960658Y-10557793D01*
X13960658Y-10557793D02*
X13960658Y-10595889D01*
X13960658Y-10595889D02*
X13970182Y-10614936D01*
X13970182Y-10614936D02*
X13979706Y-10624460D01*
X13979706Y-10624460D02*
X13998753Y-10633984D01*
X13998753Y-10633984D02*
X14036848Y-10633984D01*
X14036848Y-10633984D02*
X14055896Y-10624460D01*
X14055896Y-10624460D02*
X14065420Y-10614936D01*
X14065420Y-10614936D02*
X14074944Y-10595889D01*
X14074944Y-10595889D02*
X14074944Y-10557793D01*
X14074944Y-10557793D02*
X14065420Y-10538746D01*
X14065420Y-10538746D02*
X14055896Y-10529222D01*
X14055896Y-10529222D02*
X14036848Y-10519698D01*
X14151134Y-10433984D02*
X14151134Y-10472079D01*
X14227325Y-10433984D02*
X14227325Y-10472079D01*
X14522563Y-10710174D02*
X14513039Y-10700650D01*
X14513039Y-10700650D02*
X14493991Y-10672079D01*
X14493991Y-10672079D02*
X14484468Y-10653031D01*
X14484468Y-10653031D02*
X14474944Y-10624460D01*
X14474944Y-10624460D02*
X14465420Y-10576841D01*
X14465420Y-10576841D02*
X14465420Y-10538746D01*
X14465420Y-10538746D02*
X14474944Y-10491127D01*
X14474944Y-10491127D02*
X14484468Y-10462555D01*
X14484468Y-10462555D02*
X14493991Y-10443508D01*
X14493991Y-10443508D02*
X14513039Y-10414936D01*
X14513039Y-10414936D02*
X14522563Y-10405412D01*
X14589229Y-10453031D02*
X14598753Y-10443508D01*
X14598753Y-10443508D02*
X14617801Y-10433984D01*
X14617801Y-10433984D02*
X14665420Y-10433984D01*
X14665420Y-10433984D02*
X14684468Y-10443508D01*
X14684468Y-10443508D02*
X14693991Y-10453031D01*
X14693991Y-10453031D02*
X14703515Y-10472079D01*
X14703515Y-10472079D02*
X14703515Y-10491127D01*
X14703515Y-10491127D02*
X14693991Y-10519698D01*
X14693991Y-10519698D02*
X14579706Y-10633984D01*
X14579706Y-10633984D02*
X14703515Y-10633984D01*
X14874944Y-10500650D02*
X14874944Y-10633984D01*
X14827325Y-10424460D02*
X14779706Y-10567317D01*
X14779706Y-10567317D02*
X14903515Y-10567317D01*
X15132087Y-10633984D02*
X15132087Y-10433984D01*
X15217801Y-10633984D02*
X15217801Y-10529222D01*
X15217801Y-10529222D02*
X15208277Y-10510174D01*
X15208277Y-10510174D02*
X15189230Y-10500650D01*
X15189230Y-10500650D02*
X15160658Y-10500650D01*
X15160658Y-10500650D02*
X15141610Y-10510174D01*
X15141610Y-10510174D02*
X15132087Y-10519698D01*
X15341610Y-10633984D02*
X15322563Y-10624460D01*
X15322563Y-10624460D02*
X15313039Y-10614936D01*
X15313039Y-10614936D02*
X15303515Y-10595889D01*
X15303515Y-10595889D02*
X15303515Y-10538746D01*
X15303515Y-10538746D02*
X15313039Y-10519698D01*
X15313039Y-10519698D02*
X15322563Y-10510174D01*
X15322563Y-10510174D02*
X15341610Y-10500650D01*
X15341610Y-10500650D02*
X15370182Y-10500650D01*
X15370182Y-10500650D02*
X15389230Y-10510174D01*
X15389230Y-10510174D02*
X15398753Y-10519698D01*
X15398753Y-10519698D02*
X15408277Y-10538746D01*
X15408277Y-10538746D02*
X15408277Y-10595889D01*
X15408277Y-10595889D02*
X15398753Y-10614936D01*
X15398753Y-10614936D02*
X15389230Y-10624460D01*
X15389230Y-10624460D02*
X15370182Y-10633984D01*
X15370182Y-10633984D02*
X15341610Y-10633984D01*
X15522563Y-10633984D02*
X15503515Y-10624460D01*
X15503515Y-10624460D02*
X15493991Y-10605412D01*
X15493991Y-10605412D02*
X15493991Y-10433984D01*
X15674944Y-10624460D02*
X15655896Y-10633984D01*
X15655896Y-10633984D02*
X15617801Y-10633984D01*
X15617801Y-10633984D02*
X15598753Y-10624460D01*
X15598753Y-10624460D02*
X15589230Y-10605412D01*
X15589230Y-10605412D02*
X15589230Y-10529222D01*
X15589230Y-10529222D02*
X15598753Y-10510174D01*
X15598753Y-10510174D02*
X15617801Y-10500650D01*
X15617801Y-10500650D02*
X15655896Y-10500650D01*
X15655896Y-10500650D02*
X15674944Y-10510174D01*
X15674944Y-10510174D02*
X15684468Y-10529222D01*
X15684468Y-10529222D02*
X15684468Y-10548270D01*
X15684468Y-10548270D02*
X15589230Y-10567317D01*
X15760658Y-10624460D02*
X15779706Y-10633984D01*
X15779706Y-10633984D02*
X15817801Y-10633984D01*
X15817801Y-10633984D02*
X15836849Y-10624460D01*
X15836849Y-10624460D02*
X15846372Y-10605412D01*
X15846372Y-10605412D02*
X15846372Y-10595889D01*
X15846372Y-10595889D02*
X15836849Y-10576841D01*
X15836849Y-10576841D02*
X15817801Y-10567317D01*
X15817801Y-10567317D02*
X15789230Y-10567317D01*
X15789230Y-10567317D02*
X15770182Y-10557793D01*
X15770182Y-10557793D02*
X15760658Y-10538746D01*
X15760658Y-10538746D02*
X15760658Y-10529222D01*
X15760658Y-10529222D02*
X15770182Y-10510174D01*
X15770182Y-10510174D02*
X15789230Y-10500650D01*
X15789230Y-10500650D02*
X15817801Y-10500650D01*
X15817801Y-10500650D02*
X15836849Y-10510174D01*
X15913039Y-10710174D02*
X15922563Y-10700650D01*
X15922563Y-10700650D02*
X15941611Y-10672079D01*
X15941611Y-10672079D02*
X15951134Y-10653031D01*
X15951134Y-10653031D02*
X15960658Y-10624460D01*
X15960658Y-10624460D02*
X15970182Y-10576841D01*
X15970182Y-10576841D02*
X15970182Y-10538746D01*
X15970182Y-10538746D02*
X15960658Y-10491127D01*
X15960658Y-10491127D02*
X15951134Y-10462555D01*
X15951134Y-10462555D02*
X15941611Y-10443508D01*
X15941611Y-10443508D02*
X15922563Y-10414936D01*
X15922563Y-10414936D02*
X15913039Y-10405412D01*
D12*
X10947500Y-10806500D02*
G75*
G02*
X10897500Y-10806500I-25000J0D01*
G01*
X10897500Y-10806500D02*
G75*
G02*
X10947500Y-10806500I25000J0D01*
G01*
D11*
X11246372Y-10697984D02*
X11265420Y-10697984D01*
X11265420Y-10697984D02*
X11284467Y-10707508D01*
X11284467Y-10707508D02*
X11293991Y-10717031D01*
X11293991Y-10717031D02*
X11303515Y-10736079D01*
X11303515Y-10736079D02*
X11313039Y-10774174D01*
X11313039Y-10774174D02*
X11313039Y-10821793D01*
X11313039Y-10821793D02*
X11303515Y-10859889D01*
X11303515Y-10859889D02*
X11293991Y-10878936D01*
X11293991Y-10878936D02*
X11284467Y-10888460D01*
X11284467Y-10888460D02*
X11265420Y-10897984D01*
X11265420Y-10897984D02*
X11246372Y-10897984D01*
X11246372Y-10897984D02*
X11227324Y-10888460D01*
X11227324Y-10888460D02*
X11217801Y-10878936D01*
X11217801Y-10878936D02*
X11208277Y-10859889D01*
X11208277Y-10859889D02*
X11198753Y-10821793D01*
X11198753Y-10821793D02*
X11198753Y-10774174D01*
X11198753Y-10774174D02*
X11208277Y-10736079D01*
X11208277Y-10736079D02*
X11217801Y-10717031D01*
X11217801Y-10717031D02*
X11227324Y-10707508D01*
X11227324Y-10707508D02*
X11246372Y-10697984D01*
X11398753Y-10878936D02*
X11408277Y-10888460D01*
X11408277Y-10888460D02*
X11398753Y-10897984D01*
X11398753Y-10897984D02*
X11389229Y-10888460D01*
X11389229Y-10888460D02*
X11398753Y-10878936D01*
X11398753Y-10878936D02*
X11398753Y-10897984D01*
X11589229Y-10697984D02*
X11493991Y-10697984D01*
X11493991Y-10697984D02*
X11484467Y-10793222D01*
X11484467Y-10793222D02*
X11493991Y-10783698D01*
X11493991Y-10783698D02*
X11513039Y-10774174D01*
X11513039Y-10774174D02*
X11560658Y-10774174D01*
X11560658Y-10774174D02*
X11579705Y-10783698D01*
X11579705Y-10783698D02*
X11589229Y-10793222D01*
X11589229Y-10793222D02*
X11598753Y-10812270D01*
X11598753Y-10812270D02*
X11598753Y-10859889D01*
X11598753Y-10859889D02*
X11589229Y-10878936D01*
X11589229Y-10878936D02*
X11579705Y-10888460D01*
X11579705Y-10888460D02*
X11560658Y-10897984D01*
X11560658Y-10897984D02*
X11513039Y-10897984D01*
X11513039Y-10897984D02*
X11493991Y-10888460D01*
X11493991Y-10888460D02*
X11484467Y-10878936D01*
X11722562Y-10697984D02*
X11741610Y-10697984D01*
X11741610Y-10697984D02*
X11760658Y-10707508D01*
X11760658Y-10707508D02*
X11770182Y-10717031D01*
X11770182Y-10717031D02*
X11779705Y-10736079D01*
X11779705Y-10736079D02*
X11789229Y-10774174D01*
X11789229Y-10774174D02*
X11789229Y-10821793D01*
X11789229Y-10821793D02*
X11779705Y-10859889D01*
X11779705Y-10859889D02*
X11770182Y-10878936D01*
X11770182Y-10878936D02*
X11760658Y-10888460D01*
X11760658Y-10888460D02*
X11741610Y-10897984D01*
X11741610Y-10897984D02*
X11722562Y-10897984D01*
X11722562Y-10897984D02*
X11703515Y-10888460D01*
X11703515Y-10888460D02*
X11693991Y-10878936D01*
X11693991Y-10878936D02*
X11684467Y-10859889D01*
X11684467Y-10859889D02*
X11674943Y-10821793D01*
X11674943Y-10821793D02*
X11674943Y-10774174D01*
X11674943Y-10774174D02*
X11684467Y-10736079D01*
X11684467Y-10736079D02*
X11693991Y-10717031D01*
X11693991Y-10717031D02*
X11703515Y-10707508D01*
X11703515Y-10707508D02*
X11722562Y-10697984D01*
X11913039Y-10697984D02*
X11932086Y-10697984D01*
X11932086Y-10697984D02*
X11951134Y-10707508D01*
X11951134Y-10707508D02*
X11960658Y-10717031D01*
X11960658Y-10717031D02*
X11970182Y-10736079D01*
X11970182Y-10736079D02*
X11979705Y-10774174D01*
X11979705Y-10774174D02*
X11979705Y-10821793D01*
X11979705Y-10821793D02*
X11970182Y-10859889D01*
X11970182Y-10859889D02*
X11960658Y-10878936D01*
X11960658Y-10878936D02*
X11951134Y-10888460D01*
X11951134Y-10888460D02*
X11932086Y-10897984D01*
X11932086Y-10897984D02*
X11913039Y-10897984D01*
X11913039Y-10897984D02*
X11893991Y-10888460D01*
X11893991Y-10888460D02*
X11884467Y-10878936D01*
X11884467Y-10878936D02*
X11874943Y-10859889D01*
X11874943Y-10859889D02*
X11865420Y-10821793D01*
X11865420Y-10821793D02*
X11865420Y-10774174D01*
X11865420Y-10774174D02*
X11874943Y-10736079D01*
X11874943Y-10736079D02*
X11884467Y-10717031D01*
X11884467Y-10717031D02*
X11893991Y-10707508D01*
X11893991Y-10707508D02*
X11913039Y-10697984D01*
X12065420Y-10897984D02*
X12065420Y-10764650D01*
X12065420Y-10783698D02*
X12074943Y-10774174D01*
X12074943Y-10774174D02*
X12093991Y-10764650D01*
X12093991Y-10764650D02*
X12122563Y-10764650D01*
X12122563Y-10764650D02*
X12141610Y-10774174D01*
X12141610Y-10774174D02*
X12151134Y-10793222D01*
X12151134Y-10793222D02*
X12151134Y-10897984D01*
X12151134Y-10793222D02*
X12160658Y-10774174D01*
X12160658Y-10774174D02*
X12179705Y-10764650D01*
X12179705Y-10764650D02*
X12208277Y-10764650D01*
X12208277Y-10764650D02*
X12227324Y-10774174D01*
X12227324Y-10774174D02*
X12236848Y-10793222D01*
X12236848Y-10793222D02*
X12236848Y-10897984D01*
X12332086Y-10897984D02*
X12332086Y-10764650D01*
X12332086Y-10783698D02*
X12341610Y-10774174D01*
X12341610Y-10774174D02*
X12360658Y-10764650D01*
X12360658Y-10764650D02*
X12389229Y-10764650D01*
X12389229Y-10764650D02*
X12408277Y-10774174D01*
X12408277Y-10774174D02*
X12417801Y-10793222D01*
X12417801Y-10793222D02*
X12417801Y-10897984D01*
X12417801Y-10793222D02*
X12427324Y-10774174D01*
X12427324Y-10774174D02*
X12446372Y-10764650D01*
X12446372Y-10764650D02*
X12474943Y-10764650D01*
X12474943Y-10764650D02*
X12493991Y-10774174D01*
X12493991Y-10774174D02*
X12503515Y-10793222D01*
X12503515Y-10793222D02*
X12503515Y-10897984D01*
X12893991Y-10688460D02*
X12722563Y-10945603D01*
X13151134Y-10697984D02*
X13170182Y-10697984D01*
X13170182Y-10697984D02*
X13189229Y-10707508D01*
X13189229Y-10707508D02*
X13198753Y-10717031D01*
X13198753Y-10717031D02*
X13208277Y-10736079D01*
X13208277Y-10736079D02*
X13217801Y-10774174D01*
X13217801Y-10774174D02*
X13217801Y-10821793D01*
X13217801Y-10821793D02*
X13208277Y-10859889D01*
X13208277Y-10859889D02*
X13198753Y-10878936D01*
X13198753Y-10878936D02*
X13189229Y-10888460D01*
X13189229Y-10888460D02*
X13170182Y-10897984D01*
X13170182Y-10897984D02*
X13151134Y-10897984D01*
X13151134Y-10897984D02*
X13132086Y-10888460D01*
X13132086Y-10888460D02*
X13122563Y-10878936D01*
X13122563Y-10878936D02*
X13113039Y-10859889D01*
X13113039Y-10859889D02*
X13103515Y-10821793D01*
X13103515Y-10821793D02*
X13103515Y-10774174D01*
X13103515Y-10774174D02*
X13113039Y-10736079D01*
X13113039Y-10736079D02*
X13122563Y-10717031D01*
X13122563Y-10717031D02*
X13132086Y-10707508D01*
X13132086Y-10707508D02*
X13151134Y-10697984D01*
X13303515Y-10878936D02*
X13313039Y-10888460D01*
X13313039Y-10888460D02*
X13303515Y-10897984D01*
X13303515Y-10897984D02*
X13293991Y-10888460D01*
X13293991Y-10888460D02*
X13303515Y-10878936D01*
X13303515Y-10878936D02*
X13303515Y-10897984D01*
X13436848Y-10697984D02*
X13455896Y-10697984D01*
X13455896Y-10697984D02*
X13474944Y-10707508D01*
X13474944Y-10707508D02*
X13484467Y-10717031D01*
X13484467Y-10717031D02*
X13493991Y-10736079D01*
X13493991Y-10736079D02*
X13503515Y-10774174D01*
X13503515Y-10774174D02*
X13503515Y-10821793D01*
X13503515Y-10821793D02*
X13493991Y-10859889D01*
X13493991Y-10859889D02*
X13484467Y-10878936D01*
X13484467Y-10878936D02*
X13474944Y-10888460D01*
X13474944Y-10888460D02*
X13455896Y-10897984D01*
X13455896Y-10897984D02*
X13436848Y-10897984D01*
X13436848Y-10897984D02*
X13417801Y-10888460D01*
X13417801Y-10888460D02*
X13408277Y-10878936D01*
X13408277Y-10878936D02*
X13398753Y-10859889D01*
X13398753Y-10859889D02*
X13389229Y-10821793D01*
X13389229Y-10821793D02*
X13389229Y-10774174D01*
X13389229Y-10774174D02*
X13398753Y-10736079D01*
X13398753Y-10736079D02*
X13408277Y-10717031D01*
X13408277Y-10717031D02*
X13417801Y-10707508D01*
X13417801Y-10707508D02*
X13436848Y-10697984D01*
X13693991Y-10897984D02*
X13579706Y-10897984D01*
X13636848Y-10897984D02*
X13636848Y-10697984D01*
X13636848Y-10697984D02*
X13617801Y-10726555D01*
X13617801Y-10726555D02*
X13598753Y-10745603D01*
X13598753Y-10745603D02*
X13579706Y-10755127D01*
X13789229Y-10897984D02*
X13827325Y-10897984D01*
X13827325Y-10897984D02*
X13846372Y-10888460D01*
X13846372Y-10888460D02*
X13855896Y-10878936D01*
X13855896Y-10878936D02*
X13874944Y-10850365D01*
X13874944Y-10850365D02*
X13884467Y-10812270D01*
X13884467Y-10812270D02*
X13884467Y-10736079D01*
X13884467Y-10736079D02*
X13874944Y-10717031D01*
X13874944Y-10717031D02*
X13865420Y-10707508D01*
X13865420Y-10707508D02*
X13846372Y-10697984D01*
X13846372Y-10697984D02*
X13808277Y-10697984D01*
X13808277Y-10697984D02*
X13789229Y-10707508D01*
X13789229Y-10707508D02*
X13779706Y-10717031D01*
X13779706Y-10717031D02*
X13770182Y-10736079D01*
X13770182Y-10736079D02*
X13770182Y-10783698D01*
X13770182Y-10783698D02*
X13779706Y-10802746D01*
X13779706Y-10802746D02*
X13789229Y-10812270D01*
X13789229Y-10812270D02*
X13808277Y-10821793D01*
X13808277Y-10821793D02*
X13846372Y-10821793D01*
X13846372Y-10821793D02*
X13865420Y-10812270D01*
X13865420Y-10812270D02*
X13874944Y-10802746D01*
X13874944Y-10802746D02*
X13884467Y-10783698D01*
X13951134Y-10697984D02*
X14084467Y-10697984D01*
X14084467Y-10697984D02*
X13998753Y-10897984D01*
X14151134Y-10697984D02*
X14151134Y-10736079D01*
X14227325Y-10697984D02*
X14227325Y-10736079D01*
X14522563Y-10974174D02*
X14513039Y-10964650D01*
X14513039Y-10964650D02*
X14493991Y-10936079D01*
X14493991Y-10936079D02*
X14484468Y-10917031D01*
X14484468Y-10917031D02*
X14474944Y-10888460D01*
X14474944Y-10888460D02*
X14465420Y-10840841D01*
X14465420Y-10840841D02*
X14465420Y-10802746D01*
X14465420Y-10802746D02*
X14474944Y-10755127D01*
X14474944Y-10755127D02*
X14484468Y-10726555D01*
X14484468Y-10726555D02*
X14493991Y-10707508D01*
X14493991Y-10707508D02*
X14513039Y-10678936D01*
X14513039Y-10678936D02*
X14522563Y-10669412D01*
X14703515Y-10897984D02*
X14589229Y-10897984D01*
X14646372Y-10897984D02*
X14646372Y-10697984D01*
X14646372Y-10697984D02*
X14627325Y-10726555D01*
X14627325Y-10726555D02*
X14608277Y-10745603D01*
X14608277Y-10745603D02*
X14589229Y-10755127D01*
X14770182Y-10697984D02*
X14903515Y-10697984D01*
X14903515Y-10697984D02*
X14817801Y-10897984D01*
X15132087Y-10897984D02*
X15132087Y-10697984D01*
X15217801Y-10897984D02*
X15217801Y-10793222D01*
X15217801Y-10793222D02*
X15208277Y-10774174D01*
X15208277Y-10774174D02*
X15189230Y-10764650D01*
X15189230Y-10764650D02*
X15160658Y-10764650D01*
X15160658Y-10764650D02*
X15141610Y-10774174D01*
X15141610Y-10774174D02*
X15132087Y-10783698D01*
X15341610Y-10897984D02*
X15322563Y-10888460D01*
X15322563Y-10888460D02*
X15313039Y-10878936D01*
X15313039Y-10878936D02*
X15303515Y-10859889D01*
X15303515Y-10859889D02*
X15303515Y-10802746D01*
X15303515Y-10802746D02*
X15313039Y-10783698D01*
X15313039Y-10783698D02*
X15322563Y-10774174D01*
X15322563Y-10774174D02*
X15341610Y-10764650D01*
X15341610Y-10764650D02*
X15370182Y-10764650D01*
X15370182Y-10764650D02*
X15389230Y-10774174D01*
X15389230Y-10774174D02*
X15398753Y-10783698D01*
X15398753Y-10783698D02*
X15408277Y-10802746D01*
X15408277Y-10802746D02*
X15408277Y-10859889D01*
X15408277Y-10859889D02*
X15398753Y-10878936D01*
X15398753Y-10878936D02*
X15389230Y-10888460D01*
X15389230Y-10888460D02*
X15370182Y-10897984D01*
X15370182Y-10897984D02*
X15341610Y-10897984D01*
X15522563Y-10897984D02*
X15503515Y-10888460D01*
X15503515Y-10888460D02*
X15493991Y-10869412D01*
X15493991Y-10869412D02*
X15493991Y-10697984D01*
X15674944Y-10888460D02*
X15655896Y-10897984D01*
X15655896Y-10897984D02*
X15617801Y-10897984D01*
X15617801Y-10897984D02*
X15598753Y-10888460D01*
X15598753Y-10888460D02*
X15589230Y-10869412D01*
X15589230Y-10869412D02*
X15589230Y-10793222D01*
X15589230Y-10793222D02*
X15598753Y-10774174D01*
X15598753Y-10774174D02*
X15617801Y-10764650D01*
X15617801Y-10764650D02*
X15655896Y-10764650D01*
X15655896Y-10764650D02*
X15674944Y-10774174D01*
X15674944Y-10774174D02*
X15684468Y-10793222D01*
X15684468Y-10793222D02*
X15684468Y-10812270D01*
X15684468Y-10812270D02*
X15589230Y-10831317D01*
X15760658Y-10888460D02*
X15779706Y-10897984D01*
X15779706Y-10897984D02*
X15817801Y-10897984D01*
X15817801Y-10897984D02*
X15836849Y-10888460D01*
X15836849Y-10888460D02*
X15846372Y-10869412D01*
X15846372Y-10869412D02*
X15846372Y-10859889D01*
X15846372Y-10859889D02*
X15836849Y-10840841D01*
X15836849Y-10840841D02*
X15817801Y-10831317D01*
X15817801Y-10831317D02*
X15789230Y-10831317D01*
X15789230Y-10831317D02*
X15770182Y-10821793D01*
X15770182Y-10821793D02*
X15760658Y-10802746D01*
X15760658Y-10802746D02*
X15760658Y-10793222D01*
X15760658Y-10793222D02*
X15770182Y-10774174D01*
X15770182Y-10774174D02*
X15789230Y-10764650D01*
X15789230Y-10764650D02*
X15817801Y-10764650D01*
X15817801Y-10764650D02*
X15836849Y-10774174D01*
X15913039Y-10974174D02*
X15922563Y-10964650D01*
X15922563Y-10964650D02*
X15941611Y-10936079D01*
X15941611Y-10936079D02*
X15951134Y-10917031D01*
X15951134Y-10917031D02*
X15960658Y-10888460D01*
X15960658Y-10888460D02*
X15970182Y-10840841D01*
X15970182Y-10840841D02*
X15970182Y-10802746D01*
X15970182Y-10802746D02*
X15960658Y-10755127D01*
X15960658Y-10755127D02*
X15951134Y-10726555D01*
X15951134Y-10726555D02*
X15941611Y-10707508D01*
X15941611Y-10707508D02*
X15922563Y-10678936D01*
X15922563Y-10678936D02*
X15913039Y-10669412D01*
D12*
X10910000Y-11033000D02*
X10910000Y-11108000D01*
X10872500Y-11070500D02*
X10947500Y-11070500D01*
D11*
X11246372Y-10961984D02*
X11265420Y-10961984D01*
X11265420Y-10961984D02*
X11284467Y-10971508D01*
X11284467Y-10971508D02*
X11293991Y-10981031D01*
X11293991Y-10981031D02*
X11303515Y-11000079D01*
X11303515Y-11000079D02*
X11313039Y-11038174D01*
X11313039Y-11038174D02*
X11313039Y-11085793D01*
X11313039Y-11085793D02*
X11303515Y-11123889D01*
X11303515Y-11123889D02*
X11293991Y-11142936D01*
X11293991Y-11142936D02*
X11284467Y-11152460D01*
X11284467Y-11152460D02*
X11265420Y-11161984D01*
X11265420Y-11161984D02*
X11246372Y-11161984D01*
X11246372Y-11161984D02*
X11227324Y-11152460D01*
X11227324Y-11152460D02*
X11217801Y-11142936D01*
X11217801Y-11142936D02*
X11208277Y-11123889D01*
X11208277Y-11123889D02*
X11198753Y-11085793D01*
X11198753Y-11085793D02*
X11198753Y-11038174D01*
X11198753Y-11038174D02*
X11208277Y-11000079D01*
X11208277Y-11000079D02*
X11217801Y-10981031D01*
X11217801Y-10981031D02*
X11227324Y-10971508D01*
X11227324Y-10971508D02*
X11246372Y-10961984D01*
X11398753Y-11142936D02*
X11408277Y-11152460D01*
X11408277Y-11152460D02*
X11398753Y-11161984D01*
X11398753Y-11161984D02*
X11389229Y-11152460D01*
X11389229Y-11152460D02*
X11398753Y-11142936D01*
X11398753Y-11142936D02*
X11398753Y-11161984D01*
X11474943Y-10961984D02*
X11608277Y-10961984D01*
X11608277Y-10961984D02*
X11522562Y-11161984D01*
X11779705Y-10961984D02*
X11684467Y-10961984D01*
X11684467Y-10961984D02*
X11674943Y-11057222D01*
X11674943Y-11057222D02*
X11684467Y-11047698D01*
X11684467Y-11047698D02*
X11703515Y-11038174D01*
X11703515Y-11038174D02*
X11751134Y-11038174D01*
X11751134Y-11038174D02*
X11770182Y-11047698D01*
X11770182Y-11047698D02*
X11779705Y-11057222D01*
X11779705Y-11057222D02*
X11789229Y-11076270D01*
X11789229Y-11076270D02*
X11789229Y-11123889D01*
X11789229Y-11123889D02*
X11779705Y-11142936D01*
X11779705Y-11142936D02*
X11770182Y-11152460D01*
X11770182Y-11152460D02*
X11751134Y-11161984D01*
X11751134Y-11161984D02*
X11703515Y-11161984D01*
X11703515Y-11161984D02*
X11684467Y-11152460D01*
X11684467Y-11152460D02*
X11674943Y-11142936D01*
X11913039Y-10961984D02*
X11932086Y-10961984D01*
X11932086Y-10961984D02*
X11951134Y-10971508D01*
X11951134Y-10971508D02*
X11960658Y-10981031D01*
X11960658Y-10981031D02*
X11970182Y-11000079D01*
X11970182Y-11000079D02*
X11979705Y-11038174D01*
X11979705Y-11038174D02*
X11979705Y-11085793D01*
X11979705Y-11085793D02*
X11970182Y-11123889D01*
X11970182Y-11123889D02*
X11960658Y-11142936D01*
X11960658Y-11142936D02*
X11951134Y-11152460D01*
X11951134Y-11152460D02*
X11932086Y-11161984D01*
X11932086Y-11161984D02*
X11913039Y-11161984D01*
X11913039Y-11161984D02*
X11893991Y-11152460D01*
X11893991Y-11152460D02*
X11884467Y-11142936D01*
X11884467Y-11142936D02*
X11874943Y-11123889D01*
X11874943Y-11123889D02*
X11865420Y-11085793D01*
X11865420Y-11085793D02*
X11865420Y-11038174D01*
X11865420Y-11038174D02*
X11874943Y-11000079D01*
X11874943Y-11000079D02*
X11884467Y-10981031D01*
X11884467Y-10981031D02*
X11893991Y-10971508D01*
X11893991Y-10971508D02*
X11913039Y-10961984D01*
X12065420Y-11161984D02*
X12065420Y-11028650D01*
X12065420Y-11047698D02*
X12074943Y-11038174D01*
X12074943Y-11038174D02*
X12093991Y-11028650D01*
X12093991Y-11028650D02*
X12122563Y-11028650D01*
X12122563Y-11028650D02*
X12141610Y-11038174D01*
X12141610Y-11038174D02*
X12151134Y-11057222D01*
X12151134Y-11057222D02*
X12151134Y-11161984D01*
X12151134Y-11057222D02*
X12160658Y-11038174D01*
X12160658Y-11038174D02*
X12179705Y-11028650D01*
X12179705Y-11028650D02*
X12208277Y-11028650D01*
X12208277Y-11028650D02*
X12227324Y-11038174D01*
X12227324Y-11038174D02*
X12236848Y-11057222D01*
X12236848Y-11057222D02*
X12236848Y-11161984D01*
X12332086Y-11161984D02*
X12332086Y-11028650D01*
X12332086Y-11047698D02*
X12341610Y-11038174D01*
X12341610Y-11038174D02*
X12360658Y-11028650D01*
X12360658Y-11028650D02*
X12389229Y-11028650D01*
X12389229Y-11028650D02*
X12408277Y-11038174D01*
X12408277Y-11038174D02*
X12417801Y-11057222D01*
X12417801Y-11057222D02*
X12417801Y-11161984D01*
X12417801Y-11057222D02*
X12427324Y-11038174D01*
X12427324Y-11038174D02*
X12446372Y-11028650D01*
X12446372Y-11028650D02*
X12474943Y-11028650D01*
X12474943Y-11028650D02*
X12493991Y-11038174D01*
X12493991Y-11038174D02*
X12503515Y-11057222D01*
X12503515Y-11057222D02*
X12503515Y-11161984D01*
X12893991Y-10952460D02*
X12722563Y-11209603D01*
X13151134Y-10961984D02*
X13170182Y-10961984D01*
X13170182Y-10961984D02*
X13189229Y-10971508D01*
X13189229Y-10971508D02*
X13198753Y-10981031D01*
X13198753Y-10981031D02*
X13208277Y-11000079D01*
X13208277Y-11000079D02*
X13217801Y-11038174D01*
X13217801Y-11038174D02*
X13217801Y-11085793D01*
X13217801Y-11085793D02*
X13208277Y-11123889D01*
X13208277Y-11123889D02*
X13198753Y-11142936D01*
X13198753Y-11142936D02*
X13189229Y-11152460D01*
X13189229Y-11152460D02*
X13170182Y-11161984D01*
X13170182Y-11161984D02*
X13151134Y-11161984D01*
X13151134Y-11161984D02*
X13132086Y-11152460D01*
X13132086Y-11152460D02*
X13122563Y-11142936D01*
X13122563Y-11142936D02*
X13113039Y-11123889D01*
X13113039Y-11123889D02*
X13103515Y-11085793D01*
X13103515Y-11085793D02*
X13103515Y-11038174D01*
X13103515Y-11038174D02*
X13113039Y-11000079D01*
X13113039Y-11000079D02*
X13122563Y-10981031D01*
X13122563Y-10981031D02*
X13132086Y-10971508D01*
X13132086Y-10971508D02*
X13151134Y-10961984D01*
X13303515Y-11142936D02*
X13313039Y-11152460D01*
X13313039Y-11152460D02*
X13303515Y-11161984D01*
X13303515Y-11161984D02*
X13293991Y-11152460D01*
X13293991Y-11152460D02*
X13303515Y-11142936D01*
X13303515Y-11142936D02*
X13303515Y-11161984D01*
X13436848Y-10961984D02*
X13455896Y-10961984D01*
X13455896Y-10961984D02*
X13474944Y-10971508D01*
X13474944Y-10971508D02*
X13484467Y-10981031D01*
X13484467Y-10981031D02*
X13493991Y-11000079D01*
X13493991Y-11000079D02*
X13503515Y-11038174D01*
X13503515Y-11038174D02*
X13503515Y-11085793D01*
X13503515Y-11085793D02*
X13493991Y-11123889D01*
X13493991Y-11123889D02*
X13484467Y-11142936D01*
X13484467Y-11142936D02*
X13474944Y-11152460D01*
X13474944Y-11152460D02*
X13455896Y-11161984D01*
X13455896Y-11161984D02*
X13436848Y-11161984D01*
X13436848Y-11161984D02*
X13417801Y-11152460D01*
X13417801Y-11152460D02*
X13408277Y-11142936D01*
X13408277Y-11142936D02*
X13398753Y-11123889D01*
X13398753Y-11123889D02*
X13389229Y-11085793D01*
X13389229Y-11085793D02*
X13389229Y-11038174D01*
X13389229Y-11038174D02*
X13398753Y-11000079D01*
X13398753Y-11000079D02*
X13408277Y-10981031D01*
X13408277Y-10981031D02*
X13417801Y-10971508D01*
X13417801Y-10971508D02*
X13436848Y-10961984D01*
X13579706Y-10981031D02*
X13589229Y-10971508D01*
X13589229Y-10971508D02*
X13608277Y-10961984D01*
X13608277Y-10961984D02*
X13655896Y-10961984D01*
X13655896Y-10961984D02*
X13674944Y-10971508D01*
X13674944Y-10971508D02*
X13684467Y-10981031D01*
X13684467Y-10981031D02*
X13693991Y-11000079D01*
X13693991Y-11000079D02*
X13693991Y-11019127D01*
X13693991Y-11019127D02*
X13684467Y-11047698D01*
X13684467Y-11047698D02*
X13570182Y-11161984D01*
X13570182Y-11161984D02*
X13693991Y-11161984D01*
X13789229Y-11161984D02*
X13827325Y-11161984D01*
X13827325Y-11161984D02*
X13846372Y-11152460D01*
X13846372Y-11152460D02*
X13855896Y-11142936D01*
X13855896Y-11142936D02*
X13874944Y-11114365D01*
X13874944Y-11114365D02*
X13884467Y-11076270D01*
X13884467Y-11076270D02*
X13884467Y-11000079D01*
X13884467Y-11000079D02*
X13874944Y-10981031D01*
X13874944Y-10981031D02*
X13865420Y-10971508D01*
X13865420Y-10971508D02*
X13846372Y-10961984D01*
X13846372Y-10961984D02*
X13808277Y-10961984D01*
X13808277Y-10961984D02*
X13789229Y-10971508D01*
X13789229Y-10971508D02*
X13779706Y-10981031D01*
X13779706Y-10981031D02*
X13770182Y-11000079D01*
X13770182Y-11000079D02*
X13770182Y-11047698D01*
X13770182Y-11047698D02*
X13779706Y-11066746D01*
X13779706Y-11066746D02*
X13789229Y-11076270D01*
X13789229Y-11076270D02*
X13808277Y-11085793D01*
X13808277Y-11085793D02*
X13846372Y-11085793D01*
X13846372Y-11085793D02*
X13865420Y-11076270D01*
X13865420Y-11076270D02*
X13874944Y-11066746D01*
X13874944Y-11066746D02*
X13884467Y-11047698D01*
X14065420Y-10961984D02*
X13970182Y-10961984D01*
X13970182Y-10961984D02*
X13960658Y-11057222D01*
X13960658Y-11057222D02*
X13970182Y-11047698D01*
X13970182Y-11047698D02*
X13989229Y-11038174D01*
X13989229Y-11038174D02*
X14036848Y-11038174D01*
X14036848Y-11038174D02*
X14055896Y-11047698D01*
X14055896Y-11047698D02*
X14065420Y-11057222D01*
X14065420Y-11057222D02*
X14074944Y-11076270D01*
X14074944Y-11076270D02*
X14074944Y-11123889D01*
X14074944Y-11123889D02*
X14065420Y-11142936D01*
X14065420Y-11142936D02*
X14055896Y-11152460D01*
X14055896Y-11152460D02*
X14036848Y-11161984D01*
X14036848Y-11161984D02*
X13989229Y-11161984D01*
X13989229Y-11161984D02*
X13970182Y-11152460D01*
X13970182Y-11152460D02*
X13960658Y-11142936D01*
X14151134Y-10961984D02*
X14151134Y-11000079D01*
X14227325Y-10961984D02*
X14227325Y-11000079D01*
X14522563Y-11238174D02*
X14513039Y-11228650D01*
X14513039Y-11228650D02*
X14493991Y-11200079D01*
X14493991Y-11200079D02*
X14484468Y-11181031D01*
X14484468Y-11181031D02*
X14474944Y-11152460D01*
X14474944Y-11152460D02*
X14465420Y-11104841D01*
X14465420Y-11104841D02*
X14465420Y-11066746D01*
X14465420Y-11066746D02*
X14474944Y-11019127D01*
X14474944Y-11019127D02*
X14484468Y-10990555D01*
X14484468Y-10990555D02*
X14493991Y-10971508D01*
X14493991Y-10971508D02*
X14513039Y-10942936D01*
X14513039Y-10942936D02*
X14522563Y-10933412D01*
X14684468Y-11028650D02*
X14684468Y-11161984D01*
X14636848Y-10952460D02*
X14589229Y-11095317D01*
X14589229Y-11095317D02*
X14713039Y-11095317D01*
X14941610Y-11161984D02*
X14941610Y-10961984D01*
X15027325Y-11161984D02*
X15027325Y-11057222D01*
X15027325Y-11057222D02*
X15017801Y-11038174D01*
X15017801Y-11038174D02*
X14998753Y-11028650D01*
X14998753Y-11028650D02*
X14970182Y-11028650D01*
X14970182Y-11028650D02*
X14951134Y-11038174D01*
X14951134Y-11038174D02*
X14941610Y-11047698D01*
X15151134Y-11161984D02*
X15132087Y-11152460D01*
X15132087Y-11152460D02*
X15122563Y-11142936D01*
X15122563Y-11142936D02*
X15113039Y-11123889D01*
X15113039Y-11123889D02*
X15113039Y-11066746D01*
X15113039Y-11066746D02*
X15122563Y-11047698D01*
X15122563Y-11047698D02*
X15132087Y-11038174D01*
X15132087Y-11038174D02*
X15151134Y-11028650D01*
X15151134Y-11028650D02*
X15179706Y-11028650D01*
X15179706Y-11028650D02*
X15198753Y-11038174D01*
X15198753Y-11038174D02*
X15208277Y-11047698D01*
X15208277Y-11047698D02*
X15217801Y-11066746D01*
X15217801Y-11066746D02*
X15217801Y-11123889D01*
X15217801Y-11123889D02*
X15208277Y-11142936D01*
X15208277Y-11142936D02*
X15198753Y-11152460D01*
X15198753Y-11152460D02*
X15179706Y-11161984D01*
X15179706Y-11161984D02*
X15151134Y-11161984D01*
X15332087Y-11161984D02*
X15313039Y-11152460D01*
X15313039Y-11152460D02*
X15303515Y-11133412D01*
X15303515Y-11133412D02*
X15303515Y-10961984D01*
X15484468Y-11152460D02*
X15465420Y-11161984D01*
X15465420Y-11161984D02*
X15427325Y-11161984D01*
X15427325Y-11161984D02*
X15408277Y-11152460D01*
X15408277Y-11152460D02*
X15398753Y-11133412D01*
X15398753Y-11133412D02*
X15398753Y-11057222D01*
X15398753Y-11057222D02*
X15408277Y-11038174D01*
X15408277Y-11038174D02*
X15427325Y-11028650D01*
X15427325Y-11028650D02*
X15465420Y-11028650D01*
X15465420Y-11028650D02*
X15484468Y-11038174D01*
X15484468Y-11038174D02*
X15493991Y-11057222D01*
X15493991Y-11057222D02*
X15493991Y-11076270D01*
X15493991Y-11076270D02*
X15398753Y-11095317D01*
X15570182Y-11152460D02*
X15589230Y-11161984D01*
X15589230Y-11161984D02*
X15627325Y-11161984D01*
X15627325Y-11161984D02*
X15646372Y-11152460D01*
X15646372Y-11152460D02*
X15655896Y-11133412D01*
X15655896Y-11133412D02*
X15655896Y-11123889D01*
X15655896Y-11123889D02*
X15646372Y-11104841D01*
X15646372Y-11104841D02*
X15627325Y-11095317D01*
X15627325Y-11095317D02*
X15598753Y-11095317D01*
X15598753Y-11095317D02*
X15579706Y-11085793D01*
X15579706Y-11085793D02*
X15570182Y-11066746D01*
X15570182Y-11066746D02*
X15570182Y-11057222D01*
X15570182Y-11057222D02*
X15579706Y-11038174D01*
X15579706Y-11038174D02*
X15598753Y-11028650D01*
X15598753Y-11028650D02*
X15627325Y-11028650D01*
X15627325Y-11028650D02*
X15646372Y-11038174D01*
X15722563Y-11238174D02*
X15732087Y-11228650D01*
X15732087Y-11228650D02*
X15751134Y-11200079D01*
X15751134Y-11200079D02*
X15760658Y-11181031D01*
X15760658Y-11181031D02*
X15770182Y-11152460D01*
X15770182Y-11152460D02*
X15779706Y-11104841D01*
X15779706Y-11104841D02*
X15779706Y-11066746D01*
X15779706Y-11066746D02*
X15770182Y-11019127D01*
X15770182Y-11019127D02*
X15760658Y-10990555D01*
X15760658Y-10990555D02*
X15751134Y-10971508D01*
X15751134Y-10971508D02*
X15732087Y-10942936D01*
X15732087Y-10942936D02*
X15722563Y-10933412D01*
D13*
X10929646Y-11377606D02*
X10929646Y-11291394D01*
X10843434Y-11291394D01*
X10843434Y-11377606D01*
X10929646Y-11377606D01*
D11*
X11313039Y-11425984D02*
X11198753Y-11425984D01*
X11255896Y-11425984D02*
X11255896Y-11225984D01*
X11255896Y-11225984D02*
X11236848Y-11254555D01*
X11236848Y-11254555D02*
X11217801Y-11273603D01*
X11217801Y-11273603D02*
X11198753Y-11283127D01*
X11398753Y-11406936D02*
X11408277Y-11416460D01*
X11408277Y-11416460D02*
X11398753Y-11425984D01*
X11398753Y-11425984D02*
X11389229Y-11416460D01*
X11389229Y-11416460D02*
X11398753Y-11406936D01*
X11398753Y-11406936D02*
X11398753Y-11425984D01*
X11484467Y-11245031D02*
X11493991Y-11235508D01*
X11493991Y-11235508D02*
X11513039Y-11225984D01*
X11513039Y-11225984D02*
X11560658Y-11225984D01*
X11560658Y-11225984D02*
X11579705Y-11235508D01*
X11579705Y-11235508D02*
X11589229Y-11245031D01*
X11589229Y-11245031D02*
X11598753Y-11264079D01*
X11598753Y-11264079D02*
X11598753Y-11283127D01*
X11598753Y-11283127D02*
X11589229Y-11311698D01*
X11589229Y-11311698D02*
X11474943Y-11425984D01*
X11474943Y-11425984D02*
X11598753Y-11425984D01*
X11789229Y-11425984D02*
X11674943Y-11425984D01*
X11732086Y-11425984D02*
X11732086Y-11225984D01*
X11732086Y-11225984D02*
X11713039Y-11254555D01*
X11713039Y-11254555D02*
X11693991Y-11273603D01*
X11693991Y-11273603D02*
X11674943Y-11283127D01*
X11884467Y-11425984D02*
X11922562Y-11425984D01*
X11922562Y-11425984D02*
X11941610Y-11416460D01*
X11941610Y-11416460D02*
X11951134Y-11406936D01*
X11951134Y-11406936D02*
X11970182Y-11378365D01*
X11970182Y-11378365D02*
X11979705Y-11340269D01*
X11979705Y-11340269D02*
X11979705Y-11264079D01*
X11979705Y-11264079D02*
X11970182Y-11245031D01*
X11970182Y-11245031D02*
X11960658Y-11235508D01*
X11960658Y-11235508D02*
X11941610Y-11225984D01*
X11941610Y-11225984D02*
X11903515Y-11225984D01*
X11903515Y-11225984D02*
X11884467Y-11235508D01*
X11884467Y-11235508D02*
X11874943Y-11245031D01*
X11874943Y-11245031D02*
X11865420Y-11264079D01*
X11865420Y-11264079D02*
X11865420Y-11311698D01*
X11865420Y-11311698D02*
X11874943Y-11330746D01*
X11874943Y-11330746D02*
X11884467Y-11340269D01*
X11884467Y-11340269D02*
X11903515Y-11349793D01*
X11903515Y-11349793D02*
X11941610Y-11349793D01*
X11941610Y-11349793D02*
X11960658Y-11340269D01*
X11960658Y-11340269D02*
X11970182Y-11330746D01*
X11970182Y-11330746D02*
X11979705Y-11311698D01*
X12065420Y-11425984D02*
X12065420Y-11292650D01*
X12065420Y-11311698D02*
X12074943Y-11302174D01*
X12074943Y-11302174D02*
X12093991Y-11292650D01*
X12093991Y-11292650D02*
X12122563Y-11292650D01*
X12122563Y-11292650D02*
X12141610Y-11302174D01*
X12141610Y-11302174D02*
X12151134Y-11321222D01*
X12151134Y-11321222D02*
X12151134Y-11425984D01*
X12151134Y-11321222D02*
X12160658Y-11302174D01*
X12160658Y-11302174D02*
X12179705Y-11292650D01*
X12179705Y-11292650D02*
X12208277Y-11292650D01*
X12208277Y-11292650D02*
X12227324Y-11302174D01*
X12227324Y-11302174D02*
X12236848Y-11321222D01*
X12236848Y-11321222D02*
X12236848Y-11425984D01*
X12332086Y-11425984D02*
X12332086Y-11292650D01*
X12332086Y-11311698D02*
X12341610Y-11302174D01*
X12341610Y-11302174D02*
X12360658Y-11292650D01*
X12360658Y-11292650D02*
X12389229Y-11292650D01*
X12389229Y-11292650D02*
X12408277Y-11302174D01*
X12408277Y-11302174D02*
X12417801Y-11321222D01*
X12417801Y-11321222D02*
X12417801Y-11425984D01*
X12417801Y-11321222D02*
X12427324Y-11302174D01*
X12427324Y-11302174D02*
X12446372Y-11292650D01*
X12446372Y-11292650D02*
X12474943Y-11292650D01*
X12474943Y-11292650D02*
X12493991Y-11302174D01*
X12493991Y-11302174D02*
X12503515Y-11321222D01*
X12503515Y-11321222D02*
X12503515Y-11425984D01*
X12893991Y-11216460D02*
X12722563Y-11473603D01*
X13151134Y-11225984D02*
X13170182Y-11225984D01*
X13170182Y-11225984D02*
X13189229Y-11235508D01*
X13189229Y-11235508D02*
X13198753Y-11245031D01*
X13198753Y-11245031D02*
X13208277Y-11264079D01*
X13208277Y-11264079D02*
X13217801Y-11302174D01*
X13217801Y-11302174D02*
X13217801Y-11349793D01*
X13217801Y-11349793D02*
X13208277Y-11387888D01*
X13208277Y-11387888D02*
X13198753Y-11406936D01*
X13198753Y-11406936D02*
X13189229Y-11416460D01*
X13189229Y-11416460D02*
X13170182Y-11425984D01*
X13170182Y-11425984D02*
X13151134Y-11425984D01*
X13151134Y-11425984D02*
X13132086Y-11416460D01*
X13132086Y-11416460D02*
X13122563Y-11406936D01*
X13122563Y-11406936D02*
X13113039Y-11387888D01*
X13113039Y-11387888D02*
X13103515Y-11349793D01*
X13103515Y-11349793D02*
X13103515Y-11302174D01*
X13103515Y-11302174D02*
X13113039Y-11264079D01*
X13113039Y-11264079D02*
X13122563Y-11245031D01*
X13122563Y-11245031D02*
X13132086Y-11235508D01*
X13132086Y-11235508D02*
X13151134Y-11225984D01*
X13303515Y-11406936D02*
X13313039Y-11416460D01*
X13313039Y-11416460D02*
X13303515Y-11425984D01*
X13303515Y-11425984D02*
X13293991Y-11416460D01*
X13293991Y-11416460D02*
X13303515Y-11406936D01*
X13303515Y-11406936D02*
X13303515Y-11425984D01*
X13436848Y-11225984D02*
X13455896Y-11225984D01*
X13455896Y-11225984D02*
X13474944Y-11235508D01*
X13474944Y-11235508D02*
X13484467Y-11245031D01*
X13484467Y-11245031D02*
X13493991Y-11264079D01*
X13493991Y-11264079D02*
X13503515Y-11302174D01*
X13503515Y-11302174D02*
X13503515Y-11349793D01*
X13503515Y-11349793D02*
X13493991Y-11387888D01*
X13493991Y-11387888D02*
X13484467Y-11406936D01*
X13484467Y-11406936D02*
X13474944Y-11416460D01*
X13474944Y-11416460D02*
X13455896Y-11425984D01*
X13455896Y-11425984D02*
X13436848Y-11425984D01*
X13436848Y-11425984D02*
X13417801Y-11416460D01*
X13417801Y-11416460D02*
X13408277Y-11406936D01*
X13408277Y-11406936D02*
X13398753Y-11387888D01*
X13398753Y-11387888D02*
X13389229Y-11349793D01*
X13389229Y-11349793D02*
X13389229Y-11302174D01*
X13389229Y-11302174D02*
X13398753Y-11264079D01*
X13398753Y-11264079D02*
X13408277Y-11245031D01*
X13408277Y-11245031D02*
X13417801Y-11235508D01*
X13417801Y-11235508D02*
X13436848Y-11225984D01*
X13674944Y-11292650D02*
X13674944Y-11425984D01*
X13627325Y-11216460D02*
X13579706Y-11359317D01*
X13579706Y-11359317D02*
X13703515Y-11359317D01*
X13808277Y-11311698D02*
X13789229Y-11302174D01*
X13789229Y-11302174D02*
X13779706Y-11292650D01*
X13779706Y-11292650D02*
X13770182Y-11273603D01*
X13770182Y-11273603D02*
X13770182Y-11264079D01*
X13770182Y-11264079D02*
X13779706Y-11245031D01*
X13779706Y-11245031D02*
X13789229Y-11235508D01*
X13789229Y-11235508D02*
X13808277Y-11225984D01*
X13808277Y-11225984D02*
X13846372Y-11225984D01*
X13846372Y-11225984D02*
X13865420Y-11235508D01*
X13865420Y-11235508D02*
X13874944Y-11245031D01*
X13874944Y-11245031D02*
X13884467Y-11264079D01*
X13884467Y-11264079D02*
X13884467Y-11273603D01*
X13884467Y-11273603D02*
X13874944Y-11292650D01*
X13874944Y-11292650D02*
X13865420Y-11302174D01*
X13865420Y-11302174D02*
X13846372Y-11311698D01*
X13846372Y-11311698D02*
X13808277Y-11311698D01*
X13808277Y-11311698D02*
X13789229Y-11321222D01*
X13789229Y-11321222D02*
X13779706Y-11330746D01*
X13779706Y-11330746D02*
X13770182Y-11349793D01*
X13770182Y-11349793D02*
X13770182Y-11387888D01*
X13770182Y-11387888D02*
X13779706Y-11406936D01*
X13779706Y-11406936D02*
X13789229Y-11416460D01*
X13789229Y-11416460D02*
X13808277Y-11425984D01*
X13808277Y-11425984D02*
X13846372Y-11425984D01*
X13846372Y-11425984D02*
X13865420Y-11416460D01*
X13865420Y-11416460D02*
X13874944Y-11406936D01*
X13874944Y-11406936D02*
X13884467Y-11387888D01*
X13884467Y-11387888D02*
X13884467Y-11349793D01*
X13884467Y-11349793D02*
X13874944Y-11330746D01*
X13874944Y-11330746D02*
X13865420Y-11321222D01*
X13865420Y-11321222D02*
X13846372Y-11311698D01*
X14008277Y-11225984D02*
X14027325Y-11225984D01*
X14027325Y-11225984D02*
X14046372Y-11235508D01*
X14046372Y-11235508D02*
X14055896Y-11245031D01*
X14055896Y-11245031D02*
X14065420Y-11264079D01*
X14065420Y-11264079D02*
X14074944Y-11302174D01*
X14074944Y-11302174D02*
X14074944Y-11349793D01*
X14074944Y-11349793D02*
X14065420Y-11387888D01*
X14065420Y-11387888D02*
X14055896Y-11406936D01*
X14055896Y-11406936D02*
X14046372Y-11416460D01*
X14046372Y-11416460D02*
X14027325Y-11425984D01*
X14027325Y-11425984D02*
X14008277Y-11425984D01*
X14008277Y-11425984D02*
X13989229Y-11416460D01*
X13989229Y-11416460D02*
X13979706Y-11406936D01*
X13979706Y-11406936D02*
X13970182Y-11387888D01*
X13970182Y-11387888D02*
X13960658Y-11349793D01*
X13960658Y-11349793D02*
X13960658Y-11302174D01*
X13960658Y-11302174D02*
X13970182Y-11264079D01*
X13970182Y-11264079D02*
X13979706Y-11245031D01*
X13979706Y-11245031D02*
X13989229Y-11235508D01*
X13989229Y-11235508D02*
X14008277Y-11225984D01*
X14151134Y-11225984D02*
X14151134Y-11264079D01*
X14227325Y-11225984D02*
X14227325Y-11264079D01*
X14522563Y-11502174D02*
X14513039Y-11492650D01*
X14513039Y-11492650D02*
X14493991Y-11464079D01*
X14493991Y-11464079D02*
X14484468Y-11445031D01*
X14484468Y-11445031D02*
X14474944Y-11416460D01*
X14474944Y-11416460D02*
X14465420Y-11368841D01*
X14465420Y-11368841D02*
X14465420Y-11330746D01*
X14465420Y-11330746D02*
X14474944Y-11283127D01*
X14474944Y-11283127D02*
X14484468Y-11254555D01*
X14484468Y-11254555D02*
X14493991Y-11235508D01*
X14493991Y-11235508D02*
X14513039Y-11206936D01*
X14513039Y-11206936D02*
X14522563Y-11197412D01*
X14703515Y-11425984D02*
X14589229Y-11425984D01*
X14646372Y-11425984D02*
X14646372Y-11225984D01*
X14646372Y-11225984D02*
X14627325Y-11254555D01*
X14627325Y-11254555D02*
X14608277Y-11273603D01*
X14608277Y-11273603D02*
X14589229Y-11283127D01*
X14779706Y-11245031D02*
X14789229Y-11235508D01*
X14789229Y-11235508D02*
X14808277Y-11225984D01*
X14808277Y-11225984D02*
X14855896Y-11225984D01*
X14855896Y-11225984D02*
X14874944Y-11235508D01*
X14874944Y-11235508D02*
X14884468Y-11245031D01*
X14884468Y-11245031D02*
X14893991Y-11264079D01*
X14893991Y-11264079D02*
X14893991Y-11283127D01*
X14893991Y-11283127D02*
X14884468Y-11311698D01*
X14884468Y-11311698D02*
X14770182Y-11425984D01*
X14770182Y-11425984D02*
X14893991Y-11425984D01*
X15132087Y-11425984D02*
X15132087Y-11225984D01*
X15217801Y-11425984D02*
X15217801Y-11321222D01*
X15217801Y-11321222D02*
X15208277Y-11302174D01*
X15208277Y-11302174D02*
X15189230Y-11292650D01*
X15189230Y-11292650D02*
X15160658Y-11292650D01*
X15160658Y-11292650D02*
X15141610Y-11302174D01*
X15141610Y-11302174D02*
X15132087Y-11311698D01*
X15341610Y-11425984D02*
X15322563Y-11416460D01*
X15322563Y-11416460D02*
X15313039Y-11406936D01*
X15313039Y-11406936D02*
X15303515Y-11387888D01*
X15303515Y-11387888D02*
X15303515Y-11330746D01*
X15303515Y-11330746D02*
X15313039Y-11311698D01*
X15313039Y-11311698D02*
X15322563Y-11302174D01*
X15322563Y-11302174D02*
X15341610Y-11292650D01*
X15341610Y-11292650D02*
X15370182Y-11292650D01*
X15370182Y-11292650D02*
X15389230Y-11302174D01*
X15389230Y-11302174D02*
X15398753Y-11311698D01*
X15398753Y-11311698D02*
X15408277Y-11330746D01*
X15408277Y-11330746D02*
X15408277Y-11387888D01*
X15408277Y-11387888D02*
X15398753Y-11406936D01*
X15398753Y-11406936D02*
X15389230Y-11416460D01*
X15389230Y-11416460D02*
X15370182Y-11425984D01*
X15370182Y-11425984D02*
X15341610Y-11425984D01*
X15522563Y-11425984D02*
X15503515Y-11416460D01*
X15503515Y-11416460D02*
X15493991Y-11397412D01*
X15493991Y-11397412D02*
X15493991Y-11225984D01*
X15674944Y-11416460D02*
X15655896Y-11425984D01*
X15655896Y-11425984D02*
X15617801Y-11425984D01*
X15617801Y-11425984D02*
X15598753Y-11416460D01*
X15598753Y-11416460D02*
X15589230Y-11397412D01*
X15589230Y-11397412D02*
X15589230Y-11321222D01*
X15589230Y-11321222D02*
X15598753Y-11302174D01*
X15598753Y-11302174D02*
X15617801Y-11292650D01*
X15617801Y-11292650D02*
X15655896Y-11292650D01*
X15655896Y-11292650D02*
X15674944Y-11302174D01*
X15674944Y-11302174D02*
X15684468Y-11321222D01*
X15684468Y-11321222D02*
X15684468Y-11340269D01*
X15684468Y-11340269D02*
X15589230Y-11359317D01*
X15760658Y-11416460D02*
X15779706Y-11425984D01*
X15779706Y-11425984D02*
X15817801Y-11425984D01*
X15817801Y-11425984D02*
X15836849Y-11416460D01*
X15836849Y-11416460D02*
X15846372Y-11397412D01*
X15846372Y-11397412D02*
X15846372Y-11387888D01*
X15846372Y-11387888D02*
X15836849Y-11368841D01*
X15836849Y-11368841D02*
X15817801Y-11359317D01*
X15817801Y-11359317D02*
X15789230Y-11359317D01*
X15789230Y-11359317D02*
X15770182Y-11349793D01*
X15770182Y-11349793D02*
X15760658Y-11330746D01*
X15760658Y-11330746D02*
X15760658Y-11321222D01*
X15760658Y-11321222D02*
X15770182Y-11302174D01*
X15770182Y-11302174D02*
X15789230Y-11292650D01*
X15789230Y-11292650D02*
X15817801Y-11292650D01*
X15817801Y-11292650D02*
X15836849Y-11302174D01*
X15913039Y-11502174D02*
X15922563Y-11492650D01*
X15922563Y-11492650D02*
X15941611Y-11464079D01*
X15941611Y-11464079D02*
X15951134Y-11445031D01*
X15951134Y-11445031D02*
X15960658Y-11416460D01*
X15960658Y-11416460D02*
X15970182Y-11368841D01*
X15970182Y-11368841D02*
X15970182Y-11330746D01*
X15970182Y-11330746D02*
X15960658Y-11283127D01*
X15960658Y-11283127D02*
X15951134Y-11254555D01*
X15951134Y-11254555D02*
X15941611Y-11235508D01*
X15941611Y-11235508D02*
X15922563Y-11206936D01*
X15922563Y-11206936D02*
X15913039Y-11197412D01*
M02*
