%TF.GenerationSoftware,KiCad,Pcbnew,8.0.8*%
%TF.CreationDate,2025-03-12T12:04:05+11:00*%
%TF.ProjectId,PCB_BackDesign,5043425f-4261-4636-9b44-657369676e2e,rev?*%
%TF.SameCoordinates,Original*%
%TF.FileFunction,Drillmap*%
%TF.FilePolarity,Positive*%
%FSLAX45Y45*%
G04 Gerber Fmt 4.5, Leading zero omitted, Abs format (unit mm)*
G04 Created by KiCad (PCBNEW 8.0.8) date 2025-03-12 12:04:05*
%MOMM*%
%LPD*%
G01*
G04 APERTURE LIST*
%ADD10C,0.050000*%
%ADD11C,0.200000*%
G04 APERTURE END LIST*
D10*
X17200000Y-6700000D02*
X17200000Y-9900000D01*
X10950000Y-6700000D02*
X17200000Y-6700000D01*
X17200000Y-9900000D02*
X10950000Y-9900000D01*
X10950000Y-9900000D02*
X10950000Y-6700000D01*
D11*
X11208277Y-10213984D02*
X11208277Y-10013984D01*
X11208277Y-10013984D02*
X11255896Y-10013984D01*
X11255896Y-10013984D02*
X11284467Y-10023508D01*
X11284467Y-10023508D02*
X11303515Y-10042555D01*
X11303515Y-10042555D02*
X11313039Y-10061603D01*
X11313039Y-10061603D02*
X11322562Y-10099698D01*
X11322562Y-10099698D02*
X11322562Y-10128270D01*
X11322562Y-10128270D02*
X11313039Y-10166365D01*
X11313039Y-10166365D02*
X11303515Y-10185412D01*
X11303515Y-10185412D02*
X11284467Y-10204460D01*
X11284467Y-10204460D02*
X11255896Y-10213984D01*
X11255896Y-10213984D02*
X11208277Y-10213984D01*
X11408277Y-10213984D02*
X11408277Y-10080650D01*
X11408277Y-10118746D02*
X11417801Y-10099698D01*
X11417801Y-10099698D02*
X11427324Y-10090174D01*
X11427324Y-10090174D02*
X11446372Y-10080650D01*
X11446372Y-10080650D02*
X11465420Y-10080650D01*
X11532086Y-10213984D02*
X11532086Y-10080650D01*
X11532086Y-10013984D02*
X11522562Y-10023508D01*
X11522562Y-10023508D02*
X11532086Y-10033031D01*
X11532086Y-10033031D02*
X11541610Y-10023508D01*
X11541610Y-10023508D02*
X11532086Y-10013984D01*
X11532086Y-10013984D02*
X11532086Y-10033031D01*
X11655896Y-10213984D02*
X11636848Y-10204460D01*
X11636848Y-10204460D02*
X11627324Y-10185412D01*
X11627324Y-10185412D02*
X11627324Y-10013984D01*
X11760658Y-10213984D02*
X11741610Y-10204460D01*
X11741610Y-10204460D02*
X11732086Y-10185412D01*
X11732086Y-10185412D02*
X11732086Y-10013984D01*
X11989229Y-10213984D02*
X11989229Y-10013984D01*
X11989229Y-10013984D02*
X12055896Y-10156841D01*
X12055896Y-10156841D02*
X12122562Y-10013984D01*
X12122562Y-10013984D02*
X12122562Y-10213984D01*
X12303515Y-10213984D02*
X12303515Y-10109222D01*
X12303515Y-10109222D02*
X12293991Y-10090174D01*
X12293991Y-10090174D02*
X12274943Y-10080650D01*
X12274943Y-10080650D02*
X12236848Y-10080650D01*
X12236848Y-10080650D02*
X12217801Y-10090174D01*
X12303515Y-10204460D02*
X12284467Y-10213984D01*
X12284467Y-10213984D02*
X12236848Y-10213984D01*
X12236848Y-10213984D02*
X12217801Y-10204460D01*
X12217801Y-10204460D02*
X12208277Y-10185412D01*
X12208277Y-10185412D02*
X12208277Y-10166365D01*
X12208277Y-10166365D02*
X12217801Y-10147317D01*
X12217801Y-10147317D02*
X12236848Y-10137793D01*
X12236848Y-10137793D02*
X12284467Y-10137793D01*
X12284467Y-10137793D02*
X12303515Y-10128270D01*
X12398753Y-10080650D02*
X12398753Y-10280650D01*
X12398753Y-10090174D02*
X12417801Y-10080650D01*
X12417801Y-10080650D02*
X12455896Y-10080650D01*
X12455896Y-10080650D02*
X12474943Y-10090174D01*
X12474943Y-10090174D02*
X12484467Y-10099698D01*
X12484467Y-10099698D02*
X12493991Y-10118746D01*
X12493991Y-10118746D02*
X12493991Y-10175889D01*
X12493991Y-10175889D02*
X12484467Y-10194936D01*
X12484467Y-10194936D02*
X12474943Y-10204460D01*
X12474943Y-10204460D02*
X12455896Y-10213984D01*
X12455896Y-10213984D02*
X12417801Y-10213984D01*
X12417801Y-10213984D02*
X12398753Y-10204460D01*
X12579705Y-10194936D02*
X12589229Y-10204460D01*
X12589229Y-10204460D02*
X12579705Y-10213984D01*
X12579705Y-10213984D02*
X12570182Y-10204460D01*
X12570182Y-10204460D02*
X12579705Y-10194936D01*
X12579705Y-10194936D02*
X12579705Y-10213984D01*
X12579705Y-10090174D02*
X12589229Y-10099698D01*
X12589229Y-10099698D02*
X12579705Y-10109222D01*
X12579705Y-10109222D02*
X12570182Y-10099698D01*
X12570182Y-10099698D02*
X12579705Y-10090174D01*
X12579705Y-10090174D02*
X12579705Y-10109222D01*
M02*
