G04 #@! TF.GenerationSoftware,KiCad,Pcbnew,9.0.0*
G04 #@! TF.CreationDate,2025-03-21T14:48:03+11:00*
G04 #@! TF.ProjectId,PCB_BackDesign,5043425f-4261-4636-9b44-657369676e2e,rev?*
G04 #@! TF.SameCoordinates,Original*
G04 #@! TF.FileFunction,Copper,L2,Bot*
G04 #@! TF.FilePolarity,Positive*
%FSLAX46Y46*%
G04 Gerber Fmt 4.6, Leading zero omitted, Abs format (unit mm)*
G04 Created by KiCad (PCBNEW 9.0.0) date 2025-03-21 14:48:03*
%MOMM*%
%LPD*%
G01*
G04 APERTURE LIST*
G04 Aperture macros list*
%AMRoundRect*
0 Rectangle with rounded corners*
0 $1 Rounding radius*
0 $2 $3 $4 $5 $6 $7 $8 $9 X,Y pos of 4 corners*
0 Add a 4 corners polygon primitive as box body*
4,1,4,$2,$3,$4,$5,$6,$7,$8,$9,$2,$3,0*
0 Add four circle primitives for the rounded corners*
1,1,$1+$1,$2,$3*
1,1,$1+$1,$4,$5*
1,1,$1+$1,$6,$7*
1,1,$1+$1,$8,$9*
0 Add four rect primitives between the rounded corners*
20,1,$1+$1,$2,$3,$4,$5,0*
20,1,$1+$1,$4,$5,$6,$7,0*
20,1,$1+$1,$6,$7,$8,$9,0*
20,1,$1+$1,$8,$9,$2,$3,0*%
G04 Aperture macros list end*
G04 #@! TA.AperFunction,ComponentPad*
%ADD10C,1.727200*%
G04 #@! TD*
G04 #@! TA.AperFunction,ComponentPad*
%ADD11RoundRect,0.200000X-0.200000X-0.450000X0.200000X-0.450000X0.200000X0.450000X-0.200000X0.450000X0*%
G04 #@! TD*
G04 #@! TA.AperFunction,ComponentPad*
%ADD12O,0.800000X1.300000*%
G04 #@! TD*
G04 #@! TA.AperFunction,ComponentPad*
%ADD13RoundRect,0.250000X0.625000X-0.350000X0.625000X0.350000X-0.625000X0.350000X-0.625000X-0.350000X0*%
G04 #@! TD*
G04 #@! TA.AperFunction,ComponentPad*
%ADD14O,1.750000X1.200000*%
G04 #@! TD*
G04 #@! TA.AperFunction,ViaPad*
%ADD15C,0.600000*%
G04 #@! TD*
G04 #@! TA.AperFunction,Conductor*
%ADD16C,0.200000*%
G04 #@! TD*
G04 #@! TA.AperFunction,Conductor*
%ADD17C,0.500000*%
G04 #@! TD*
G04 APERTURE END LIST*
D10*
X127156200Y-93543800D03*
X122000000Y-88463800D03*
X119536200Y-91080000D03*
X127156200Y-86000000D03*
X144500000Y-93580000D03*
X139343800Y-88500000D03*
X136880000Y-91116200D03*
X144500000Y-86036200D03*
X162000000Y-93543800D03*
X156843800Y-88463800D03*
X154380000Y-91080000D03*
X162000000Y-86000000D03*
D11*
X118750000Y-71000000D03*
D12*
X120000000Y-71000000D03*
X121250000Y-71000000D03*
X122500000Y-71000000D03*
X123750000Y-71000000D03*
X125000000Y-71000000D03*
X126250000Y-71000000D03*
X127500000Y-71000000D03*
D11*
X152500000Y-71000000D03*
D12*
X153750000Y-71000000D03*
X155000000Y-71000000D03*
X156250000Y-71000000D03*
X157500000Y-71000000D03*
X158750000Y-71000000D03*
X160000000Y-71000000D03*
X161250000Y-71000000D03*
X162500000Y-71000000D03*
D13*
X120000000Y-79500000D03*
D14*
X120000000Y-77500000D03*
D13*
X162500000Y-79500000D03*
D14*
X162500000Y-77500000D03*
D15*
X146496879Y-80002434D03*
X151425630Y-78501785D03*
X128875829Y-80506535D03*
X130212500Y-79072500D03*
X150695000Y-78420792D03*
X155800630Y-78350000D03*
X133250000Y-82000000D03*
X121500000Y-77500000D03*
X154250000Y-82750000D03*
X154350000Y-80000000D03*
X130000000Y-73000000D03*
X154300630Y-76000000D03*
X146000000Y-74000000D03*
X146000000Y-71000000D03*
X139000000Y-71000000D03*
X139000000Y-74000000D03*
X131000000Y-74000000D03*
X130320000Y-77572500D03*
X134500000Y-74400000D03*
X134607500Y-77682500D03*
X127500000Y-75000000D03*
X125645000Y-77610000D03*
X151500000Y-73000000D03*
X143821876Y-77500000D03*
D16*
X151425630Y-78501785D02*
X155648845Y-78501785D01*
X128875829Y-80506535D02*
X128875829Y-80409171D01*
X146496879Y-80002434D02*
X149113358Y-80002434D01*
X149113358Y-80002434D02*
X150695000Y-78420792D01*
X155648845Y-78501785D02*
X155800630Y-78350000D01*
X128875829Y-80409171D02*
X130212500Y-79072500D01*
D17*
X133250000Y-82000000D02*
X126500000Y-82000000D01*
X122000000Y-77500000D02*
X121500000Y-77500000D01*
X126500000Y-82000000D02*
X122000000Y-77500000D01*
D16*
X154250000Y-82750000D02*
X154350000Y-82650000D01*
X154350000Y-82650000D02*
X154350000Y-80000000D01*
X151748529Y-72400000D02*
X154300630Y-74952101D01*
X154300630Y-74952101D02*
X154300630Y-76000000D01*
X132100000Y-72400000D02*
X151748529Y-72400000D01*
X131500000Y-73000000D02*
X132100000Y-72400000D01*
X130000000Y-73000000D02*
X131500000Y-73000000D01*
X131000000Y-74000000D02*
X130320000Y-74680000D01*
X130320000Y-74680000D02*
X130320000Y-77572500D01*
X134500000Y-74400000D02*
X134500000Y-77575000D01*
X134500000Y-77575000D02*
X134607500Y-77682500D01*
X125645000Y-76855000D02*
X125645000Y-77610000D01*
X127500000Y-75000000D02*
X125645000Y-76855000D01*
X148321876Y-73000000D02*
X143821876Y-77500000D01*
X151500000Y-73000000D02*
X148321876Y-73000000D01*
G04 #@! TA.AperFunction,Conductor*
G36*
X170943039Y-68019685D02*
G01*
X170988794Y-68072489D01*
X171000000Y-68124000D01*
X171000000Y-97876000D01*
X170980315Y-97943039D01*
X170927511Y-97988794D01*
X170876000Y-98000000D01*
X110624000Y-98000000D01*
X110556961Y-97980315D01*
X110511206Y-97927511D01*
X110500000Y-97876000D01*
X110500000Y-95397648D01*
X111699500Y-95397648D01*
X111699500Y-95602351D01*
X111731522Y-95804534D01*
X111794781Y-95999223D01*
X111887715Y-96181613D01*
X112008028Y-96347213D01*
X112152786Y-96491971D01*
X112307749Y-96604556D01*
X112318390Y-96612287D01*
X112434607Y-96671503D01*
X112500776Y-96705218D01*
X112500778Y-96705218D01*
X112500781Y-96705220D01*
X112605137Y-96739127D01*
X112695465Y-96768477D01*
X112796557Y-96784488D01*
X112897648Y-96800500D01*
X112897649Y-96800500D01*
X113102351Y-96800500D01*
X113102352Y-96800500D01*
X113304534Y-96768477D01*
X113499219Y-96705220D01*
X113681610Y-96612287D01*
X113774590Y-96544732D01*
X113847213Y-96491971D01*
X113847215Y-96491968D01*
X113847219Y-96491966D01*
X113991966Y-96347219D01*
X113991968Y-96347215D01*
X113991971Y-96347213D01*
X114044732Y-96274590D01*
X114112287Y-96181610D01*
X114205220Y-95999219D01*
X114268477Y-95804534D01*
X114300500Y-95602352D01*
X114300500Y-95397648D01*
X167199500Y-95397648D01*
X167199500Y-95602351D01*
X167231522Y-95804534D01*
X167294781Y-95999223D01*
X167387715Y-96181613D01*
X167508028Y-96347213D01*
X167652786Y-96491971D01*
X167807749Y-96604556D01*
X167818390Y-96612287D01*
X167934607Y-96671503D01*
X168000776Y-96705218D01*
X168000778Y-96705218D01*
X168000781Y-96705220D01*
X168105137Y-96739127D01*
X168195465Y-96768477D01*
X168296557Y-96784488D01*
X168397648Y-96800500D01*
X168397649Y-96800500D01*
X168602351Y-96800500D01*
X168602352Y-96800500D01*
X168804534Y-96768477D01*
X168999219Y-96705220D01*
X169181610Y-96612287D01*
X169274590Y-96544732D01*
X169347213Y-96491971D01*
X169347215Y-96491968D01*
X169347219Y-96491966D01*
X169491966Y-96347219D01*
X169491968Y-96347215D01*
X169491971Y-96347213D01*
X169544732Y-96274590D01*
X169612287Y-96181610D01*
X169705220Y-95999219D01*
X169768477Y-95804534D01*
X169800500Y-95602352D01*
X169800500Y-95397648D01*
X169768477Y-95195466D01*
X169705220Y-95000781D01*
X169705218Y-95000778D01*
X169705218Y-95000776D01*
X169659225Y-94910511D01*
X169612287Y-94818390D01*
X169604556Y-94807749D01*
X169491971Y-94652786D01*
X169347213Y-94508028D01*
X169181613Y-94387715D01*
X169181612Y-94387714D01*
X169181610Y-94387713D01*
X169124653Y-94358691D01*
X168999223Y-94294781D01*
X168804534Y-94231522D01*
X168629995Y-94203878D01*
X168602352Y-94199500D01*
X168397648Y-94199500D01*
X168373329Y-94203351D01*
X168195465Y-94231522D01*
X168000776Y-94294781D01*
X167818386Y-94387715D01*
X167652786Y-94508028D01*
X167508028Y-94652786D01*
X167387715Y-94818386D01*
X167294781Y-95000776D01*
X167231522Y-95195465D01*
X167199500Y-95397648D01*
X114300500Y-95397648D01*
X114268477Y-95195466D01*
X114205220Y-95000781D01*
X114205218Y-95000778D01*
X114205218Y-95000776D01*
X114159225Y-94910511D01*
X114112287Y-94818390D01*
X114104556Y-94807749D01*
X113991971Y-94652786D01*
X113847213Y-94508028D01*
X113681613Y-94387715D01*
X113681612Y-94387714D01*
X113681610Y-94387713D01*
X113624653Y-94358691D01*
X113499223Y-94294781D01*
X113304534Y-94231522D01*
X113129995Y-94203878D01*
X113102352Y-94199500D01*
X112897648Y-94199500D01*
X112873329Y-94203351D01*
X112695465Y-94231522D01*
X112500776Y-94294781D01*
X112318386Y-94387715D01*
X112152786Y-94508028D01*
X112008028Y-94652786D01*
X111887715Y-94818386D01*
X111794781Y-95000776D01*
X111731522Y-95195465D01*
X111699500Y-95397648D01*
X110500000Y-95397648D01*
X110500000Y-93436443D01*
X125792100Y-93436443D01*
X125792100Y-93651157D01*
X125797834Y-93687357D01*
X125825689Y-93863228D01*
X125892037Y-94067430D01*
X125892038Y-94067433D01*
X125975647Y-94231522D01*
X125989517Y-94258744D01*
X126115723Y-94432451D01*
X126267549Y-94584277D01*
X126441256Y-94710483D01*
X126535088Y-94758292D01*
X126632566Y-94807961D01*
X126632569Y-94807962D01*
X126664664Y-94818390D01*
X126836773Y-94874311D01*
X127048843Y-94907900D01*
X127048844Y-94907900D01*
X127263556Y-94907900D01*
X127263557Y-94907900D01*
X127475627Y-94874311D01*
X127679833Y-94807961D01*
X127871144Y-94710483D01*
X128044851Y-94584277D01*
X128196677Y-94432451D01*
X128322883Y-94258744D01*
X128420361Y-94067433D01*
X128486711Y-93863227D01*
X128520300Y-93651157D01*
X128520300Y-93472643D01*
X143135900Y-93472643D01*
X143135900Y-93687356D01*
X143169489Y-93899428D01*
X143235837Y-94103630D01*
X143235838Y-94103633D01*
X143301002Y-94231523D01*
X143333317Y-94294944D01*
X143459523Y-94468651D01*
X143611349Y-94620477D01*
X143785056Y-94746683D01*
X143878888Y-94794492D01*
X143976366Y-94844161D01*
X143976369Y-94844162D01*
X144069157Y-94874310D01*
X144180573Y-94910511D01*
X144392643Y-94944100D01*
X144392644Y-94944100D01*
X144607356Y-94944100D01*
X144607357Y-94944100D01*
X144819427Y-94910511D01*
X145023633Y-94844161D01*
X145214944Y-94746683D01*
X145388651Y-94620477D01*
X145540477Y-94468651D01*
X145666683Y-94294944D01*
X145764161Y-94103633D01*
X145830511Y-93899427D01*
X145864100Y-93687357D01*
X145864100Y-93472643D01*
X145858366Y-93436443D01*
X160635900Y-93436443D01*
X160635900Y-93651157D01*
X160641634Y-93687357D01*
X160669489Y-93863228D01*
X160735837Y-94067430D01*
X160735838Y-94067433D01*
X160819447Y-94231522D01*
X160833317Y-94258744D01*
X160959523Y-94432451D01*
X161111349Y-94584277D01*
X161285056Y-94710483D01*
X161378888Y-94758292D01*
X161476366Y-94807961D01*
X161476369Y-94807962D01*
X161508464Y-94818390D01*
X161680573Y-94874311D01*
X161892643Y-94907900D01*
X161892644Y-94907900D01*
X162107356Y-94907900D01*
X162107357Y-94907900D01*
X162319427Y-94874311D01*
X162523633Y-94807961D01*
X162714944Y-94710483D01*
X162888651Y-94584277D01*
X163040477Y-94432451D01*
X163166683Y-94258744D01*
X163264161Y-94067433D01*
X163330511Y-93863227D01*
X163364100Y-93651157D01*
X163364100Y-93436443D01*
X163330511Y-93224373D01*
X163264161Y-93020167D01*
X163264161Y-93020166D01*
X163166682Y-92828855D01*
X163040477Y-92655149D01*
X162888651Y-92503323D01*
X162714944Y-92377117D01*
X162523633Y-92279638D01*
X162523630Y-92279637D01*
X162319428Y-92213289D01*
X162213392Y-92196494D01*
X162107357Y-92179700D01*
X161892643Y-92179700D01*
X161821953Y-92190896D01*
X161680571Y-92213289D01*
X161476369Y-92279637D01*
X161476366Y-92279638D01*
X161285055Y-92377117D01*
X161239093Y-92410511D01*
X161111349Y-92503323D01*
X161111347Y-92503325D01*
X161111346Y-92503325D01*
X160959525Y-92655146D01*
X160959525Y-92655147D01*
X160959523Y-92655149D01*
X160933224Y-92691347D01*
X160833317Y-92828855D01*
X160735838Y-93020166D01*
X160735837Y-93020169D01*
X160669489Y-93224371D01*
X160663755Y-93260573D01*
X160635900Y-93436443D01*
X145858366Y-93436443D01*
X145830511Y-93260573D01*
X145764161Y-93056367D01*
X145764161Y-93056366D01*
X145666682Y-92865055D01*
X145640381Y-92828855D01*
X145540477Y-92691349D01*
X145388651Y-92539523D01*
X145214944Y-92413317D01*
X145209435Y-92410510D01*
X145023633Y-92315838D01*
X145023630Y-92315837D01*
X144819428Y-92249489D01*
X144713392Y-92232694D01*
X144607357Y-92215900D01*
X144392643Y-92215900D01*
X144321953Y-92227096D01*
X144180571Y-92249489D01*
X143976369Y-92315837D01*
X143976366Y-92315838D01*
X143785055Y-92413317D01*
X143739093Y-92446711D01*
X143611349Y-92539523D01*
X143611347Y-92539525D01*
X143611346Y-92539525D01*
X143459525Y-92691346D01*
X143459525Y-92691347D01*
X143459523Y-92691349D01*
X143405322Y-92765949D01*
X143333317Y-92865055D01*
X143235838Y-93056366D01*
X143235837Y-93056369D01*
X143169489Y-93260571D01*
X143135900Y-93472643D01*
X128520300Y-93472643D01*
X128520300Y-93436443D01*
X128486711Y-93224373D01*
X128420361Y-93020167D01*
X128420361Y-93020166D01*
X128322882Y-92828855D01*
X128196677Y-92655149D01*
X128044851Y-92503323D01*
X127871144Y-92377117D01*
X127679833Y-92279638D01*
X127679830Y-92279637D01*
X127475628Y-92213289D01*
X127369592Y-92196494D01*
X127263557Y-92179700D01*
X127048843Y-92179700D01*
X126978153Y-92190896D01*
X126836771Y-92213289D01*
X126632569Y-92279637D01*
X126632566Y-92279638D01*
X126441255Y-92377117D01*
X126395293Y-92410511D01*
X126267549Y-92503323D01*
X126267547Y-92503325D01*
X126267546Y-92503325D01*
X126115725Y-92655146D01*
X126115725Y-92655147D01*
X126115723Y-92655149D01*
X126089424Y-92691347D01*
X125989517Y-92828855D01*
X125892038Y-93020166D01*
X125892037Y-93020169D01*
X125825689Y-93224371D01*
X125819955Y-93260573D01*
X125792100Y-93436443D01*
X110500000Y-93436443D01*
X110500000Y-90972643D01*
X118172100Y-90972643D01*
X118172100Y-91187357D01*
X118177834Y-91223557D01*
X118205689Y-91399428D01*
X118272037Y-91603630D01*
X118272038Y-91603633D01*
X118369517Y-91794944D01*
X118495723Y-91968651D01*
X118647549Y-92120477D01*
X118821256Y-92246683D01*
X118915088Y-92294492D01*
X119012566Y-92344161D01*
X119012569Y-92344162D01*
X119113996Y-92377117D01*
X119216773Y-92410511D01*
X119428843Y-92444100D01*
X119428844Y-92444100D01*
X119643556Y-92444100D01*
X119643557Y-92444100D01*
X119855627Y-92410511D01*
X120059833Y-92344161D01*
X120251144Y-92246683D01*
X120424851Y-92120477D01*
X120576677Y-91968651D01*
X120702883Y-91794944D01*
X120800361Y-91603633D01*
X120866711Y-91399427D01*
X120900300Y-91187357D01*
X120900300Y-91008843D01*
X135515900Y-91008843D01*
X135515900Y-91223556D01*
X135549489Y-91435628D01*
X135615837Y-91639830D01*
X135615838Y-91639833D01*
X135694872Y-91794944D01*
X135713317Y-91831144D01*
X135839523Y-92004851D01*
X135991349Y-92156677D01*
X136165056Y-92282883D01*
X136229732Y-92315837D01*
X136356366Y-92380361D01*
X136356369Y-92380362D01*
X136449157Y-92410510D01*
X136560573Y-92446711D01*
X136772643Y-92480300D01*
X136772644Y-92480300D01*
X136987356Y-92480300D01*
X136987357Y-92480300D01*
X137199427Y-92446711D01*
X137403633Y-92380361D01*
X137594944Y-92282883D01*
X137768651Y-92156677D01*
X137920477Y-92004851D01*
X138046683Y-91831144D01*
X138144161Y-91639833D01*
X138210511Y-91435627D01*
X138244100Y-91223557D01*
X138244100Y-91008843D01*
X138238366Y-90972643D01*
X153015900Y-90972643D01*
X153015900Y-91187357D01*
X153021634Y-91223557D01*
X153049489Y-91399428D01*
X153115837Y-91603630D01*
X153115838Y-91603633D01*
X153213317Y-91794944D01*
X153339523Y-91968651D01*
X153491349Y-92120477D01*
X153665056Y-92246683D01*
X153758888Y-92294492D01*
X153856366Y-92344161D01*
X153856369Y-92344162D01*
X153957796Y-92377117D01*
X154060573Y-92410511D01*
X154272643Y-92444100D01*
X154272644Y-92444100D01*
X154487356Y-92444100D01*
X154487357Y-92444100D01*
X154699427Y-92410511D01*
X154903633Y-92344161D01*
X155094944Y-92246683D01*
X155268651Y-92120477D01*
X155420477Y-91968651D01*
X155546683Y-91794944D01*
X155644161Y-91603633D01*
X155710511Y-91399427D01*
X155744100Y-91187357D01*
X155744100Y-90972643D01*
X155710511Y-90760573D01*
X155644161Y-90556367D01*
X155644161Y-90556366D01*
X155546682Y-90365055D01*
X155420477Y-90191349D01*
X155268651Y-90039523D01*
X155094944Y-89913317D01*
X154903633Y-89815838D01*
X154903630Y-89815837D01*
X154699428Y-89749489D01*
X154560570Y-89727496D01*
X154487357Y-89715900D01*
X154272643Y-89715900D01*
X154201953Y-89727096D01*
X154060571Y-89749489D01*
X153856369Y-89815837D01*
X153856366Y-89815838D01*
X153665055Y-89913317D01*
X153615231Y-89949517D01*
X153491349Y-90039523D01*
X153491347Y-90039525D01*
X153491346Y-90039525D01*
X153339525Y-90191346D01*
X153339525Y-90191347D01*
X153339523Y-90191349D01*
X153313224Y-90227547D01*
X153213317Y-90365055D01*
X153115838Y-90556366D01*
X153115837Y-90556369D01*
X153049489Y-90760571D01*
X153043755Y-90796773D01*
X153015900Y-90972643D01*
X138238366Y-90972643D01*
X138210511Y-90796773D01*
X138144161Y-90592567D01*
X138144161Y-90592566D01*
X138046682Y-90401255D01*
X138020381Y-90365055D01*
X137920477Y-90227549D01*
X137768651Y-90075723D01*
X137594944Y-89949517D01*
X137523898Y-89913317D01*
X137403633Y-89852038D01*
X137403630Y-89852037D01*
X137199428Y-89785689D01*
X137060570Y-89763696D01*
X136987357Y-89752100D01*
X136772643Y-89752100D01*
X136701953Y-89763296D01*
X136560571Y-89785689D01*
X136356369Y-89852037D01*
X136356366Y-89852038D01*
X136165055Y-89949517D01*
X136065949Y-90021522D01*
X135991349Y-90075723D01*
X135991347Y-90075725D01*
X135991346Y-90075725D01*
X135839525Y-90227546D01*
X135839525Y-90227547D01*
X135839523Y-90227549D01*
X135785322Y-90302149D01*
X135713317Y-90401255D01*
X135615838Y-90592566D01*
X135615837Y-90592569D01*
X135549489Y-90796771D01*
X135515900Y-91008843D01*
X120900300Y-91008843D01*
X120900300Y-90972643D01*
X120866711Y-90760573D01*
X120800361Y-90556367D01*
X120800361Y-90556366D01*
X120702882Y-90365055D01*
X120576677Y-90191349D01*
X120424851Y-90039523D01*
X120251144Y-89913317D01*
X120059833Y-89815838D01*
X120059830Y-89815837D01*
X119855628Y-89749489D01*
X119716770Y-89727496D01*
X119643557Y-89715900D01*
X119428843Y-89715900D01*
X119358153Y-89727096D01*
X119216771Y-89749489D01*
X119012569Y-89815837D01*
X119012566Y-89815838D01*
X118821255Y-89913317D01*
X118771431Y-89949517D01*
X118647549Y-90039523D01*
X118647547Y-90039525D01*
X118647546Y-90039525D01*
X118495725Y-90191346D01*
X118495725Y-90191347D01*
X118495723Y-90191349D01*
X118469424Y-90227547D01*
X118369517Y-90365055D01*
X118272038Y-90556366D01*
X118272037Y-90556369D01*
X118205689Y-90760571D01*
X118199955Y-90796773D01*
X118172100Y-90972643D01*
X110500000Y-90972643D01*
X110500000Y-88356476D01*
X120636400Y-88356476D01*
X120636400Y-88571123D01*
X120669975Y-88783111D01*
X120736303Y-88987245D01*
X120833743Y-89178481D01*
X120874992Y-89235253D01*
X120874992Y-89235254D01*
X121429878Y-88680368D01*
X121459779Y-88752554D01*
X121526492Y-88852398D01*
X121611402Y-88937308D01*
X121711246Y-89004021D01*
X121783431Y-89033921D01*
X121228545Y-89588806D01*
X121285317Y-89630055D01*
X121476554Y-89727496D01*
X121680688Y-89793824D01*
X121892677Y-89827400D01*
X122107323Y-89827400D01*
X122319311Y-89793824D01*
X122523445Y-89727496D01*
X122714682Y-89630055D01*
X122771453Y-89588807D01*
X122771453Y-89588806D01*
X122216568Y-89033921D01*
X122288754Y-89004021D01*
X122388598Y-88937308D01*
X122473508Y-88852398D01*
X122540221Y-88752554D01*
X122570121Y-88680368D01*
X123125006Y-89235253D01*
X123125007Y-89235253D01*
X123166255Y-89178482D01*
X123263696Y-88987245D01*
X123330024Y-88783111D01*
X123363600Y-88571123D01*
X123363600Y-88392676D01*
X137980200Y-88392676D01*
X137980200Y-88607323D01*
X138013775Y-88819311D01*
X138080103Y-89023445D01*
X138177543Y-89214681D01*
X138218792Y-89271453D01*
X138218792Y-89271454D01*
X138773678Y-88716568D01*
X138803579Y-88788754D01*
X138870292Y-88888598D01*
X138955202Y-88973508D01*
X139055046Y-89040221D01*
X139127231Y-89070121D01*
X138572345Y-89625006D01*
X138629117Y-89666255D01*
X138820354Y-89763696D01*
X139024488Y-89830024D01*
X139236477Y-89863600D01*
X139451123Y-89863600D01*
X139663111Y-89830024D01*
X139867245Y-89763696D01*
X140058482Y-89666255D01*
X140115253Y-89625007D01*
X140115253Y-89625006D01*
X139560368Y-89070121D01*
X139632554Y-89040221D01*
X139732398Y-88973508D01*
X139817308Y-88888598D01*
X139884021Y-88788754D01*
X139913921Y-88716568D01*
X140468806Y-89271453D01*
X140468807Y-89271453D01*
X140510055Y-89214682D01*
X140607496Y-89023445D01*
X140673824Y-88819311D01*
X140707400Y-88607323D01*
X140707400Y-88392676D01*
X140703968Y-88371008D01*
X140701666Y-88356476D01*
X155480200Y-88356476D01*
X155480200Y-88571123D01*
X155513775Y-88783111D01*
X155580103Y-88987245D01*
X155677543Y-89178481D01*
X155718792Y-89235253D01*
X155718792Y-89235254D01*
X156273678Y-88680368D01*
X156303579Y-88752554D01*
X156370292Y-88852398D01*
X156455202Y-88937308D01*
X156555046Y-89004021D01*
X156627231Y-89033921D01*
X156072345Y-89588806D01*
X156129117Y-89630055D01*
X156320354Y-89727496D01*
X156524488Y-89793824D01*
X156736477Y-89827400D01*
X156951123Y-89827400D01*
X157163111Y-89793824D01*
X157367245Y-89727496D01*
X157558482Y-89630055D01*
X157615253Y-89588807D01*
X157615253Y-89588806D01*
X157060368Y-89033921D01*
X157132554Y-89004021D01*
X157232398Y-88937308D01*
X157317308Y-88852398D01*
X157384021Y-88752554D01*
X157413921Y-88680368D01*
X157968806Y-89235253D01*
X157968807Y-89235253D01*
X158010055Y-89178482D01*
X158107496Y-88987245D01*
X158173824Y-88783111D01*
X158207400Y-88571123D01*
X158207400Y-88356476D01*
X158173824Y-88144488D01*
X158107496Y-87940354D01*
X158010055Y-87749117D01*
X157968806Y-87692345D01*
X157413920Y-88247230D01*
X157384021Y-88175046D01*
X157317308Y-88075202D01*
X157232398Y-87990292D01*
X157132554Y-87923579D01*
X157060367Y-87893678D01*
X157615254Y-87338792D01*
X157558481Y-87297543D01*
X157367245Y-87200103D01*
X157163111Y-87133775D01*
X156951123Y-87100200D01*
X156736477Y-87100200D01*
X156524488Y-87133775D01*
X156320354Y-87200103D01*
X156129117Y-87297544D01*
X156072345Y-87338792D01*
X156072344Y-87338792D01*
X156627231Y-87893678D01*
X156555046Y-87923579D01*
X156455202Y-87990292D01*
X156370292Y-88075202D01*
X156303579Y-88175046D01*
X156273678Y-88247231D01*
X155718792Y-87692344D01*
X155718792Y-87692345D01*
X155677544Y-87749117D01*
X155580103Y-87940354D01*
X155513775Y-88144488D01*
X155480200Y-88356476D01*
X140701666Y-88356476D01*
X140673824Y-88180688D01*
X140607496Y-87976554D01*
X140510055Y-87785317D01*
X140468806Y-87728545D01*
X139913920Y-88283430D01*
X139884021Y-88211246D01*
X139817308Y-88111402D01*
X139732398Y-88026492D01*
X139632554Y-87959779D01*
X139560367Y-87929878D01*
X140115254Y-87374992D01*
X140058481Y-87333743D01*
X139867245Y-87236303D01*
X139663111Y-87169975D01*
X139451123Y-87136400D01*
X139236477Y-87136400D01*
X139024488Y-87169975D01*
X138820354Y-87236303D01*
X138629117Y-87333744D01*
X138572345Y-87374992D01*
X138572344Y-87374992D01*
X139127231Y-87929878D01*
X139055046Y-87959779D01*
X138955202Y-88026492D01*
X138870292Y-88111402D01*
X138803579Y-88211246D01*
X138773678Y-88283431D01*
X138218792Y-87728544D01*
X138218792Y-87728545D01*
X138177544Y-87785317D01*
X138080103Y-87976554D01*
X138013775Y-88180688D01*
X137980200Y-88392676D01*
X123363600Y-88392676D01*
X123363600Y-88356476D01*
X123330024Y-88144488D01*
X123263696Y-87940354D01*
X123166255Y-87749117D01*
X123125006Y-87692345D01*
X122570120Y-88247230D01*
X122540221Y-88175046D01*
X122473508Y-88075202D01*
X122388598Y-87990292D01*
X122288754Y-87923579D01*
X122216567Y-87893678D01*
X122771454Y-87338792D01*
X122714681Y-87297543D01*
X122523445Y-87200103D01*
X122319311Y-87133775D01*
X122107323Y-87100200D01*
X121892677Y-87100200D01*
X121680688Y-87133775D01*
X121476554Y-87200103D01*
X121285317Y-87297544D01*
X121228545Y-87338792D01*
X121228544Y-87338792D01*
X121783431Y-87893678D01*
X121711246Y-87923579D01*
X121611402Y-87990292D01*
X121526492Y-88075202D01*
X121459779Y-88175046D01*
X121429878Y-88247231D01*
X120874992Y-87692344D01*
X120874992Y-87692345D01*
X120833744Y-87749117D01*
X120736303Y-87940354D01*
X120669975Y-88144488D01*
X120636400Y-88356476D01*
X110500000Y-88356476D01*
X110500000Y-85892643D01*
X125792100Y-85892643D01*
X125792100Y-86107357D01*
X125797834Y-86143557D01*
X125825689Y-86319428D01*
X125892037Y-86523630D01*
X125892038Y-86523633D01*
X125989517Y-86714944D01*
X126115723Y-86888651D01*
X126267549Y-87040477D01*
X126441256Y-87166683D01*
X126535088Y-87214492D01*
X126632566Y-87264161D01*
X126632569Y-87264162D01*
X126667671Y-87275567D01*
X126836773Y-87330511D01*
X127048843Y-87364100D01*
X127048844Y-87364100D01*
X127263556Y-87364100D01*
X127263557Y-87364100D01*
X127475627Y-87330511D01*
X127533861Y-87311589D01*
X127556233Y-87304321D01*
X127679830Y-87264162D01*
X127679833Y-87264161D01*
X127734507Y-87236303D01*
X127871144Y-87166683D01*
X128044851Y-87040477D01*
X128196677Y-86888651D01*
X128322883Y-86714944D01*
X128420361Y-86523633D01*
X128486711Y-86319427D01*
X128520300Y-86107357D01*
X128520300Y-85928843D01*
X143135900Y-85928843D01*
X143135900Y-86143556D01*
X143169489Y-86355628D01*
X143235837Y-86559830D01*
X143235838Y-86559833D01*
X143314872Y-86714944D01*
X143333317Y-86751144D01*
X143459523Y-86924851D01*
X143611349Y-87076677D01*
X143785056Y-87202883D01*
X143878888Y-87250692D01*
X143976366Y-87300361D01*
X143976369Y-87300362D01*
X144069157Y-87330510D01*
X144180573Y-87366711D01*
X144392643Y-87400300D01*
X144392644Y-87400300D01*
X144607356Y-87400300D01*
X144607357Y-87400300D01*
X144819427Y-87366711D01*
X145023633Y-87300361D01*
X145214944Y-87202883D01*
X145388651Y-87076677D01*
X145540477Y-86924851D01*
X145666683Y-86751144D01*
X145764161Y-86559833D01*
X145830511Y-86355627D01*
X145864100Y-86143557D01*
X145864100Y-85928843D01*
X145858366Y-85892643D01*
X160635900Y-85892643D01*
X160635900Y-86107357D01*
X160641634Y-86143557D01*
X160669489Y-86319428D01*
X160735837Y-86523630D01*
X160735838Y-86523633D01*
X160833317Y-86714944D01*
X160959523Y-86888651D01*
X161111349Y-87040477D01*
X161285056Y-87166683D01*
X161378888Y-87214492D01*
X161476366Y-87264161D01*
X161476369Y-87264162D01*
X161511471Y-87275567D01*
X161680573Y-87330511D01*
X161892643Y-87364100D01*
X161892644Y-87364100D01*
X162107356Y-87364100D01*
X162107357Y-87364100D01*
X162319427Y-87330511D01*
X162523633Y-87264161D01*
X162714944Y-87166683D01*
X162888651Y-87040477D01*
X163040477Y-86888651D01*
X163166683Y-86714944D01*
X163264161Y-86523633D01*
X163330511Y-86319427D01*
X163364100Y-86107357D01*
X163364100Y-85892643D01*
X163330511Y-85680573D01*
X163264161Y-85476367D01*
X163264161Y-85476366D01*
X163166682Y-85285055D01*
X163040477Y-85111349D01*
X162888651Y-84959523D01*
X162714944Y-84833317D01*
X162523633Y-84735838D01*
X162523630Y-84735837D01*
X162319428Y-84669489D01*
X162213392Y-84652694D01*
X162107357Y-84635900D01*
X161892643Y-84635900D01*
X161821953Y-84647096D01*
X161680571Y-84669489D01*
X161476369Y-84735837D01*
X161476366Y-84735838D01*
X161285055Y-84833317D01*
X161235231Y-84869517D01*
X161111349Y-84959523D01*
X161111347Y-84959525D01*
X161111346Y-84959525D01*
X160959525Y-85111346D01*
X160959525Y-85111347D01*
X160959523Y-85111349D01*
X160933224Y-85147547D01*
X160833317Y-85285055D01*
X160735838Y-85476366D01*
X160735837Y-85476369D01*
X160669489Y-85680571D01*
X160663755Y-85716773D01*
X160635900Y-85892643D01*
X145858366Y-85892643D01*
X145830511Y-85716773D01*
X145764161Y-85512567D01*
X145764161Y-85512566D01*
X145666682Y-85321255D01*
X145640381Y-85285055D01*
X145540477Y-85147549D01*
X145388651Y-84995723D01*
X145214944Y-84869517D01*
X145143898Y-84833317D01*
X145023633Y-84772038D01*
X145023630Y-84772037D01*
X144819428Y-84705689D01*
X144713392Y-84688894D01*
X144607357Y-84672100D01*
X144392643Y-84672100D01*
X144321953Y-84683296D01*
X144180571Y-84705689D01*
X143976369Y-84772037D01*
X143976366Y-84772038D01*
X143785055Y-84869517D01*
X143685949Y-84941522D01*
X143611349Y-84995723D01*
X143611347Y-84995725D01*
X143611346Y-84995725D01*
X143459525Y-85147546D01*
X143459525Y-85147547D01*
X143459523Y-85147549D01*
X143405322Y-85222149D01*
X143333317Y-85321255D01*
X143235838Y-85512566D01*
X143235837Y-85512569D01*
X143169489Y-85716771D01*
X143135900Y-85928843D01*
X128520300Y-85928843D01*
X128520300Y-85892643D01*
X128486711Y-85680573D01*
X128420361Y-85476367D01*
X128420361Y-85476366D01*
X128322882Y-85285055D01*
X128196677Y-85111349D01*
X128044851Y-84959523D01*
X127871144Y-84833317D01*
X127679833Y-84735838D01*
X127679830Y-84735837D01*
X127475628Y-84669489D01*
X127369592Y-84652694D01*
X127263557Y-84635900D01*
X127048843Y-84635900D01*
X126978153Y-84647096D01*
X126836771Y-84669489D01*
X126632569Y-84735837D01*
X126632566Y-84735838D01*
X126441255Y-84833317D01*
X126391431Y-84869517D01*
X126267549Y-84959523D01*
X126267547Y-84959525D01*
X126267546Y-84959525D01*
X126115725Y-85111346D01*
X126115725Y-85111347D01*
X126115723Y-85111349D01*
X126089424Y-85147547D01*
X125989517Y-85285055D01*
X125892038Y-85476366D01*
X125892037Y-85476369D01*
X125825689Y-85680571D01*
X125819955Y-85716773D01*
X125792100Y-85892643D01*
X110500000Y-85892643D01*
X110500000Y-77413389D01*
X118624500Y-77413389D01*
X118624500Y-77586610D01*
X118647534Y-77732046D01*
X118651598Y-77757701D01*
X118705127Y-77922445D01*
X118783768Y-78076788D01*
X118885586Y-78216928D01*
X118885588Y-78216930D01*
X118993491Y-78324833D01*
X119026976Y-78386156D01*
X119021992Y-78455848D01*
X118980120Y-78511781D01*
X118970907Y-78518053D01*
X118906654Y-78557684D01*
X118782684Y-78681654D01*
X118690643Y-78830875D01*
X118690641Y-78830880D01*
X118635494Y-78997302D01*
X118635493Y-78997309D01*
X118625000Y-79100013D01*
X118625000Y-79250000D01*
X119719670Y-79250000D01*
X119699925Y-79269745D01*
X119650556Y-79355255D01*
X119625000Y-79450630D01*
X119625000Y-79549370D01*
X119650556Y-79644745D01*
X119699925Y-79730255D01*
X119719670Y-79750000D01*
X118625001Y-79750000D01*
X118625001Y-79899986D01*
X118635494Y-80002697D01*
X118690641Y-80169119D01*
X118690643Y-80169124D01*
X118782684Y-80318345D01*
X118906654Y-80442315D01*
X119055875Y-80534356D01*
X119055880Y-80534358D01*
X119222302Y-80589505D01*
X119222309Y-80589506D01*
X119325019Y-80599999D01*
X119749999Y-80599999D01*
X119750000Y-80599998D01*
X119750000Y-79780330D01*
X119769745Y-79800075D01*
X119855255Y-79849444D01*
X119950630Y-79875000D01*
X120049370Y-79875000D01*
X120144745Y-79849444D01*
X120230255Y-79800075D01*
X120250000Y-79780330D01*
X120250000Y-80599999D01*
X120674972Y-80599999D01*
X120674986Y-80599998D01*
X120777697Y-80589505D01*
X120944119Y-80534358D01*
X120944124Y-80534356D01*
X121093345Y-80442315D01*
X121217315Y-80318345D01*
X121309356Y-80169124D01*
X121309358Y-80169119D01*
X121364505Y-80002697D01*
X121364506Y-80002690D01*
X121374999Y-79899986D01*
X121375000Y-79899973D01*
X121375000Y-79750000D01*
X120280330Y-79750000D01*
X120300075Y-79730255D01*
X120349444Y-79644745D01*
X120375000Y-79549370D01*
X120375000Y-79450630D01*
X120349444Y-79355255D01*
X120300075Y-79269745D01*
X120280330Y-79250000D01*
X121374999Y-79250000D01*
X121374999Y-79100028D01*
X121374998Y-79100013D01*
X121364505Y-78997302D01*
X121309358Y-78830880D01*
X121309356Y-78830875D01*
X121217315Y-78681654D01*
X121093345Y-78557684D01*
X121029093Y-78518053D01*
X121013539Y-78500760D01*
X120994923Y-78486824D01*
X120990614Y-78475272D01*
X120982369Y-78466105D01*
X120978633Y-78443151D01*
X120970506Y-78421360D01*
X120973127Y-78409310D01*
X120971147Y-78397142D01*
X120980414Y-78375813D01*
X120985358Y-78353087D01*
X120997108Y-78337390D01*
X120998990Y-78333060D01*
X121006509Y-78324833D01*
X121063031Y-78268311D01*
X121124354Y-78234826D01*
X121194046Y-78239810D01*
X121198164Y-78241431D01*
X121263060Y-78268311D01*
X121266503Y-78269737D01*
X121383765Y-78293062D01*
X121421153Y-78300499D01*
X121421156Y-78300500D01*
X121421158Y-78300500D01*
X121578843Y-78300500D01*
X121590254Y-78298229D01*
X121647533Y-78286836D01*
X121717121Y-78293062D01*
X121759404Y-78320772D01*
X126021578Y-82582947D01*
X126021585Y-82582953D01*
X126079704Y-82621786D01*
X126079706Y-82621787D01*
X126079709Y-82621789D01*
X126144505Y-82665084D01*
X126144506Y-82665084D01*
X126144507Y-82665085D01*
X126159169Y-82671158D01*
X126281087Y-82721658D01*
X126281091Y-82721658D01*
X126281092Y-82721659D01*
X126426079Y-82750500D01*
X126426082Y-82750500D01*
X126426083Y-82750500D01*
X126573917Y-82750500D01*
X132945396Y-82750500D01*
X132992844Y-82759937D01*
X133016503Y-82769737D01*
X133016508Y-82769738D01*
X133016511Y-82769739D01*
X133171153Y-82800499D01*
X133171156Y-82800500D01*
X133171158Y-82800500D01*
X133328844Y-82800500D01*
X133328845Y-82800499D01*
X133483497Y-82769737D01*
X133629179Y-82709394D01*
X133760289Y-82621789D01*
X133871789Y-82510289D01*
X133959394Y-82379179D01*
X133962854Y-82370827D01*
X134017163Y-82239711D01*
X134019737Y-82233497D01*
X134050500Y-82078842D01*
X134050500Y-81921158D01*
X134050500Y-81921155D01*
X134050499Y-81921153D01*
X134019738Y-81766510D01*
X134019737Y-81766503D01*
X134019735Y-81766498D01*
X133959397Y-81620827D01*
X133959390Y-81620814D01*
X133871789Y-81489711D01*
X133871786Y-81489707D01*
X133760292Y-81378213D01*
X133760288Y-81378210D01*
X133629185Y-81290609D01*
X133629172Y-81290602D01*
X133483501Y-81230264D01*
X133483489Y-81230261D01*
X133328845Y-81199500D01*
X133328842Y-81199500D01*
X133171158Y-81199500D01*
X133171155Y-81199500D01*
X133016511Y-81230260D01*
X133016506Y-81230262D01*
X133016504Y-81230262D01*
X133016503Y-81230263D01*
X132992844Y-81240062D01*
X132945396Y-81249500D01*
X129564305Y-81249500D01*
X129497266Y-81229815D01*
X129451511Y-81177011D01*
X129441567Y-81107853D01*
X129470592Y-81044297D01*
X129476624Y-81037819D01*
X129497615Y-81016827D01*
X129497618Y-81016824D01*
X129585223Y-80885714D01*
X129645566Y-80740032D01*
X129676329Y-80585377D01*
X129676329Y-80509268D01*
X129696014Y-80442229D01*
X129712648Y-80421587D01*
X129965116Y-80169119D01*
X130210647Y-79923587D01*
X145696379Y-79923587D01*
X145696379Y-80081280D01*
X145727140Y-80235923D01*
X145727143Y-80235935D01*
X145787481Y-80381606D01*
X145787488Y-80381619D01*
X145875089Y-80512722D01*
X145875092Y-80512726D01*
X145986586Y-80624220D01*
X145986590Y-80624223D01*
X146117693Y-80711824D01*
X146117706Y-80711831D01*
X146263377Y-80772169D01*
X146263382Y-80772171D01*
X146418032Y-80802933D01*
X146418035Y-80802934D01*
X146418037Y-80802934D01*
X146575723Y-80802934D01*
X146575724Y-80802933D01*
X146730376Y-80772171D01*
X146876058Y-80711828D01*
X146876064Y-80711824D01*
X147007754Y-80623832D01*
X147074432Y-80602954D01*
X147076645Y-80602934D01*
X149026689Y-80602934D01*
X149026705Y-80602935D01*
X149034301Y-80602935D01*
X149192412Y-80602935D01*
X149192415Y-80602935D01*
X149345143Y-80562011D01*
X149395262Y-80533073D01*
X149482074Y-80482954D01*
X149593878Y-80371150D01*
X149593878Y-80371148D01*
X149604086Y-80360941D01*
X149604087Y-80360938D01*
X150709664Y-79255363D01*
X150725960Y-79246465D01*
X150739251Y-79233496D01*
X150769299Y-79222800D01*
X150770985Y-79221880D01*
X150772468Y-79221567D01*
X150773811Y-79221292D01*
X150773842Y-79221292D01*
X150928497Y-79190529D01*
X150932849Y-79188725D01*
X150943364Y-79186573D01*
X150972673Y-79189029D01*
X151002097Y-79188764D01*
X151009320Y-79192101D01*
X151012989Y-79192409D01*
X151017526Y-79195892D01*
X151037128Y-79204950D01*
X151046451Y-79211179D01*
X151046453Y-79211180D01*
X151046455Y-79211181D01*
X151153126Y-79255365D01*
X151192133Y-79271522D01*
X151300311Y-79293040D01*
X151346783Y-79302284D01*
X151346786Y-79302285D01*
X151346788Y-79302285D01*
X151504474Y-79302285D01*
X151504475Y-79302284D01*
X151659127Y-79271522D01*
X151804809Y-79211179D01*
X151837959Y-79189029D01*
X151936505Y-79123183D01*
X152003183Y-79102305D01*
X152005396Y-79102285D01*
X153843889Y-79102285D01*
X153910928Y-79121970D01*
X153956683Y-79174774D01*
X153966627Y-79243932D01*
X153937602Y-79307488D01*
X153912780Y-79329387D01*
X153839711Y-79378210D01*
X153839707Y-79378213D01*
X153728213Y-79489707D01*
X153728210Y-79489711D01*
X153640609Y-79620814D01*
X153640602Y-79620827D01*
X153580264Y-79766498D01*
X153580261Y-79766510D01*
X153549500Y-79921153D01*
X153549500Y-80078846D01*
X153580261Y-80233489D01*
X153580264Y-80233501D01*
X153640602Y-80379172D01*
X153640609Y-80379185D01*
X153728602Y-80510874D01*
X153749480Y-80577551D01*
X153749500Y-80579765D01*
X153749500Y-82067059D01*
X153729815Y-82134098D01*
X153713181Y-82154740D01*
X153628213Y-82239707D01*
X153628210Y-82239711D01*
X153540609Y-82370814D01*
X153540602Y-82370827D01*
X153480264Y-82516498D01*
X153480261Y-82516510D01*
X153449500Y-82671153D01*
X153449500Y-82828846D01*
X153480261Y-82983489D01*
X153480264Y-82983501D01*
X153540602Y-83129172D01*
X153540609Y-83129185D01*
X153628210Y-83260288D01*
X153628213Y-83260292D01*
X153739707Y-83371786D01*
X153739711Y-83371789D01*
X153870814Y-83459390D01*
X153870827Y-83459397D01*
X154016498Y-83519735D01*
X154016503Y-83519737D01*
X154171153Y-83550499D01*
X154171156Y-83550500D01*
X154171158Y-83550500D01*
X154328844Y-83550500D01*
X154328845Y-83550499D01*
X154483497Y-83519737D01*
X154629179Y-83459394D01*
X154760289Y-83371789D01*
X154871789Y-83260289D01*
X154959394Y-83129179D01*
X155019737Y-82983497D01*
X155050500Y-82828842D01*
X155050500Y-82671158D01*
X155050500Y-82671155D01*
X155050499Y-82671153D01*
X155032955Y-82582953D01*
X155019737Y-82516503D01*
X155017163Y-82510288D01*
X154959939Y-82372136D01*
X154950500Y-82324684D01*
X154950500Y-80579765D01*
X154970185Y-80512726D01*
X154971398Y-80510874D01*
X155059390Y-80379185D01*
X155059390Y-80379184D01*
X155059394Y-80379179D01*
X155119737Y-80233497D01*
X155150500Y-80078842D01*
X155150500Y-79921158D01*
X155150500Y-79921155D01*
X155150499Y-79921153D01*
X155146286Y-79899973D01*
X155119737Y-79766503D01*
X155119735Y-79766498D01*
X155111282Y-79746090D01*
X155059397Y-79620827D01*
X155059390Y-79620814D01*
X154971789Y-79489711D01*
X154971786Y-79489707D01*
X154860292Y-79378213D01*
X154860288Y-79378210D01*
X154787220Y-79329387D01*
X154742415Y-79275774D01*
X154733708Y-79206449D01*
X154763863Y-79143422D01*
X154823306Y-79106703D01*
X154856111Y-79102285D01*
X155500335Y-79102285D01*
X155547787Y-79111724D01*
X155567128Y-79119735D01*
X155567133Y-79119737D01*
X155686205Y-79143422D01*
X155721783Y-79150499D01*
X155721786Y-79150500D01*
X155721788Y-79150500D01*
X155879474Y-79150500D01*
X155879475Y-79150499D01*
X156034127Y-79119737D01*
X156179809Y-79059394D01*
X156310919Y-78971789D01*
X156422419Y-78860289D01*
X156510024Y-78729179D01*
X156570367Y-78583497D01*
X156601130Y-78428842D01*
X156601130Y-78271158D01*
X156601130Y-78271155D01*
X156601129Y-78271153D01*
X156590343Y-78216928D01*
X156570367Y-78116503D01*
X156547661Y-78061685D01*
X156510027Y-77970827D01*
X156510020Y-77970814D01*
X156422419Y-77839711D01*
X156422416Y-77839707D01*
X156310922Y-77728213D01*
X156310918Y-77728210D01*
X156179815Y-77640609D01*
X156179802Y-77640602D01*
X156034131Y-77580264D01*
X156034119Y-77580261D01*
X155879475Y-77549500D01*
X155879472Y-77549500D01*
X155721788Y-77549500D01*
X155721785Y-77549500D01*
X155567140Y-77580261D01*
X155567128Y-77580264D01*
X155421457Y-77640602D01*
X155421444Y-77640609D01*
X155290341Y-77728210D01*
X155290337Y-77728213D01*
X155178843Y-77839707D01*
X155176764Y-77842818D01*
X155174522Y-77846174D01*
X155120913Y-77890980D01*
X155071420Y-77901285D01*
X152005396Y-77901285D01*
X151938357Y-77881600D01*
X151936505Y-77880387D01*
X151804815Y-77792394D01*
X151804802Y-77792387D01*
X151659131Y-77732049D01*
X151659119Y-77732046D01*
X151504475Y-77701285D01*
X151504472Y-77701285D01*
X151346788Y-77701285D01*
X151346785Y-77701285D01*
X151192137Y-77732046D01*
X151188377Y-77733187D01*
X151186312Y-77733205D01*
X151186158Y-77733236D01*
X151186152Y-77733206D01*
X151118510Y-77733804D01*
X151083502Y-77717627D01*
X151074181Y-77711399D01*
X151074172Y-77711394D01*
X150928501Y-77651056D01*
X150928489Y-77651053D01*
X150773845Y-77620292D01*
X150773842Y-77620292D01*
X150616158Y-77620292D01*
X150616155Y-77620292D01*
X150461510Y-77651053D01*
X150461498Y-77651056D01*
X150315827Y-77711394D01*
X150315814Y-77711401D01*
X150184711Y-77799002D01*
X150184707Y-77799005D01*
X150073213Y-77910499D01*
X150073210Y-77910503D01*
X149985609Y-78041606D01*
X149985602Y-78041619D01*
X149925264Y-78187290D01*
X149925261Y-78187300D01*
X149894362Y-78342640D01*
X149861977Y-78404551D01*
X149860426Y-78406129D01*
X148900942Y-79365615D01*
X148839619Y-79399100D01*
X148813261Y-79401934D01*
X147076645Y-79401934D01*
X147009606Y-79382249D01*
X147007754Y-79381036D01*
X146876064Y-79293043D01*
X146876051Y-79293036D01*
X146730380Y-79232698D01*
X146730368Y-79232695D01*
X146575724Y-79201934D01*
X146575721Y-79201934D01*
X146418037Y-79201934D01*
X146418034Y-79201934D01*
X146263389Y-79232695D01*
X146263377Y-79232698D01*
X146117706Y-79293036D01*
X146117693Y-79293043D01*
X145986590Y-79380644D01*
X145986586Y-79380647D01*
X145875092Y-79492141D01*
X145875089Y-79492145D01*
X145787488Y-79623248D01*
X145787481Y-79623261D01*
X145727143Y-79768932D01*
X145727140Y-79768944D01*
X145696379Y-79923587D01*
X130210647Y-79923587D01*
X130227162Y-79907072D01*
X130288483Y-79873589D01*
X130290650Y-79873138D01*
X130348585Y-79861613D01*
X130445997Y-79842237D01*
X130479584Y-79828324D01*
X130540873Y-79802939D01*
X130591672Y-79781897D01*
X130591672Y-79781896D01*
X130591679Y-79781894D01*
X130722789Y-79694289D01*
X130834289Y-79582789D01*
X130921894Y-79451679D01*
X130982237Y-79305997D01*
X131013000Y-79151342D01*
X131013000Y-78993658D01*
X131013000Y-78993655D01*
X131012999Y-78993653D01*
X131008649Y-78971786D01*
X130982237Y-78839003D01*
X130978870Y-78830875D01*
X130921897Y-78693327D01*
X130921890Y-78693314D01*
X130834289Y-78562211D01*
X130834286Y-78562207D01*
X130718974Y-78446895D01*
X130685489Y-78385572D01*
X130690473Y-78315880D01*
X130732345Y-78259947D01*
X130737749Y-78256122D01*
X130830289Y-78194289D01*
X130941789Y-78082789D01*
X131029394Y-77951679D01*
X131089737Y-77805997D01*
X131120500Y-77651342D01*
X131120500Y-77493658D01*
X131120500Y-77493655D01*
X131120499Y-77493653D01*
X131111619Y-77449010D01*
X131089737Y-77339003D01*
X131074093Y-77301234D01*
X131029397Y-77193327D01*
X131029390Y-77193314D01*
X130941398Y-77061625D01*
X130920520Y-76994947D01*
X130920500Y-76992734D01*
X130920500Y-74980097D01*
X130929143Y-74950660D01*
X130935667Y-74920671D01*
X130939422Y-74915654D01*
X130940185Y-74913058D01*
X130956818Y-74892417D01*
X130976191Y-74873044D01*
X131014661Y-74834573D01*
X131075982Y-74801089D01*
X131078150Y-74800638D01*
X131136085Y-74789113D01*
X131233497Y-74769737D01*
X131379179Y-74709394D01*
X131510289Y-74621789D01*
X131621789Y-74510289D01*
X131709394Y-74379179D01*
X131733429Y-74321153D01*
X133699500Y-74321153D01*
X133699500Y-74478846D01*
X133730261Y-74633489D01*
X133730264Y-74633501D01*
X133790602Y-74779172D01*
X133790609Y-74779185D01*
X133878602Y-74910874D01*
X133899480Y-74977551D01*
X133899500Y-74979765D01*
X133899500Y-77275290D01*
X133890061Y-77322742D01*
X133837764Y-77448998D01*
X133837761Y-77449010D01*
X133807000Y-77603653D01*
X133807000Y-77761346D01*
X133837761Y-77915989D01*
X133837764Y-77916001D01*
X133898102Y-78061672D01*
X133898109Y-78061685D01*
X133985710Y-78192788D01*
X133985713Y-78192792D01*
X134097207Y-78304286D01*
X134097211Y-78304289D01*
X134228314Y-78391890D01*
X134228327Y-78391897D01*
X134347434Y-78441232D01*
X134374003Y-78452237D01*
X134489807Y-78475272D01*
X134528653Y-78482999D01*
X134528656Y-78483000D01*
X134528658Y-78483000D01*
X134686344Y-78483000D01*
X134686345Y-78482999D01*
X134840997Y-78452237D01*
X134986679Y-78391894D01*
X135117789Y-78304289D01*
X135229289Y-78192789D01*
X135316894Y-78061679D01*
X135377237Y-77915997D01*
X135408000Y-77761342D01*
X135408000Y-77603658D01*
X135408000Y-77603655D01*
X135407999Y-77603653D01*
X135403346Y-77580261D01*
X135377237Y-77449003D01*
X135331672Y-77338998D01*
X135316897Y-77303327D01*
X135316890Y-77303314D01*
X135229289Y-77172211D01*
X135229286Y-77172207D01*
X135136819Y-77079740D01*
X135103334Y-77018417D01*
X135100500Y-76992059D01*
X135100500Y-74979765D01*
X135120185Y-74912726D01*
X135121398Y-74910874D01*
X135172380Y-74834575D01*
X135209394Y-74779179D01*
X135214643Y-74766508D01*
X135269735Y-74633501D01*
X135269737Y-74633497D01*
X135300500Y-74478842D01*
X135300500Y-74321158D01*
X135300500Y-74321155D01*
X135300499Y-74321153D01*
X135298536Y-74311284D01*
X135269737Y-74166503D01*
X135233427Y-74078842D01*
X135209397Y-74020827D01*
X135209390Y-74020814D01*
X135121789Y-73889711D01*
X135121786Y-73889707D01*
X135010292Y-73778213D01*
X135010288Y-73778210D01*
X134879185Y-73690609D01*
X134879172Y-73690602D01*
X134733501Y-73630264D01*
X134733489Y-73630261D01*
X134578845Y-73599500D01*
X134578842Y-73599500D01*
X134421158Y-73599500D01*
X134421155Y-73599500D01*
X134266510Y-73630261D01*
X134266498Y-73630264D01*
X134120827Y-73690602D01*
X134120814Y-73690609D01*
X133989711Y-73778210D01*
X133989707Y-73778213D01*
X133878213Y-73889707D01*
X133878210Y-73889711D01*
X133790609Y-74020814D01*
X133790602Y-74020827D01*
X133730264Y-74166498D01*
X133730261Y-74166510D01*
X133699500Y-74321153D01*
X131733429Y-74321153D01*
X131755603Y-74267621D01*
X131755605Y-74267614D01*
X131769737Y-74233497D01*
X131800500Y-74078842D01*
X131800500Y-73921158D01*
X131800500Y-73921155D01*
X131800499Y-73921153D01*
X131794244Y-73889707D01*
X131769737Y-73766503D01*
X131734856Y-73682294D01*
X131727388Y-73612827D01*
X131758663Y-73550347D01*
X131787416Y-73527458D01*
X131801233Y-73519481D01*
X131868716Y-73480520D01*
X131980520Y-73368716D01*
X131980520Y-73368714D01*
X131990721Y-73358514D01*
X131990724Y-73358509D01*
X132312417Y-73036816D01*
X132373739Y-73003334D01*
X132400097Y-73000500D01*
X147172779Y-73000500D01*
X147239818Y-73020185D01*
X147285573Y-73072989D01*
X147295517Y-73142147D01*
X147266492Y-73205703D01*
X147260460Y-73212181D01*
X143807215Y-76665425D01*
X143745892Y-76698910D01*
X143743726Y-76699361D01*
X143588384Y-76730261D01*
X143588374Y-76730264D01*
X143442703Y-76790602D01*
X143442690Y-76790609D01*
X143311587Y-76878210D01*
X143311583Y-76878213D01*
X143200089Y-76989707D01*
X143200086Y-76989711D01*
X143112485Y-77120814D01*
X143112478Y-77120827D01*
X143052140Y-77266498D01*
X143052137Y-77266510D01*
X143021376Y-77421153D01*
X143021376Y-77578846D01*
X143052137Y-77733489D01*
X143052140Y-77733501D01*
X143112478Y-77879172D01*
X143112485Y-77879185D01*
X143200086Y-78010288D01*
X143200089Y-78010292D01*
X143311583Y-78121786D01*
X143311587Y-78121789D01*
X143442690Y-78209390D01*
X143442703Y-78209397D01*
X143584936Y-78268311D01*
X143588379Y-78269737D01*
X143705641Y-78293062D01*
X143743029Y-78300499D01*
X143743032Y-78300500D01*
X143743034Y-78300500D01*
X143900720Y-78300500D01*
X143900721Y-78300499D01*
X144055373Y-78269737D01*
X144201055Y-78209394D01*
X144332165Y-78121789D01*
X144443665Y-78010289D01*
X144531270Y-77879179D01*
X144591613Y-77733497D01*
X144617440Y-77603658D01*
X144622514Y-77578150D01*
X144654899Y-77516239D01*
X144656394Y-77514716D01*
X144757721Y-77413389D01*
X161124500Y-77413389D01*
X161124500Y-77586610D01*
X161147534Y-77732046D01*
X161151598Y-77757701D01*
X161205127Y-77922445D01*
X161283768Y-78076788D01*
X161385586Y-78216928D01*
X161385588Y-78216930D01*
X161493491Y-78324833D01*
X161526976Y-78386156D01*
X161521992Y-78455848D01*
X161480120Y-78511781D01*
X161470907Y-78518053D01*
X161406654Y-78557684D01*
X161282684Y-78681654D01*
X161190643Y-78830875D01*
X161190641Y-78830880D01*
X161135494Y-78997302D01*
X161135493Y-78997309D01*
X161125000Y-79100013D01*
X161125000Y-79250000D01*
X162219670Y-79250000D01*
X162199925Y-79269745D01*
X162150556Y-79355255D01*
X162125000Y-79450630D01*
X162125000Y-79549370D01*
X162150556Y-79644745D01*
X162199925Y-79730255D01*
X162219670Y-79750000D01*
X161125001Y-79750000D01*
X161125001Y-79899986D01*
X161135494Y-80002697D01*
X161190641Y-80169119D01*
X161190643Y-80169124D01*
X161282684Y-80318345D01*
X161406654Y-80442315D01*
X161555875Y-80534356D01*
X161555880Y-80534358D01*
X161722302Y-80589505D01*
X161722309Y-80589506D01*
X161825019Y-80599999D01*
X162249999Y-80599999D01*
X162250000Y-80599998D01*
X162250000Y-79780330D01*
X162269745Y-79800075D01*
X162355255Y-79849444D01*
X162450630Y-79875000D01*
X162549370Y-79875000D01*
X162644745Y-79849444D01*
X162730255Y-79800075D01*
X162750000Y-79780330D01*
X162750000Y-80599999D01*
X163174972Y-80599999D01*
X163174986Y-80599998D01*
X163277697Y-80589505D01*
X163444119Y-80534358D01*
X163444124Y-80534356D01*
X163593345Y-80442315D01*
X163717315Y-80318345D01*
X163809356Y-80169124D01*
X163809358Y-80169119D01*
X163864505Y-80002697D01*
X163864506Y-80002690D01*
X163874999Y-79899986D01*
X163875000Y-79899973D01*
X163875000Y-79750000D01*
X162780330Y-79750000D01*
X162800075Y-79730255D01*
X162849444Y-79644745D01*
X162875000Y-79549370D01*
X162875000Y-79450630D01*
X162849444Y-79355255D01*
X162800075Y-79269745D01*
X162780330Y-79250000D01*
X163874999Y-79250000D01*
X163874999Y-79100028D01*
X163874998Y-79100013D01*
X163864505Y-78997302D01*
X163809358Y-78830880D01*
X163809356Y-78830875D01*
X163717315Y-78681654D01*
X163593343Y-78557682D01*
X163529093Y-78518053D01*
X163482368Y-78466105D01*
X163471145Y-78397143D01*
X163498988Y-78333061D01*
X163506486Y-78324855D01*
X163614414Y-78216928D01*
X163716232Y-78076788D01*
X163794873Y-77922445D01*
X163848402Y-77757701D01*
X163875500Y-77586611D01*
X163875500Y-77413389D01*
X163848402Y-77242299D01*
X163794873Y-77077555D01*
X163716232Y-76923212D01*
X163614414Y-76783072D01*
X163491928Y-76660586D01*
X163351788Y-76558768D01*
X163197445Y-76480127D01*
X163032701Y-76426598D01*
X163032699Y-76426597D01*
X163032698Y-76426597D01*
X162901271Y-76405781D01*
X162861611Y-76399500D01*
X162138389Y-76399500D01*
X162098728Y-76405781D01*
X161967302Y-76426597D01*
X161802552Y-76480128D01*
X161648211Y-76558768D01*
X161568256Y-76616859D01*
X161508072Y-76660586D01*
X161508070Y-76660588D01*
X161508069Y-76660588D01*
X161385588Y-76783069D01*
X161385588Y-76783070D01*
X161385586Y-76783072D01*
X161347919Y-76834916D01*
X161283768Y-76923211D01*
X161205128Y-77077552D01*
X161151597Y-77242302D01*
X161124500Y-77413389D01*
X144757721Y-77413389D01*
X148534292Y-73636819D01*
X148595615Y-73603334D01*
X148621973Y-73600500D01*
X150920234Y-73600500D01*
X150987273Y-73620185D01*
X150989125Y-73621398D01*
X151120814Y-73709390D01*
X151120827Y-73709397D01*
X151258693Y-73766502D01*
X151266503Y-73769737D01*
X151421153Y-73800499D01*
X151421156Y-73800500D01*
X151421158Y-73800500D01*
X151578844Y-73800500D01*
X151578845Y-73800499D01*
X151733497Y-73769737D01*
X151879179Y-73709394D01*
X151992092Y-73633947D01*
X152058768Y-73613070D01*
X152126148Y-73631554D01*
X152148663Y-73649369D01*
X153663811Y-75164517D01*
X153678514Y-75191444D01*
X153695107Y-75217263D01*
X153695998Y-75223463D01*
X153697296Y-75225840D01*
X153700130Y-75252198D01*
X153700130Y-75420234D01*
X153680445Y-75487273D01*
X153679232Y-75489125D01*
X153591239Y-75620814D01*
X153591232Y-75620827D01*
X153530894Y-75766498D01*
X153530891Y-75766510D01*
X153500130Y-75921153D01*
X153500130Y-76078846D01*
X153530891Y-76233489D01*
X153530894Y-76233501D01*
X153591232Y-76379172D01*
X153591239Y-76379185D01*
X153678840Y-76510288D01*
X153678843Y-76510292D01*
X153790337Y-76621786D01*
X153790341Y-76621789D01*
X153921444Y-76709390D01*
X153921457Y-76709397D01*
X154058203Y-76766038D01*
X154067133Y-76769737D01*
X154221783Y-76800499D01*
X154221786Y-76800500D01*
X154221788Y-76800500D01*
X154379474Y-76800500D01*
X154379475Y-76800499D01*
X154534127Y-76769737D01*
X154679809Y-76709394D01*
X154810919Y-76621789D01*
X154922419Y-76510289D01*
X155010024Y-76379179D01*
X155070367Y-76233497D01*
X155101130Y-76078842D01*
X155101130Y-75921158D01*
X155101130Y-75921155D01*
X155101129Y-75921153D01*
X155083907Y-75834574D01*
X155070367Y-75766503D01*
X155010424Y-75621786D01*
X155010027Y-75620827D01*
X155010020Y-75620814D01*
X154922028Y-75489125D01*
X154901150Y-75422447D01*
X154901130Y-75420234D01*
X154901130Y-75041160D01*
X154901131Y-75041147D01*
X154901131Y-74873046D01*
X154901131Y-74873044D01*
X154860207Y-74720316D01*
X154831269Y-74670196D01*
X154781150Y-74583385D01*
X154669346Y-74471581D01*
X154669345Y-74471580D01*
X154665015Y-74467250D01*
X154665004Y-74467240D01*
X152559945Y-72362181D01*
X152526460Y-72300858D01*
X152531444Y-72231166D01*
X152573316Y-72175233D01*
X152638780Y-72150816D01*
X152647626Y-72150500D01*
X152756613Y-72150500D01*
X152756616Y-72150500D01*
X152827196Y-72144086D01*
X152989606Y-72093478D01*
X153133125Y-72006717D01*
X153200676Y-71988882D01*
X153266162Y-72009733D01*
X153323450Y-72048011D01*
X153323457Y-72048015D01*
X153432106Y-72093018D01*
X153487334Y-72115894D01*
X153487336Y-72115894D01*
X153487341Y-72115896D01*
X153661304Y-72150499D01*
X153661307Y-72150500D01*
X153661309Y-72150500D01*
X153838693Y-72150500D01*
X153838694Y-72150499D01*
X153896682Y-72138964D01*
X154012658Y-72115896D01*
X154012661Y-72115894D01*
X154012666Y-72115894D01*
X154176547Y-72048013D01*
X154306109Y-71961442D01*
X154372786Y-71940564D01*
X154440166Y-71959048D01*
X154443891Y-71961442D01*
X154573453Y-72048013D01*
X154573455Y-72048014D01*
X154573459Y-72048016D01*
X154682106Y-72093018D01*
X154737334Y-72115894D01*
X154737336Y-72115894D01*
X154737341Y-72115896D01*
X154911304Y-72150499D01*
X154911307Y-72150500D01*
X154911309Y-72150500D01*
X155088693Y-72150500D01*
X155088694Y-72150499D01*
X155146682Y-72138964D01*
X155262658Y-72115896D01*
X155262661Y-72115894D01*
X155262666Y-72115894D01*
X155426547Y-72048013D01*
X155556109Y-71961442D01*
X155622786Y-71940564D01*
X155690166Y-71959048D01*
X155693891Y-71961442D01*
X155823453Y-72048013D01*
X155823455Y-72048014D01*
X155823459Y-72048016D01*
X155932106Y-72093018D01*
X155987334Y-72115894D01*
X155987336Y-72115894D01*
X155987341Y-72115896D01*
X156161304Y-72150499D01*
X156161307Y-72150500D01*
X156161309Y-72150500D01*
X156338693Y-72150500D01*
X156338694Y-72150499D01*
X156396682Y-72138964D01*
X156512658Y-72115896D01*
X156512661Y-72115894D01*
X156512666Y-72115894D01*
X156676547Y-72048013D01*
X156806109Y-71961442D01*
X156872786Y-71940564D01*
X156940166Y-71959048D01*
X156943891Y-71961442D01*
X157073453Y-72048013D01*
X157073455Y-72048014D01*
X157073459Y-72048016D01*
X157182106Y-72093018D01*
X157237334Y-72115894D01*
X157237336Y-72115894D01*
X157237341Y-72115896D01*
X157411304Y-72150499D01*
X157411307Y-72150500D01*
X157411309Y-72150500D01*
X157588693Y-72150500D01*
X157588694Y-72150499D01*
X157646682Y-72138964D01*
X157762658Y-72115896D01*
X157762661Y-72115894D01*
X157762666Y-72115894D01*
X157926547Y-72048013D01*
X158056109Y-71961442D01*
X158122786Y-71940564D01*
X158190166Y-71959048D01*
X158193891Y-71961442D01*
X158323453Y-72048013D01*
X158323455Y-72048014D01*
X158323459Y-72048016D01*
X158432106Y-72093018D01*
X158487334Y-72115894D01*
X158487336Y-72115894D01*
X158487341Y-72115896D01*
X158661304Y-72150499D01*
X158661307Y-72150500D01*
X158661309Y-72150500D01*
X158838693Y-72150500D01*
X158838694Y-72150499D01*
X158896682Y-72138964D01*
X159012658Y-72115896D01*
X159012661Y-72115894D01*
X159012666Y-72115894D01*
X159176547Y-72048013D01*
X159306109Y-71961442D01*
X159372786Y-71940564D01*
X159440166Y-71959048D01*
X159443891Y-71961442D01*
X159573453Y-72048013D01*
X159573455Y-72048014D01*
X159573459Y-72048016D01*
X159682106Y-72093018D01*
X159737334Y-72115894D01*
X159737336Y-72115894D01*
X159737341Y-72115896D01*
X159911304Y-72150499D01*
X159911307Y-72150500D01*
X159911309Y-72150500D01*
X160088693Y-72150500D01*
X160088694Y-72150499D01*
X160146682Y-72138964D01*
X160262658Y-72115896D01*
X160262661Y-72115894D01*
X160262666Y-72115894D01*
X160426547Y-72048013D01*
X160556109Y-71961442D01*
X160622786Y-71940564D01*
X160690166Y-71959048D01*
X160693891Y-71961442D01*
X160823453Y-72048013D01*
X160823455Y-72048014D01*
X160823459Y-72048016D01*
X160932106Y-72093018D01*
X160987334Y-72115894D01*
X160987336Y-72115894D01*
X160987341Y-72115896D01*
X161161304Y-72150499D01*
X161161307Y-72150500D01*
X161161309Y-72150500D01*
X161338693Y-72150500D01*
X161338694Y-72150499D01*
X161396682Y-72138964D01*
X161512658Y-72115896D01*
X161512661Y-72115894D01*
X161512666Y-72115894D01*
X161676547Y-72048013D01*
X161806109Y-71961442D01*
X161872786Y-71940564D01*
X161940166Y-71959048D01*
X161943891Y-71961442D01*
X162073453Y-72048013D01*
X162073455Y-72048014D01*
X162073459Y-72048016D01*
X162182106Y-72093018D01*
X162237334Y-72115894D01*
X162237336Y-72115894D01*
X162237341Y-72115896D01*
X162411304Y-72150499D01*
X162411307Y-72150500D01*
X162411309Y-72150500D01*
X162588693Y-72150500D01*
X162588694Y-72150499D01*
X162646682Y-72138964D01*
X162762658Y-72115896D01*
X162762661Y-72115894D01*
X162762666Y-72115894D01*
X162926547Y-72048013D01*
X163074035Y-71949464D01*
X163199464Y-71824035D01*
X163298013Y-71676547D01*
X163365894Y-71512666D01*
X163367098Y-71506616D01*
X163388964Y-71396682D01*
X163400500Y-71338691D01*
X163400500Y-70661309D01*
X163400500Y-70661306D01*
X163400499Y-70661304D01*
X163365896Y-70487341D01*
X163365893Y-70487332D01*
X163346401Y-70440274D01*
X163328745Y-70397648D01*
X167199500Y-70397648D01*
X167199500Y-70602351D01*
X167231522Y-70804534D01*
X167294781Y-70999223D01*
X167358691Y-71124653D01*
X167367705Y-71142343D01*
X167387715Y-71181613D01*
X167508028Y-71347213D01*
X167652786Y-71491971D01*
X167769968Y-71577107D01*
X167818390Y-71612287D01*
X167934607Y-71671503D01*
X168000776Y-71705218D01*
X168000778Y-71705218D01*
X168000781Y-71705220D01*
X168105137Y-71739127D01*
X168195465Y-71768477D01*
X168296557Y-71784488D01*
X168397648Y-71800500D01*
X168397649Y-71800500D01*
X168602351Y-71800500D01*
X168602352Y-71800500D01*
X168804534Y-71768477D01*
X168999219Y-71705220D01*
X169181610Y-71612287D01*
X169274590Y-71544732D01*
X169347213Y-71491971D01*
X169347215Y-71491968D01*
X169347219Y-71491966D01*
X169491966Y-71347219D01*
X169491968Y-71347215D01*
X169491971Y-71347213D01*
X169590251Y-71211940D01*
X169612287Y-71181610D01*
X169705220Y-70999219D01*
X169768477Y-70804534D01*
X169800500Y-70602352D01*
X169800500Y-70397648D01*
X169788749Y-70323459D01*
X169768477Y-70195465D01*
X169719404Y-70044436D01*
X169705220Y-70000781D01*
X169705218Y-70000778D01*
X169705218Y-70000776D01*
X169657426Y-69906980D01*
X169612287Y-69818390D01*
X169604556Y-69807749D01*
X169491971Y-69652786D01*
X169347213Y-69508028D01*
X169181613Y-69387715D01*
X169181612Y-69387714D01*
X169181610Y-69387713D01*
X169124653Y-69358691D01*
X168999223Y-69294781D01*
X168804534Y-69231522D01*
X168629995Y-69203878D01*
X168602352Y-69199500D01*
X168397648Y-69199500D01*
X168373329Y-69203351D01*
X168195465Y-69231522D01*
X168000776Y-69294781D01*
X167818386Y-69387715D01*
X167652786Y-69508028D01*
X167508028Y-69652786D01*
X167387715Y-69818386D01*
X167294781Y-70000776D01*
X167231522Y-70195465D01*
X167199500Y-70397648D01*
X163328745Y-70397648D01*
X163298013Y-70323453D01*
X163298011Y-70323450D01*
X163298009Y-70323446D01*
X163199464Y-70175965D01*
X163199461Y-70175961D01*
X163074038Y-70050538D01*
X163074034Y-70050535D01*
X162926553Y-69951990D01*
X162926540Y-69951983D01*
X162762667Y-69884106D01*
X162762658Y-69884103D01*
X162588694Y-69849500D01*
X162588691Y-69849500D01*
X162411309Y-69849500D01*
X162411306Y-69849500D01*
X162237341Y-69884103D01*
X162237332Y-69884106D01*
X162073459Y-69951983D01*
X162073446Y-69951990D01*
X161943891Y-70038557D01*
X161877213Y-70059435D01*
X161809833Y-70040950D01*
X161806109Y-70038557D01*
X161676553Y-69951990D01*
X161676540Y-69951983D01*
X161512667Y-69884106D01*
X161512658Y-69884103D01*
X161338694Y-69849500D01*
X161338691Y-69849500D01*
X161161309Y-69849500D01*
X161161306Y-69849500D01*
X160987341Y-69884103D01*
X160987332Y-69884106D01*
X160823459Y-69951983D01*
X160823446Y-69951990D01*
X160693891Y-70038557D01*
X160627213Y-70059435D01*
X160559833Y-70040950D01*
X160556109Y-70038557D01*
X160426553Y-69951990D01*
X160426540Y-69951983D01*
X160262667Y-69884106D01*
X160262658Y-69884103D01*
X160088694Y-69849500D01*
X160088691Y-69849500D01*
X159911309Y-69849500D01*
X159911306Y-69849500D01*
X159737341Y-69884103D01*
X159737332Y-69884106D01*
X159573459Y-69951983D01*
X159573446Y-69951990D01*
X159443891Y-70038557D01*
X159377213Y-70059435D01*
X159309833Y-70040950D01*
X159306109Y-70038557D01*
X159176553Y-69951990D01*
X159176540Y-69951983D01*
X159012667Y-69884106D01*
X159012658Y-69884103D01*
X158838694Y-69849500D01*
X158838691Y-69849500D01*
X158661309Y-69849500D01*
X158661306Y-69849500D01*
X158487341Y-69884103D01*
X158487332Y-69884106D01*
X158323459Y-69951983D01*
X158323446Y-69951990D01*
X158193891Y-70038557D01*
X158127213Y-70059435D01*
X158059833Y-70040950D01*
X158056109Y-70038557D01*
X157926553Y-69951990D01*
X157926540Y-69951983D01*
X157762667Y-69884106D01*
X157762658Y-69884103D01*
X157588694Y-69849500D01*
X157588691Y-69849500D01*
X157411309Y-69849500D01*
X157411306Y-69849500D01*
X157237341Y-69884103D01*
X157237332Y-69884106D01*
X157073459Y-69951983D01*
X157073446Y-69951990D01*
X156943891Y-70038557D01*
X156877213Y-70059435D01*
X156809833Y-70040950D01*
X156806109Y-70038557D01*
X156676553Y-69951990D01*
X156676540Y-69951983D01*
X156512667Y-69884106D01*
X156512658Y-69884103D01*
X156338694Y-69849500D01*
X156338691Y-69849500D01*
X156161309Y-69849500D01*
X156161306Y-69849500D01*
X155987341Y-69884103D01*
X155987332Y-69884106D01*
X155823459Y-69951983D01*
X155823446Y-69951990D01*
X155693891Y-70038557D01*
X155627213Y-70059435D01*
X155559833Y-70040950D01*
X155556109Y-70038557D01*
X155426553Y-69951990D01*
X155426540Y-69951983D01*
X155262667Y-69884106D01*
X155262658Y-69884103D01*
X155088694Y-69849500D01*
X155088691Y-69849500D01*
X154911309Y-69849500D01*
X154911306Y-69849500D01*
X154737341Y-69884103D01*
X154737332Y-69884106D01*
X154573459Y-69951983D01*
X154573446Y-69951990D01*
X154443891Y-70038557D01*
X154377213Y-70059435D01*
X154309833Y-70040950D01*
X154306109Y-70038557D01*
X154176553Y-69951990D01*
X154176540Y-69951983D01*
X154012667Y-69884106D01*
X154012658Y-69884103D01*
X153838694Y-69849500D01*
X153838691Y-69849500D01*
X153661309Y-69849500D01*
X153661306Y-69849500D01*
X153487341Y-69884103D01*
X153487332Y-69884106D01*
X153323460Y-69951983D01*
X153323449Y-69951989D01*
X153266162Y-69990267D01*
X153199484Y-70011144D01*
X153133122Y-69993281D01*
X152989606Y-69906522D01*
X152917659Y-69884103D01*
X152827196Y-69855914D01*
X152827194Y-69855913D01*
X152827192Y-69855913D01*
X152777778Y-69851423D01*
X152756616Y-69849500D01*
X152243384Y-69849500D01*
X152224145Y-69851248D01*
X152172807Y-69855913D01*
X152010393Y-69906522D01*
X151864811Y-69994530D01*
X151744530Y-70114811D01*
X151656522Y-70260393D01*
X151605913Y-70422807D01*
X151599500Y-70493386D01*
X151599500Y-71506613D01*
X151605913Y-71577192D01*
X151605913Y-71577194D01*
X151605914Y-71577196D01*
X151625052Y-71638613D01*
X151626202Y-71708470D01*
X151589401Y-71767863D01*
X151526332Y-71797931D01*
X151506666Y-71799500D01*
X132179057Y-71799500D01*
X132020943Y-71799500D01*
X131868215Y-71840423D01*
X131868214Y-71840423D01*
X131868212Y-71840424D01*
X131868209Y-71840425D01*
X131818096Y-71869359D01*
X131818095Y-71869360D01*
X131791219Y-71884877D01*
X131731285Y-71919479D01*
X131731282Y-71919481D01*
X131662190Y-71988574D01*
X131619480Y-72031284D01*
X131619478Y-72031286D01*
X131451265Y-72199500D01*
X131287584Y-72363181D01*
X131226261Y-72396666D01*
X131199903Y-72399500D01*
X130579766Y-72399500D01*
X130512727Y-72379815D01*
X130510875Y-72378602D01*
X130379185Y-72290609D01*
X130379172Y-72290602D01*
X130233501Y-72230264D01*
X130233489Y-72230261D01*
X130078845Y-72199500D01*
X130078842Y-72199500D01*
X129921158Y-72199500D01*
X129921155Y-72199500D01*
X129766510Y-72230261D01*
X129766498Y-72230264D01*
X129620827Y-72290602D01*
X129620814Y-72290609D01*
X129489711Y-72378210D01*
X129489707Y-72378213D01*
X129378213Y-72489707D01*
X129378210Y-72489711D01*
X129290609Y-72620814D01*
X129290602Y-72620827D01*
X129230264Y-72766498D01*
X129230261Y-72766510D01*
X129199500Y-72921153D01*
X129199500Y-73078846D01*
X129230261Y-73233489D01*
X129230264Y-73233501D01*
X129290602Y-73379172D01*
X129290609Y-73379185D01*
X129378210Y-73510288D01*
X129378213Y-73510292D01*
X129489707Y-73621786D01*
X129489711Y-73621789D01*
X129620814Y-73709390D01*
X129620827Y-73709397D01*
X129758693Y-73766502D01*
X129766503Y-73769737D01*
X129921153Y-73800499D01*
X129921156Y-73800500D01*
X130050903Y-73800500D01*
X130117942Y-73820185D01*
X130163697Y-73872989D01*
X130173641Y-73942147D01*
X130144616Y-74005703D01*
X130138587Y-74012177D01*
X129984266Y-74166498D01*
X129951286Y-74199478D01*
X129839481Y-74311282D01*
X129839479Y-74311285D01*
X129789361Y-74398094D01*
X129789359Y-74398096D01*
X129760425Y-74448209D01*
X129760424Y-74448210D01*
X129754162Y-74471581D01*
X129719499Y-74600943D01*
X129719499Y-74600945D01*
X129719499Y-74769046D01*
X129719500Y-74769059D01*
X129719500Y-76992734D01*
X129699815Y-77059773D01*
X129698602Y-77061625D01*
X129610609Y-77193314D01*
X129610602Y-77193327D01*
X129550264Y-77338998D01*
X129550261Y-77339010D01*
X129519500Y-77493653D01*
X129519500Y-77651346D01*
X129550261Y-77805989D01*
X129550264Y-77806001D01*
X129610602Y-77951672D01*
X129610609Y-77951685D01*
X129698210Y-78082788D01*
X129698213Y-78082792D01*
X129813525Y-78198104D01*
X129847010Y-78259427D01*
X129842026Y-78329119D01*
X129800154Y-78385052D01*
X129794736Y-78388887D01*
X129702207Y-78450713D01*
X129590713Y-78562207D01*
X129590710Y-78562211D01*
X129503109Y-78693314D01*
X129503102Y-78693327D01*
X129442764Y-78838998D01*
X129442761Y-78839008D01*
X129411861Y-78994350D01*
X129379476Y-79056261D01*
X129377925Y-79057839D01*
X128739626Y-79696137D01*
X128678303Y-79729622D01*
X128676138Y-79730073D01*
X128642336Y-79736797D01*
X128642327Y-79736799D01*
X128496656Y-79797137D01*
X128496643Y-79797144D01*
X128365540Y-79884745D01*
X128365536Y-79884748D01*
X128254042Y-79996242D01*
X128254039Y-79996246D01*
X128166438Y-80127349D01*
X128166431Y-80127362D01*
X128106093Y-80273033D01*
X128106090Y-80273045D01*
X128075329Y-80427688D01*
X128075329Y-80585381D01*
X128106090Y-80740024D01*
X128106093Y-80740036D01*
X128166431Y-80885707D01*
X128166438Y-80885720D01*
X128254039Y-81016823D01*
X128254042Y-81016827D01*
X128275034Y-81037819D01*
X128308519Y-81099142D01*
X128303535Y-81168834D01*
X128261663Y-81224767D01*
X128196199Y-81249184D01*
X128187353Y-81249500D01*
X126862230Y-81249500D01*
X126795191Y-81229815D01*
X126774549Y-81213181D01*
X123092521Y-77531153D01*
X124844500Y-77531153D01*
X124844500Y-77688846D01*
X124875261Y-77843489D01*
X124875264Y-77843501D01*
X124935602Y-77989172D01*
X124935609Y-77989185D01*
X125023210Y-78120288D01*
X125023213Y-78120292D01*
X125134707Y-78231786D01*
X125134711Y-78231789D01*
X125265814Y-78319390D01*
X125265827Y-78319397D01*
X125411498Y-78379735D01*
X125411503Y-78379737D01*
X125536251Y-78404551D01*
X125566153Y-78410499D01*
X125566156Y-78410500D01*
X125566158Y-78410500D01*
X125723844Y-78410500D01*
X125723845Y-78410499D01*
X125878497Y-78379737D01*
X126011048Y-78324833D01*
X126024172Y-78319397D01*
X126024172Y-78319396D01*
X126024179Y-78319394D01*
X126155289Y-78231789D01*
X126266789Y-78120289D01*
X126354394Y-77989179D01*
X126414737Y-77843497D01*
X126445500Y-77688842D01*
X126445500Y-77531158D01*
X126445500Y-77531155D01*
X126445499Y-77531153D01*
X126438040Y-77493653D01*
X126414737Y-77376503D01*
X126384427Y-77303327D01*
X126354397Y-77230827D01*
X126354393Y-77230820D01*
X126329337Y-77193321D01*
X126316409Y-77173973D01*
X126295532Y-77107297D01*
X126314016Y-77039917D01*
X126331826Y-77017407D01*
X127514662Y-75834572D01*
X127575983Y-75801089D01*
X127578150Y-75800638D01*
X127636085Y-75789113D01*
X127733497Y-75769737D01*
X127879179Y-75709394D01*
X128010289Y-75621789D01*
X128121789Y-75510289D01*
X128209394Y-75379179D01*
X128269737Y-75233497D01*
X128300500Y-75078842D01*
X128300500Y-74921158D01*
X128300500Y-74921155D01*
X128300499Y-74921153D01*
X128283277Y-74834575D01*
X128269737Y-74766503D01*
X128250606Y-74720316D01*
X128209397Y-74620827D01*
X128209390Y-74620814D01*
X128121789Y-74489711D01*
X128121786Y-74489707D01*
X128010292Y-74378213D01*
X128010288Y-74378210D01*
X127879185Y-74290609D01*
X127879172Y-74290602D01*
X127733501Y-74230264D01*
X127733489Y-74230261D01*
X127578845Y-74199500D01*
X127578842Y-74199500D01*
X127421158Y-74199500D01*
X127421155Y-74199500D01*
X127266510Y-74230261D01*
X127266498Y-74230264D01*
X127120827Y-74290602D01*
X127120814Y-74290609D01*
X126989711Y-74378210D01*
X126989707Y-74378213D01*
X126878213Y-74489707D01*
X126878210Y-74489711D01*
X126790609Y-74620814D01*
X126790602Y-74620827D01*
X126730264Y-74766498D01*
X126730261Y-74766508D01*
X126699361Y-74921850D01*
X126666976Y-74983761D01*
X126665425Y-74985339D01*
X125164481Y-76486282D01*
X125164477Y-76486287D01*
X125122632Y-76558767D01*
X125122632Y-76558768D01*
X125085423Y-76623214D01*
X125085423Y-76623215D01*
X125044499Y-76775943D01*
X125044499Y-76775945D01*
X125044499Y-76944046D01*
X125044500Y-76944059D01*
X125044500Y-77030234D01*
X125024815Y-77097273D01*
X125023602Y-77099125D01*
X124935609Y-77230814D01*
X124935602Y-77230827D01*
X124875264Y-77376498D01*
X124875261Y-77376510D01*
X124844500Y-77531153D01*
X123092521Y-77531153D01*
X122478413Y-76917045D01*
X122420289Y-76878210D01*
X122397684Y-76863106D01*
X122355495Y-76834916D01*
X122355494Y-76834915D01*
X122355492Y-76834914D01*
X122355490Y-76834913D01*
X122218917Y-76778343D01*
X122218907Y-76778340D01*
X122073920Y-76749500D01*
X122073918Y-76749500D01*
X121804604Y-76749500D01*
X121757155Y-76740062D01*
X121733497Y-76730263D01*
X121733493Y-76730262D01*
X121733488Y-76730260D01*
X121578845Y-76699500D01*
X121578842Y-76699500D01*
X121421158Y-76699500D01*
X121421155Y-76699500D01*
X121266510Y-76730261D01*
X121266498Y-76730264D01*
X121198164Y-76758569D01*
X121128694Y-76766038D01*
X121066215Y-76734762D01*
X121063031Y-76731689D01*
X120991930Y-76660588D01*
X120991928Y-76660586D01*
X120851788Y-76558768D01*
X120697445Y-76480127D01*
X120532701Y-76426598D01*
X120532699Y-76426597D01*
X120532698Y-76426597D01*
X120401271Y-76405781D01*
X120361611Y-76399500D01*
X119638389Y-76399500D01*
X119598728Y-76405781D01*
X119467302Y-76426597D01*
X119302552Y-76480128D01*
X119148211Y-76558768D01*
X119068256Y-76616859D01*
X119008072Y-76660586D01*
X119008070Y-76660588D01*
X119008069Y-76660588D01*
X118885588Y-76783069D01*
X118885588Y-76783070D01*
X118885586Y-76783072D01*
X118847919Y-76834916D01*
X118783768Y-76923211D01*
X118705128Y-77077552D01*
X118651597Y-77242302D01*
X118624500Y-77413389D01*
X110500000Y-77413389D01*
X110500000Y-70397648D01*
X111699500Y-70397648D01*
X111699500Y-70602351D01*
X111731522Y-70804534D01*
X111794781Y-70999223D01*
X111858691Y-71124653D01*
X111867705Y-71142343D01*
X111887715Y-71181613D01*
X112008028Y-71347213D01*
X112152786Y-71491971D01*
X112269968Y-71577107D01*
X112318390Y-71612287D01*
X112434607Y-71671503D01*
X112500776Y-71705218D01*
X112500778Y-71705218D01*
X112500781Y-71705220D01*
X112605137Y-71739127D01*
X112695465Y-71768477D01*
X112796557Y-71784488D01*
X112897648Y-71800500D01*
X112897649Y-71800500D01*
X113102351Y-71800500D01*
X113102352Y-71800500D01*
X113304534Y-71768477D01*
X113499219Y-71705220D01*
X113681610Y-71612287D01*
X113774590Y-71544732D01*
X113827102Y-71506582D01*
X117850001Y-71506582D01*
X117856408Y-71577102D01*
X117856409Y-71577107D01*
X117906981Y-71739396D01*
X117994927Y-71884877D01*
X118115122Y-72005072D01*
X118260604Y-72093019D01*
X118260603Y-72093019D01*
X118422894Y-72143590D01*
X118422893Y-72143590D01*
X118493408Y-72149998D01*
X118493426Y-72149999D01*
X118499999Y-72149998D01*
X118500000Y-72149998D01*
X118500000Y-71250000D01*
X117850001Y-71250000D01*
X117850001Y-71506582D01*
X113827102Y-71506582D01*
X113847213Y-71491971D01*
X113847215Y-71491968D01*
X113847219Y-71491966D01*
X113991966Y-71347219D01*
X113991968Y-71347215D01*
X113991971Y-71347213D01*
X114112286Y-71181611D01*
X114132294Y-71142344D01*
X114205220Y-70999219D01*
X114221124Y-70950272D01*
X118500000Y-70950272D01*
X118500000Y-71049728D01*
X118538060Y-71141614D01*
X118608386Y-71211940D01*
X118700272Y-71250000D01*
X118799728Y-71250000D01*
X118891614Y-71211940D01*
X118961940Y-71141614D01*
X119000000Y-71049728D01*
X119000000Y-72149999D01*
X119006581Y-72149999D01*
X119077102Y-72143591D01*
X119077107Y-72143590D01*
X119239398Y-72093018D01*
X119382662Y-72006411D01*
X119450217Y-71988574D01*
X119515702Y-72009425D01*
X119573453Y-72048013D01*
X119573455Y-72048014D01*
X119573457Y-72048015D01*
X119682106Y-72093018D01*
X119737334Y-72115894D01*
X119737336Y-72115894D01*
X119737341Y-72115896D01*
X119911304Y-72150499D01*
X119911307Y-72150500D01*
X119911309Y-72150500D01*
X120088693Y-72150500D01*
X120088694Y-72150499D01*
X120146682Y-72138964D01*
X120262658Y-72115896D01*
X120262661Y-72115894D01*
X120262666Y-72115894D01*
X120426547Y-72048013D01*
X120556109Y-71961442D01*
X120622786Y-71940564D01*
X120690166Y-71959048D01*
X120693891Y-71961442D01*
X120823453Y-72048013D01*
X120823455Y-72048014D01*
X120823459Y-72048016D01*
X120932106Y-72093018D01*
X120987334Y-72115894D01*
X120987336Y-72115894D01*
X120987341Y-72115896D01*
X121161304Y-72150499D01*
X121161307Y-72150500D01*
X121161309Y-72150500D01*
X121338693Y-72150500D01*
X121338694Y-72150499D01*
X121396682Y-72138964D01*
X121512658Y-72115896D01*
X121512661Y-72115894D01*
X121512666Y-72115894D01*
X121676547Y-72048013D01*
X121806109Y-71961442D01*
X121872786Y-71940564D01*
X121940166Y-71959048D01*
X121943891Y-71961442D01*
X122073453Y-72048013D01*
X122073455Y-72048014D01*
X122073459Y-72048016D01*
X122182106Y-72093018D01*
X122237334Y-72115894D01*
X122237336Y-72115894D01*
X122237341Y-72115896D01*
X122411304Y-72150499D01*
X122411307Y-72150500D01*
X122411309Y-72150500D01*
X122588693Y-72150500D01*
X122588694Y-72150499D01*
X122646682Y-72138964D01*
X122762658Y-72115896D01*
X122762661Y-72115894D01*
X122762666Y-72115894D01*
X122926547Y-72048013D01*
X123056109Y-71961442D01*
X123122786Y-71940564D01*
X123190166Y-71959048D01*
X123193891Y-71961442D01*
X123323453Y-72048013D01*
X123323455Y-72048014D01*
X123323459Y-72048016D01*
X123432106Y-72093018D01*
X123487334Y-72115894D01*
X123487336Y-72115894D01*
X123487341Y-72115896D01*
X123661304Y-72150499D01*
X123661307Y-72150500D01*
X123661309Y-72150500D01*
X123838693Y-72150500D01*
X123838694Y-72150499D01*
X123896682Y-72138964D01*
X124012658Y-72115896D01*
X124012661Y-72115894D01*
X124012666Y-72115894D01*
X124176547Y-72048013D01*
X124306109Y-71961442D01*
X124372786Y-71940564D01*
X124440166Y-71959048D01*
X124443891Y-71961442D01*
X124573453Y-72048013D01*
X124573455Y-72048014D01*
X124573459Y-72048016D01*
X124682106Y-72093018D01*
X124737334Y-72115894D01*
X124737336Y-72115894D01*
X124737341Y-72115896D01*
X124911304Y-72150499D01*
X124911307Y-72150500D01*
X124911309Y-72150500D01*
X125088693Y-72150500D01*
X125088694Y-72150499D01*
X125146682Y-72138964D01*
X125262658Y-72115896D01*
X125262661Y-72115894D01*
X125262666Y-72115894D01*
X125426547Y-72048013D01*
X125556109Y-71961442D01*
X125622786Y-71940564D01*
X125690166Y-71959048D01*
X125693891Y-71961442D01*
X125823453Y-72048013D01*
X125823455Y-72048014D01*
X125823459Y-72048016D01*
X125932106Y-72093018D01*
X125987334Y-72115894D01*
X125987336Y-72115894D01*
X125987341Y-72115896D01*
X126161304Y-72150499D01*
X126161307Y-72150500D01*
X126161309Y-72150500D01*
X126338693Y-72150500D01*
X126338694Y-72150499D01*
X126396682Y-72138964D01*
X126512658Y-72115896D01*
X126512661Y-72115894D01*
X126512666Y-72115894D01*
X126676547Y-72048013D01*
X126806109Y-71961442D01*
X126872786Y-71940564D01*
X126940166Y-71959048D01*
X126943891Y-71961442D01*
X127073453Y-72048013D01*
X127073455Y-72048014D01*
X127073459Y-72048016D01*
X127182106Y-72093018D01*
X127237334Y-72115894D01*
X127237336Y-72115894D01*
X127237341Y-72115896D01*
X127411304Y-72150499D01*
X127411307Y-72150500D01*
X127411309Y-72150500D01*
X127588693Y-72150500D01*
X127588694Y-72150499D01*
X127646682Y-72138964D01*
X127762658Y-72115896D01*
X127762661Y-72115894D01*
X127762666Y-72115894D01*
X127926547Y-72048013D01*
X128074035Y-71949464D01*
X128199464Y-71824035D01*
X128298013Y-71676547D01*
X128365894Y-71512666D01*
X128367098Y-71506616D01*
X128388964Y-71396682D01*
X128400500Y-71338691D01*
X128400500Y-70661309D01*
X128400500Y-70661306D01*
X128400499Y-70661304D01*
X128365896Y-70487341D01*
X128365893Y-70487332D01*
X128298016Y-70323459D01*
X128298009Y-70323446D01*
X128199464Y-70175965D01*
X128199461Y-70175961D01*
X128074038Y-70050538D01*
X128074034Y-70050535D01*
X127926553Y-69951990D01*
X127926540Y-69951983D01*
X127762667Y-69884106D01*
X127762658Y-69884103D01*
X127588694Y-69849500D01*
X127588691Y-69849500D01*
X127411309Y-69849500D01*
X127411306Y-69849500D01*
X127237341Y-69884103D01*
X127237332Y-69884106D01*
X127073459Y-69951983D01*
X127073446Y-69951990D01*
X126943891Y-70038557D01*
X126877213Y-70059435D01*
X126809833Y-70040950D01*
X126806109Y-70038557D01*
X126676553Y-69951990D01*
X126676540Y-69951983D01*
X126512667Y-69884106D01*
X126512658Y-69884103D01*
X126338694Y-69849500D01*
X126338691Y-69849500D01*
X126161309Y-69849500D01*
X126161306Y-69849500D01*
X125987341Y-69884103D01*
X125987332Y-69884106D01*
X125823459Y-69951983D01*
X125823446Y-69951990D01*
X125693891Y-70038557D01*
X125627213Y-70059435D01*
X125559833Y-70040950D01*
X125556109Y-70038557D01*
X125426553Y-69951990D01*
X125426540Y-69951983D01*
X125262667Y-69884106D01*
X125262658Y-69884103D01*
X125088694Y-69849500D01*
X125088691Y-69849500D01*
X124911309Y-69849500D01*
X124911306Y-69849500D01*
X124737341Y-69884103D01*
X124737332Y-69884106D01*
X124573459Y-69951983D01*
X124573446Y-69951990D01*
X124443891Y-70038557D01*
X124377213Y-70059435D01*
X124309833Y-70040950D01*
X124306109Y-70038557D01*
X124176553Y-69951990D01*
X124176540Y-69951983D01*
X124012667Y-69884106D01*
X124012658Y-69884103D01*
X123838694Y-69849500D01*
X123838691Y-69849500D01*
X123661309Y-69849500D01*
X123661306Y-69849500D01*
X123487341Y-69884103D01*
X123487332Y-69884106D01*
X123323459Y-69951983D01*
X123323446Y-69951990D01*
X123193891Y-70038557D01*
X123127213Y-70059435D01*
X123059833Y-70040950D01*
X123056109Y-70038557D01*
X122926553Y-69951990D01*
X122926540Y-69951983D01*
X122762667Y-69884106D01*
X122762658Y-69884103D01*
X122588694Y-69849500D01*
X122588691Y-69849500D01*
X122411309Y-69849500D01*
X122411306Y-69849500D01*
X122237341Y-69884103D01*
X122237332Y-69884106D01*
X122073459Y-69951983D01*
X122073446Y-69951990D01*
X121943891Y-70038557D01*
X121877213Y-70059435D01*
X121809833Y-70040950D01*
X121806109Y-70038557D01*
X121676553Y-69951990D01*
X121676540Y-69951983D01*
X121512667Y-69884106D01*
X121512658Y-69884103D01*
X121338694Y-69849500D01*
X121338691Y-69849500D01*
X121161309Y-69849500D01*
X121161306Y-69849500D01*
X120987341Y-69884103D01*
X120987332Y-69884106D01*
X120823459Y-69951983D01*
X120823446Y-69951990D01*
X120693891Y-70038557D01*
X120627213Y-70059435D01*
X120559833Y-70040950D01*
X120556109Y-70038557D01*
X120426553Y-69951990D01*
X120426540Y-69951983D01*
X120262667Y-69884106D01*
X120262658Y-69884103D01*
X120088694Y-69849500D01*
X120088691Y-69849500D01*
X119911309Y-69849500D01*
X119911306Y-69849500D01*
X119737341Y-69884103D01*
X119737332Y-69884106D01*
X119573459Y-69951983D01*
X119573448Y-69951989D01*
X119515702Y-69990574D01*
X119449024Y-70011451D01*
X119382662Y-69993588D01*
X119239395Y-69906980D01*
X119239396Y-69906980D01*
X119077105Y-69856409D01*
X119077106Y-69856409D01*
X119006572Y-69850000D01*
X119000000Y-69850000D01*
X119000000Y-70950272D01*
X118961940Y-70858386D01*
X118891614Y-70788060D01*
X118799728Y-70750000D01*
X118700272Y-70750000D01*
X118608386Y-70788060D01*
X118538060Y-70858386D01*
X118500000Y-70950272D01*
X114221124Y-70950272D01*
X114268477Y-70804534D01*
X114300500Y-70602352D01*
X114300500Y-70493427D01*
X117850000Y-70493427D01*
X117850000Y-70750000D01*
X118500000Y-70750000D01*
X118500000Y-69850000D01*
X118499999Y-69849999D01*
X118493436Y-69850000D01*
X118493417Y-69850001D01*
X118422897Y-69856408D01*
X118422892Y-69856409D01*
X118260603Y-69906981D01*
X118115122Y-69994927D01*
X117994927Y-70115122D01*
X117906980Y-70260604D01*
X117856409Y-70422893D01*
X117850000Y-70493427D01*
X114300500Y-70493427D01*
X114300500Y-70397648D01*
X114288749Y-70323459D01*
X114268477Y-70195465D01*
X114219404Y-70044436D01*
X114205220Y-70000781D01*
X114205218Y-70000778D01*
X114205218Y-70000776D01*
X114157426Y-69906980D01*
X114112287Y-69818390D01*
X114104556Y-69807749D01*
X113991971Y-69652786D01*
X113847213Y-69508028D01*
X113681613Y-69387715D01*
X113681612Y-69387714D01*
X113681610Y-69387713D01*
X113624653Y-69358691D01*
X113499223Y-69294781D01*
X113304534Y-69231522D01*
X113129995Y-69203878D01*
X113102352Y-69199500D01*
X112897648Y-69199500D01*
X112873329Y-69203351D01*
X112695465Y-69231522D01*
X112500776Y-69294781D01*
X112318386Y-69387715D01*
X112152786Y-69508028D01*
X112008028Y-69652786D01*
X111887715Y-69818386D01*
X111794781Y-70000776D01*
X111731522Y-70195465D01*
X111699500Y-70397648D01*
X110500000Y-70397648D01*
X110500000Y-68124000D01*
X110519685Y-68056961D01*
X110572489Y-68011206D01*
X110624000Y-68000000D01*
X170876000Y-68000000D01*
X170943039Y-68019685D01*
G37*
G04 #@! TD.AperFunction*
M02*
