M48
; DRILL file {KiCad 9.0.0} date 2025-03-21T14:48:59+1100
; FORMAT={-:-/ absolute / metric / decimal}
; #@! TF.CreationDate,2025-03-21T14:48:59+11:00
; #@! TF.GenerationSoftware,Kicad,Pcbnew,9.0.0
; #@! TF.FileFunction,Plated,1,2,PTH
FMAT,2
METRIC
; #@! TA.AperFunction,Plated,PTH,ViaDrill
T1C0.300
; #@! TA.AperFunction,Plated,PTH,ComponentDrill
T2C0.500
; #@! TA.AperFunction,Plated,PTH,ComponentDrill
T3C0.750
; #@! TA.AperFunction,Plated,PTH,ComponentDrill
T4C1.219
%
G90
G05
T1
X121.5Y-77.5
X125.645Y-77.61
X127.5Y-75.0
X128.876Y-80.507
X130.0Y-73.0
X130.213Y-79.072
X130.32Y-77.572
X131.0Y-74.0
X133.25Y-82.0
X134.5Y-74.4
X134.607Y-77.682
X139.0Y-71.0
X139.0Y-74.0
X143.822Y-77.5
X146.0Y-71.0
X146.0Y-74.0
X146.497Y-80.002
X150.695Y-78.421
X151.426Y-78.502
X151.5Y-73.0
X154.25Y-82.75
X154.301Y-76.0
X154.35Y-80.0
X155.801Y-78.35
T2
X118.75Y-71.0
X120.0Y-71.0
X121.25Y-71.0
X122.5Y-71.0
X123.75Y-71.0
X125.0Y-71.0
X126.25Y-71.0
X127.5Y-71.0
X152.5Y-71.0
X153.75Y-71.0
X155.0Y-71.0
X156.25Y-71.0
X157.5Y-71.0
X158.75Y-71.0
X160.0Y-71.0
X161.25Y-71.0
X162.5Y-71.0
T3
X120.0Y-77.5
X120.0Y-79.5
X162.5Y-77.5
X162.5Y-79.5
T4
X119.536Y-91.08
X122.0Y-88.464
X127.156Y-86.0
X127.156Y-93.544
X136.88Y-91.116
X139.344Y-88.5
X144.5Y-86.036
X144.5Y-93.58
X154.38Y-91.08
X156.844Y-88.464
X162.0Y-86.0
X162.0Y-93.544
M30
