%TF.GenerationSoftware,KiCad,Pcbnew,9.0.0*%
%TF.CreationDate,2025-03-21T14:48:59+11:00*%
%TF.ProjectId,PCB_BackDesign,5043425f-4261-4636-9b44-657369676e2e,rev?*%
%TF.SameCoordinates,Original*%
%TF.FileFunction,Drillmap*%
%TF.FilePolarity,Positive*%
%FSLAX45Y45*%
G04 Gerber Fmt 4.5, Leading zero omitted, Abs format (unit mm)*
G04 Created by KiCad (PCBNEW 9.0.0) date 2025-03-21 14:48:59*
%MOMM*%
%LPD*%
G01*
G04 APERTURE LIST*
%ADD10C,0.050000*%
%ADD11C,0.200000*%
%ADD12C,0.220000*%
G04 APERTURE END LIST*
D10*
X17200000Y-6700000D02*
X17200000Y-9900000D01*
X10950000Y-6700000D02*
X17200000Y-6700000D01*
X17200000Y-9900000D02*
X10950000Y-9900000D01*
X10950000Y-9900000D02*
X10950000Y-6700000D01*
D11*
D12*
X11190000Y-6940000D02*
X11410000Y-7160000D01*
X11410000Y-6940000D02*
X11190000Y-7160000D01*
X11190000Y-9440000D02*
X11410000Y-9660000D01*
X11410000Y-9440000D02*
X11190000Y-9660000D01*
X16740000Y-6940000D02*
X16960000Y-7160000D01*
X16960000Y-6940000D02*
X16740000Y-7160000D01*
X16740000Y-9440000D02*
X16960000Y-9660000D01*
X16960000Y-9440000D02*
X16740000Y-9660000D01*
D11*
X11208277Y-10213984D02*
X11208277Y-10013984D01*
X11208277Y-10013984D02*
X11255896Y-10013984D01*
X11255896Y-10013984D02*
X11284467Y-10023508D01*
X11284467Y-10023508D02*
X11303515Y-10042555D01*
X11303515Y-10042555D02*
X11313039Y-10061603D01*
X11313039Y-10061603D02*
X11322562Y-10099698D01*
X11322562Y-10099698D02*
X11322562Y-10128270D01*
X11322562Y-10128270D02*
X11313039Y-10166365D01*
X11313039Y-10166365D02*
X11303515Y-10185412D01*
X11303515Y-10185412D02*
X11284467Y-10204460D01*
X11284467Y-10204460D02*
X11255896Y-10213984D01*
X11255896Y-10213984D02*
X11208277Y-10213984D01*
X11408277Y-10213984D02*
X11408277Y-10080650D01*
X11408277Y-10118746D02*
X11417801Y-10099698D01*
X11417801Y-10099698D02*
X11427324Y-10090174D01*
X11427324Y-10090174D02*
X11446372Y-10080650D01*
X11446372Y-10080650D02*
X11465420Y-10080650D01*
X11532086Y-10213984D02*
X11532086Y-10080650D01*
X11532086Y-10013984D02*
X11522562Y-10023508D01*
X11522562Y-10023508D02*
X11532086Y-10033031D01*
X11532086Y-10033031D02*
X11541610Y-10023508D01*
X11541610Y-10023508D02*
X11532086Y-10013984D01*
X11532086Y-10013984D02*
X11532086Y-10033031D01*
X11655896Y-10213984D02*
X11636848Y-10204460D01*
X11636848Y-10204460D02*
X11627324Y-10185412D01*
X11627324Y-10185412D02*
X11627324Y-10013984D01*
X11760658Y-10213984D02*
X11741610Y-10204460D01*
X11741610Y-10204460D02*
X11732086Y-10185412D01*
X11732086Y-10185412D02*
X11732086Y-10013984D01*
X11989229Y-10213984D02*
X11989229Y-10013984D01*
X11989229Y-10013984D02*
X12055896Y-10156841D01*
X12055896Y-10156841D02*
X12122562Y-10013984D01*
X12122562Y-10013984D02*
X12122562Y-10213984D01*
X12303515Y-10213984D02*
X12303515Y-10109222D01*
X12303515Y-10109222D02*
X12293991Y-10090174D01*
X12293991Y-10090174D02*
X12274943Y-10080650D01*
X12274943Y-10080650D02*
X12236848Y-10080650D01*
X12236848Y-10080650D02*
X12217801Y-10090174D01*
X12303515Y-10204460D02*
X12284467Y-10213984D01*
X12284467Y-10213984D02*
X12236848Y-10213984D01*
X12236848Y-10213984D02*
X12217801Y-10204460D01*
X12217801Y-10204460D02*
X12208277Y-10185412D01*
X12208277Y-10185412D02*
X12208277Y-10166365D01*
X12208277Y-10166365D02*
X12217801Y-10147317D01*
X12217801Y-10147317D02*
X12236848Y-10137793D01*
X12236848Y-10137793D02*
X12284467Y-10137793D01*
X12284467Y-10137793D02*
X12303515Y-10128270D01*
X12398753Y-10080650D02*
X12398753Y-10280650D01*
X12398753Y-10090174D02*
X12417801Y-10080650D01*
X12417801Y-10080650D02*
X12455896Y-10080650D01*
X12455896Y-10080650D02*
X12474943Y-10090174D01*
X12474943Y-10090174D02*
X12484467Y-10099698D01*
X12484467Y-10099698D02*
X12493991Y-10118746D01*
X12493991Y-10118746D02*
X12493991Y-10175889D01*
X12493991Y-10175889D02*
X12484467Y-10194936D01*
X12484467Y-10194936D02*
X12474943Y-10204460D01*
X12474943Y-10204460D02*
X12455896Y-10213984D01*
X12455896Y-10213984D02*
X12417801Y-10213984D01*
X12417801Y-10213984D02*
X12398753Y-10204460D01*
X12579705Y-10194936D02*
X12589229Y-10204460D01*
X12589229Y-10204460D02*
X12579705Y-10213984D01*
X12579705Y-10213984D02*
X12570182Y-10204460D01*
X12570182Y-10204460D02*
X12579705Y-10194936D01*
X12579705Y-10194936D02*
X12579705Y-10213984D01*
X12579705Y-10090174D02*
X12589229Y-10099698D01*
X12589229Y-10099698D02*
X12579705Y-10109222D01*
X12579705Y-10109222D02*
X12570182Y-10099698D01*
X12570182Y-10099698D02*
X12579705Y-10090174D01*
X12579705Y-10090174D02*
X12579705Y-10109222D01*
X10747500Y-10442500D02*
X10947500Y-10642500D01*
X10947500Y-10442500D02*
X10747500Y-10642500D01*
X11198753Y-10453031D02*
X11208277Y-10443508D01*
X11208277Y-10443508D02*
X11227324Y-10433984D01*
X11227324Y-10433984D02*
X11274943Y-10433984D01*
X11274943Y-10433984D02*
X11293991Y-10443508D01*
X11293991Y-10443508D02*
X11303515Y-10453031D01*
X11303515Y-10453031D02*
X11313039Y-10472079D01*
X11313039Y-10472079D02*
X11313039Y-10491127D01*
X11313039Y-10491127D02*
X11303515Y-10519698D01*
X11303515Y-10519698D02*
X11189229Y-10633984D01*
X11189229Y-10633984D02*
X11313039Y-10633984D01*
X11398753Y-10614936D02*
X11408277Y-10624460D01*
X11408277Y-10624460D02*
X11398753Y-10633984D01*
X11398753Y-10633984D02*
X11389229Y-10624460D01*
X11389229Y-10624460D02*
X11398753Y-10614936D01*
X11398753Y-10614936D02*
X11398753Y-10633984D01*
X11484467Y-10453031D02*
X11493991Y-10443508D01*
X11493991Y-10443508D02*
X11513039Y-10433984D01*
X11513039Y-10433984D02*
X11560658Y-10433984D01*
X11560658Y-10433984D02*
X11579705Y-10443508D01*
X11579705Y-10443508D02*
X11589229Y-10453031D01*
X11589229Y-10453031D02*
X11598753Y-10472079D01*
X11598753Y-10472079D02*
X11598753Y-10491127D01*
X11598753Y-10491127D02*
X11589229Y-10519698D01*
X11589229Y-10519698D02*
X11474943Y-10633984D01*
X11474943Y-10633984D02*
X11598753Y-10633984D01*
X11722562Y-10433984D02*
X11741610Y-10433984D01*
X11741610Y-10433984D02*
X11760658Y-10443508D01*
X11760658Y-10443508D02*
X11770182Y-10453031D01*
X11770182Y-10453031D02*
X11779705Y-10472079D01*
X11779705Y-10472079D02*
X11789229Y-10510174D01*
X11789229Y-10510174D02*
X11789229Y-10557793D01*
X11789229Y-10557793D02*
X11779705Y-10595889D01*
X11779705Y-10595889D02*
X11770182Y-10614936D01*
X11770182Y-10614936D02*
X11760658Y-10624460D01*
X11760658Y-10624460D02*
X11741610Y-10633984D01*
X11741610Y-10633984D02*
X11722562Y-10633984D01*
X11722562Y-10633984D02*
X11703515Y-10624460D01*
X11703515Y-10624460D02*
X11693991Y-10614936D01*
X11693991Y-10614936D02*
X11684467Y-10595889D01*
X11684467Y-10595889D02*
X11674943Y-10557793D01*
X11674943Y-10557793D02*
X11674943Y-10510174D01*
X11674943Y-10510174D02*
X11684467Y-10472079D01*
X11684467Y-10472079D02*
X11693991Y-10453031D01*
X11693991Y-10453031D02*
X11703515Y-10443508D01*
X11703515Y-10443508D02*
X11722562Y-10433984D01*
X11913039Y-10433984D02*
X11932086Y-10433984D01*
X11932086Y-10433984D02*
X11951134Y-10443508D01*
X11951134Y-10443508D02*
X11960658Y-10453031D01*
X11960658Y-10453031D02*
X11970182Y-10472079D01*
X11970182Y-10472079D02*
X11979705Y-10510174D01*
X11979705Y-10510174D02*
X11979705Y-10557793D01*
X11979705Y-10557793D02*
X11970182Y-10595889D01*
X11970182Y-10595889D02*
X11960658Y-10614936D01*
X11960658Y-10614936D02*
X11951134Y-10624460D01*
X11951134Y-10624460D02*
X11932086Y-10633984D01*
X11932086Y-10633984D02*
X11913039Y-10633984D01*
X11913039Y-10633984D02*
X11893991Y-10624460D01*
X11893991Y-10624460D02*
X11884467Y-10614936D01*
X11884467Y-10614936D02*
X11874943Y-10595889D01*
X11874943Y-10595889D02*
X11865420Y-10557793D01*
X11865420Y-10557793D02*
X11865420Y-10510174D01*
X11865420Y-10510174D02*
X11874943Y-10472079D01*
X11874943Y-10472079D02*
X11884467Y-10453031D01*
X11884467Y-10453031D02*
X11893991Y-10443508D01*
X11893991Y-10443508D02*
X11913039Y-10433984D01*
X12065420Y-10633984D02*
X12065420Y-10500650D01*
X12065420Y-10519698D02*
X12074943Y-10510174D01*
X12074943Y-10510174D02*
X12093991Y-10500650D01*
X12093991Y-10500650D02*
X12122563Y-10500650D01*
X12122563Y-10500650D02*
X12141610Y-10510174D01*
X12141610Y-10510174D02*
X12151134Y-10529222D01*
X12151134Y-10529222D02*
X12151134Y-10633984D01*
X12151134Y-10529222D02*
X12160658Y-10510174D01*
X12160658Y-10510174D02*
X12179705Y-10500650D01*
X12179705Y-10500650D02*
X12208277Y-10500650D01*
X12208277Y-10500650D02*
X12227324Y-10510174D01*
X12227324Y-10510174D02*
X12236848Y-10529222D01*
X12236848Y-10529222D02*
X12236848Y-10633984D01*
X12332086Y-10633984D02*
X12332086Y-10500650D01*
X12332086Y-10519698D02*
X12341610Y-10510174D01*
X12341610Y-10510174D02*
X12360658Y-10500650D01*
X12360658Y-10500650D02*
X12389229Y-10500650D01*
X12389229Y-10500650D02*
X12408277Y-10510174D01*
X12408277Y-10510174D02*
X12417801Y-10529222D01*
X12417801Y-10529222D02*
X12417801Y-10633984D01*
X12417801Y-10529222D02*
X12427324Y-10510174D01*
X12427324Y-10510174D02*
X12446372Y-10500650D01*
X12446372Y-10500650D02*
X12474943Y-10500650D01*
X12474943Y-10500650D02*
X12493991Y-10510174D01*
X12493991Y-10510174D02*
X12503515Y-10529222D01*
X12503515Y-10529222D02*
X12503515Y-10633984D01*
X12893991Y-10424460D02*
X12722563Y-10681603D01*
X13151134Y-10433984D02*
X13170182Y-10433984D01*
X13170182Y-10433984D02*
X13189229Y-10443508D01*
X13189229Y-10443508D02*
X13198753Y-10453031D01*
X13198753Y-10453031D02*
X13208277Y-10472079D01*
X13208277Y-10472079D02*
X13217801Y-10510174D01*
X13217801Y-10510174D02*
X13217801Y-10557793D01*
X13217801Y-10557793D02*
X13208277Y-10595889D01*
X13208277Y-10595889D02*
X13198753Y-10614936D01*
X13198753Y-10614936D02*
X13189229Y-10624460D01*
X13189229Y-10624460D02*
X13170182Y-10633984D01*
X13170182Y-10633984D02*
X13151134Y-10633984D01*
X13151134Y-10633984D02*
X13132086Y-10624460D01*
X13132086Y-10624460D02*
X13122563Y-10614936D01*
X13122563Y-10614936D02*
X13113039Y-10595889D01*
X13113039Y-10595889D02*
X13103515Y-10557793D01*
X13103515Y-10557793D02*
X13103515Y-10510174D01*
X13103515Y-10510174D02*
X13113039Y-10472079D01*
X13113039Y-10472079D02*
X13122563Y-10453031D01*
X13122563Y-10453031D02*
X13132086Y-10443508D01*
X13132086Y-10443508D02*
X13151134Y-10433984D01*
X13303515Y-10614936D02*
X13313039Y-10624460D01*
X13313039Y-10624460D02*
X13303515Y-10633984D01*
X13303515Y-10633984D02*
X13293991Y-10624460D01*
X13293991Y-10624460D02*
X13303515Y-10614936D01*
X13303515Y-10614936D02*
X13303515Y-10633984D01*
X13436848Y-10433984D02*
X13455896Y-10433984D01*
X13455896Y-10433984D02*
X13474944Y-10443508D01*
X13474944Y-10443508D02*
X13484467Y-10453031D01*
X13484467Y-10453031D02*
X13493991Y-10472079D01*
X13493991Y-10472079D02*
X13503515Y-10510174D01*
X13503515Y-10510174D02*
X13503515Y-10557793D01*
X13503515Y-10557793D02*
X13493991Y-10595889D01*
X13493991Y-10595889D02*
X13484467Y-10614936D01*
X13484467Y-10614936D02*
X13474944Y-10624460D01*
X13474944Y-10624460D02*
X13455896Y-10633984D01*
X13455896Y-10633984D02*
X13436848Y-10633984D01*
X13436848Y-10633984D02*
X13417801Y-10624460D01*
X13417801Y-10624460D02*
X13408277Y-10614936D01*
X13408277Y-10614936D02*
X13398753Y-10595889D01*
X13398753Y-10595889D02*
X13389229Y-10557793D01*
X13389229Y-10557793D02*
X13389229Y-10510174D01*
X13389229Y-10510174D02*
X13398753Y-10472079D01*
X13398753Y-10472079D02*
X13408277Y-10453031D01*
X13408277Y-10453031D02*
X13417801Y-10443508D01*
X13417801Y-10443508D02*
X13436848Y-10433984D01*
X13617801Y-10519698D02*
X13598753Y-10510174D01*
X13598753Y-10510174D02*
X13589229Y-10500650D01*
X13589229Y-10500650D02*
X13579706Y-10481603D01*
X13579706Y-10481603D02*
X13579706Y-10472079D01*
X13579706Y-10472079D02*
X13589229Y-10453031D01*
X13589229Y-10453031D02*
X13598753Y-10443508D01*
X13598753Y-10443508D02*
X13617801Y-10433984D01*
X13617801Y-10433984D02*
X13655896Y-10433984D01*
X13655896Y-10433984D02*
X13674944Y-10443508D01*
X13674944Y-10443508D02*
X13684467Y-10453031D01*
X13684467Y-10453031D02*
X13693991Y-10472079D01*
X13693991Y-10472079D02*
X13693991Y-10481603D01*
X13693991Y-10481603D02*
X13684467Y-10500650D01*
X13684467Y-10500650D02*
X13674944Y-10510174D01*
X13674944Y-10510174D02*
X13655896Y-10519698D01*
X13655896Y-10519698D02*
X13617801Y-10519698D01*
X13617801Y-10519698D02*
X13598753Y-10529222D01*
X13598753Y-10529222D02*
X13589229Y-10538746D01*
X13589229Y-10538746D02*
X13579706Y-10557793D01*
X13579706Y-10557793D02*
X13579706Y-10595889D01*
X13579706Y-10595889D02*
X13589229Y-10614936D01*
X13589229Y-10614936D02*
X13598753Y-10624460D01*
X13598753Y-10624460D02*
X13617801Y-10633984D01*
X13617801Y-10633984D02*
X13655896Y-10633984D01*
X13655896Y-10633984D02*
X13674944Y-10624460D01*
X13674944Y-10624460D02*
X13684467Y-10614936D01*
X13684467Y-10614936D02*
X13693991Y-10595889D01*
X13693991Y-10595889D02*
X13693991Y-10557793D01*
X13693991Y-10557793D02*
X13684467Y-10538746D01*
X13684467Y-10538746D02*
X13674944Y-10529222D01*
X13674944Y-10529222D02*
X13655896Y-10519698D01*
X13865420Y-10433984D02*
X13827325Y-10433984D01*
X13827325Y-10433984D02*
X13808277Y-10443508D01*
X13808277Y-10443508D02*
X13798753Y-10453031D01*
X13798753Y-10453031D02*
X13779706Y-10481603D01*
X13779706Y-10481603D02*
X13770182Y-10519698D01*
X13770182Y-10519698D02*
X13770182Y-10595889D01*
X13770182Y-10595889D02*
X13779706Y-10614936D01*
X13779706Y-10614936D02*
X13789229Y-10624460D01*
X13789229Y-10624460D02*
X13808277Y-10633984D01*
X13808277Y-10633984D02*
X13846372Y-10633984D01*
X13846372Y-10633984D02*
X13865420Y-10624460D01*
X13865420Y-10624460D02*
X13874944Y-10614936D01*
X13874944Y-10614936D02*
X13884467Y-10595889D01*
X13884467Y-10595889D02*
X13884467Y-10548270D01*
X13884467Y-10548270D02*
X13874944Y-10529222D01*
X13874944Y-10529222D02*
X13865420Y-10519698D01*
X13865420Y-10519698D02*
X13846372Y-10510174D01*
X13846372Y-10510174D02*
X13808277Y-10510174D01*
X13808277Y-10510174D02*
X13789229Y-10519698D01*
X13789229Y-10519698D02*
X13779706Y-10529222D01*
X13779706Y-10529222D02*
X13770182Y-10548270D01*
X14055896Y-10433984D02*
X14017801Y-10433984D01*
X14017801Y-10433984D02*
X13998753Y-10443508D01*
X13998753Y-10443508D02*
X13989229Y-10453031D01*
X13989229Y-10453031D02*
X13970182Y-10481603D01*
X13970182Y-10481603D02*
X13960658Y-10519698D01*
X13960658Y-10519698D02*
X13960658Y-10595889D01*
X13960658Y-10595889D02*
X13970182Y-10614936D01*
X13970182Y-10614936D02*
X13979706Y-10624460D01*
X13979706Y-10624460D02*
X13998753Y-10633984D01*
X13998753Y-10633984D02*
X14036848Y-10633984D01*
X14036848Y-10633984D02*
X14055896Y-10624460D01*
X14055896Y-10624460D02*
X14065420Y-10614936D01*
X14065420Y-10614936D02*
X14074944Y-10595889D01*
X14074944Y-10595889D02*
X14074944Y-10548270D01*
X14074944Y-10548270D02*
X14065420Y-10529222D01*
X14065420Y-10529222D02*
X14055896Y-10519698D01*
X14055896Y-10519698D02*
X14036848Y-10510174D01*
X14036848Y-10510174D02*
X13998753Y-10510174D01*
X13998753Y-10510174D02*
X13979706Y-10519698D01*
X13979706Y-10519698D02*
X13970182Y-10529222D01*
X13970182Y-10529222D02*
X13960658Y-10548270D01*
X14151134Y-10433984D02*
X14151134Y-10472079D01*
X14227325Y-10433984D02*
X14227325Y-10472079D01*
X14522563Y-10710174D02*
X14513039Y-10700650D01*
X14513039Y-10700650D02*
X14493991Y-10672079D01*
X14493991Y-10672079D02*
X14484468Y-10653031D01*
X14484468Y-10653031D02*
X14474944Y-10624460D01*
X14474944Y-10624460D02*
X14465420Y-10576841D01*
X14465420Y-10576841D02*
X14465420Y-10538746D01*
X14465420Y-10538746D02*
X14474944Y-10491127D01*
X14474944Y-10491127D02*
X14484468Y-10462555D01*
X14484468Y-10462555D02*
X14493991Y-10443508D01*
X14493991Y-10443508D02*
X14513039Y-10414936D01*
X14513039Y-10414936D02*
X14522563Y-10405412D01*
X14684468Y-10500650D02*
X14684468Y-10633984D01*
X14636848Y-10424460D02*
X14589229Y-10567317D01*
X14589229Y-10567317D02*
X14713039Y-10567317D01*
X14941610Y-10633984D02*
X14941610Y-10433984D01*
X15027325Y-10633984D02*
X15027325Y-10529222D01*
X15027325Y-10529222D02*
X15017801Y-10510174D01*
X15017801Y-10510174D02*
X14998753Y-10500650D01*
X14998753Y-10500650D02*
X14970182Y-10500650D01*
X14970182Y-10500650D02*
X14951134Y-10510174D01*
X14951134Y-10510174D02*
X14941610Y-10519698D01*
X15151134Y-10633984D02*
X15132087Y-10624460D01*
X15132087Y-10624460D02*
X15122563Y-10614936D01*
X15122563Y-10614936D02*
X15113039Y-10595889D01*
X15113039Y-10595889D02*
X15113039Y-10538746D01*
X15113039Y-10538746D02*
X15122563Y-10519698D01*
X15122563Y-10519698D02*
X15132087Y-10510174D01*
X15132087Y-10510174D02*
X15151134Y-10500650D01*
X15151134Y-10500650D02*
X15179706Y-10500650D01*
X15179706Y-10500650D02*
X15198753Y-10510174D01*
X15198753Y-10510174D02*
X15208277Y-10519698D01*
X15208277Y-10519698D02*
X15217801Y-10538746D01*
X15217801Y-10538746D02*
X15217801Y-10595889D01*
X15217801Y-10595889D02*
X15208277Y-10614936D01*
X15208277Y-10614936D02*
X15198753Y-10624460D01*
X15198753Y-10624460D02*
X15179706Y-10633984D01*
X15179706Y-10633984D02*
X15151134Y-10633984D01*
X15332087Y-10633984D02*
X15313039Y-10624460D01*
X15313039Y-10624460D02*
X15303515Y-10605412D01*
X15303515Y-10605412D02*
X15303515Y-10433984D01*
X15484468Y-10624460D02*
X15465420Y-10633984D01*
X15465420Y-10633984D02*
X15427325Y-10633984D01*
X15427325Y-10633984D02*
X15408277Y-10624460D01*
X15408277Y-10624460D02*
X15398753Y-10605412D01*
X15398753Y-10605412D02*
X15398753Y-10529222D01*
X15398753Y-10529222D02*
X15408277Y-10510174D01*
X15408277Y-10510174D02*
X15427325Y-10500650D01*
X15427325Y-10500650D02*
X15465420Y-10500650D01*
X15465420Y-10500650D02*
X15484468Y-10510174D01*
X15484468Y-10510174D02*
X15493991Y-10529222D01*
X15493991Y-10529222D02*
X15493991Y-10548270D01*
X15493991Y-10548270D02*
X15398753Y-10567317D01*
X15570182Y-10624460D02*
X15589230Y-10633984D01*
X15589230Y-10633984D02*
X15627325Y-10633984D01*
X15627325Y-10633984D02*
X15646372Y-10624460D01*
X15646372Y-10624460D02*
X15655896Y-10605412D01*
X15655896Y-10605412D02*
X15655896Y-10595889D01*
X15655896Y-10595889D02*
X15646372Y-10576841D01*
X15646372Y-10576841D02*
X15627325Y-10567317D01*
X15627325Y-10567317D02*
X15598753Y-10567317D01*
X15598753Y-10567317D02*
X15579706Y-10557793D01*
X15579706Y-10557793D02*
X15570182Y-10538746D01*
X15570182Y-10538746D02*
X15570182Y-10529222D01*
X15570182Y-10529222D02*
X15579706Y-10510174D01*
X15579706Y-10510174D02*
X15598753Y-10500650D01*
X15598753Y-10500650D02*
X15627325Y-10500650D01*
X15627325Y-10500650D02*
X15646372Y-10510174D01*
X15722563Y-10710174D02*
X15732087Y-10700650D01*
X15732087Y-10700650D02*
X15751134Y-10672079D01*
X15751134Y-10672079D02*
X15760658Y-10653031D01*
X15760658Y-10653031D02*
X15770182Y-10624460D01*
X15770182Y-10624460D02*
X15779706Y-10576841D01*
X15779706Y-10576841D02*
X15779706Y-10538746D01*
X15779706Y-10538746D02*
X15770182Y-10491127D01*
X15770182Y-10491127D02*
X15760658Y-10462555D01*
X15760658Y-10462555D02*
X15751134Y-10443508D01*
X15751134Y-10443508D02*
X15732087Y-10414936D01*
X15732087Y-10414936D02*
X15722563Y-10405412D01*
X16084468Y-10710174D02*
X16074944Y-10700650D01*
X16074944Y-10700650D02*
X16055896Y-10672079D01*
X16055896Y-10672079D02*
X16046372Y-10653031D01*
X16046372Y-10653031D02*
X16036849Y-10624460D01*
X16036849Y-10624460D02*
X16027325Y-10576841D01*
X16027325Y-10576841D02*
X16027325Y-10538746D01*
X16027325Y-10538746D02*
X16036849Y-10491127D01*
X16036849Y-10491127D02*
X16046372Y-10462555D01*
X16046372Y-10462555D02*
X16055896Y-10443508D01*
X16055896Y-10443508D02*
X16074944Y-10414936D01*
X16074944Y-10414936D02*
X16084468Y-10405412D01*
X16160658Y-10500650D02*
X16160658Y-10633984D01*
X16160658Y-10519698D02*
X16170182Y-10510174D01*
X16170182Y-10510174D02*
X16189230Y-10500650D01*
X16189230Y-10500650D02*
X16217801Y-10500650D01*
X16217801Y-10500650D02*
X16236849Y-10510174D01*
X16236849Y-10510174D02*
X16246372Y-10529222D01*
X16246372Y-10529222D02*
X16246372Y-10633984D01*
X16370182Y-10633984D02*
X16351134Y-10624460D01*
X16351134Y-10624460D02*
X16341611Y-10614936D01*
X16341611Y-10614936D02*
X16332087Y-10595889D01*
X16332087Y-10595889D02*
X16332087Y-10538746D01*
X16332087Y-10538746D02*
X16341611Y-10519698D01*
X16341611Y-10519698D02*
X16351134Y-10510174D01*
X16351134Y-10510174D02*
X16370182Y-10500650D01*
X16370182Y-10500650D02*
X16398753Y-10500650D01*
X16398753Y-10500650D02*
X16417801Y-10510174D01*
X16417801Y-10510174D02*
X16427325Y-10519698D01*
X16427325Y-10519698D02*
X16436849Y-10538746D01*
X16436849Y-10538746D02*
X16436849Y-10595889D01*
X16436849Y-10595889D02*
X16427325Y-10614936D01*
X16427325Y-10614936D02*
X16417801Y-10624460D01*
X16417801Y-10624460D02*
X16398753Y-10633984D01*
X16398753Y-10633984D02*
X16370182Y-10633984D01*
X16493992Y-10500650D02*
X16570182Y-10500650D01*
X16522563Y-10433984D02*
X16522563Y-10605412D01*
X16522563Y-10605412D02*
X16532087Y-10624460D01*
X16532087Y-10624460D02*
X16551134Y-10633984D01*
X16551134Y-10633984D02*
X16570182Y-10633984D01*
X16789230Y-10500650D02*
X16789230Y-10700650D01*
X16789230Y-10510174D02*
X16808277Y-10500650D01*
X16808277Y-10500650D02*
X16846373Y-10500650D01*
X16846373Y-10500650D02*
X16865420Y-10510174D01*
X16865420Y-10510174D02*
X16874944Y-10519698D01*
X16874944Y-10519698D02*
X16884468Y-10538746D01*
X16884468Y-10538746D02*
X16884468Y-10595889D01*
X16884468Y-10595889D02*
X16874944Y-10614936D01*
X16874944Y-10614936D02*
X16865420Y-10624460D01*
X16865420Y-10624460D02*
X16846373Y-10633984D01*
X16846373Y-10633984D02*
X16808277Y-10633984D01*
X16808277Y-10633984D02*
X16789230Y-10624460D01*
X16998754Y-10633984D02*
X16979706Y-10624460D01*
X16979706Y-10624460D02*
X16970182Y-10605412D01*
X16970182Y-10605412D02*
X16970182Y-10433984D01*
X17160658Y-10633984D02*
X17160658Y-10529222D01*
X17160658Y-10529222D02*
X17151135Y-10510174D01*
X17151135Y-10510174D02*
X17132087Y-10500650D01*
X17132087Y-10500650D02*
X17093992Y-10500650D01*
X17093992Y-10500650D02*
X17074944Y-10510174D01*
X17160658Y-10624460D02*
X17141611Y-10633984D01*
X17141611Y-10633984D02*
X17093992Y-10633984D01*
X17093992Y-10633984D02*
X17074944Y-10624460D01*
X17074944Y-10624460D02*
X17065420Y-10605412D01*
X17065420Y-10605412D02*
X17065420Y-10586365D01*
X17065420Y-10586365D02*
X17074944Y-10567317D01*
X17074944Y-10567317D02*
X17093992Y-10557793D01*
X17093992Y-10557793D02*
X17141611Y-10557793D01*
X17141611Y-10557793D02*
X17160658Y-10548270D01*
X17227325Y-10500650D02*
X17303515Y-10500650D01*
X17255896Y-10433984D02*
X17255896Y-10605412D01*
X17255896Y-10605412D02*
X17265420Y-10624460D01*
X17265420Y-10624460D02*
X17284468Y-10633984D01*
X17284468Y-10633984D02*
X17303515Y-10633984D01*
X17446373Y-10624460D02*
X17427325Y-10633984D01*
X17427325Y-10633984D02*
X17389230Y-10633984D01*
X17389230Y-10633984D02*
X17370182Y-10624460D01*
X17370182Y-10624460D02*
X17360658Y-10605412D01*
X17360658Y-10605412D02*
X17360658Y-10529222D01*
X17360658Y-10529222D02*
X17370182Y-10510174D01*
X17370182Y-10510174D02*
X17389230Y-10500650D01*
X17389230Y-10500650D02*
X17427325Y-10500650D01*
X17427325Y-10500650D02*
X17446373Y-10510174D01*
X17446373Y-10510174D02*
X17455896Y-10529222D01*
X17455896Y-10529222D02*
X17455896Y-10548270D01*
X17455896Y-10548270D02*
X17360658Y-10567317D01*
X17627325Y-10633984D02*
X17627325Y-10433984D01*
X17627325Y-10624460D02*
X17608277Y-10633984D01*
X17608277Y-10633984D02*
X17570182Y-10633984D01*
X17570182Y-10633984D02*
X17551135Y-10624460D01*
X17551135Y-10624460D02*
X17541611Y-10614936D01*
X17541611Y-10614936D02*
X17532087Y-10595889D01*
X17532087Y-10595889D02*
X17532087Y-10538746D01*
X17532087Y-10538746D02*
X17541611Y-10519698D01*
X17541611Y-10519698D02*
X17551135Y-10510174D01*
X17551135Y-10510174D02*
X17570182Y-10500650D01*
X17570182Y-10500650D02*
X17608277Y-10500650D01*
X17608277Y-10500650D02*
X17627325Y-10510174D01*
X17703516Y-10710174D02*
X17713039Y-10700650D01*
X17713039Y-10700650D02*
X17732087Y-10672079D01*
X17732087Y-10672079D02*
X17741611Y-10653031D01*
X17741611Y-10653031D02*
X17751135Y-10624460D01*
X17751135Y-10624460D02*
X17760658Y-10576841D01*
X17760658Y-10576841D02*
X17760658Y-10538746D01*
X17760658Y-10538746D02*
X17751135Y-10491127D01*
X17751135Y-10491127D02*
X17741611Y-10462555D01*
X17741611Y-10462555D02*
X17732087Y-10443508D01*
X17732087Y-10443508D02*
X17713039Y-10414936D01*
X17713039Y-10414936D02*
X17703516Y-10405412D01*
M02*
