G04 #@! TF.GenerationSoftware,KiCad,Pcbnew,7.0.5*
G04 #@! TF.CreationDate,2023-06-14T13:16:40+10:00*
G04 #@! TF.ProjectId,NUcr,4e556372-2e6b-4696-9361-645f70636258,rev?*
G04 #@! TF.SameCoordinates,Original*
G04 #@! TF.FileFunction,Soldermask,Bot*
G04 #@! TF.FilePolarity,Negative*
%FSLAX46Y46*%
G04 Gerber Fmt 4.6, Leading zero omitted, Abs format (unit mm)*
G04 Created by KiCad (PCBNEW 7.0.5) date 2023-06-14 13:16:40*
%MOMM*%
%LPD*%
G01*
G04 APERTURE LIST*
G04 Aperture macros list*
%AMRoundRect*
0 Rectangle with rounded corners*
0 $1 Rounding radius*
0 $2 $3 $4 $5 $6 $7 $8 $9 X,Y pos of 4 corners*
0 Add a 4 corners polygon primitive as box body*
4,1,4,$2,$3,$4,$5,$6,$7,$8,$9,$2,$3,0*
0 Add four circle primitives for the rounded corners*
1,1,$1+$1,$2,$3*
1,1,$1+$1,$4,$5*
1,1,$1+$1,$6,$7*
1,1,$1+$1,$8,$9*
0 Add four rect primitives between the rounded corners*
20,1,$1+$1,$2,$3,$4,$5,0*
20,1,$1+$1,$4,$5,$6,$7,0*
20,1,$1+$1,$6,$7,$8,$9,0*
20,1,$1+$1,$8,$9,$2,$3,0*%
G04 Aperture macros list end*
%ADD10RoundRect,0.250000X-0.600000X-0.675000X0.600000X-0.675000X0.600000X0.675000X-0.600000X0.675000X0*%
%ADD11O,1.700000X1.850000*%
%ADD12O,1.727200X1.727200*%
%ADD13R,1.727200X1.727200*%
%ADD14RoundRect,0.200000X-0.200000X-0.450000X0.200000X-0.450000X0.200000X0.450000X-0.200000X0.450000X0*%
%ADD15O,0.800000X1.300000*%
%ADD16RoundRect,0.250000X-0.350000X-0.625000X0.350000X-0.625000X0.350000X0.625000X-0.350000X0.625000X0*%
%ADD17O,1.200000X1.750000*%
%ADD18R,1.700000X1.700000*%
%ADD19O,1.700000X1.700000*%
G04 APERTURE END LIST*
D10*
X104140000Y-107950000D03*
D11*
X106640000Y-107950000D03*
X109140000Y-107950000D03*
X111640000Y-107950000D03*
D10*
X119380000Y-100330000D03*
D11*
X121880000Y-100330000D03*
X124380000Y-100330000D03*
X126880000Y-100330000D03*
D10*
X88900000Y-100330000D03*
D11*
X91400000Y-100330000D03*
X93900000Y-100330000D03*
X96400000Y-100330000D03*
D12*
X91440000Y-114300000D03*
X99060000Y-114300000D03*
X101600000Y-114300000D03*
X129667000Y-86360000D03*
X114300000Y-114300000D03*
X116840000Y-114300000D03*
X119380000Y-114300000D03*
X121920000Y-114300000D03*
X124460000Y-114300000D03*
X127000000Y-114300000D03*
X87376000Y-66040000D03*
X127000000Y-66040000D03*
X124460000Y-66040000D03*
X121920000Y-66040000D03*
X119380000Y-66040000D03*
X116840000Y-66040000D03*
X114300000Y-66040000D03*
X111760000Y-66040000D03*
X109220000Y-66040000D03*
X105156000Y-66040000D03*
X102616000Y-66040000D03*
X100076000Y-66040000D03*
X97536000Y-66040000D03*
X94996000Y-66040000D03*
X92456000Y-66040000D03*
D13*
X89916000Y-66040000D03*
X104140000Y-114300000D03*
X106680000Y-114300000D03*
X129667000Y-91440000D03*
D12*
X93980000Y-114300000D03*
X127127000Y-86360000D03*
X129667000Y-88900000D03*
X96520000Y-114300000D03*
X127127000Y-91440000D03*
X127127000Y-88900000D03*
X82296000Y-66040000D03*
X84836000Y-66040000D03*
X109220000Y-114300000D03*
D14*
X121285000Y-54610000D03*
D15*
X122535000Y-54610000D03*
X123785000Y-54610000D03*
X125035000Y-54610000D03*
X126285000Y-54610000D03*
X127535000Y-54610000D03*
X128785000Y-54610000D03*
X130035000Y-54610000D03*
X131285000Y-54610000D03*
D16*
X73565000Y-78105000D03*
D17*
X75565000Y-78105000D03*
D16*
X73565000Y-66675000D03*
D17*
X75565000Y-66675000D03*
D10*
X104140000Y-100330000D03*
D11*
X106640000Y-100330000D03*
X109140000Y-100330000D03*
X111640000Y-100330000D03*
D10*
X73660000Y-92710000D03*
D11*
X76160000Y-92710000D03*
X78660000Y-92710000D03*
X81160000Y-92710000D03*
D10*
X119380000Y-107950000D03*
D11*
X121880000Y-107950000D03*
X124380000Y-107950000D03*
X126880000Y-107950000D03*
D10*
X88900000Y-107950000D03*
D11*
X91400000Y-107950000D03*
X93900000Y-107950000D03*
X96400000Y-107950000D03*
D10*
X73660000Y-100330000D03*
D11*
X76160000Y-100330000D03*
X78660000Y-100330000D03*
X81160000Y-100330000D03*
D16*
X73565000Y-72390000D03*
D17*
X75565000Y-72390000D03*
D10*
X73660000Y-107950000D03*
D11*
X76160000Y-107950000D03*
X78660000Y-107950000D03*
X81160000Y-107950000D03*
D14*
X121285000Y-62230000D03*
D15*
X122535000Y-62230000D03*
X123785000Y-62230000D03*
X125035000Y-62230000D03*
X126285000Y-62230000D03*
X127535000Y-62230000D03*
X128785000Y-62230000D03*
X130035000Y-62230000D03*
D16*
X73565000Y-83820000D03*
D17*
X75565000Y-83820000D03*
D18*
X91980000Y-56290000D03*
D19*
X91980000Y-53750000D03*
X94520000Y-56290000D03*
X94520000Y-53750000D03*
X97060000Y-56290000D03*
X97060000Y-53750000D03*
X99600000Y-56290000D03*
X99600000Y-53750000D03*
X102140000Y-56290000D03*
X102140000Y-53750000D03*
X104680000Y-56290000D03*
X104680000Y-53750000D03*
X107220000Y-56290000D03*
X107220000Y-53750000D03*
X109760000Y-56290000D03*
X109760000Y-53750000D03*
X112300000Y-56290000D03*
X112300000Y-53750000D03*
X114840000Y-56290000D03*
X114840000Y-53750000D03*
D18*
X91440000Y-87630000D03*
D19*
X91440000Y-85090000D03*
X91440000Y-82550000D03*
D18*
X93980000Y-94803000D03*
D19*
X96520000Y-94803000D03*
X99060000Y-94803000D03*
X101600000Y-94803000D03*
M02*
