M48
; DRILL file {KiCad 7.0.5} date Wed Jun 14 13:19:09 2023
; FORMAT={-:-/ absolute / metric / decimal}
; #@! TF.CreationDate,2023-06-14T13:19:09+10:00
; #@! TF.GenerationSoftware,Kicad,Pcbnew,7.0.5
; #@! TF.FileFunction,Plated,1,2,PTH
FMAT,2
METRIC
; #@! TA.AperFunction,Plated,PTH,ComponentDrill
T1C0.500
; #@! TA.AperFunction,Plated,PTH,ViaDrill
T2C0.750
; #@! TA.AperFunction,Plated,PTH,ComponentDrill
T3C0.750
; #@! TA.AperFunction,Plated,PTH,ComponentDrill
T4C0.850
; #@! TA.AperFunction,Plated,PTH,ComponentDrill
T5C1.000
; #@! TA.AperFunction,Plated,PTH,ComponentDrill
T6C1.016
%
G90
G05
T1
X121.285Y-54.61
X121.285Y-62.23
X122.535Y-54.61
X122.535Y-62.23
X123.785Y-54.61
X123.785Y-62.23
X125.035Y-54.61
X125.035Y-62.23
X126.285Y-54.61
X126.285Y-62.23
X127.535Y-54.61
X127.535Y-62.23
X128.785Y-54.61
X128.785Y-62.23
X130.035Y-54.61
X130.035Y-62.23
X131.285Y-54.61
T2
X131.445Y-66.04
T3
X73.565Y-66.675
X73.565Y-72.39
X73.565Y-78.105
X73.565Y-83.82
X75.565Y-66.675
X75.565Y-72.39
X75.565Y-78.105
X75.565Y-83.82
T4
X73.66Y-92.71
X73.66Y-100.33
X73.66Y-107.95
X76.16Y-92.71
X76.16Y-100.33
X76.16Y-107.95
X78.66Y-92.71
X78.66Y-100.33
X78.66Y-107.95
X81.16Y-92.71
X81.16Y-100.33
X81.16Y-107.95
X88.9Y-100.33
X88.9Y-107.95
X91.4Y-100.33
X91.4Y-107.95
X93.9Y-100.33
X93.9Y-107.95
X96.4Y-100.33
X96.4Y-107.95
X104.14Y-100.33
X104.14Y-107.95
X106.64Y-100.33
X106.64Y-107.95
X109.14Y-100.33
X109.14Y-107.95
X111.64Y-100.33
X111.64Y-107.95
X119.38Y-100.33
X119.38Y-107.95
X121.88Y-100.33
X121.88Y-107.95
X124.38Y-100.33
X124.38Y-107.95
X126.88Y-100.33
X126.88Y-107.95
T5
X91.44Y-82.55
X91.44Y-85.09
X91.44Y-87.63
X91.98Y-53.75
X91.98Y-56.29
X93.98Y-94.803
X94.52Y-53.75
X94.52Y-56.29
X96.52Y-94.803
X97.06Y-53.75
X97.06Y-56.29
X99.06Y-94.803
X99.6Y-53.75
X99.6Y-56.29
X101.6Y-94.803
X102.14Y-53.75
X102.14Y-56.29
X104.68Y-53.75
X104.68Y-56.29
X107.22Y-53.75
X107.22Y-56.29
X109.76Y-53.75
X109.76Y-56.29
X112.3Y-53.75
X112.3Y-56.29
X114.84Y-53.75
X114.84Y-56.29
T6
X82.296Y-66.04
X84.836Y-66.04
X87.376Y-66.04
X89.916Y-66.04
X91.44Y-114.3
X92.456Y-66.04
X93.98Y-114.3
X94.996Y-66.04
X96.52Y-114.3
X97.536Y-66.04
X99.06Y-114.3
X100.076Y-66.04
X101.6Y-114.3
X102.616Y-66.04
X104.14Y-114.3
X105.156Y-66.04
X106.68Y-114.3
X109.22Y-66.04
X109.22Y-114.3
X111.76Y-66.04
X114.3Y-66.04
X114.3Y-114.3
X116.84Y-66.04
X116.84Y-114.3
X119.38Y-66.04
X119.38Y-114.3
X121.92Y-66.04
X121.92Y-114.3
X124.46Y-66.04
X124.46Y-114.3
X127.0Y-66.04
X127.0Y-114.3
X127.127Y-86.36
X127.127Y-88.9
X127.127Y-91.44
X129.667Y-86.36
X129.667Y-88.9
X129.667Y-91.44
T0
M30
